<?xml version="1.0" encoding="utf-8"?>
<!-- Generator: Adobe Illustrator 24.1.0, SVG Export Plug-In . SVG Version: 6.00 Build 0)  -->
<svg version="1.1" id="Layer_1" xmlns="http://www.w3.org/2000/svg" xmlns:xlink="http://www.w3.org/1999/xlink" x="0px" y="0px"
	 viewBox="0 0 54 54" style="enable-background:new 0 0 54 54;" xml:space="preserve">
<style type="text/css">
	.st0{fill:#f28334;}
</style>
<g id="Student-UI">
	<g id="zoom-out-white">
		<path id="Shape" class="st0" d="M29,23.5h-3.6h-1.9h-3.6c-0.5,0-0.9,0.4-0.9,0.9s0.4,0.9,0.9,0.9h3.6h1.9H29
			c0.5,0,0.9-0.4,0.9-0.9S29.5,23.5,29,23.5z M25.4,29v-3.6v-1.9v-3.6c0-0.5-0.4-0.9-0.9-0.9c-0.5,0-0.9,0.4-0.9,0.9v3.6v1.9V29
			c0,0.5,0.4,0.9,0.9,0.9C25,30,25.4,29.5,25.4,29z M38.7,37.4L32,30.6c3.1-3.8,2.9-9.3-0.6-12.8c-3.7-3.7-9.8-3.7-13.5,0
			s-3.7,9.8,0,13.5c3.5,3.5,9.1,3.7,12.8,0.6l6.8,6.8c0.4,0.4,1,0.4,1.3,0C39.1,38.4,39.1,37.8,38.7,37.4z M30,30c-3,3-7.9,3-10.9,0
			c-3-3-3-7.9,0-10.9c3-3,7.9-3,10.9,0C33,22.1,33,27,30,30z"/>
	</g>
</g>
</svg>
