<svg width="69" height="85" viewBox="-10 -10 89 105" xmlns="http://www.w3.org/2000/svg" xmlns:xlink="http://www.w3.org/1999/xlink">
    <defs>
        <path d="M34.5.368a.5.5 0 0 1 .445.272L68.695 67c.036.07.055.147.055.225 0 9.595-15.365 17.39-34.25 17.39C15.615 84.615.25 76.82.25 67.24c0-.078.02-.155.055-.225L34.055.64A.5.5 0 0 1 34.5.368zm0 1.597L1.25 67.355c.13 8.975 15 16.26 33.25 16.26s33.12-7.285 33.25-16.26L34.5 1.965z" id="a"/>
        <path d="M66.686 15.542c.053.039.09.098.099.163.091.505.138 1.017.14 1.53a.255.255 0 0 1-.235.265.25.25 0 0 1-.25-.25c0-.485-.044-.968-.13-1.445a.25.25 0 0 1 .19-.305.245.245 0 0 1 .186.042zM.72 14.63a.244.244 0 0 1 .17.31 8.362 8.362 0 0 0-.28 1.425.25.25 0 0 1-.245.21h-.03a.25.25 0 0 1-.22-.275 9.373 9.373 0 0 1 .295-1.5.25.25 0 0 1 .31-.17zm64.917-1.909c.064.02.117.065.148.124.243.45.45.918.62 1.4a.24.24 0 0 1-.235.33.246.246 0 0 1-.235-.165 10.358 10.358 0 0 0-.59-1.33.25.25 0 0 1 .1-.34.252.252 0 0 1 .192-.019zm-63.602-.796a.244.244 0 0 1 .075.345c-.262.411-.497.839-.705 1.28a.26.26 0 0 1-.23.16l-.005.02a.208.208 0 0 1-.105 0 .246.246 0 0 1-.12-.33c.217-.483.466-.951.745-1.4a.25.25 0 0 1 .345-.075zm61.985-1.57c.337.38.654.777.95 1.19a.25.25 0 0 1-.205.395.24.24 0 0 1-.2-.105 14.32 14.32 0 0 0-.92-1.15.25.25 0 0 1 .03-.344.249.249 0 0 1 .345.014zm-60.07-.68a.251.251 0 0 1 0 .355c-.36.36-.69.725-1 1.09a.255.255 0 0 1-.165.07l-.02.02a.24.24 0 0 1-.16-.055.25.25 0 0 1-.035-.35 15.05 15.05 0 0 1 1.025-1.13.251.251 0 0 1 .355 0zm57.835-1.39c.405.32.79.655 1.15 1a.25.25 0 0 1 0 .355.265.265 0 0 1-.145.04l-.025.03a.241.241 0 0 1-.17-.07c-.35-.325-.73-.65-1.12-.965a.245.245 0 0 1-.04-.35.25.25 0 0 1 .35-.04zm-55.51-.54a.25.25 0 0 1-.05.35c-.41.3-.805.605-1.165.915a.25.25 0 0 1-.325-.38c.375-.32.775-.635 1.19-.94a.255.255 0 0 1 .35.055zm53.05-1.22c.435.265.865.545 1.27.825a.251.251 0 0 1-.145.455c-.05 0-.1-.015-.14-.045-.4-.275-.815-.55-1.245-.81a.25.25 0 0 1-.001-.446.25.25 0 0 1 .261.021zm-50.51-.37a.26.26 0 0 1-.095.345c-.435.245-.865.5-1.275.765a.254.254 0 0 1-.135.03v.01a.25.25 0 0 1-.135-.46c.42-.27.855-.53 1.3-.78a.25.25 0 0 1 .34.09zm47.85-1.065c.455.22.91.45 1.35.69a.247.247 0 0 1 .1.335.255.255 0 0 1-.22.125v.01a.264.264 0 0 1-.12-.03c-.43-.235-.88-.465-1.325-.68a.25.25 0 0 1-.115-.335.248.248 0 0 1 .14-.127.248.248 0 0 1 .19.012zm-45.237-.375a.25.25 0 0 1-.053.44c-.46.21-.91.42-1.345.64a.231.231 0 0 1-.11.02v.01a.25.25 0 0 1-.115-.475c.435-.22.895-.44 1.365-.65a.252.252 0 0 1 .258.015zm42.467-.805c.5.185.945.375 1.4.57a.255.255 0 0 1-.1.5v-.04a.211.211 0 0 1-.1 0c-.45-.195-.91-.38-1.38-.565a.25.25 0 0 1-.145-.32.247.247 0 0 1 .132-.14.248.248 0 0 1 .193-.005zm-39.674-.32a.25.25 0 0 1-.081.43c-.5.175-.94.35-1.395.535a.283.283 0 0 1-.09.025v.01a.254.254 0 1 1-.095-.5c.46-.187.93-.367 1.41-.54a.25.25 0 0 1 .25.04zm36.824-.68c.5.15.965.305 1.435.47.13.047.199.189.155.32a.26.26 0 0 1-.24.145v.01h-.08c-.465-.165-.935-.32-1.42-.47a.25.25 0 0 1-.043-.46.245.245 0 0 1 .193-.015zm-33.934-.221a.26.26 0 0 1-.111.436c-.5.14-.96.285-1.425.44l-.075-.01a.245.245 0 0 1-.24-.175.25.25 0 0 1 .16-.315c.475-.15.955-.3 1.44-.44.09-.025.185 0 .252.064zm31.054-.599c.5.12 1 .25 1.46.38a.25.25 0 0 1 .17.31.245.245 0 0 1-.265.175h-.04c-.5-.135-.955-.26-1.445-.38a.25.25 0 0 1-.185-.3.255.255 0 0 1 .305-.185zm-28.192-.192a.245.245 0 0 1 .107.157.244.244 0 0 1-.185.295c-.5.115-.975.23-1.455.355l-.06.015a.252.252 0 1 1-.06-.5c.5-.125.97-.245 1.465-.355a.243.243 0 0 1 .188.033zm25.247-.463c.5.095 1 .195 1.5.3a.251.251 0 0 1-.05.5l-.025-.015h-.055c-.5-.105-.97-.2-1.465-.295a.25.25 0 0 1-.2-.29.254.254 0 0 1 .295-.2zm-22.28-.126a.24.24 0 0 1 .1.161.245.245 0 0 1-.205.29c-.5.085-1 .175-1.465.27l-.065.005a.25.25 0 0 1-.245-.2.255.255 0 0 1 .195-.295c.49-.093.99-.183 1.5-.27a.24.24 0 0 1 .186.039zM42.225.95l1.5.22a.255.255 0 0 1 .205.29.25.25 0 0 1-.26.23l.025-.02h-.04l-1.5-.22a.252.252 0 1 1 .07-.5zm-16.22.105a.252.252 0 0 1-.22.28c-.5.06-1 .125-1.5.2l-.02-.005a.255.255 0 0 1-.25-.215.25.25 0 0 1 .21-.28c.5-.075 1-.14 1.5-.2a.252.252 0 0 1 .28.22zM39.265.62c.5.045 1 .095 1.5.15a.25.25 0 0 1 .22.275.255.255 0 0 1-.29.24l.025-.02c-.5-.055-1-.105-1.5-.145a.25.25 0 0 1-.225-.27.255.255 0 0 1 .27-.23zM28.7.545a.25.25 0 1 1 .035.5c-.5.035-1 .08-1.5.125l-.015.005a.25.25 0 0 1-.245-.23.246.246 0 0 1 .225-.27c.5-.05 1-.09 1.5-.13zM36.24.43c.5 0 1 .045 1.5.08a.25.25 0 0 1 0 .5l-.02-.005c-.5-.03-1-.055-1.5-.075a.25.25 0 1 1 .02-.5zM31.705.4a.25.25 0 0 1 0 .5c-.333 0-.667.013-1 .03l-.489.024-.06-.007A.25.25 0 0 1 29.97.72a.255.255 0 0 1 .235-.265c.5 0 1-.04 1.5-.055zm3.01-.015a.26.26 0 0 1 .245.255.256.256 0 0 1-.25.265l.01-.02h-1.495a.25.25 0 0 1 0-.5h1.49z" id="c"/>
    </defs>
    <g fill="none" fill-rule="evenodd">
        <g>
            <mask id="b" fill="#fff">
                <use xlink:href="#a"/>
            </mask>
            <path fill="#000" mask="url(#b)" d="M-4.75-4.632h78.5v94.247h-78.5z"/>
        </g>
        <g transform="translate(1 50)">
            <mask id="d" fill="#fff">
                <use xlink:href="#c"/>
            </mask>
            <path fill="#000" mask="url(#d)" d="M-4.886-4.615h76.811V22.5H-4.886z"/>
        </g>
    </g>
</svg>
