<svg width="71" height="83" viewBox="-10 -10 91 103" xmlns="http://www.w3.org/2000/svg" xmlns:xlink="http://www.w3.org/1999/xlink">
    <defs>
        <path d="m35.74.625 34.21 20.71a.5.5 0 0 1 0 .855L35.76 42.9a.502.502 0 0 1-.26.1.507.507 0 0 1-.26-.075L1.03 22.19a.5.5 0 0 1 0-.855L35.24.625a.502.502 0 0 1 .5 0zm-.24 1.01L2.255 21.76 35.5 41.89l33.245-20.13L35.5 1.635z" id="a"/>
        <path d="M69.71.825a.5.5 0 0 1 .5.5V40.7a.5.5 0 0 1-.245.43l-34.31 20.25a.498.498 0 0 1-.51 0L1.035 41.13a.5.5 0 0 1-.245-.43V1.325a.5.5 0 0 1 1 0v39.09L35.4 60.37l33.81-19.955V1.325a.5.5 0 0 1 .5-.5z" id="c"/>
        <path d="M1.4.075a.5.5 0 0 1 .5.5V39.95a.5.5 0 0 1-1 0V.575a.5.5 0 0 1 .5-.5z" id="e"/>
        <path d="M.4 39.7a.25.25 0 0 1 .25.25v1.5a.255.255 0 0 1-.25.25.25.25 0 0 1-.25-.25v-1.5a.25.25 0 0 1 .25-.25zm0-3a.25.25 0 0 1 .25.25v1.5a.255.255 0 0 1-.25.25.25.25 0 0 1-.25-.25v-1.5a.25.25 0 0 1 .25-.25zm0-3a.25.25 0 0 1 .25.25v1.5a.255.255 0 0 1-.25.25.25.25 0 0 1-.25-.25v-1.5a.25.25 0 0 1 .25-.25zm0-3a.25.25 0 0 1 .25.25v1.5a.255.255 0 0 1-.25.25.25.25 0 0 1-.25-.25v-1.5a.25.25 0 0 1 .25-.25zm0-3a.25.25 0 0 1 .25.25v1.5a.255.255 0 0 1-.25.25.25.25 0 0 1-.25-.25v-1.5a.25.25 0 0 1 .25-.25zm0-3a.25.25 0 0 1 .25.25v1.5a.255.255 0 0 1-.25.25.25.25 0 0 1-.25-.25v-1.5a.25.25 0 0 1 .25-.25zm0-3a.25.25 0 0 1 .25.25v1.5a.255.255 0 0 1-.25.25.25.25 0 0 1-.25-.25v-1.5a.25.25 0 0 1 .25-.25zm0-3a.25.25 0 0 1 .25.25v1.5a.255.255 0 0 1-.25.25.25.25 0 0 1-.25-.25v-1.5a.25.25 0 0 1 .25-.25zm0-3a.25.25 0 0 1 .25.25v1.5a.255.255 0 0 1-.25.25.25.25 0 0 1-.25-.25v-1.5a.25.25 0 0 1 .25-.25zm0-3a.25.25 0 0 1 .25.25v1.5a.255.255 0 0 1-.25.25.25.25 0 0 1-.25-.25v-1.5a.25.25 0 0 1 .25-.25zm0-3a.25.25 0 0 1 .25.25v1.5a.255.255 0 0 1-.25.25.25.25 0 0 1-.25-.25v-1.5A.25.25 0 0 1 .4 9.7zm0-3a.25.25 0 0 1 .25.25v1.5a.255.255 0 0 1-.25.25.25.25 0 0 1-.25-.25v-1.5A.25.25 0 0 1 .4 6.7zm0-3a.25.25 0 0 1 .25.25v1.5a.255.255 0 0 1-.25.25.25.25 0 0 1-.25-.25v-1.5A.25.25 0 0 1 .4 3.7zm0-3a.25.25 0 0 1 .25.25v1.5a.255.255 0 0 1-.25.25.25.25 0 0 1-.25-.25V.95A.25.25 0 0 1 .4.7z" id="g"/>
        <path d="m32.99 19.715 1.285.77a.255.255 0 0 1 .09.345.258.258 0 0 1-.215.12.238.238 0 0 1-.13-.035l-1.285-.775a.25.25 0 0 1 .255-.425zm-2.57-1.545 1.285.77a.25.25 0 0 1-.13.465.258.258 0 0 1-.13-.035l-1.285-.77a.255.255 0 0 1-.085-.345.25.25 0 0 1 .345-.085zm-2.58-1.545 1.285.775a.245.245 0 0 1-.125.46.238.238 0 0 1-.13-.035l-1.285-.77a.244.244 0 0 1-.085-.345.25.25 0 0 1 .34-.085zm-2.58-1.55 1.285.77a.25.25 0 0 1-.13.465l.01.01a.258.258 0 0 1-.13-.035L25 15.5a.25.25 0 0 1-.085-.34.247.247 0 0 1 .154-.117.247.247 0 0 1 .191.032zm-2.565-1.535 1.285.77a.255.255 0 0 1 .09.345.26.26 0 0 1-.21.12h-.005a.238.238 0 0 1-.13-.035l-1.285-.77a.25.25 0 0 1-.085-.345.24.24 0 0 1 .34-.085zm-2.57-1.545 1.285.775a.25.25 0 0 1-.13.46.221.221 0 0 1-.125-.035l-1.29-.77a.251.251 0 0 1 .26-.43zM17.55 10.45l1.285.775a.25.25 0 0 1-.12.465h-.005a.283.283 0 0 1-.13-.035l-1.285-.775a.239.239 0 0 1-.085-.34.244.244 0 0 1 .34-.09zm-2.57-1.54 1.285.77a.25.25 0 0 1 .085.345.254.254 0 0 1-.21.12h-.005a.221.221 0 0 1-.125-.035l-1.29-.775a.25.25 0 0 1-.085-.34.247.247 0 0 1 .154-.117.247.247 0 0 1 .191.032zm-2.575-1.545 1.285.77a.255.255 0 0 1 .09.345.25.25 0 0 1-.21.12h-.005a.238.238 0 0 1-.13-.035l-1.285-.77a.244.244 0 0 1-.085-.345.25.25 0 0 1 .34-.085zM9.845 5.82l1.285.775a.25.25 0 0 1-.13.465.232.232 0 0 1-.125-.04l-1.29-.77a.251.251 0 0 1 .26-.43zm-2.59-1.54 1.285.77a.255.255 0 0 1 .09.345.26.26 0 0 1-.205.105.238.238 0 0 1-.13-.035L7 4.705a.25.25 0 1 1 .255-.425zm-2.56-1.56L6 3.5a.25.25 0 0 1 .085.345.255.255 0 0 1-.235.125v-.015a.221.221 0 0 1-.125-.035l-1.29-.77a.25.25 0 0 1 .009-.435.253.253 0 0 1 .251.005zM2.12 1.175l1.29.775a.25.25 0 0 1-.13.46.238.238 0 0 1-.13-.035l-1.285-.77a.244.244 0 0 1-.085-.345.25.25 0 0 1 .34-.085zM.525.22l.31.185a.25.25 0 0 1-.13.465A.221.221 0 0 1 .58.835L.27.65A.25.25 0 0 1 .525.22z" id="i"/>
        <path d="M2.14 18.83a.245.245 0 0 1-.09.34l-1.295.76a.237.237 0 0 1-.105.02.25.25 0 0 1-.15-.45l1.295-.76a.255.255 0 0 1 .345.09zm2.584-1.503a.25.25 0 0 1-.069.328l-1.295.76a.223.223 0 0 1-.125.015v.02a.25.25 0 0 1-.125-.465l1.295-.76a.25.25 0 0 1 .32.102zm2.616-1.552a.255.255 0 0 1-.085.345l-1.295.76a.287.287 0 0 1-.135.03v.04a.243.243 0 0 1-.215-.12.25.25 0 0 1 .085-.345l1.305-.8a.25.25 0 0 1 .34.09zm2.58-1.465a.255.255 0 0 1-.09.345l-1.295.76a.28.28 0 0 1-.125-.02v.055a.25.25 0 0 1-.215-.125.255.255 0 0 1 .09-.345l1.29-.755a.255.255 0 0 1 .345.085zm2.434-1.612a.244.244 0 0 1 .151.117.25.25 0 0 1-.085.34l-1.295.76a.233.233 0 0 1-.125-.04v.075a.255.255 0 0 1-.22-.125.245.245 0 0 1 .09-.34l1.295-.76a.246.246 0 0 1 .189-.027zm2.741-1.383c.07.12.03.275-.09.345l-1.295.755a.22.22 0 0 1-.125-.06v.095a.25.25 0 0 1-.125-.465l1.29-.76c.12-.07.275-.03.345.09zm2.588-1.497a.25.25 0 0 1-.093.342l-1.29.76a.287.287 0 0 1-.13-.085v.115a.249.249 0 0 1-.215-.12.255.255 0 0 1 .09-.345l1.295-.76a.25.25 0 0 1 .343.093zm2.587-1.503a.25.25 0 0 1-.09.34l-1.295.76a.233.233 0 0 1-.125-.095v.13a.25.25 0 0 1-.125-.465l1.29-.76a.255.255 0 0 1 .345.09zm2.564-1.488a.25.25 0 0 1-.069.328l-1.265.61a.241.241 0 0 1-.155.035v.15a.25.25 0 0 1-.125-.465l1.295-.76a.25.25 0 0 1 .32.102zm2.611-1.512c.07.12.03.275-.09.345l-1.295.755a.235.235 0 0 1-.125-.135v.17a.25.25 0 0 1-.13-.465l1.295-.76c.12-.07.275-.03.345.09zm2.509-1.609a.251.251 0 0 1-.014.449l-1.295.76a.261.261 0 0 1-.145-.15l.02.185a.25.25 0 0 1-.215-.125.255.255 0 0 1 .09-.345l1.295-.755a.252.252 0 0 1 .264-.019zm2.51-1.508a.244.244 0 0 1 .151.117.25.25 0 0 1-.085.34l-1.295.76a.236.236 0 0 1-.125-.17v.205a.26.26 0 0 1-.22-.125.25.25 0 0 1 .09-.34l1.295-.76a.246.246 0 0 1 .189-.027zM33.205.815a.245.245 0 0 1-.09.34l-1.295.76a.225.225 0 0 1-.125-.19v.225a.25.25 0 0 1-.125-.465l1.29-.76a.255.255 0 0 1 .345.09z" id="k"/>
    </defs>
    <g fill="none" fill-rule="evenodd">
        <g>
            <mask id="b" fill="#fff">
                <use xlink:href="#a"/>
            </mask>
            <path fill="#000" mask="url(#b)" d="M-4.21-4.442h79.4V48h-79.4z"/>
        </g>
        <g transform="translate(0 21)">
            <mask id="d" fill="#fff">
                <use xlink:href="#c"/>
            </mask>
            <path fill="#000" mask="url(#d)" d="M-4.21-4.175h79.42V66.45H-4.21z"/>
        </g>
        <g transform="translate(34 42)">
            <mask id="f" fill="#fff">
                <use xlink:href="#e"/>
            </mask>
            <path fill="#000" mask="url(#f)" d="M-4.1-4.925h11V45.45h-11z"/>
        </g>
        <g transform="translate(35)">
            <mask id="h" fill="#fff">
                <use xlink:href="#g"/>
            </mask>
            <path fill="#000" mask="url(#h)" d="M-4.85-4.3h10.5v51h-10.5z"/>
        </g>
        <g transform="translate(35 41)">
            <mask id="j" fill="#fff">
                <use xlink:href="#i"/>
            </mask>
            <path fill="#000" mask="url(#j)" d="M-4.849-4.813H39.4V25.95H-4.85z"/>
        </g>
        <g transform="translate(1 42)">
            <mask id="l" fill="#fff">
                <use xlink:href="#k"/>
            </mask>
            <path fill="#000" mask="url(#l)" d="M-4.6-4.309h42.84V24.95H-4.6z"/>
        </g>
    </g>
</svg>
