<svg width="79" height="77" viewBox="-10 -10 99 97" xmlns="http://www.w3.org/2000/svg" xmlns:xlink="http://www.w3.org/1999/xlink">
    <defs>
        <path d="M26.595.765a.45.45 0 0 1 .225.39V30.5a.46.46 0 0 1-.22.39L1.29 46.075a.453.453 0 0 1-.235.085.455.455 0 0 1-.45-.45V15.335c0-.163.088-.314.23-.395L26.15.765a.458.458 0 0 1 .445 0zm-.675 1.16L1.505 15.6v29.315l24.415-14.65V1.925z" id="a"/>
        <path d="M27.465.895 78.09 30.26a.448.448 0 1 1-.455.775L27.23 1.805 1.84 15.5l50.93 28.96a.45.45 0 0 1-.22.845v-.025a.437.437 0 0 1-.22-.06L.69 15.855a.441.441 0 0 1-.225-.395.435.435 0 0 1 .235-.39L27.025.895a.458.458 0 0 1 .44 0z" id="c"/>
        <path d="M.915.015a.45.45 0 0 1 .45.45V30.58L52.77 59.81a.45.45 0 1 1-.44.785L.69 31.23a.45.45 0 0 1-.225-.39V.465a.45.45 0 0 1 .45-.45z" id="e"/>
        <path d="M1.62 43.421a.218.218 0 0 1 .135.104.225.225 0 0 1-.075.31l-1.18.69a.192.192 0 0 1-.095.035.22.22 0 0 1-.19-.11.225.225 0 0 1 .075-.31l1.16-.695a.219.219 0 0 1 .17-.024zM4 42.044a.224.224 0 0 1-.005.401l-1.155.695a.264.264 0 0 1-.12.03.225.225 0 0 1-.115-.415l1.16-.695A.224.224 0 0 1 4 42.044zm2.252-1.399a.225.225 0 0 1 .138.105.215.215 0 0 1-.08.305l-1.155.695a.196.196 0 0 1-.115.035.225.225 0 0 1-.115-.42l1.155-.695a.225.225 0 0 1 .172-.025zm2.453-1.285a.226.226 0 0 1-.075.31l-1.16.695a.231.231 0 0 1-.31-.08.226.226 0 0 1 .08-.31l1.155-.69a.226.226 0 0 1 .31.075zm2.315-1.395a.226.226 0 0 1-.075.31L9.785 39a.224.224 0 0 1-.115 0 .223.223 0 0 1-.22-.279.219.219 0 0 1 .105-.136l1.155-.695a.226.226 0 0 1 .31.075zm2.18-1.489a.218.218 0 0 1 .135.104.225.225 0 0 1-.075.31l-1.16.69a.202.202 0 0 1-.1.04.22.22 0 0 1-.19-.11.225.225 0 0 1 .075-.31l1.145-.7a.219.219 0 0 1 .17-.024zm2.328-1.383a.223.223 0 0 1 .137.102.225.225 0 0 1-.075.31l-1.16.695a.224.224 0 0 1-.085.029l-.032.001-.055-.009a.225.225 0 0 1-.058-.406l1.16-.695a.22.22 0 0 1 .168-.027zm2.319-1.388a.225.225 0 0 1 .138.105.22.22 0 0 1-.08.305l-1.155.695a.276.276 0 0 1-.088.031l-.037.003-.052-.007a.22.22 0 0 1-.133-.102.225.225 0 0 1 .075-.31l1.16-.695a.225.225 0 0 1 .172-.025zm2.463-1.285a.226.226 0 0 1-.08.31l-1.155.695a.225.225 0 0 1-.091.03h-.034a.226.226 0 0 1-.115-.42L20 32.34a.23.23 0 0 1 .31.08zm2.305-1.39a.226.226 0 0 1-.075.31l-1.16.695a.224.224 0 0 1-.085.029l-.032.001-.056-.008a.236.236 0 0 1-.137-.102.215.215 0 0 1 .08-.305l1.155-.695a.226.226 0 0 1 .31.075zm2.177-1.49a.225.225 0 0 1 .138.105.22.22 0 0 1-.075.305l-1.16.695a.192.192 0 0 1-.084.034l-.033.001-.056-.008a.236.236 0 0 1-.137-.102.23.23 0 0 1 .08-.31l1.155-.695a.225.225 0 0 1 .172-.025zm1.448-1.855c.124 0 .225.101.225.225v.95a.214.214 0 0 1-.11.19l-.345.21a.224.224 0 0 1-.085.029l-.032.001-.055-.009a.225.225 0 0 1-.058-.406l.235-.145v-.82c0-.124.1-.225.225-.225zm0-2.695c.124 0 .225.101.225.225v1.35a.224.224 0 0 1-.24.22l.015.005a.225.225 0 0 1-.225-.225v-1.35c0-.124.1-.225.225-.225zm0-2.715c.124 0 .225.101.225.225v1.35a.225.225 0 0 1-.24.235l.015.005a.225.225 0 0 1-.225-.225V22.5c0-.124.1-.225.225-.225zm0-2.685c.124 0 .225.101.225.225v1.35a.224.224 0 0 1-.24.22l.015.005a.225.225 0 0 1-.225-.225v-1.35c0-.124.1-.225.225-.225zm0-2.7c.124 0 .225.101.225.225v1.35a.224.224 0 0 1-.24.22l.015.005a.225.225 0 0 1-.225-.225v-1.35c0-.124.1-.225.225-.225zm0-2.7c.124 0 .225.101.225.225v1.35a.225.225 0 0 1-.24.235l.015-.01a.225.225 0 0 1-.225-.225v-1.35c0-.124.1-.225.225-.225zm0-2.7c.124 0 .225.101.225.225v1.35a.224.224 0 0 1-.24.22l.015.005a.225.225 0 0 1-.225-.225v-1.35c0-.124.1-.225.225-.225zm0-2.715c.124 0 .225.101.225.225v1.35a.225.225 0 0 1-.24.235l.015.005a.225.225 0 0 1-.225-.225V9c0-.124.1-.225.225-.225zm0-2.685c.124 0 .225.101.225.225v1.35a.224.224 0 0 1-.24.22l.015.005a.225.225 0 0 1-.225-.225v-1.35c0-.124.1-.225.225-.225zm0-2.7c.124 0 .225.101.225.225v1.35a.224.224 0 0 1-.24.22l.015.005a.225.225 0 0 1-.225-.225v-1.35c0-.124.1-.225.225-.225zm0-2.7c.124 0 .225.101.225.225v1.35a.225.225 0 0 1-.24.235l.015-.01a.225.225 0 0 1-.225-.225V.915c0-.124.1-.225.225-.225z" id="g"/>
        <path d="m24.325 14.615 1.16.695a.22.22 0 0 1 .075.305.21.21 0 0 1-.305.1L24.095 15a.225.225 0 0 1-.075-.31.22.22 0 0 1 .305-.075zm-2.315-1.37 1.16.695a.225.225 0 0 1 .075.31.22.22 0 0 1-.19.11.197.197 0 0 1-.115-.035l-1.16-.695a.225.225 0 0 1-.075-.31.22.22 0 0 1 .305-.075zm-2.315-1.39 1.16.695a.225.225 0 0 1 .075.31.22.22 0 0 1-.19.11.197.197 0 0 1-.115-.035l-1.16-.695a.22.22 0 0 1-.075-.305.217.217 0 0 1 .135-.107.216.216 0 0 1 .17.027zm-2.315-1.39 1.16.695a.225.225 0 0 1 .075.31.22.22 0 0 1-.19.11.197.197 0 0 1-.115-.035l-1.16-.69a.224.224 0 0 1-.111-.197.225.225 0 0 1 .341-.193zM15.065 9.08l1.16.69a.225.225 0 0 1 .075.31.22.22 0 0 1-.19.11.263.263 0 0 1-.12-.03l-1.155-.695a.235.235 0 0 1-.08-.31.225.225 0 0 1 .31-.075zM12.73 7.69l1.16.695a.224.224 0 0 1 .096.25.223.223 0 0 1-.154.156l-.048.008-.05-.007a.277.277 0 0 1-.059-.022L12.5 8.075a.235.235 0 0 1-.08-.31.225.225 0 0 1 .31-.075zM10.46 6.3l1.16.695a.225.225 0 0 1 .075.31.218.218 0 0 1-.195.105.259.259 0 0 1-.115-.03l-1.155-.695a.224.224 0 0 1-.005-.401.224.224 0 0 1 .235.016zM8.145 4.91l1.16.695a.225.225 0 0 1 .075.31.22.22 0 0 1-.22.11h.025a.213.213 0 0 1-.115-.035l-1.155-.695a.224.224 0 0 1-.005-.401.224.224 0 0 1 .235.016zM5.83 3.52l1.155.695a.225.225 0 0 1 .08.31.231.231 0 0 1-.155.107l-.047.002-.033-.003a.204.204 0 0 1-.075-.031L5.6 3.905a.217.217 0 0 1-.107-.135.216.216 0 0 1 .027-.17.23.23 0 0 1 .31-.08zM3.49 2.11l1.155.695a.225.225 0 0 1 .08.31.228.228 0 0 1-.134.119l-.054.01-.022-.003a.204.204 0 0 1-.075-.031L3.26 2.5a.225.225 0 0 1-.08-.31.235.235 0 0 1 .31-.08zM1.2.745l1.155.69a.225.225 0 0 1 .08.31.231.231 0 0 1-.155.107l-.045.002-.054-.007a.226.226 0 0 1-.056-.022L.97 1.13a.225.225 0 0 1 .059-.412.227.227 0 0 1 .171.027z" id="i"/>
    </defs>
    <g fill="none" fill-rule="evenodd">
        <g transform="translate(52 30)">
            <mask id="b" fill="#fff">
                <use xlink:href="#a"/>
            </mask>
            <path fill="#000" mask="url(#b)" d="M-4.395-4.293H31.82V51.16H-4.395z"/>
        </g>
        <g>
            <mask id="d" fill="#fff">
                <use xlink:href="#c"/>
            </mask>
            <path fill="#000" mask="url(#d)" d="M-4.535-4.161h87.868v54.466H-4.535z"/>
        </g>
        <g transform="translate(0 15)">
            <mask id="f" fill="#fff">
                <use xlink:href="#e"/>
            </mask>
            <path fill="#000" mask="url(#f)" d="M-4.535-4.985h62.54v70.64h-62.54z"/>
        </g>
        <g transform="translate(0 1)">
            <mask id="h" fill="#fff">
                <use xlink:href="#g"/>
            </mask>
            <path fill="#000" mask="url(#h)" d="M-4.818-4.31h36.283v53.87H-4.818z"/>
        </g>
        <g transform="translate(53 45)">
            <mask id="j" fill="#fff">
                <use xlink:href="#i"/>
            </mask>
            <path fill="#000" mask="url(#j)" d="M-4.142-4.288h34.735v25.033H-4.142z"/>
        </g>
    </g>
</svg>
