<svg width="73" height="75" viewBox="-10 -10 93 95" xmlns="http://www.w3.org/2000/svg" xmlns:xlink="http://www.w3.org/1999/xlink">
    <defs>
        <path d="M48.31.06a.5.5 0 0 1 .5.5v49.5a.5.5 0 0 1-.5.5H1.06a.5.5 0 0 1-.5-.5V.56a.5.5 0 0 1 .5-.5h47.25zm-.5 1H1.56v48.5h46.25V1.06z" id="a"/>
        <path d="M71.94.44a.5.5 0 0 1 .35.85L48.665 24.915a.5.5 0 0 1-.705-.705L70.73 1.44H26L1.395 24.94a.501.501 0 0 1-.335.12.5.5 0 0 1-.345-.86L25.465.575A.497.497 0 0 1 25.81.44h46.13z" id="c"/>
        <path d="M24.965.44a.5.5 0 0 1 .5.5v48.37c0 .13-.05.256-.14.35L1.7 74.41a.5.5 0 0 1-.39.15.497.497 0 0 1-.345-.135.5.5 0 0 1 0-.71l23.5-24.605V.94a.5.5 0 0 1 .5-.5z" id="e"/>
        <path d="M43.94 49.06a.255.255 0 0 1 .25.25.25.25 0 0 1-.25.25h-1.5a.25.25 0 0 1 0-.5h1.5zm-3 0a.255.255 0 0 1 .25.25.25.25 0 0 1-.25.25h-1.5a.25.25 0 0 1 0-.5h1.5zm-3 0a.255.255 0 0 1 .25.25.25.25 0 0 1-.25.25h-1.5a.25.25 0 0 1 0-.5h1.5zm-3 0a.255.255 0 0 1 .25.25.25.25 0 0 1-.25.25h-1.5a.25.25 0 0 1 0-.5h1.5zm-3 0a.255.255 0 0 1 .25.25.25.25 0 0 1-.25.25h-1.5a.25.25 0 0 1 0-.5h1.5zm-3 0a.255.255 0 0 1 .25.25.25.25 0 0 1-.25.25h-1.5a.25.25 0 0 1 0-.5h1.5zm-3 0a.255.255 0 0 1 .25.25.25.25 0 0 1-.25.25h-1.5a.25.25 0 0 1 0-.5h1.5zm-3 0a.255.255 0 0 1 .25.25.25.25 0 0 1-.25.25h-1.5a.25.25 0 0 1 0-.5h1.5zm-3 0a.255.255 0 0 1 .25.25.25.25 0 0 1-.25.25h-1.5a.25.25 0 0 1 0-.5h1.5zm-3 0a.255.255 0 0 1 .25.25.25.25 0 0 1-.25.25h-1.5a.25.25 0 0 1 0-.5h1.5zm-3 0a.255.255 0 0 1 .25.25.25.25 0 0 1-.25.25h-1.5a.25.25 0 0 1 0-.5h1.5zm-3 0a.255.255 0 0 1 .25.25.25.25 0 0 1-.25.25h-1.5a.25.25 0 0 1 0-.5h1.5zm-3 0a.255.255 0 0 1 .25.25.25.25 0 0 1-.25.25h-1.5a.25.25 0 0 1 0-.5h1.5zm-3 0a.255.255 0 0 1 .25.25.25.25 0 0 1-.25.25h-1.5a.25.25 0 0 1 0-.5h1.5zm-4.13-.37a.25.25 0 0 1 .25.25v.12h.88a.255.255 0 0 1 .25.25.25.25 0 0 1-.25.25H.81a.25.25 0 0 1-.25-.25v-.37a.25.25 0 0 1 .25-.25zm46.13.37a.255.255 0 0 1 .25.25.25.25 0 0 1-.25.25h-1.5a.25.25 0 0 1 0-.5h1.5zM.81 45.69a.25.25 0 0 1 .25.25v1.5a.25.25 0 0 1-.25.25.255.255 0 0 1-.25-.25v-1.5a.25.25 0 0 1 .25-.25zm0-3a.25.25 0 0 1 .25.25v1.5a.25.25 0 0 1-.25.25.255.255 0 0 1-.25-.25v-1.5a.25.25 0 0 1 .25-.25zm0-3a.25.25 0 0 1 .25.25v1.5a.251.251 0 0 1-.25.25.255.255 0 0 1-.25-.25v-1.5a.25.25 0 0 1 .25-.25zm0-3a.25.25 0 0 1 .25.25v1.5a.251.251 0 0 1-.25.25.255.255 0 0 1-.25-.25v-1.5a.25.25 0 0 1 .25-.25zm0-3a.25.25 0 0 1 .25.25v1.5a.25.25 0 0 1-.25.25.255.255 0 0 1-.25-.25v-1.5a.25.25 0 0 1 .25-.25zm0-3a.25.25 0 0 1 .25.25v1.5a.25.25 0 0 1-.25.25.255.255 0 0 1-.25-.25v-1.5a.25.25 0 0 1 .25-.25zm0-3a.25.25 0 0 1 .25.25v1.5a.25.25 0 0 1-.25.25.255.255 0 0 1-.25-.25v-1.5a.25.25 0 0 1 .25-.25zm0-3a.25.25 0 0 1 .25.25v1.5a.25.25 0 0 1-.25.25.255.255 0 0 1-.25-.25v-1.5a.25.25 0 0 1 .25-.25zm0-3a.25.25 0 0 1 .25.25v1.5a.25.25 0 0 1-.25.25.255.255 0 0 1-.25-.25v-1.5a.25.25 0 0 1 .25-.25zm0-3a.25.25 0 0 1 .25.25v1.5a.25.25 0 0 1-.25.25.255.255 0 0 1-.25-.25v-1.5a.25.25 0 0 1 .25-.25zm0-3a.25.25 0 0 1 .25.25v1.5a.25.25 0 0 1-.25.25.255.255 0 0 1-.25-.25v-1.5a.25.25 0 0 1 .25-.25zm0-3a.25.25 0 0 1 .25.25v1.5a.25.25 0 0 1-.25.25.255.255 0 0 1-.25-.25v-1.5a.25.25 0 0 1 .25-.25zm0-3a.25.25 0 0 1 .25.25v1.5a.25.25 0 0 1-.25.25.255.255 0 0 1-.25-.25v-1.5a.25.25 0 0 1 .25-.25zm0-3a.25.25 0 0 1 .25.25v1.5a.25.25 0 0 1-.25.25.255.255 0 0 1-.25-.25v-1.5a.25.25 0 0 1 .25-.25zm0-3a.25.25 0 0 1 .25.25v1.5a.25.25 0 0 1-.25.25.255.255 0 0 1-.25-.25v-1.5a.25.25 0 0 1 .25-.25zm0-3a.25.25 0 0 1 .25.25v1.5a.25.25 0 0 1-.25.25.255.255 0 0 1-.25-.25V.94A.25.25 0 0 1 .81.69z" id="g"/>
        <path d="M2.188 23.76a.25.25 0 0 1 .112.42l-1.06 1.06a.247.247 0 0 1-.18.07.244.244 0 0 1-.175-.07.255.255 0 0 1 0-.355l1.06-1.06a.253.253 0 0 1 .242-.065zm2.121-2.119a.248.248 0 0 1 .111.414L3.36 23.12a.264.264 0 0 1-.175.07.267.267 0 0 1-.18-.07.255.255 0 0 1 0-.355l1.065-1.06a.246.246 0 0 1 .24-.064zm2.123-2.126a.25.25 0 0 1 .113.42L5.5 21a.236.236 0 0 1-.195.07.233.233 0 0 1-.175-.075.24.24 0 0 1 0-.35l1.06-1.065a.253.253 0 0 1 .242-.065zm2.12-2.12a.25.25 0 0 1 .113.42l-1.06 1.06a.254.254 0 0 1-.18.075.25.25 0 0 1-.175-.075.25.25 0 0 1 0-.355l1.06-1.06a.253.253 0 0 1 .242-.065zm2.12-2.12a.25.25 0 0 1 .113.42l-1.06 1.06a.244.244 0 0 1-.175.07.247.247 0 0 1-.18-.07.255.255 0 0 1 0-.355l1.06-1.06a.253.253 0 0 1 .242-.065zm2.122-2.119a.248.248 0 0 1 .111.414l-1.06 1.065a.264.264 0 0 1-.175.07.267.267 0 0 1-.18-.07.255.255 0 0 1 0-.355l1.065-1.06a.246.246 0 0 1 .24-.064zm2.236-2.061a.251.251 0 0 1 0 .355l-1.065 1.05a.237.237 0 0 1-.175.085.25.25 0 0 1-.175-.425l1.06-1.065a.251.251 0 0 1 .355 0zM17.15 9a.251.251 0 0 1 0 .355l-1.06 1.06a.253.253 0 0 1-.18.05.25.25 0 0 1-.175-.075.25.25 0 0 1 0-.355L16.795 9a.251.251 0 0 1 .355 0zm2.12-2.145a.251.251 0 0 1 0 .355l-1.06 1.06a.27.27 0 0 1-.175.07.267.267 0 0 1-.18-.07.255.255 0 0 1 0-.355l1.06-1.06a.251.251 0 0 1 .355 0zm2.12-2.12a.248.248 0 0 1 0 .35l-1.06 1.06a.242.242 0 0 1-.35 0 .24.24 0 0 1 0-.35l1.06-1.06a.247.247 0 0 1 .35 0zm2.012-2.19a.25.25 0 0 1 .113.42l-1.065 1.06a.242.242 0 0 1-.35 0 .25.25 0 0 1 0-.355l1.06-1.06a.253.253 0 0 1 .242-.065zm2.12-2.12a.25.25 0 0 1 .113.42l-1.06 1.06a.255.255 0 0 1-.18.095v-.02a.25.25 0 0 1-.175-.075.255.255 0 0 1 0-.355L25.28.49a.253.253 0 0 1 .242-.065z" id="i"/>
    </defs>
    <g fill="none" fill-rule="evenodd">
        <g transform="translate(0 24)">
            <mask id="b" fill="#fff">
                <use xlink:href="#a"/>
            </mask>
            <path fill="#000" mask="url(#b)" d="M-4.44-4.94h58.25v60.5H-4.44z"/>
        </g>
        <g>
            <mask id="d" fill="#fff">
                <use xlink:href="#c"/>
            </mask>
            <path fill="#000" mask="url(#d)" d="M-4.438-4.56h81.871v34.62H-4.438z"/>
        </g>
        <g transform="translate(47)">
            <mask id="f" fill="#fff">
                <use xlink:href="#e"/>
            </mask>
            <path fill="#000" mask="url(#f)" d="M-4.183-4.56h34.648v84.121H-4.183z"/>
        </g>
        <g transform="translate(25)">
            <mask id="h" fill="#fff">
                <use xlink:href="#g"/>
            </mask>
            <path fill="#000" mask="url(#h)" d="M-4.44-4.31h56.63v58.87H-4.44z"/>
        </g>
        <g transform="translate(0 49)">
            <mask id="j" fill="#fff">
                <use xlink:href="#i"/>
            </mask>
            <path fill="#000" mask="url(#j)" d="M-4.187-4.584H30.71V30.31H-4.188z"/>
        </g>
    </g>
</svg>
