<svg width="63" height="91" viewBox="-10 -10 83 111" xmlns="http://www.w3.org/2000/svg" xmlns:xlink="http://www.w3.org/1999/xlink">
    <defs>
        <path d="M31.5 0c17 0 30.875 7.04 30.875 15.69 0 8.65-13.85 15.685-30.875 15.685-17 0-30.875-7.04-30.875-15.685S14.5 0 31.5 0zm0 1C15.025 1 1.625 7.59 1.625 15.69s13.4 14.685 29.875 14.685 29.875-6.59 29.875-14.685S48 1 31.5 1z" id="a"/>
        <path d="M61.875.75a.5.5 0 0 1 .5.5v59.06C62.375 68.96 48.525 76 31.5 76 14.5 76 .625 68.96.625 60.31V1.25a.5.5 0 0 1 1 0v59.06c0 8.1 13.4 14.69 29.875 14.69s29.875-6.59 29.875-14.69V1.25a.5.5 0 0 1 .5-.5z" id="c"/>
        <path d="M1.315 14.58a.255.255 0 0 1 .2.295c-.094.473-.14.953-.14 1.435a.25.25 0 0 1-.5 0c0-.514.05-1.026.15-1.53a.25.25 0 0 1 .29-.2zm60.534-.065a.241.241 0 0 1 .106.16 8.34 8.34 0 0 1 .17 1.53.25.25 0 0 1-.5.01 7.39 7.39 0 0 0-.16-1.44.255.255 0 0 1 .195-.295.243.243 0 0 1 .19.035zM2.345 11.788a.25.25 0 0 1 .21.397A9.286 9.286 0 0 0 1.92 13.5a.255.255 0 0 1-.235.14.272.272 0 0 1-.09 0 .25.25 0 0 1-.14-.325c.186-.477.41-.939.67-1.38a.25.25 0 0 1 .22-.147zm58.48.042c.262.441.491.9.685 1.375a.251.251 0 0 1-.14.325.307.307 0 0 1-.095.015.24.24 0 0 1-.23-.155 9.604 9.604 0 0 0-.65-1.305.245.245 0 0 1 .085-.34.255.255 0 0 1 .345.085zM4.233 9.408a.25.25 0 0 1 .107.432c-.342.35-.664.719-.965 1.105a.255.255 0 0 1-.195.115v-.015a.249.249 0 0 1-.15-.055.25.25 0 0 1-.045-.35c.311-.402.645-.786 1-1.15a.25.25 0 0 1 .248-.082zm54.505-.032c.066 0 .13.027.177.074.354.363.687.746 1 1.145a.25.25 0 0 1-.04.35.247.247 0 0 1-.12.055.255.255 0 0 1-.195-.095 14.178 14.178 0 0 0-1-1.105.245.245 0 0 1 0-.35.251.251 0 0 1 .177-.074zM6.634 7.6a.246.246 0 0 1-.055.35c-.405.295-.795.605-1.16.915a.265.265 0 0 1-.16.04l-.005.02a.26.26 0 0 1-.19-.085.255.255 0 0 1 .03-.355c.375-.32.775-.635 1.195-.94a.25.25 0 0 1 .345.055zm49.985-.115c.42.305.82.615 1.195.935a.246.246 0 0 1 .03.35.245.245 0 0 1-.185.07l-.005.02a.242.242 0 0 1-.16-.06 18.56 18.56 0 0 0-1.17-.91.25.25 0 0 1 .295-.405zM9.016 5.904a.253.253 0 0 1 .054.461c-.44.24-.87.5-1.28.755a.258.258 0 0 1-.11.015l-.025.02a.25.25 0 0 1-.13-.46c.415-.265.855-.5 1.3-.77a.254.254 0 0 1 .19-.021zm45.019-.029c.45.25.89.5 1.305.765a.25.25 0 0 1-.265.425c-.41-.255-.84-.5-1.28-.75a.25.25 0 0 1 .05-.461.254.254 0 0 1 .19.021zm-42.3-1.28c.062.024.11.073.135.135a.25.25 0 0 1-.13.33c-.46.195-.915.405-1.35.62a.303.303 0 0 1-.085.005l-.025.02a.25.25 0 0 1-.11-.475c.445-.215.905-.43 1.375-.63.06-.028.13-.03.19-.005zM51.31 4.56c.5.2.935.41 1.38.625a.25.25 0 1 1-.22.45c-.435-.21-.89-.42-1.355-.615a.255.255 0 0 1-.13-.33.25.25 0 0 1 .325-.13zM14.655 3.546a.25.25 0 0 1-.105.439c-.5.165-.945.33-1.405.5a.166.166 0 0 1-.085.015.25.25 0 0 1-.23-.353.251.251 0 0 1 .14-.132c.46-.175.935-.35 1.42-.5a.248.248 0 0 1 .265.031zm33.86-.061c.5.165.955.335 1.42.5a.255.255 0 0 1-.09.5V4.46h-.085c-.46-.17-.925-.34-1.405-.5a.25.25 0 0 1-.155-.315.244.244 0 0 1 .315-.16zm-30.922-.667a.257.257 0 0 1-.188.312c-.5.125-.965.26-1.435.405l-.07-.005a.244.244 0 0 1-.24-.18.25.25 0 0 1 .165-.31c.475-.145.96-.28 1.455-.41a.257.257 0 0 1 .313.188zm28.027-.203c.5.13.975.265 1.45.405a.25.25 0 0 1 .17.31.254.254 0 0 1-.24.17h-.07c-.5-.14-.95-.275-1.44-.4a.255.255 0 0 1-.18-.305.25.25 0 0 1 .31-.18zm-25.216-.627a.251.251 0 0 1 .106.162.24.24 0 0 1-.195.29c-.5.1-1 .205-1.46.315l-.055.005a.244.244 0 0 1-.245-.19.251.251 0 0 1 .19-.3c.5-.115 1-.22 1.47-.32a.253.253 0 0 1 .19.038zm22.281-.028c.5.095 1 .2 1.475.31a.25.25 0 0 1 .185.3.249.249 0 0 1-.245.17v.02h-.055c-.5-.11-.965-.215-1.46-.31a.255.255 0 0 1-.195-.295.241.241 0 0 1 .106-.16.243.243 0 0 1 .189-.035zm-2.975-.49c.5.07 1 .145 1.5.23a.25.25 0 0 1-.04.5l-.01-.005h-.045c-.5-.08-.975-.155-1.475-.225a.252.252 0 1 1 .07-.5zm-16.23.21a.255.255 0 0 1-.21.285c-.5.07-1 .145-1.5.225l-.03.005a.244.244 0 0 1-.245-.205.25.25 0 0 1 .205-.29c.5-.085 1-.16 1.5-.23a.25.25 0 0 1 .28.21zm2.705-.54a.26.26 0 0 1 .27.23.255.255 0 0 1-.23.27c-.5.047-1 .097-1.5.15h-.015a.25.25 0 0 1-.025-.5c.493-.053.993-.103 1.5-.15zm10.545 0c.503.043 1.003.093 1.5.15a.25.25 0 1 1-.03.5h-.015c-.5-.055-1-.105-1.5-.15a.25.25 0 0 1-.138-.441.249.249 0 0 1 .183-.059zM29.195.965a.249.249 0 0 1 .26.24.255.255 0 0 1-.24.26c-.5 0-1 .04-1.5.07l-.005.005a.255.255 0 0 1-.25-.235.249.249 0 0 1 .235-.265c.5-.035 1-.055 1.5-.075zM33.73.97c.5 0 1 .04 1.5.07a.25.25 0 0 1 .23.265.245.245 0 0 1-.26.195l.01.04c-.5-.03-1-.055-1.5-.07a.25.25 0 0 1-.24-.26.26.26 0 0 1 .26-.24zM32.205.935a.25.25 0 0 1 0 .5H30.71a.247.247 0 0 1-.25-.245.25.25 0 0 1 .245-.255h1.5z" id="e"/>
    </defs>
    <g fill="none" fill-rule="evenodd">
        <g>
            <mask id="b" fill="#fff">
                <use xlink:href="#a"/>
            </mask>
            <path fill="#000" mask="url(#b)" d="M-4.375-5h71.75v41.375h-71.75z"/>
        </g>
        <g transform="translate(0 15)">
            <mask id="d" fill="#fff">
                <use xlink:href="#c"/>
            </mask>
            <path fill="#000" mask="url(#d)" d="M-4.375-4.25h71.75V81h-71.75z"/>
        </g>
        <g transform="translate(0 59)">
            <mask id="f" fill="#fff">
                <use xlink:href="#e"/>
            </mask>
            <path fill="#000" mask="url(#f)" d="M-4.125-4.065h71.25V21.56h-71.25z"/>
        </g>
    </g>
</svg>
