<svg width="79" height="61" viewBox="-10 -10 99 81" xmlns="http://www.w3.org/2000/svg" xmlns:xlink="http://www.w3.org/1999/xlink">
    <defs>
        <path d="M39.5.47c21.675 0 39.31 8.93 39.31 19.905 0 10.975-17.635 19.905-39.31 19.905S.19 31.35.19 20.375C.19 9.4 17.825.47 39.5.47zm0 1c-21.125 0-38.31 8.5-38.31 18.905C1.19 30.78 18.375 39.28 39.5 39.28c21.125 0 38.31-8.5 38.31-18.905C77.81 9.97 60.625 1.47 39.5 1.47z" id="a"/>
        <path d="M78.31.72a.5.5 0 0 1 .5.5c-.025 21.7-17.61 39.285-39.31 39.31C17.8 40.505.215 22.92.19 1.22a.5.5 0 0 1 1 0c0 21.158 17.152 38.31 38.31 38.31S77.81 22.378 77.81 1.22a.5.5 0 0 1 .5-.5z" id="c"/>
        <path d="M18.615 56.66c.478.08.96.12 1.445.12a.25.25 0 0 1 0 .5 9.167 9.167 0 0 1-1.525-.125.251.251 0 0 1-.205-.29.245.245 0 0 1 .285-.205zm-2.755-.915c.435.216.885.403 1.345.56.13.047.2.188.16.32a.25.25 0 0 1-.24.17v-.015h-.08a10.276 10.276 0 0 1-1.41-.59.245.245 0 0 1-.11-.335.25.25 0 0 1 .335-.11zm-2.445-1.635c.377.314.771.608 1.18.88a.25.25 0 0 1 .07.345.253.253 0 0 1-.21.13v-.015a.243.243 0 0 1-.14-.045c-.41-.275-.82-.58-1.22-.91a.26.26 0 0 1-.035-.355.255.255 0 0 1 .355-.03zm-2.305-2.174c.066 0 .129.027.175.074.33.38.67.745 1 1.08a.25.25 0 0 1-.175.43l.035.025a.25.25 0 0 1-.175-.075c-.35-.345-.7-.72-1.035-1.105a.255.255 0 0 1 0-.355.246.246 0 0 1 .175-.074zm-1.595-2.261c.28.415.57.82.865 1.21a.255.255 0 0 1-.05.35.247.247 0 0 1-.15.065v-.015a.257.257 0 0 1-.2-.1c-.3-.395-.595-.81-.88-1.23a.25.25 0 0 1 .068-.347.25.25 0 0 1 .347.067zm-1.692-2.68a.246.246 0 0 1 .147.12c.245.445.5.875.745 1.29a.25.25 0 0 1-.085.345.24.24 0 0 1-.13.065v-.03a.258.258 0 0 1-.215-.12c-.255-.425-.5-.86-.75-1.31a.244.244 0 0 1 .1-.34.243.243 0 0 1 .189-.02zm-1.382-2.71a.25.25 0 0 1 .204.16c.21.46.42.91.64 1.345a.25.25 0 0 1-.115.335.221.221 0 0 1-.11.06v-.03a.26.26 0 0 1-.225-.14c-.22-.447-.435-.902-.645-1.365a.25.25 0 0 1 .251-.365zm-1.063-2.74a.247.247 0 0 1 .132.14c.175.47.36.935.545 1.39a.244.244 0 0 1-.135.325.215.215 0 0 1-.095.05v-.03a.251.251 0 0 1-.23-.155c-.19-.46-.375-.925-.555-1.405a.25.25 0 0 1 .338-.315zm-.993-2.828a.243.243 0 0 1 .12.148c.155.5.31.95.47 1.415a.25.25 0 0 1-.155.32.22.22 0 0 1-.055.045v-.03a.245.245 0 0 1-.235-.17c-.165-.47-.32-.945-.5-1.43a.25.25 0 0 1 .355-.298zm-.8-2.879c.057.033.099.088.115.152.13.5.265.97.4 1.445a.245.245 0 0 1-.17.305.173.173 0 0 1-.07.04v-.03a.244.244 0 0 1-.24-.18c-.14-.475-.27-.96-.4-1.45a.25.25 0 0 1 .364-.282zm-.687-2.91a.245.245 0 0 1 .107.157c.105.5.22 1 .335 1.455a.255.255 0 0 1-.185.305l-.06.005a.25.25 0 0 1-.245-.19c-.115-.5-.225-.975-.335-1.47a.25.25 0 0 1 .195-.295.243.243 0 0 1 .188.033zm-.57-2.959a.241.241 0 0 1 .102.161c.09.5.18 1 .275 1.47a.255.255 0 0 1-.2.295l-.045.025a.244.244 0 0 1-.245-.205c-.1-.5-.19-1-.275-1.5a.241.241 0 0 1 .2-.285.244.244 0 0 1 .187.039zm-.43-2.953a.24.24 0 0 1 .092.169c.07.5.14 1 .22 1.5A.255.255 0 0 1 2 29l-.04-.035a.25.25 0 0 1-.245-.215c-.08-.5-.15-1-.22-1.5a.255.255 0 0 1 .402-.234zm-.548-3.011a.24.24 0 0 1 .27.225c.05.5.105 1 .165 1.5a.255.255 0 0 1-.22.28l-.03-.01a.245.245 0 0 1-.245-.22c-.06-.5-.115-1-.165-1.5a.249.249 0 0 1 .225-.275zm-.238-3.003a.252.252 0 0 1 .268.233c.035.5.07 1 .11 1.5a.25.25 0 0 1-.225.27L1.235 23a.25.25 0 0 1-.245-.23c-.045-.5-.08-1-.11-1.5a.251.251 0 0 1 .233-.268zm-.127-2.987a.25.25 0 0 1 .25.25c0 .5.035 1 .055 1.5a.247.247 0 0 1-.235.26L1.04 20a.245.245 0 0 1-.245-.235c0-.5-.045-1-.06-1.5a.25.25 0 0 1 .25-.25zM.95 15a.255.255 0 0 1 .25.25v1.5a.25.25 0 0 1-.25.25.247.247 0 0 1-.25-.245V15.25A.25.25 0 0 1 .95 15zm.055-2.995a.25.25 0 0 1 .24.26c0 .5-.03 1-.04 1.5a.245.245 0 0 1-.255.275V14a.25.25 0 0 1-.245-.255c0-.5 0-1 .04-1.5a.26.26 0 0 1 .26-.24zm.17-2.995a.245.245 0 0 1 .23.265c-.03.5-.06 1-.085 1.5a.255.255 0 0 1-.265.265V11a.247.247 0 0 1-.235-.26c0-.5.055-1 .09-1.5a.255.255 0 0 1 .265-.23zm.265-3a.246.246 0 0 1 .225.27c-.05.5-.095 1-.14 1.5a.25.25 0 0 1-.27.265V8a.248.248 0 0 1-.23-.27c.045-.5.09-1 .14-1.5a.25.25 0 0 1 .275-.22zm.35-3c.135.021.23.144.215.28-.07.49-.135.99-.195 1.5a.25.25 0 0 1-.245.27V5h-.03a.255.255 0 0 1-.22-.28c.06-.5.125-1 .195-1.5a.25.25 0 0 1 .28-.21zm.485-3c.138.025.23.157.205.295-.085.5-.17 1-.245 1.5a.246.246 0 0 1-.235.28L1.98 2h-.04a.248.248 0 0 1-.21-.285c.08-.5.16-1 .25-1.5A.254.254 0 0 1 2.275.01z" id="e"/>
        <path d="M1.415.29 36.37 35.33a.5.5 0 0 1 .13.47c-3.37 14.025-10.055 22.73-17.44 22.73a.5.5 0 0 1 0-1c6.855 0 13.125-8.3 16.4-21.68L.71 1a.5.5 0 1 1 .705-.71z" id="g"/>
    </defs>
    <g fill="none" fill-rule="evenodd">
        <g>
            <mask id="b" fill="#fff">
                <use xlink:href="#a"/>
            </mask>
            <path fill="#000" mask="url(#b)" d="M-4.81-4.53h88.62v49.81H-4.81z"/>
        </g>
        <g transform="translate(0 20)">
            <mask id="d" fill="#fff">
                <use xlink:href="#c"/>
            </mask>
            <path fill="#000" mask="url(#d)" d="M-4.81-4.28h88.62v49.81H-4.81z"/>
        </g>
        <g transform="translate(20 3)">
            <mask id="f" fill="#fff">
                <use xlink:href="#e"/>
            </mask>
            <path fill="#000" mask="url(#f)" d="M-4.3-4.994h29.61V62.28H-4.3z"/>
        </g>
        <g transform="translate(21 2)">
            <mask id="h" fill="#fff">
                <use xlink:href="#g"/>
            </mask>
            <path fill="#000" mask="url(#h)" d="M-4.438-4.855h45.952V63.53H-4.438z"/>
        </g>
    </g>
</svg>
