<svg width="61" height="91" viewBox="-10 -10 81 111" xmlns="http://www.w3.org/2000/svg" xmlns:xlink="http://www.w3.org/1999/xlink">
    <defs>
        <path d="M30.125.05a.5.5 0 0 1 .5.5v59.625a.5.5 0 0 1-.5.5H.875a.5.5 0 0 1-.5-.5V.55a.5.5 0 0 1 .5-.5h29.25zm-.5 1H1.375v58.625h28.25V1.05z" id="a"/>
        <path d="M15.962.46a.502.502 0 0 1 .308.465V61.5a.496.496 0 0 1-.16.365L1.485 75.55a.504.504 0 0 1-.36.126.497.497 0 0 1-.365-.161.5.5 0 0 1 0-.705l14.465-13.535V2.13L1.5 15.9a.5.5 0 1 1-.71-.705L15.415.57a.5.5 0 0 1 .547-.11z" id="c"/>
        <path d="M1.605.57 16.23 15.195a.5.5 0 1 1-.71.705L1.75 2.13v59.145L16.215 74.81a.5.5 0 0 1 0 .705.498.498 0 0 1-.34.16.5.5 0 0 1-.34-.135L.91 61.855a.499.499 0 0 1-.16-.365V.925A.5.5 0 0 1 1.605.57z" id="e"/>
        <path d="M45.6.35c.139 0 .271.058.365.16L60.12 15.605a.5.5 0 0 1 0 .71.5.5 0 0 1-.37.11.496.496 0 0 1-.365-.16l-14-14.94h-28.83l-14.95 14.95a.499.499 0 0 1-.71 0 .5.5 0 0 1 0-.705L16 .5a.501.501 0 0 1 .35-.15H45.6z" id="g"/>
        <path d="m14.915 75.2 1 1.13a.245.245 0 0 1 0 .35.256.256 0 0 1-.165.06.24.24 0 0 1-.19-.085l-1-1.125a.255.255 0 0 1 0-.355.255.255 0 0 1 .355.025zm-1.95-2.265 1 1.125a.255.255 0 0 1 0 .355.269.269 0 0 1-.19.085.26.26 0 0 1-.19-.085l-1-1.13a.245.245 0 0 1 .025-.35.255.255 0 0 1 .355 0zm-2.2-2.331c.066 0 .13.028.175.076l1 1.13a.245.245 0 0 1-.025.35.23.23 0 0 1-.12.07l-.02.015a.252.252 0 0 1-.185-.085l-1-1.13a.245.245 0 0 1 0-.35.241.241 0 0 1 .175-.076zM8.94 68.445l1 1.13a.241.241 0 0 1 .076.175c0 .066-.028.13-.076.175a.27.27 0 0 1-.12.075l-.045-.01a.245.245 0 0 1-.19-.09l-1-1.125a.252.252 0 0 1 0-.355.255.255 0 0 1 .355.025zM6.965 66.19l1 1.125a.255.255 0 0 1-.025.355.251.251 0 0 1-.1.045l-.065.015a.252.252 0 0 1-.185-.085l-1-1.13a.25.25 0 0 1 .044-.328.249.249 0 0 1 .331.003zm-2.197-2.354c.066 0 .13.027.177.074l1 1.13a.245.245 0 0 1-.025.35.234.234 0 0 1-.055.07l-.09.015a.24.24 0 0 1-.185-.085l-1-1.13a.25.25 0 0 1 0-.35.252.252 0 0 1 .178-.074zM2.99 61.675l1 1.13a.25.25 0 0 1 0 .35.248.248 0 0 1-.1.05l-.09.015a.26.26 0 0 1-.19-.085l-1-1.13a.252.252 0 0 1 .38-.33zM1.015 59.25a.252.252 0 0 1 .245.255v.21l.725.825a.255.255 0 0 1 0 .355.252.252 0 0 1-.075.05l-.11.015a.228.228 0 0 1-.185-.085l-.79-.895a.27.27 0 0 1-.06-.17v-.31a.255.255 0 0 1 .184-.24l.066-.01zm.015-2.99a.245.245 0 0 1 .245.25v1.5a.255.255 0 0 1-.135.235l-.11.015a.255.255 0 0 1-.25-.255v-1.5a.25.25 0 0 1 .193-.239l.057-.006zm.03-3a.25.25 0 0 1 .25.25v1.5a.255.255 0 0 1-.145.235l-.11.015a.255.255 0 0 1-.245-.255v-1.5a.25.25 0 0 1 .193-.239l.057-.006zm0-3a.25.25 0 0 1 .25.25v1.5a.253.253 0 0 1-.12.235l-.135.015a.25.25 0 0 1-.245-.255v-1.5a.245.245 0 0 1 .25-.245zm-.005-3a.25.25 0 0 1 .25.25v1.5a.25.25 0 0 1-.095.235l-.155.015a.255.255 0 0 1-.25-.255v-1.5a.245.245 0 0 1 .185-.238l.065-.007zm.025-3a.25.25 0 0 1 .25.25v1.5a.25.25 0 0 1-.095.235l-.155.015a.255.255 0 0 1-.25-.255v-1.5a.245.245 0 0 1 .185-.238l.065-.007zm.17-3.005a.245.245 0 0 1 .245.25v1.5a.255.255 0 0 1-.235.24l-.155.015A.255.255 0 0 1 1 43v-1.5a.25.25 0 0 1 .184-.236l.066-.009zm-.14-2.995a.25.25 0 0 1 .25.25v1.5a.254.254 0 0 1-.075.235l-.18.015a.249.249 0 0 1-.245-.255v-1.5a.25.25 0 0 1 .193-.239l.057-.006zm.025-3a.25.25 0 0 1 .25.25v1.5a.254.254 0 0 1-.075.235l-.18.015a.25.25 0 0 1-.245-.255v-1.5a.245.245 0 0 1 .185-.238l.065-.007zm-.005-3a.25.25 0 0 1 .25.25v1.5a.248.248 0 0 1-.05.235l-.2.015a.255.255 0 0 1-.25-.255v-1.5a.245.245 0 0 1 .185-.238l.065-.007zm.025-3a.245.245 0 0 1 .245.25v1.5a.25.25 0 0 1-.045.235l-.2.015a.255.255 0 0 1-.25-.255v-1.5a.255.255 0 0 1 .185-.235l.065-.01zm.005-3a.245.245 0 0 1 .245.25v1.5a.25.25 0 0 1-.025.235l-.225.015a.255.255 0 0 1-.245-.255v-1.5a.255.255 0 0 1 .185-.235l.065-.01zm.025-3a.25.25 0 0 1 .25.25v1.5a.256.256 0 0 1-.03.235l-.225.015a.25.25 0 0 1-.245-.255v-1.5a.25.25 0 0 1 .193-.239l.057-.006zm-.005-3a.25.25 0 0 1 .25.25v1.5a.248.248 0 0 1-.005.235l-.245.015a.251.251 0 0 1-.25-.255v-1.5a.243.243 0 0 1 .185-.238l.065-.007zm.025-3a.25.25 0 0 1 .25.25v1.5a.248.248 0 0 1-.005.235l-.245.015a.251.251 0 0 1-.25-.255v-1.5a.243.243 0 0 1 .185-.238l.065-.007zm0-3a.245.245 0 0 1 .245.25v1.5a.248.248 0 0 1 .05.235l-.295.015a.251.251 0 0 1-.25-.255v-1.5a.255.255 0 0 1 .185-.235l.065-.01zm.025-3a.25.25 0 0 1 .245.25v1.5a.25.25 0 0 1 .025.235l-.27.015a.251.251 0 0 1-.25-.255v-1.5a.25.25 0 0 1 .193-.239l.057-.006zm.03-3a.25.25 0 0 1 .25.25v1.5a.254.254 0 0 1 .015.235l-.27.015a.252.252 0 0 1-.245-.255v-1.5a.25.25 0 0 1 .184-.236l.066-.009zm-.005-3a.25.25 0 0 1 .25.25v1.5a.252.252 0 0 1 .04.235l-.29.015a.251.251 0 0 1-.25-.255v-1.5a.245.245 0 0 1 .185-.238l.065-.007zm0-3a.25.25 0 0 1 .25.25v1.5a.25.25 0 0 1 .065.235l-.315.015a.251.251 0 0 1-.25-.255v-1.5a.245.245 0 0 1 .185-.238l.065-.007zM1.28.59a.252.252 0 0 1 .245.255V1a.251.251 0 0 1 .07.245l-.315.015a.251.251 0 0 1-.25-.255V.84A.255.255 0 0 1 1.214.6L1.28.59z" id="i"/>
        <path d="M1.373 74.688a.25.25 0 0 1 .107.432L.435 76.195a.256.256 0 0 1-.185.075.264.264 0 0 1-.175-.07.25.25 0 0 1 0-.355l1.05-1.075a.25.25 0 0 1 .248-.082zm2.02-2.137a.251.251 0 0 1 .25.249.245.245 0 0 1-.073.175L2.525 74.05a.256.256 0 0 1-.18.07.245.245 0 0 1-.175-.42l1.045-1.075a.251.251 0 0 1 .178-.074zm2.267-2.056c.1.097.102.256.005.355l-1.05 1.075A.25.25 0 0 1 4.44 72a.25.25 0 0 1-.18-.425L5.305 70.5a.251.251 0 0 1 .355-.005zm2.095-2.15c.1.097.102.256.005.355l-1.05 1.075a.253.253 0 0 1-.18.05v.025a.27.27 0 0 1-.175-.07.25.25 0 0 1 0-.355L7.4 68.35a.251.251 0 0 1 .355-.005zm1.92-2.214c.066 0 .129.027.175.074a.24.24 0 0 1 0 .35L8.805 67.63a.256.256 0 0 1-.18.045v.025a.234.234 0 0 1-.175-.07.25.25 0 0 1 0-.355l1.05-1.07a.246.246 0 0 1 .175-.074zm2.27-2.081c.1.097.102.256.005.355l-1.045 1.075a.255.255 0 0 1-.185.05v.025a.242.242 0 0 1-.175-.075.245.245 0 0 1 0-.35l1.045-1.075a.251.251 0 0 1 .355-.005zm2.09-2.15c.1.097.102.256.005.355L13 63.305a.235.235 0 0 1-.185.075v.025a.25.25 0 0 1-.18-.425l1.045-1.075a.251.251 0 0 1 .355-.005zm.84-2.655c.066 0 .129.026.175.074.046.047.071.11.07.176v1.5a.25.25 0 0 1-.245.225v.025a.255.255 0 0 1-.25-.255v-1.5a.255.255 0 0 1 .185-.235l.065-.01zm.005-3c.066 0 .129.026.175.074.046.047.071.11.07.176v1.5a.25.25 0 0 1-.225.225l-.025.025a.25.25 0 0 1-.245-.255v-1.5a.25.25 0 0 1 .193-.239l.057-.006zm-.005-3a.25.25 0 0 1 .25.25v1.5a.25.25 0 0 1-.205.225l-.045.025a.25.25 0 0 1-.25-.255v-1.5a.245.245 0 0 1 .185-.238l.065-.007zm0-3a.24.24 0 0 1 .245.25v1.5a.25.25 0 0 1-.175.225l-.07.025a.25.25 0 0 1-.25-.255v-1.5a.255.255 0 0 1 .185-.235l.065-.01zm.005-3c.066 0 .129.026.175.074.046.047.071.11.07.176v1.5a.25.25 0 0 1-.155.225l-.095.025a.25.25 0 0 1-.245-.255v-1.5a.25.25 0 0 1 .193-.239l.057-.006zm0-3a.25.25 0 0 1 .25.25v1.5a.255.255 0 0 1-.13.225l-.125.025a.25.25 0 0 1-.245-.255v-1.5a.25.25 0 0 1 .193-.239l.057-.006zm-.005-3a.25.25 0 0 1 .25.25v1.5a.25.25 0 0 1-.125.225l-.125.025a.25.25 0 0 1-.25-.255v-1.5a.245.245 0 0 1 .185-.238l.065-.007zm0-3c.066 0 .129.026.175.074.046.047.071.11.07.176v1.5a.25.25 0 0 1-.08.225l-.165.025a.25.25 0 0 1-.25-.255v-1.5a.255.255 0 0 1 .185-.235l.065-.01zm.005-3a.25.25 0 0 1 .25.25v1.5a.255.255 0 0 1-.065.225l-.19.025a.25.25 0 0 1-.245-.255v-1.5a.25.25 0 0 1 .193-.239l.057-.006zm-.005-3a.25.25 0 0 1 .25.25v1.5a.25.25 0 0 1-.04.225l-.21.025a.25.25 0 0 1-.25-.255v-1.5a.245.245 0 0 1 .185-.238l.065-.007zm0-3c.066 0 .129.026.175.074.046.047.071.11.07.176v1.5a.25.25 0 0 1-.01.225l-.235.025a.25.25 0 0 1-.25-.255v-1.5a.255.255 0 0 1 .185-.235l.065-.01zm.005-3a.25.25 0 0 1 .25.25v1.5a.25.25 0 0 1 .005.225l-.26.025a.25.25 0 0 1-.245-.255v-1.5a.25.25 0 0 1 .193-.239l.057-.006zm0-3a.25.25 0 0 1 .25.25v1.5a.255.255 0 0 1 .03.225l-.285.025a.242.242 0 0 1-.175-.074.244.244 0 0 1-.07-.176v-1.5a.25.25 0 0 1 .193-.243l.057-.007zm-.005-3a.25.25 0 0 1 .25.25v1.5a.25.25 0 0 1 .055.225l-.305.025a.25.25 0 0 1-.25-.25v-1.5a.25.25 0 0 1 .193-.243l.057-.007zm0-3a.25.25 0 0 1 .245.25v1.5a.25.25 0 0 1 .085.225l-.33.025a.25.25 0 0 1-.25-.25v-1.5a.25.25 0 0 1 .193-.243l.057-.007zm.005-3a.25.25 0 0 1 .25.25v1.5c.07.053.107.138.1.225l-.355.025a.242.242 0 0 1-.175-.074.244.244 0 0 1-.07-.176v-1.5a.25.25 0 0 1 .193-.243l.057-.007zm-.005-3a.25.25 0 0 1 .25.25v1.5a.25.25 0 0 1 .125.225l-.375.025a.25.25 0 0 1-.25-.25v-1.5a.25.25 0 0 1 .193-.243l.057-.007zm.005-3c.066 0 .129.026.175.074.046.047.071.11.07.176v1.5a.25.25 0 0 1 .15.225l-.4.025a.25.25 0 0 1-.25-.25v-1.5a.27.27 0 0 1 .255-.25zm0-3a.25.25 0 0 1 .25.25v1.5a.255.255 0 0 1 .17.225l-.425.025a.242.242 0 0 1-.175-.074.244.244 0 0 1-.07-.176v-1.5a.232.232 0 0 1 .066-.184.232.232 0 0 1 .184-.066zm-.005-3a.25.25 0 0 1 .25.25v1.5a.25.25 0 0 1 .195.225l-.445.025a.25.25 0 0 1-.25-.25v-1.5a.25.25 0 0 1 .193-.243l.057-.007zm0-1.645a.25.25 0 0 1 .245.255v.14a.25.25 0 0 1 .225.225l-.47.025a.25.25 0 0 1-.25-.25V.85a.255.255 0 0 1 .184-.24l.066-.01z" id="k"/>
        <path d="M29.69.765a.25.25 0 0 1 .25.25.255.255 0 0 1-.25.25h-1.5a.25.25 0 0 1 0-.5h1.5zm-3 0a.25.25 0 0 1 .25.25.255.255 0 0 1-.25.25h-1.5a.25.25 0 0 1 0-.5h1.5zm-3 0a.25.25 0 0 1 .25.25.255.255 0 0 1-.25.25h-1.5a.25.25 0 0 1 0-.5h1.5zm-3 0a.25.25 0 0 1 .25.25.255.255 0 0 1-.25.25h-1.5a.25.25 0 0 1 0-.5h1.5zm-3 0a.25.25 0 0 1 .25.25.255.255 0 0 1-.25.25h-1.5a.25.25 0 0 1 0-.5h1.5zm-3 0a.25.25 0 0 1 .25.25.255.255 0 0 1-.25.25h-1.5a.25.25 0 0 1 0-.5h1.5zm-3 0a.25.25 0 0 1 .25.25.255.255 0 0 1-.25.25h-1.5a.25.25 0 0 1 0-.5h1.5zm-3 0a.25.25 0 0 1 .25.25.255.255 0 0 1-.25.25h-1.5a.25.25 0 0 1 0-.5h1.5zm-3 0a.25.25 0 0 1 .25.25.255.255 0 0 1-.25.25h-1.5a.25.25 0 0 1 0-.5h1.5zm-3 0a.25.25 0 0 1 .25.25.255.255 0 0 1-.25.25h-1.5a.25.25 0 0 1 0-.5h1.5z" id="m"/>
    </defs>
    <g fill="none" fill-rule="evenodd">
        <g transform="translate(15 30)">
            <mask id="b" fill="#fff">
                <use xlink:href="#a"/>
            </mask>
            <path fill="#000" mask="url(#b)" d="M-4.625-4.95h40.25v70.625h-40.25z"/>
        </g>
        <g transform="translate(44 15)">
            <mask id="d" fill="#fff">
                <use xlink:href="#c"/>
            </mask>
            <path fill="#000" mask="url(#d)" d="M-4.385-4.578H21.27v85.254H-4.385z"/>
        </g>
        <g transform="translate(0 15)">
            <mask id="f" fill="#fff">
                <use xlink:href="#e"/>
            </mask>
            <path fill="#000" mask="url(#f)" d="M-4.25-4.578h25.625v85.253H-4.25z"/>
        </g>
        <g>
            <mask id="h" fill="#fff">
                <use xlink:href="#g"/>
            </mask>
            <path fill="#000" mask="url(#h)" d="M-4.25-4.65h69.518v26.078H-4.25z"/>
        </g>
        <g transform="translate(44)">
            <mask id="j" fill="#fff">
                <use xlink:href="#i"/>
            </mask>
            <path fill="#000" mask="url(#j)" d="M-4.235-4.41h25.224v86.15H-4.235z"/>
        </g>
        <g transform="translate(1)">
            <mask id="l" fill="#fff">
                <use xlink:href="#k"/>
            </mask>
            <path fill="#000" mask="url(#l)" d="M-4.999-4.4h25.344v85.67H-4.999z"/>
        </g>
        <g transform="translate(16 60)">
            <mask id="n" fill="#fff">
                <use xlink:href="#m"/>
            </mask>
            <path fill="#000" mask="url(#n)" d="M-4.06-4.235h39v10.5h-39z"/>
        </g>
    </g>
</svg>
