<svg width="87" height="85" viewBox="-10 -10 107 105" xmlns="http://www.w3.org/2000/svg" xmlns:xlink="http://www.w3.org/1999/xlink">
    <defs>
        <path d="M22.795.375a.5.5 0 0 1 .5.38L43.5 84a.5.5 0 0 1-.47.625H1.405A.5.5 0 0 1 .92 84L22.295.75a.5.5 0 0 1 .414-.37l.086-.005zm-.025 2.56L2.03 83.625h40.345L22.77 2.935z" id="a"/>
        <path d="M.882.386c.13.026.245.103.318.214l42.185 63.56a.5.5 0 0 1-.08.65L21.365 84.5a.5.5 0 0 1-.67-.745l21.62-19.4L.365 1.15A.5.5 0 0 1 .882.386z" id="c"/>
        <path d="M43.815.376a.5.5 0 0 1 .38.779l-42.5 63.2 21.615 19.4a.5.5 0 0 1-.335.87h-.005a.5.5 0 0 1-.335-.13L.695 64.81a.5.5 0 0 1-.08-.65L43.365.595a.5.5 0 0 1 .45-.219z" id="e"/>
        <path d="m84.955 17.305 1.17.935a.255.255 0 0 1 .04.355.26.26 0 0 1-.195.095.257.257 0 0 1-.155-.055l-1.175-.94a.25.25 0 0 1-.04-.35.26.26 0 0 1 .355-.04zm-82.707.01a.25.25 0 0 1 .062.43l-1.14.89a.256.256 0 0 1-.14.055.246.246 0 0 1-.195-.1.25.25 0 0 1 .045-.35L2 17.35a.25.25 0 0 1 .248-.035zm2.482-1.77a.25.25 0 0 1-.04.35l-1.19.93a.245.245 0 0 1-.145.05.25.25 0 0 1-.155-.445l1.18-.93a.25.25 0 0 1 .35.045zm77.88-.115 1.17.94a.245.245 0 0 1 .04.35.255.255 0 0 1-.195.095.257.257 0 0 1-.155-.055l-1.17-.94a.245.245 0 0 1-.04-.35.25.25 0 0 1 .35-.04zM7.097 13.703a.25.25 0 0 1-.042.352L5.87 15a.253.253 0 0 1-.155.03.26.26 0 0 1-.195-.095.25.25 0 0 1 .045-.35l1.18-.925a.25.25 0 0 1 .353.043zm73.173-.148 1.17.94a.25.25 0 0 1-.155.445.257.257 0 0 1-.155-.055l-1.175-.935a.255.255 0 1 1 .315-.395zM9.46 11.86a.25.25 0 0 1-.04.35l-1.185.92a.249.249 0 0 1-.15.055.266.266 0 0 1-.2-.095.255.255 0 0 1 .045-.355l1.18-.92a.25.25 0 0 1 .35.045zm68.465-.175 1.17.935a.25.25 0 0 1-.155.445.226.226 0 0 1-.155-.055l-1.17-.935a.25.25 0 0 1 .053-.443.25.25 0 0 1 .257.053zm-66.072-1.673a.252.252 0 0 1-.043.353l-1.185.92a.255.255 0 0 1-.18.055h-.005a.25.25 0 0 1-.195-.1.25.25 0 0 1 .045-.35l1.21-.92a.25.25 0 0 1 .352.042zM75.58 9.81l1.17.935a.25.25 0 0 1-.15.445h-.005a.251.251 0 0 1-.16-.055l-1.17-.935a.251.251 0 0 1 .315-.39zM14.024 8.076a.25.25 0 0 1 .127.444l-1.186.925a.257.257 0 0 1-.155.055.25.25 0 0 1-.195-.1.25.25 0 0 1 .045-.35l1.18-.92a.244.244 0 0 1 .184-.054zM73.24 7.94l1.17.935a.255.255 0 0 1 .04.355.25.25 0 0 1-.195.085v.005a.226.226 0 0 1-.155-.055l-1.17-.935a.25.25 0 0 1 .31-.39zM16.558 6.318a.25.25 0 0 1-.043.352l-1.185.925a.247.247 0 0 1-.386-.12.25.25 0 0 1 .081-.275l1.18-.925a.25.25 0 0 1 .353.043zM70.9 6.06l1.17.94a.25.25 0 0 1-.155.445.28.28 0 0 1-.16-.055l-1.17-.94a.25.25 0 1 1 .315-.39zM18.92 4.475a.25.25 0 0 1-.04.35l-1.185.925a.247.247 0 0 1-.386-.12.25.25 0 0 1 .081-.275l1.18-.925a.25.25 0 0 1 .35.045zm49.635-.29 1.17.94a.245.245 0 0 1 .04.35.255.255 0 0 1-.195.095.257.257 0 0 1-.155-.055l-1.17-.94a.245.245 0 0 1-.04-.35.25.25 0 0 1 .35-.04zM21.285 2.63a.25.25 0 0 1-.04.35l-1.185.925a.247.247 0 0 1-.155.05.26.26 0 0 1-.195-.095.25.25 0 0 1 .045-.35l1.18-.925a.25.25 0 0 1 .35.045zm44.93-.315 1.17.935a.25.25 0 0 1-.155.445.28.28 0 0 1-.16-.055l-1.17-.935a.251.251 0 0 1 .315-.39zM23.65.785a.25.25 0 0 1-.04.35l-1.185.92a.226.226 0 0 1-.155.055.26.26 0 0 1-.195-.095.255.255 0 0 1 .045-.355L23.3.74a.25.25 0 0 1 .35.045zM63.87.44l1.17.935a.25.25 0 0 1-.155.445.226.226 0 0 1-.155-.055L63.56.83a.25.25 0 0 1 .31-.39zM62.285.19a.25.25 0 0 1 .25.25.255.255 0 0 1-.25.25h-1.5a.25.25 0 0 1 0-.5h1.5zm-3 0a.25.25 0 0 1 .25.25.255.255 0 0 1-.25.25h-1.5a.25.25 0 0 1 0-.5h1.5zm-3 0a.25.25 0 0 1 .25.25.255.255 0 0 1-.25.25h-1.5a.25.25 0 0 1 0-.5h1.5zm-3 0a.25.25 0 0 1 .25.25.255.255 0 0 1-.25.25h-1.5a.25.25 0 0 1 0-.5h1.5zm-3 0a.25.25 0 0 1 .25.25.255.255 0 0 1-.25.25h-1.5a.25.25 0 0 1 0-.5h1.5zm-3 0a.25.25 0 0 1 .25.25.255.255 0 0 1-.25.25h-1.5a.25.25 0 0 1 0-.5h1.5zm-3 0a.25.25 0 0 1 .25.25.255.255 0 0 1-.25.25h-1.5a.25.25 0 0 1 0-.5h1.5zm-3 0a.25.25 0 0 1 .25.25.255.255 0 0 1-.25.25h-1.5a.25.25 0 0 1 0-.5h1.5zm-3 0a.25.25 0 0 1 .25.25.255.255 0 0 1-.25.25h-1.5a.25.25 0 0 1 0-.5h1.5zm-3 0a.25.25 0 0 1 .25.25.255.255 0 0 1-.25.25h-1.5a.25.25 0 0 1 0-.5h1.5zm-3 0a.25.25 0 0 1 .25.25.255.255 0 0 1-.25.25h-1.5a.25.25 0 0 1 0-.5h1.5zm-3 0a.25.25 0 0 1 .25.25.255.255 0 0 1-.25.25h-1.5a.25.25 0 0 1 0-.5h1.5zm-3 0a.25.25 0 0 1 .25.25.255.255 0 0 1-.25.25h-1.5a.25.25 0 0 1 0-.5h1.5z" id="g"/>
        <path d="m19.35 44.515.35.825a.249.249 0 0 1-.135.33.343.343 0 0 1-.095.02.251.251 0 0 1-.23-.155l-.35-.825a.245.245 0 0 1 .13-.325.255.255 0 0 1 .33.13zm-1.175-2.745.585 1.38a.255.255 0 0 1-.13.33.312.312 0 0 1-.1.02.256.256 0 0 1-.23-.155l-.585-1.38a.244.244 0 0 1 .135-.325.25.25 0 0 1 .325.13zm-1.309-2.896c.061.025.11.074.134.136l.59 1.38a.244.244 0 0 1-.135.325.218.218 0 0 1-.095.005v.015a.245.245 0 0 1-.23-.15l-.59-1.38a.249.249 0 0 1 .135-.33.244.244 0 0 1 .191-.001zm-1.236-2.783c.09.012.167.073.2.159l.585 1.38a.25.25 0 0 1-.13.325.241.241 0 0 1-.1.005v.015c-.1 0-.19-.059-.23-.15l-.585-1.38a.25.25 0 0 1 .26-.354zm-1.123-2.755a.253.253 0 0 1 .138.134l.585 1.38a.25.25 0 0 1-.23.35c-.1 0-.19-.059-.23-.15l-.585-1.385a.25.25 0 0 1 .322-.329zM13.46 30.71l.59 1.38a.255.255 0 0 1-.21.35h-.01a.251.251 0 0 1-.23-.155l-.6-1.38a.25.25 0 0 1 .46-.195zm-1.16-2.76.585 1.38a.249.249 0 0 1-.135.33.353.353 0 0 1-.085.02h-.01a.256.256 0 0 1-.23-.155l-.585-1.38a.245.245 0 0 1 .13-.325.255.255 0 0 1 .33.13zm-1.355-2.919c.09.012.168.073.2.159l.585 1.38a.245.245 0 0 1-.23.345c-.1 0-.19-.059-.23-.15l-.585-1.38a.25.25 0 0 1 .26-.354zm-1.119-2.737c.061.025.11.074.134.136l.59 1.38a.25.25 0 0 1-.135.325l-.046.016-.044.004-.054-.006a.246.246 0 0 1-.171-.144l-.6-1.38a.249.249 0 0 1 .135-.33.244.244 0 0 1 .191-.001zm-1.228-2.778a.25.25 0 0 1 .202.149l.585 1.385a.244.244 0 0 1-.135.325l-.051.016-.048.004-.055-.006a.246.246 0 0 1-.171-.144l-.585-1.38a.25.25 0 0 1 .258-.349zm-1.111-2.745a.253.253 0 0 1 .138.134l.585 1.38a.25.25 0 0 1-.13.33l-.054.016-.049.004-.056-.008a.256.256 0 0 1-.171-.147l-.585-1.38a.245.245 0 0 1 .13-.325.25.25 0 0 1 .192-.004zM6.46 14.145l.585 1.38a.25.25 0 0 1-.13.33l-.06.016-.053.004-.055-.008a.25.25 0 0 1-.167-.147L6 14.34a.244.244 0 0 1 .135-.325.25.25 0 0 1 .325.13zm-1.38-2.919c.09.012.167.073.2.159l.585 1.38a.244.244 0 0 1-.135.325l-.051.016-.048.004-.055-.006a.246.246 0 0 1-.171-.144l-.585-1.38a.25.25 0 0 1 .26-.354zm-1.185-2.76c.09.012.167.073.2.159L4.68 10a.245.245 0 0 1-.13.325.247.247 0 0 1-.1.025c-.1 0-.19-.059-.23-.15l-.585-1.38a.25.25 0 0 1 .26-.354zM2.92 5.86l.58 1.38a.246.246 0 0 1-.13.33.222.222 0 0 1-.095.02.254.254 0 0 1-.23-.15L2.46 6.055a.25.25 0 0 1 .46-.195zM1.61 2.967c.061.024.11.072.135.133l.59 1.4a.249.249 0 0 1-.135.33.218.218 0 0 1-.095 0 .251.251 0 0 1-.23-.155l-.59-1.38a.25.25 0 0 1 .135-.325.24.24 0 0 1 .19-.003zM.575.34l.585 1.38a.255.255 0 0 1-.13.33.379.379 0 0 1-.1.02.256.256 0 0 1-.23-.155L.115.535A.245.245 0 0 1 .245.21a.255.255 0 0 1 .33.13z" id="i"/>
        <path d="M1.54 44.405a.245.245 0 0 1 .135.325l-.35.825a.254.254 0 0 1-.23.135.335.335 0 0 1-.1 0 .255.255 0 0 1-.13-.33l.35-.825a.25.25 0 0 1 .325-.13zm1.175-2.745a.244.244 0 0 1 .13.325l-.585 1.38a.25.25 0 0 1-.23.135.303.303 0 0 1-.095 0 .25.25 0 0 1-.135-.33l.585-1.38a.255.255 0 0 1 .33-.13zm1.28-2.719a.25.25 0 0 1 .025.254l-.585 1.38a.251.251 0 0 1-.23.145v.015a.24.24 0 0 1-.1 0 .244.244 0 0 1-.13-.325L3.56 39a.249.249 0 0 1 .2-.159.249.249 0 0 1 .235.1zm1.065-2.806a.25.25 0 0 1 .135.33l-.585 1.38a.255.255 0 0 1-.23.115v.015a.211.211 0 0 1-.1 0 .244.244 0 0 1-.13-.325l.585-1.38a.244.244 0 0 1 .325-.135zm1.175-2.76a.25.25 0 0 1 .135.325l-.59 1.385a.245.245 0 0 1-.23.115v.015a.218.218 0 0 1-.095 0 .25.25 0 0 1-.135-.33l.59-1.38a.242.242 0 0 1 .135-.133.24.24 0 0 1 .19.003zm1.175-2.76a.25.25 0 0 1 .13.325l-.585 1.38a.255.255 0 0 1-.23.12v.015a.24.24 0 0 1-.1 0 .249.249 0 0 1-.13-.33l.585-1.38a.255.255 0 0 1 .33-.13zm1.17-2.76a.245.245 0 0 1 .135.325l-.585 1.38a.26.26 0 0 1-.23.12v.015a.335.335 0 0 1-.1 0 .255.255 0 0 1-.13-.33l.585-1.38a.25.25 0 0 1 .325-.13zm1.175-2.765a.26.26 0 0 1 .135.33L9.3 26.8a.245.245 0 0 1-.23.115v.015a.218.218 0 0 1-.095 0 .245.245 0 0 1-.135-.325l.59-1.38a.25.25 0 0 1 .325-.135zm1.28-2.684a.25.25 0 0 1 .025.254L10.5 24a.25.25 0 0 1-.255.155v.015a.24.24 0 0 1-.1 0 .25.25 0 0 1-.13-.325l.585-1.38a.249.249 0 0 1 .2-.159.249.249 0 0 1 .235.1zm1.07-2.836a.25.25 0 0 1 .13.33l-.585 1.38a.25.25 0 0 1-.23.115v.015a.211.211 0 0 1-.1 0 .25.25 0 0 1-.13-.325l.585-1.385a.251.251 0 0 1 .33-.13zm1.169-2.754a.25.25 0 0 1 .136.319l-.59 1.365a.25.25 0 0 1-.23.135v.015a.218.218 0 0 1-.095 0 .25.25 0 0 1-.135-.33l.59-1.38a.25.25 0 0 1 .324-.124zm1.176-2.766a.244.244 0 0 1 .13.325L14 15.72a.255.255 0 0 1-.235.155v.015a.303.303 0 0 1-.095 0 .25.25 0 0 1-.135-.33l.585-1.38a.255.255 0 0 1 .33-.13zm1.28-2.689a.25.25 0 0 1 .025.254l-.585 1.38a.25.25 0 0 1-.23.115v.015a.24.24 0 0 1-.1 0 .244.244 0 0 1-.13-.325l.585-1.38a.249.249 0 0 1 .2-.159.249.249 0 0 1 .235.1zm1.065-2.836a.25.25 0 0 1 .135.33l-.59 1.38a.245.245 0 0 1-.23.115v.015a.218.218 0 0 1-.095 0 .25.25 0 0 1-.135-.325l.59-1.38a.244.244 0 0 1 .325-.135zm1.175-2.76a.25.25 0 0 1 .13.325l-.6 1.35a.249.249 0 0 1-.215.15v.015a.218.218 0 0 1-.095 0 .25.25 0 0 1-.135-.33l.585-1.38a.255.255 0 0 1 .33-.13zm1.175-2.76a.25.25 0 0 1 .13.325l-.585 1.38a.255.255 0 0 1-.23.12v.015a.24.24 0 0 1-.1 0 .249.249 0 0 1-.13-.33l.585-1.38a.25.25 0 0 1 .33-.13zM20.325.21a.245.245 0 0 1 .135.325l-.59 1.38a.25.25 0 0 1-.24.155v.015a.303.303 0 0 1-.095 0 .255.255 0 0 1-.135-.33L20 .34a.25.25 0 0 1 .325-.13z" id="k"/>
    </defs>
    <g fill="none" fill-rule="evenodd">
        <g transform="translate(21)">
            <mask id="b" fill="#fff">
                <use xlink:href="#a"/>
            </mask>
            <path fill="#000" mask="url(#b)" d="M-4.095-4.625h52.61v94.25h-52.61z"/>
        </g>
        <g transform="translate(43)">
            <mask id="d" fill="#fff">
                <use xlink:href="#c"/>
            </mask>
            <path fill="#000" mask="url(#d)" d="M-4.717-4.624H48.47v94.249H-4.717z"/>
        </g>
        <g>
            <mask id="f" fill="#fff">
                <use xlink:href="#e"/>
            </mask>
            <path fill="#000" mask="url(#f)" d="M-4.47-4.626h53.75v94.251H-4.47z"/>
        </g>
        <g transform="translate(0 46)">
            <mask id="h" fill="#fff">
                <use xlink:href="#g"/>
            </mask>
            <path fill="#000" mask="url(#h)" d="M-4.217-4.81H91.22v28.5H-4.217z"/>
        </g>
        <g transform="translate(44 1)">
            <mask id="j" fill="#fff">
                <use xlink:href="#i"/>
            </mask>
            <path fill="#000" mask="url(#j)" d="M-4.906-4.81H24.72v55.5H-4.906z"/>
        </g>
        <g transform="translate(23 1)">
            <mask id="l" fill="#fff">
                <use xlink:href="#k"/>
            </mask>
            <path fill="#000" mask="url(#l)" d="M-4.155-4.809H25.48v55.503H-4.155z"/>
        </g>
    </g>
</svg>
