<svg width="71" height="73" viewBox="-10 -10 91 93" xmlns="http://www.w3.org/2000/svg" xmlns:xlink="http://www.w3.org/1999/xlink">
    <defs>
        <path d="M35.94.28a.5.5 0 0 1 .5.5v34.875a.5.5 0 0 1-.5.5H1.06a.5.5 0 0 1-.5-.5V.78a.5.5 0 0 1 .5-.5h34.88zm-.5 1H1.56v33.875h33.88V1.28z" id="a"/>
        <path d="M18.547.89a.5.5 0 0 1 .308.465v36a.499.499 0 0 1-.16.365L1.28 54a.5.5 0 0 1-.34.155.501.501 0 0 1-.345-.865l17.28-16.165V2.55L1.29 19.135a.5.5 0 0 1-.705-.705L18 1a.5.5 0 0 1 .547-.11z" id="c"/>
        <path d="m1 1 17.435 17.44a.5.5 0 0 1-.705.705L1.125 2.55v34.575l17.28 16.165a.5.5 0 1 1-.685.73L.285 37.71a.499.499 0 0 1-.16-.365v-36A.5.5 0 0 1 .435.88.5.5 0 0 1 1 1z" id="e"/>
        <path d="M53.5.855a.499.499 0 0 1 .365.155l16.875 18a.5.5 0 1 1-.74.675L53.285 1.845H18.83L1 19.695a.498.498 0 0 1-.375.15A.5.5 0 0 1 .27 19l18-18a.497.497 0 0 1 .355-.145H53.5z" id="g"/>
        <path d="M17.343 52.996c.066 0 .13.027.177.074l1.025 1.09a.25.25 0 0 1 0 .355.246.246 0 0 1-.17.08.251.251 0 0 1-.18-.08l-1.03-1.095a.245.245 0 0 1 0-.35.251.251 0 0 1 .178-.074zm-2.058-2.192c.066 0 .13.028.175.076L16.5 52a.25.25 0 0 1 0 .355.243.243 0 0 1-.18.05.254.254 0 0 1-.18-.075l-1.03-1.095a.25.25 0 0 1 0-.355.242.242 0 0 1 .175-.076zm-2.025-2.183c.066 0 .129.027.175.074l1.03 1.095a.245.245 0 0 1-.185.42l-.015.01a.242.242 0 0 1-.18-.08l-1-1.09a.25.25 0 0 1 0-.355.246.246 0 0 1 .175-.074zm-2.082-2.185c.066 0 .13.027.177.074l1 1.095a.245.245 0 0 1 0 .35.257.257 0 0 1-.14.08.245.245 0 0 1-.185-.08L11 46.86a.245.245 0 0 1 0-.35.251.251 0 0 1 .178-.074zM9.34 44.335l1.025 1.09a.25.25 0 0 1 0 .355.255.255 0 0 1-.205.07.263.263 0 0 1-.185-.08l-1-1.095a.25.25 0 1 1 .365-.34zm-2.08-2.18 1 1.095a.25.25 0 0 1 0 .355.243.243 0 0 1-.155.055.23.23 0 0 1-.18-.08l-1.03-1.08a.25.25 0 0 1 .124-.417.251.251 0 0 1 .241.072zm-2.055-2.17 1.03 1.095a.24.24 0 0 1 0 .35.245.245 0 0 1-.185.07.242.242 0 0 1-.18-.08l-1.03-1.09a.251.251 0 1 1 .365-.345zm-2.025-2.21 1.03 1.09a.25.25 0 0 1 0 .355.262.262 0 0 1-.21.07.26.26 0 0 1-.18-.08l-1-1.095a.25.25 0 1 1 .36-.34zm-2.23-2.26a.245.245 0 0 1 .235.15l.95 1a.246.246 0 0 1-.18.42l-.005.015a.256.256 0 0 1-.185-.075l-1-1.07a.246.246 0 0 1-.065-.18.26.26 0 0 1 .192-.251l.058-.009zM1 32.5a.246.246 0 0 1 .245.255l-.025 1.5a.246.246 0 0 1-.26.245H.95a.255.255 0 0 1-.25-.255l.025-1.5A.255.255 0 0 1 1 32.5zm.005-3c.139.003.25.116.25.255v1.5a.255.255 0 0 1-.189.236L1 31.5a.246.246 0 0 1-.245-.255v-1.5a.265.265 0 0 1 .25-.245zm.04-3.005a.25.25 0 0 1 .25.25v1.5a.245.245 0 0 1-.24.255h-.01a.25.25 0 0 1-.25-.255v-1.5a.25.25 0 0 1 .25-.25zm.055-3a.25.25 0 0 1 .25.25v1.5c0 .137-.108.25-.245.255h-.01a.25.25 0 0 1-.245-.255v-1.5a.25.25 0 0 1 .25-.25zm.045-2.995a.25.25 0 0 1 .245.255v1.5a.245.245 0 0 1-.24.245h-.01a.25.25 0 0 1-.25-.25v-1.5a.275.275 0 0 1 .255-.25zm.055-3a.26.26 0 0 1 .245.255v1.5a.255.255 0 0 1-.245.245h-.01a.25.25 0 0 1-.245-.25v-1.5a.244.244 0 0 1 .255-.25zm.05-3a.25.25 0 0 1 .245.255v1.5a.25.25 0 0 1-.245.245h-.01a.242.242 0 0 1-.175-.074.244.244 0 0 1-.07-.176v-1.5a.26.26 0 0 1 .255-.25zm.045-3a.26.26 0 0 1 .245.255v1.5a.25.25 0 0 1-.245.245h-.01a.25.25 0 0 1-.245-.25v-1.5a.26.26 0 0 1 .255-.25zm.05-3c.066 0 .129.026.175.074.046.047.071.11.07.176v1.5a.255.255 0 0 1-.245.25h-.01a.25.25 0 0 1-.245-.255v-1.5a.242.242 0 0 1 .074-.179.242.242 0 0 1 .181-.066zm.065-3.005a.25.25 0 0 1 .25.25l-.025 1.5a.25.25 0 0 1-.245.255h-.01a.26.26 0 0 1-.245-.255l.025-1.5a.25.25 0 0 1 .25-.25zM1.435 2.5a.246.246 0 0 1 .245.255v1.5a.255.255 0 0 1-.24.245h-.01a.25.25 0 0 1-.245-.255v-1.5a.255.255 0 0 1 .185-.235l.065-.01zm.05-2.41a.25.25 0 0 1 .245.255v.91a.25.25 0 0 1-.23.245h-.025a.255.255 0 0 1-.245-.255v-.91A.25.25 0 0 1 1.485.09z" id="i"/>
        <path d="M1.85 52.545a.248.248 0 0 1 0 .35L.79 53.96a.249.249 0 0 1-.165.07.25.25 0 0 1-.175-.425l1.05-1.06a.247.247 0 0 1 .35 0zm2.022-2.19a.25.25 0 0 1 .113.42l-1.06 1.06a.249.249 0 0 1-.408-.08.25.25 0 0 1 .053-.27l1.06-1.065a.253.253 0 0 1 .243-.065zM6.106 48.3a.25.25 0 0 1 0 .355l-1.06 1.06a.25.25 0 0 1-.175.075.254.254 0 0 1-.18-.075.255.255 0 0 1 0-.355l1.06-1.06a.255.255 0 0 1 .355 0zm1.955-2.196c.066 0 .13.028.175.076a.25.25 0 0 1 0 .355l-1.06 1.06A.242.242 0 0 1 7 47.67a.254.254 0 0 1-.18-.075.255.255 0 0 1 0-.355l1.065-1.06a.242.242 0 0 1 .175-.076zm2.117-2.118a.25.25 0 0 1 .178.424l-1.07 1.09a.253.253 0 0 1-.113.044l-.052.001a.25.25 0 0 1-.175-.425L10 44.06a.251.251 0 0 1 .178-.074zm2.303-2.051a.251.251 0 0 1 0 .355l-1.06 1.06a.258.258 0 0 1-.12.068l-.064.006-.054-.007a.25.25 0 0 1-.117-.417l1.06-1.065a.251.251 0 0 1 .355 0zm2.12-2.12a.25.25 0 0 1 0 .355l-1.06 1.06a.248.248 0 0 1-.117.068l-.063.006-.061-.008a.254.254 0 0 1-.114-.066.255.255 0 0 1 0-.355l1.06-1.06a.255.255 0 0 1 .355 0zm1.96-2.196c.066 0 .13.028.175.076a.25.25 0 0 1 0 .355l-1.06 1.06a.234.234 0 0 1-.175.07.247.247 0 0 1-.18-.07.255.255 0 0 1 0-.355l1.065-1.06a.242.242 0 0 1 .175-.076zm1.53-2.369a.25.25 0 0 1 .25.25v.84a.239.239 0 0 1-.07.17l-.47.465a.234.234 0 0 1-.147.084l-.036.001-.055-.008a.25.25 0 0 1-.117-.417l.395-.395v-.74a.25.25 0 0 1 .25-.25zm.035-2.995a.25.25 0 0 1 .25.255v1.5a.255.255 0 0 1-.207.24l-.054.004-.059-.009a.25.25 0 0 1-.18-.245v-1.5a.245.245 0 0 1 .25-.245zm.05-3a.25.25 0 0 1 .245.255v1.5a.25.25 0 0 1-.206.242l-.053.003-.06-.01A.25.25 0 0 1 17.92 31v-1.5a.234.234 0 0 1 .255-.245zm.05-3a.246.246 0 0 1 .245.255v1.5a.255.255 0 0 1-.207.24l-.055.004-.058-.008a.245.245 0 0 1-.18-.246v-1.5a.25.25 0 0 1 .255-.245zm.025-3c.139.003.25.116.25.255v1.5a.25.25 0 0 1-.194.239l-.056.005-.058-.005A.25.25 0 0 1 18 25v-1.5a.25.25 0 0 1 .25-.245zm.085-3a.255.255 0 0 1 .245.255l-.025 1.5a.245.245 0 0 1-.202.242l-.052.003-.062-.009a.25.25 0 0 1-.184-.246l.025-1.5a.234.234 0 0 1 .255-.245zm.025-3.005a.25.25 0 0 1 .25.25V19a.257.257 0 0 1-.205.251l-.056.003-.06-.008A.245.245 0 0 1 18.11 19v-1.5a.25.25 0 0 1 .25-.25zm.045-3a.26.26 0 0 1 .245.255v1.5a.249.249 0 0 1-.201.246l-.054.003-.06-.009a.25.25 0 0 1-.18-.245v-1.5a.25.25 0 0 1 .193-.243l.057-.007zm.07-2.995a.25.25 0 0 1 .245.255l-.025 1.5a.245.245 0 0 1-.202.242l-.052.003-.053-.007a.25.25 0 0 1-.193-.243l.025-1.5a.24.24 0 0 1 .255-.25zm.025-3a.26.26 0 0 1 .25.255v1.5a.25.25 0 0 1-.25.245h-.005a.242.242 0 0 1-.175-.074.244.244 0 0 1-.07-.176v-1.5a.243.243 0 0 1 .072-.178.248.248 0 0 1 .178-.072zm.045-3a.25.25 0 0 1 .245.25v1.5a.249.249 0 0 1-.29.255l.04-.005A.26.26 0 0 1 18.295 7V5.5a.245.245 0 0 1 .185-.238l.065-.007zm.055-3c.066 0 .129.026.175.074.046.047.071.11.07.176v1.5a.255.255 0 0 1-.275.255l.02-.005A.25.25 0 0 1 18.345 4V2.5a.26.26 0 0 1 .255-.245zM18.645.09a.25.25 0 0 1 .245.255v.66a.25.25 0 0 1-.275.255l.02-.005A.255.255 0 0 1 18.39 1V.335a.242.242 0 0 1 .074-.179.242.242 0 0 1 .181-.066z" id="k"/>
    </defs>
    <g fill="none" fill-rule="evenodd">
        <g transform="translate(17 36)">
            <mask id="b" fill="#fff">
                <use xlink:href="#a"/>
            </mask>
            <path fill="#000" mask="url(#b)" d="M-4.44-4.72h45.88v45.875H-4.44z"/>
        </g>
        <g transform="translate(52 18)">
            <mask id="d" fill="#fff">
                <use xlink:href="#c"/>
            </mask>
            <path fill="#000" mask="url(#d)" d="M-4.563-4.148h28.418v63.303H-4.563z"/>
        </g>
        <g transform="translate(0 18)">
            <mask id="f" fill="#fff">
                <use xlink:href="#e"/>
            </mask>
            <path fill="#000" mask="url(#f)" d="M-4.875-4.161h28.438v63.316H-4.875z"/>
        </g>
        <g>
            <mask id="h" fill="#fff">
                <use xlink:href="#g"/>
            </mask>
            <path fill="#000" mask="url(#h)" d="M-4.868-4.145H75.87v28.993H-4.87z"/>
        </g>
        <g transform="translate(52 1)">
            <mask id="j" fill="#fff">
                <use xlink:href="#i"/>
            </mask>
            <path fill="#000" mask="url(#j)" d="M-4.3-4.91h27.919v64.505h-27.92z"/>
        </g>
        <g transform="translate(0 1)">
            <mask id="l" fill="#fff">
                <use xlink:href="#k"/>
            </mask>
            <path fill="#000" mask="url(#l)" d="M-4.622-4.91H23.89v63.94H-4.622z"/>
        </g>
    </g>
</svg>
