<svg width="81" height="91" viewBox="-10 -10 101 111" xmlns="http://www.w3.org/2000/svg" xmlns:xlink="http://www.w3.org/1999/xlink">
    <defs>
        <path d="M49.375.905a.5.5 0 0 1 .43.75L26.275 43.28a.5.5 0 0 1-.43.25h-.015a.5.5 0 0 1-.43-.24L.555 1.665A.5.5 0 0 1 1 .905h48.375zm-.875 1H1.865l23.95 40.13L48.5 1.905z" id="a"/>
        <path d="M26.215.97a.5.5 0 0 1 .39.2L49.76 32.105a.497.497 0 0 1-.1.7.5.5 0 0 1-.7-.1L26.185 2.28 1.37 32.72a.5.5 0 0 1-.775-.63l25.22-30.935a.5.5 0 0 1 .4-.185z" id="c"/>
        <path d="M16.78.42a.499.499 0 0 1 .255.44v45a.5.5 0 0 1-.395.5l-.095-.015a.499.499 0 0 1-.46-.305L.9 10.605a.5.5 0 0 1 .195-.62L16.28.42a.502.502 0 0 1 .5 0zm-.72 1.33L2 10.6l14.06 32.81V1.75z" id="e"/>
        <path d="M1.46 1.035 39.805 22.41a.499.499 0 0 1-.26.935.473.473 0 0 1-.24-.065L.96 1.905a.5.5 0 1 1 .5-.87z" id="g"/>
        <path d="M39.462 1.036a.503.503 0 0 1-.002.869l-37.5 21L14.28 32a.5.5 0 0 1-.295.9l.015.005a.504.504 0 0 1-.3-.095L.75 23.245a.5.5 0 0 1 .055-.835L38.96 1.035a.502.502 0 0 1 .502.001z" id="i"/>
        <path d="M40.017.672a.499.499 0 0 1-.227.598L1.07 22.645a.476.476 0 0 1-.24.075.498.498 0 0 1-.5-.5V7.03a.5.5 0 0 1 .42-.5L39.47.34a.5.5 0 0 1 .547.332zM36.8 1.79 1.33 7.46v13.91L36.8 1.79z" id="k"/>
        <path d="M3.045.345a.5.5 0 0 1 .5.5l-1.5 42.33 14.135-33a.502.502 0 0 1 .92.395L1.915 46.04a.5.5 0 0 1-.46.305.405.405 0 0 1-.11 0 .5.5 0 0 1-.39-.5l1.59-45a.5.5 0 0 1 .41-.492l.09-.008z" id="m"/>
        <path d="m1.53.35 39.375 6.185a.506.506 0 1 1-.155 1L4.25 1.8l36.825 20a.503.503 0 0 1 .205.68.501.501 0 0 1-.45.24.491.491 0 0 1-.24-.06L1.215 1.285A.5.5 0 0 1 1.53.35z" id="o"/>
        <path d="m39.24 66.405.42.215a.25.25 0 1 1-.23.445l-.42-.22a.251.251 0 0 1-.037-.45.252.252 0 0 1 .267.01zm-2.66-1.385 1.33.69a.253.253 0 0 1 .124.148.252.252 0 0 1-.019.192.246.246 0 0 1-.335.105l-1.33-.69a.25.25 0 0 1-.107-.337.25.25 0 0 1 .337-.108zm-2.66-1.385 1.33.69a.255.255 0 0 1 .105.34.251.251 0 0 1-.22.135c-.04 0-.08-.01-.115-.03l-1.33-.69a.25.25 0 0 1 .23-.445zm-2.665-1.385 1.33.695a.246.246 0 0 1 .11.335.255.255 0 0 1-.225.135.259.259 0 0 1-.115-.03l-1.33-.69a.25.25 0 0 1-.107-.337.25.25 0 0 1 .337-.108zm-2.66-1.385 1.33.695a.25.25 0 0 1-.23.445l-1.33-.695a.245.245 0 0 1-.105-.335.25.25 0 0 1 .335-.11zm-2.66-1.355 1.33.69a.25.25 0 0 1 .105.335.24.24 0 0 1-.22.11.224.224 0 0 1-.115 0l-1.33-.695a.246.246 0 0 1-.11-.335.253.253 0 0 1 .148-.124.252.252 0 0 1 .192.019zm-1.695-2.495a.246.246 0 0 1 .15.12l.75 1.3a.246.246 0 0 1-.09.34.287.287 0 0 1-.125.03.255.255 0 0 1-.22-.125l-.745-1.3a.246.246 0 0 1 .09-.34.243.243 0 0 1 .19-.025zm-1.495-2.6a.246.246 0 0 1 .15.12l.75 1.3c.065.12.023.27-.095.34a.274.274 0 0 1-.125.03.25.25 0 0 1-.215-.125l-.75-1.3a.255.255 0 0 1 .095-.34.243.243 0 0 1 .19-.025zm-1.5-2.6a.246.246 0 0 1 .15.12l.745 1.3a.25.25 0 0 1-.09.34.277.277 0 0 1-.12.03h-.005a.25.25 0 0 1-.215-.125l-.75-1.3a.25.25 0 0 1 .095-.34.243.243 0 0 1 .19-.025zm-1.505-2.6a.246.246 0 0 1 .15.12l.75 1.3a.25.25 0 0 1-.09.34.283.283 0 0 1-.115.025l-.01.005a.255.255 0 0 1-.22-.125l-.745-1.3a.246.246 0 0 1 .09-.34.243.243 0 0 1 .19-.025zm-1.345-2.48.75 1.3a.25.25 0 0 1-.095.34.27.27 0 0 1-.115.035h-.01a.243.243 0 0 1-.215-.13l-.75-1.3a.255.255 0 0 1 .095-.34.25.25 0 0 1 .34.095zm-1.652-2.72a.253.253 0 0 1 .152.12l.745 1.3a.246.246 0 0 1-.09.34.266.266 0 0 1-.11.03h-.015a.25.25 0 0 1-.215-.125l-.75-1.3a.246.246 0 0 1 .09-.34.25.25 0 0 1 .193-.025zm-1.463-2.6a.246.246 0 0 1 .15.12l.75 1.295a.255.255 0 0 1-.09.345.281.281 0 0 1-.145.03h-.02a.255.255 0 0 1-.22-.125L15 41.785a.25.25 0 0 1 .09-.345.243.243 0 0 1 .19-.025zm-1.536-2.602a.244.244 0 0 1 .151.117l.75 1.3a.255.255 0 0 1-.095.345.257.257 0 0 1-.105.03h-.02a.25.25 0 0 1-.215-.125l-.75-1.3a.255.255 0 0 1 .095-.34.246.246 0 0 1 .189-.027zm-1.566-2.617a.248.248 0 0 1 .217.139l.745 1.3a.25.25 0 0 1-.09.34.267.267 0 0 1-.1.025l-.025.005a.25.25 0 0 1-.215-.125l-.75-1.3a.25.25 0 0 1 .218-.384zm-1.462-2.566c.089.001.17.048.214.125l.75 1.3a.245.245 0 0 1-.09.34c-.043.015-.09.021-.135.015h-.03a.251.251 0 0 1-.22-.13L10.5 34a.247.247 0 0 1 .216-.37zm-1.47-2.615a.245.245 0 0 1 .149.12l.75 1.3a.25.25 0 0 1-.19.37h-.03a.25.25 0 0 1-.215-.125l-.75-1.3a.255.255 0 0 1 .095-.34.244.244 0 0 1 .19-.025zm-1.311-2.48.745 1.295a.255.255 0 0 1-.09.345.267.267 0 0 1-.13.03h-.035a.25.25 0 0 1-.215-.125l-.71-1.295a.251.251 0 1 1 .435-.25zM6.43 25.93l.75 1.3a.255.255 0 0 1-.09.345.285.285 0 0 1-.125.03h-.04a.255.255 0 0 1-.22-.125L6 26.18a.245.245 0 0 1 .09-.34.25.25 0 0 1 .34.09zm-1.752-2.726a.25.25 0 0 1 .217.126l.75 1.3a.255.255 0 0 1-.095.345.253.253 0 0 1-.085.025l-.04.005a.25.25 0 0 1-.215-.125l-.75-1.3a.25.25 0 0 1 .218-.376zm-1.393-2.569a.245.245 0 0 1 .15.12l.745 1.3a.245.245 0 0 1-.09.34l-.06.014-.105.001a.243.243 0 0 1-.215-.13L3 21a.25.25 0 0 1 .095-.34.244.244 0 0 1 .19-.025zm-1.505-2.62a.245.245 0 0 1 .15.12l.75 1.3a.245.245 0 0 1-.18.37h-.075a.255.255 0 0 1-.22-.125l-.705-1.3a.245.245 0 0 1 .09-.34.244.244 0 0 1 .19-.025zm-.865-2.8a.25.25 0 0 1 .25.25l-.025 1.36a.25.25 0 0 1-.095.34.29.29 0 0 1-.045.04H.925a.25.25 0 0 1-.215-.125l-.035-.06a.24.24 0 0 1-.035-.13l.025-1.425a.25.25 0 0 1 .25-.25zM.93 12.21c.066 0 .129.026.175.074.046.047.071.11.07.176v1.5a.25.25 0 0 1-.175.255l-.075-.01a.242.242 0 0 1-.175-.074.244.244 0 0 1-.07-.176v-1.5a.25.25 0 0 1 .193-.239l.057-.006zm.075-3.005a.25.25 0 0 1 .245.25l-.025 1.5a.25.25 0 0 1-.19.265l-.065-.015a.26.26 0 0 1-.245-.255l.025-1.5a.234.234 0 0 1 .255-.245zm.025-3c.066 0 .129.026.175.074.046.047.071.11.07.176v1.5a.255.255 0 0 1-.19.265l-.065-.015a.25.25 0 0 1-.245-.255v-1.5a.25.25 0 0 1 .255-.245zm.04-3a.25.25 0 0 1 .245.25v1.5a.25.25 0 0 1-.185.265l-.065-.015A.255.255 0 0 1 .82 4.95v-1.5a.255.255 0 0 1 .185-.235l.065-.01zm.05-3a.25.25 0 0 1 .25.255v1.5a.255.255 0 0 1-.19.26l-.065-.015A.25.25 0 0 1 .87 1.95V.45a.235.235 0 0 1 .25-.245z" id="q"/>
        <path d="M2.175 49.46a.26.26 0 0 1-.11.34l-1.34.7a.279.279 0 0 1-.115 0 .24.24 0 0 1-.22-.14.245.245 0 0 1 .11-.335l1.34-.675a.255.255 0 0 1 .335.11zm2.575-1.443a.251.251 0 0 1-.03.433l-1.335.675a.322.322 0 0 1-.095.035v-.01a.25.25 0 0 1-.11-.475L4.5 48a.251.251 0 0 1 .25.017zm2.78-1.257a.245.245 0 0 1-.11.335l-1.34.68a.286.286 0 0 1-.11.035v-.01a.25.25 0 0 1-.225-.14.255.255 0 0 1 .11-.335l1.34-.675a.25.25 0 0 1 .335.11zm2.68-1.35a.245.245 0 0 1-.11.335l-1.34.675a.23.23 0 0 1-.11.04v-.01a.245.245 0 0 1-.225-.14.25.25 0 0 1 .11-.335l1.34-.675a.25.25 0 0 1 .335.11zm2.68-1.35a.25.25 0 0 1-.11.335l-1.34.675a.236.236 0 0 1-.115.04v-.01a.25.25 0 0 1-.11-.475l1.34-.675a.25.25 0 0 1 .335.11zm2.295-1.755c.118.07.16.22.095.34l-.36.625a.226.226 0 0 1-.105.1l-.695.35a.234.234 0 0 1-.12.04l.005-.01a.24.24 0 0 1-.22-.14.245.245 0 0 1 .11-.335l.63-.32.32-.555a.245.245 0 0 1 .34-.095zm1.492-2.602a.25.25 0 0 1 .093.342l-.745 1.3a.25.25 0 0 1-.22.155v-.03a.251.251 0 0 1-.12-.03.255.255 0 0 1-.095-.345l.745-1.3a.25.25 0 0 1 .342-.092zm1.498-2.603c.118.07.16.22.095.34l-.77 1.315a.252.252 0 0 1-.2.125l.005-.01a.221.221 0 0 1-.125-.035.244.244 0 0 1-.09-.34l.745-1.3a.25.25 0 0 1 .34-.095zm1.505-2.6a.244.244 0 0 1 .09.34L19 36.15a.254.254 0 0 1-.21.125l.015-.01a.285.285 0 0 1-.125-.03.255.255 0 0 1-.09-.345l.745-1.3a.25.25 0 0 1 .345-.09zm1.495-2.605c.118.07.16.22.095.34l-.77 1.315a.25.25 0 0 1-.215.125l.02-.01a.221.221 0 0 1-.125-.035.244.244 0 0 1-.09-.34l.745-1.3a.245.245 0 0 1 .34-.095zm1.505-2.6a.244.244 0 0 1 .09.34l-.77 1.31a.25.25 0 0 1-.225.125l.03-.01a.251.251 0 0 1-.12-.03.25.25 0 0 1-.095-.34l.745-1.305a.25.25 0 0 1 .345-.09zm1.495-2.605a.26.26 0 0 1 .095.345l-.75 1.3a.25.25 0 0 1-.25.135l.035-.01a.221.221 0 0 1-.125-.035.244.244 0 0 1-.09-.34l.745-1.3c.07-.118.22-.16.34-.095zm1.502-2.602a.25.25 0 0 1 .093.342L25 25.74a.25.25 0 0 1-.24.125l.045-.01a.25.25 0 0 1-.215-.375l.745-1.3a.25.25 0 0 1 .342-.092zm1.498-2.603a.26.26 0 0 1 .095.345l-.75 1.3a.25.25 0 0 1-.265.135l.05-.01a.221.221 0 0 1-.125-.035.244.244 0 0 1-.09-.34l.745-1.3c.07-.118.22-.16.34-.095zm1.505-2.6a.244.244 0 0 1 .09.34l-.745 1.3a.255.255 0 0 1-.28.135l.06-.01a.251.251 0 0 1-.12-.03.25.25 0 0 1-.095-.34l.745-1.305a.255.255 0 0 1 .345-.09zm1.495-2.605a.26.26 0 0 1 .095.345l-.75 1.3a.249.249 0 0 1-.28.135l.065-.01a.221.221 0 0 1-.125-.035.244.244 0 0 1-.09-.34l.745-1.3a.25.25 0 0 1 .34-.095zm1.505-2.6a.244.244 0 0 1 .09.34l-.745 1.3a.255.255 0 0 1-.295.135l.075-.01a.285.285 0 0 1-.125-.03.25.25 0 0 1-.09-.34l.745-1.305a.255.255 0 0 1 .345-.09zm1.405-2.575a.26.26 0 0 1 .095.345l-.75 1.3a.25.25 0 0 1-.09.077l-.046.017-.033-.002a.22.22 0 0 1-.081-.032.244.244 0 0 1-.18-.31l.745-1.3a.25.25 0 0 1 .34-.095zm1.595-2.63a.244.244 0 0 1 .09.34l-.745 1.3a.246.246 0 0 1-.31.14l.09-.01a.266.266 0 0 1-.12-.035.25.25 0 0 1-.095-.34l.745-1.305a.25.25 0 0 1 .345-.09zm1.495-2.605a.26.26 0 0 1 .095.345l-.75 1.3a.25.25 0 0 1-.31.135l.095-.01a.221.221 0 0 1-.125-.035.244.244 0 0 1-.09-.34l.745-1.3c.07-.118.22-.16.34-.095zm1.503-2.603c.12.07.161.223.092.343l-.745 1.305a.25.25 0 0 1-.325.135l.105-.01a.266.266 0 0 1-.12-.035.25.25 0 0 1-.095-.34l.745-1.305a.251.251 0 0 1 .343-.093zM39.175.67a.25.25 0 0 1 .095.34l-.75 1.3a.25.25 0 0 1-.325.135l.11-.01a.221.221 0 0 1-.125-.035.244.244 0 0 1-.09-.34l.745-1.3a.244.244 0 0 1 .34-.09z" id="s"/>
        <path d="M49.505.28c.139.003.25.116.25.255a.248.248 0 0 1-.19.238L49.5.78H48a.25.25 0 0 1-.245-.25.233.233 0 0 1 .066-.184.233.233 0 0 1 .184-.066h1.5zm-3 0a.25.25 0 0 1 .25.25.25.25 0 0 1-.255.23v.02H45a.245.245 0 0 1-.245-.25.25.25 0 0 1 .193-.243l.057-.007h1.5zm-3-.025a.25.25 0 0 1 0 .5H42a.252.252 0 0 1-.171-.43.245.245 0 0 1 .111-.063l.065-.007h1.5zM40.5.23c.139.003.25.116.25.255a.25.25 0 0 1-.25.225v.02H39a.25.25 0 0 1-.057-.493L39 .23h1.5zm-3 0a.25.25 0 0 1 .057.493L37.5.73H36a.255.255 0 0 1-.25-.255.25.25 0 0 1 .193-.239L36 .23h1.5zm-3 0a.25.25 0 0 1 .057.493L34.5.73H33a.25.25 0 0 1-.057-.493L33 .23h1.5zm-3 0a.25.25 0 0 1 .25.25.25.25 0 0 1-.25.165V.73H30a.25.25 0 0 1-.057-.493L30 .23h1.5zm-3 0a.25.25 0 0 1 .057.493L28.5.73H27a.25.25 0 0 1-.057-.493L27 .23h1.5zm-3-.025c.139.003.25.116.25.255a.25.25 0 0 1-.25.135v.11H24a.25.25 0 0 1-.057-.493L24 .205h1.5zm-3 0a.25.25 0 0 1 .25.25.25.25 0 0 1-.25.12v.13H21a.25.25 0 0 1-.25-.25.255.255 0 0 1 .184-.24L21 .205h1.5zm-3-.025a.25.25 0 0 1 .25.255.244.244 0 0 1-.25.115v.13H18a.25.25 0 0 1-.057-.493L18 .18h1.5zm-3 0a.25.25 0 0 1 .25.25.25.25 0 0 1-.25.1v.15H15a.25.25 0 0 1-.057-.493L15 .18h1.5zm-3-.025a.25.25 0 0 1 .25.25.251.251 0 0 1-.25.095v.155H12A.255.255 0 0 1 11.75.4a.25.25 0 0 1 .193-.239L12 .155h1.5zm-3 0c.139.003.25.116.25.255a.244.244 0 0 1-.25.09v.155H9a.25.25 0 0 1-.25-.25.265.265 0 0 1 .25-.25h1.5zm-3 0a.25.25 0 0 1 .057.493L7.5.655H6a.25.25 0 0 1-.25-.25.255.255 0 0 1 .184-.24L6 .155h1.5zm-3 0a.25.25 0 0 1 .245.255.245.245 0 0 1-.245.025v.22H3a.25.25 0 0 1-.057-.493L3 .155h1.5zM1.5.13a.255.255 0 0 1 .245.255A.245.245 0 0 1 1.5.41v.22H.7A.242.242 0 0 1 .525.556.244.244 0 0 1 .455.38a.25.25 0 0 1 .25-.25H1.5z" id="u"/>
        <path d="M1.08 72.182a.25.25 0 0 1 .145.408l-.3.355a.26.26 0 0 1-.19.085.236.236 0 0 1-.16-.06.24.24 0 0 1-.03-.35l.3-.355a.248.248 0 0 1 .236-.083zm1.937-2.297a.252.252 0 0 1 .148.41l-.97 1.145a.264.264 0 0 1-.195.095l.005-.005a.255.255 0 0 1-.195-.415l.97-1.145a.25.25 0 0 1 .237-.085zm1.939-2.288a.25.25 0 0 1 .144.408l-.97 1.145a.262.262 0 0 1-.19.09v-.005a.24.24 0 0 1-.16-.055.255.255 0 0 1-.03-.355l.97-1.145a.248.248 0 0 1 .236-.083zm1.936-2.292a.252.252 0 0 1 .148.41l-.97 1.145a.262.262 0 0 1-.19.09v-.005a.288.288 0 0 1-.165-.055.255.255 0 0 1-.025-.355l.965-1.145a.25.25 0 0 1 .237-.085zm1.939-2.288a.25.25 0 0 1 .144.408L8 64.575a.252.252 0 0 1-.185.085v-.005a.272.272 0 0 1-.16-.055.255.255 0 0 1-.03-.355l.97-1.145a.248.248 0 0 1 .236-.083zm2.054-2.237a.255.255 0 0 1 .03.355l-.97 1.145a.262.262 0 0 1-.19.09v-.005a.288.288 0 0 1-.165-.055.255.255 0 0 1-.025-.355l.965-1.145a.26.26 0 0 1 .355-.03zm1.935-2.29a.25.25 0 0 1 .03.355L11.885 60a.26.26 0 0 1-.195.08v-.005a.272.272 0 0 1-.16-.055.255.255 0 0 1-.03-.355l.97-1.145a.25.25 0 0 1 .35-.03zm1.759-2.349a.245.245 0 0 1 .181.059.255.255 0 0 1 .03.355l-.97 1.145a.262.262 0 0 1-.19.09v-.005a.25.25 0 0 1-.19-.41l.97-1.145a.247.247 0 0 1 .169-.089zM16.7 53.91a.255.255 0 0 1 .03.355l-.97 1.145a.257.257 0 0 1-.195.09v-.005a.25.25 0 0 1-.19-.41l.97-1.145a.255.255 0 0 1 .355-.03zm1.754-2.349a.244.244 0 0 1 .181.059.255.255 0 0 1 .03.355l-.97 1.145a.257.257 0 0 1-.195.09l.005-.005a.25.25 0 0 1-.19-.41l.97-1.145a.248.248 0 0 1 .169-.089zm2.121-2.231a.255.255 0 0 1 .03.355l-.97 1.145a.262.262 0 0 1-.19.09v-.005a.25.25 0 0 1-.195-.41l.97-1.145a.255.255 0 0 1 .355-.03zm1.918-2.27a.251.251 0 0 1 .047.33l-.97 1.145a.24.24 0 0 1-.19.095v-.005a.25.25 0 0 1-.19-.41l.97-1.145a.252.252 0 0 1 .333-.01zm1.957-2.31a.244.244 0 0 1 .03.35l-.98 1.15a.247.247 0 0 1-.18.09v-.005a.256.256 0 0 1-.165-.06.245.245 0 0 1-.025-.35l.965-1.145a.255.255 0 0 1 .355-.03zm1.525-2.535a.249.249 0 0 1 .145.325l-.4 1.075a.288.288 0 0 1-.045.075l-.225.265a.248.248 0 0 1-.195.095v-.005a.253.253 0 0 1-.249-.229.244.244 0 0 1 .059-.181l.2-.235.385-1.035a.26.26 0 0 1 .325-.15zm1.045-2.795a.26.26 0 0 1 .15.325l-.525 1.405a.256.256 0 0 1-.235.15v-.005a.242.242 0 0 1-.085 0 .25.25 0 0 1-.15-.32l.525-1.405a.255.255 0 0 1 .32-.15zm1.05-2.81a.25.25 0 0 1 .145.32l-.5 1.41a.255.255 0 0 1-.255.16v-.015a.272.272 0 0 1-.09 0 .244.244 0 0 1-.145-.32l.525-1.41a.244.244 0 0 1 .32-.145zm1.03-2.81a.244.244 0 0 1 .145.32l-.505 1.38a.25.25 0 0 1-.24.18l.005-.005h-.085a.249.249 0 0 1-.145-.325l.5-1.405a.249.249 0 0 1 .325-.145zm1.067-2.812a.25.25 0 0 1 .148.322l-.5 1.405a.25.25 0 0 1-.26.155v-.005a.243.243 0 0 1-.085 0 .26.26 0 0 1-.15-.325l.525-1.405a.25.25 0 0 1 .322-.147zm1.023-2.808a.25.25 0 0 1 .15.32l-.5 1.405a.26.26 0 0 1-.235.155v-.005a.243.243 0 0 1-.085 0 .256.256 0 0 1-.15-.325l.5-1.405a.25.25 0 0 1 .32-.145zm1.05-2.81a.25.25 0 0 1 .15.32l-.525 1.405a.256.256 0 0 1-.21.15v-.005a.272.272 0 0 1-.09 0 .244.244 0 0 1-.145-.32l.5-1.405a.244.244 0 0 1 .32-.145zm1.196-2.755a.247.247 0 0 1 .024.265l-.5 1.405a.24.24 0 0 1-.255.15v-.005a.272.272 0 0 1-.09 0 .244.244 0 0 1-.145-.32l.525-1.405a.25.25 0 0 1 .192-.184.25.25 0 0 1 .249.094zm.929-2.885a.249.249 0 0 1 .145.325l-.51 1.41a.246.246 0 0 1-.25.16v-.005a.253.253 0 0 1-.205-.106.252.252 0 0 1-.03-.229l.525-1.405a.26.26 0 0 1 .325-.15zm1.045-2.795c.128.049.194.19.15.32l-.525 1.41a.256.256 0 0 1-.235.15v-.005a.242.242 0 0 1-.085 0 .255.255 0 0 1-.15-.32l.525-1.405a.25.25 0 0 1 .32-.15zm1.171-2.755a.247.247 0 0 1 .024.265l-.5 1.405a.25.25 0 0 1-.255.15.272.272 0 0 1-.09 0 .249.249 0 0 1-.145-.325l.525-1.405a.25.25 0 0 1 .192-.184.25.25 0 0 1 .249.094zm1.025-2.81a.247.247 0 0 1 .024.265l-.525 1.405a.246.246 0 0 1-.205.155v-.005a.272.272 0 0 1-.09 0 .249.249 0 0 1-.145-.325l.5-1.405a.25.25 0 0 1 .192-.184.25.25 0 0 1 .249.094zm.954-2.86a.244.244 0 0 1 .145.32l-.5 1.405a.251.251 0 0 1-.26.15v-.005a.175.175 0 0 1-.085 0 .25.25 0 0 1-.15-.32l.525-1.405a.249.249 0 0 1 .325-.145zm1.02-2.81a.25.25 0 0 1 .15.32l-.5 1.405a.26.26 0 0 1-.23.15l-.005-.005a.175.175 0 0 1-.085 0 .244.244 0 0 1-.15-.32l.5-1.405a.25.25 0 0 1 .32-.145zm-2.91-.48 1.5.19a.25.25 0 1 1-.035.5h-.03l-1.5-.19a.251.251 0 0 1-.217-.282.25.25 0 0 1 .282-.218zm-3-.38 1.5.19a.25.25 0 0 1-.03.5l-.005-.005h-.03l-1.5-.19a.25.25 0 0 1-.215-.28.241.241 0 0 1 .28-.215zm-2.975-.385 1.5.19a.255.255 0 0 1-.01.505l-.025-.005h-.03l-1.5-.195a.245.245 0 0 1-.215-.275.248.248 0 0 1 .28-.22zm-3-.375 1.5.19a.25.25 0 1 1-.03.5l-.005-.005h-.03l-1.5-.19a.244.244 0 0 1-.215-.28.25.25 0 0 1 .28-.215zm-2.98-.385 1.5.19a.25.25 0 1 1-.03.5V4.38h-.035l-1.5-.19a.25.25 0 1 1 .065-.495zm-2.93-.385 1.5.195a.245.245 0 0 1 .215.275.25.25 0 0 1-.24.22h-.035l-1.5-.19a.254.254 0 0 1-.202-.151.252.252 0 0 1 .262-.349zm-3-.375 1.5.19a.25.25 0 0 1 .215.28.25.25 0 0 1-.215.22l-.025-.005h-.035l-1.5-.19a.248.248 0 0 1-.22-.28.255.255 0 0 1 .28-.215zm-2.975-.39 1.5.19a.25.25 0 0 1-.03.5h-.03l-1.5-.19a.254.254 0 0 1-.202-.151.252.252 0 0 1 .262-.349zm-2.99-.38 1.5.195a.25.25 0 0 1-.035.5v-.005h-.03l-1.5-.19a.252.252 0 1 1 .065-.5zM9.89 1.81l1.5.19a.255.255 0 0 1 .22.28.255.255 0 0 1-.255.22h-.03l-1.5-.195a.243.243 0 0 1-.215-.28.25.25 0 0 1 .28-.215zm-3-.38 1.5.19a.25.25 0 0 1 .22.28.255.255 0 0 1-.23.2l-.025.02h-.03l-1.5-.19a.252.252 0 1 1 .065-.5zm-2.975-.38 1.5.19a.25.25 0 1 1-.03.5l-.005-.005h-.03l-1.5-.19a.25.25 0 0 1-.215-.28.24.24 0 0 1 .28-.215zM.935.665l1.5.19a.25.25 0 0 1 .215.28.244.244 0 0 1-.22.2l-.025.02H2.37L.87 1.16A.24.24 0 0 1 .655.885a.251.251 0 0 1 .28-.22z" id="w"/>
        <path d="m39.31 71.285.175.21a.245.245 0 0 1-.19.41.26.26 0 0 1-.19-.085l-.175-.205a.252.252 0 0 1 .38-.33zm-2.005-2.27 1 1.135a.26.26 0 0 1-.03.355.25.25 0 0 1-.135.06.245.245 0 0 1-.19-.09l-1-1.135a.245.245 0 0 1 0-.35.255.255 0 0 1 .355.025zm-1.96-2.27 1 1.135a.25.25 0 0 1-.133.403l-.048.006-.038-.004a.239.239 0 0 1-.136-.08l-1-1.135a.255.255 0 0 1 0-.355.26.26 0 0 1 .355.03zM33.41 64.45l1 1.14a.25.25 0 0 1-.38.325l-1-1.135a.252.252 0 0 1 .38-.33zm-1.985-2.27 1 1.135a.255.255 0 0 1-.03.355.243.243 0 0 1-.135.08v-.02a.26.26 0 0 1-.19-.085l-1-1.14a.245.245 0 0 1 0-.35.255.255 0 0 1 .355.025zm-1.96-2.23 1 1.135a.255.255 0 0 1-.165.415.245.245 0 0 1-.19-.09l-1-1.135a.245.245 0 0 1 0-.35.255.255 0 0 1 .355.025zm-1.96-2.27 1 1.135a.25.25 0 0 1-.133.403l-.048.006-.038-.004a.239.239 0 0 1-.136-.08l-1-1.135a.255.255 0 0 1 0-.355.26.26 0 0 1 .355.03zm-1.935-2.275 1 1.14a.25.25 0 0 1-.38.325l-1-1.135a.252.252 0 0 1 .38-.33zm-1.985-2.295 1 1.135a.255.255 0 0 1-.03.355.246.246 0 0 1-.135.065v.02a.26.26 0 0 1-.19-.085l-1-1.14a.245.245 0 0 1 0-.35.255.255 0 0 1 .355 0zm-1.96-2.245 1 1.135a.255.255 0 0 1-.03.355.249.249 0 0 1-.135.04v.02a.245.245 0 0 1-.19-.09l-1-1.135a.245.245 0 0 1 0-.35.255.255 0 0 1 .355.025zm-1.96-2.29 1 1.135a.25.25 0 0 1-.133.403l-.048.006-.038-.004a.239.239 0 0 1-.136-.08l-1-1.135a.255.255 0 0 1 0-.355.26.26 0 0 1 .355.03zm-2.106-2.359a.245.245 0 0 1 .171.089l1 1.135a.25.25 0 0 1-.38.325l-1-1.135a.255.255 0 0 1 .025-.355.246.246 0 0 1 .184-.059zM15.77 44.03l1 1.135a.255.255 0 0 1-.03.355.242.242 0 0 1-.16.06.26.26 0 0 1-.19-.085l-1-1.14a.244.244 0 0 1 .025-.35.255.255 0 0 1 .355.025zm-1.38-2.49.525 1.41a.25.25 0 0 1-.15.32l-.105.015a.24.24 0 0 1-.235-.165l-.5-1.405a.25.25 0 0 1 .465-.175zm-1.04-2.81.5 1.405a.246.246 0 0 1-.235.335.24.24 0 0 1-.23-.16l-.5-1.41a.246.246 0 0 1 .145-.32.25.25 0 0 1 .32.15zm-1.168-2.958c.06.028.107.08.128.143l.5 1.405a.246.246 0 0 1-.145.32.188.188 0 0 1-.09.02.26.26 0 0 1-.235-.165l-.5-1.405a.26.26 0 0 1 .15-.325.246.246 0 0 1 .192.007zm-1.041-2.812c.06.027.107.078.129.14l.5 1.405a.255.255 0 0 1-.145.325.276.276 0 0 1-.09.015.26.26 0 0 1-.235-.165l-.5-1.405a.25.25 0 0 1 .15-.32.247.247 0 0 1 .19.005zm-.906-2.675.5 1.41a.25.25 0 0 1-.47.17l-.5-1.405a.245.245 0 0 1 .15-.32.25.25 0 0 1 .32.145zm-1.04-2.81.5 1.405a.25.25 0 0 1-.15.32l-.044.011-.043.004-.059-.007a.25.25 0 0 1-.174-.153l-.5-1.41a.246.246 0 0 1 .145-.32.256.256 0 0 1 .325.15zm-1.237-2.999a.25.25 0 0 1 .192.184l.5 1.405a.25.25 0 0 1-.15.32l-.041.015-.042.005-.058-.008a.25.25 0 0 1-.174-.157l-.5-1.405a.25.25 0 0 1 .273-.359zm-1.04-2.815a.25.25 0 0 1 .192.184l.5 1.41a.246.246 0 0 1-.145.32l-.085.015a.25.25 0 0 1-.235-.165l-.5-1.405a.25.25 0 0 1 .273-.359zM6.07 19.03l.5 1.41a.246.246 0 0 1-.145.32l-.047.011-.045.004-.059-.008a.255.255 0 0 1-.174-.152l-.5-1.41a.25.25 0 0 1 .15-.32.25.25 0 0 1 .32.145zm-1.04-2.81.5 1.405a.25.25 0 0 1-.145.32l-.047.011-.045.004-.059-.008a.255.255 0 0 1-.174-.152l-.5-1.41a.25.25 0 0 1 .47-.17zm-1.06-2.8.5 1.405a.26.26 0 0 1-.15.325.273.273 0 0 1-.07 0A.26.26 0 0 1 4 15l-.5-1.405a.25.25 0 0 1 .147-.322.25.25 0 0 1 .323.147zm-1.157-2.97a.247.247 0 0 1 .132.14l.5 1.41a.251.251 0 0 1-.235.335.25.25 0 0 1-.235-.165l-.5-1.405a.25.25 0 0 1 .338-.315zM1.71 7.568a.25.25 0 0 1 .19.192l.525 1.405a.25.25 0 0 1-.15.32L2.17 9.5a.245.245 0 0 1-.235-.16l-.5-1.41a.25.25 0 0 1 .275-.362zM.86 4.945l.5 1.405a.246.246 0 0 1-.145.32.19.19 0 0 1-.09.04v-.02a.246.246 0 0 1-.23-.165l-.5-1.41a.25.25 0 0 1 .145-.32.25.25 0 0 1 .32.15zm2.424-.705a.236.236 0 0 1 .086.17.245.245 0 0 1-.22.275l-1.5.15h-.025a.255.255 0 0 1-.25-.225.26.26 0 0 1 .225-.275l1.5-.145a.235.235 0 0 1 .184.05zm2.841-.35a.251.251 0 1 1 .05.5l-1.5.145-.05.005a.25.25 0 0 1 0-.5l1.5-.15zm3-.3a.251.251 0 1 1 .05.5l-1.5.15h-.05a.25.25 0 0 1 0-.5l1.5-.15zM12.1 3.3a.24.24 0 0 1 .27.22.25.25 0 0 1-.22.275l-1.5.15h-.025a.246.246 0 0 1-.245-.225.25.25 0 0 1 .22-.275l1.5-.145zm3-.3a.24.24 0 0 1 .27.225.25.25 0 0 1-.22.275l-1.5.145-.025.005a.26.26 0 0 1-.25-.225.255.255 0 0 1 .225-.275L15.1 3zm3-.295a.251.251 0 1 1 .05.5l-1.5.15-.025-.005a.246.246 0 0 1-.245-.225.25.25 0 0 1 .22-.275l1.5-.145zm3-.3a.25.25 0 0 1 .275.225.255.255 0 0 1-.225.275l-1.5.15h-.025a.246.246 0 0 1-.245-.225.25.25 0 0 1 .22-.275l1.5-.15zm3-.3a.249.249 0 0 1 .186.053.25.25 0 0 1-.136.442l-1.5.15-.025.005a.25.25 0 1 1-.025-.5l1.5-.15zm2.9-.25a.245.245 0 0 1 .275.22.255.255 0 0 1-.225.275l-1.5.15h-.05a.246.246 0 0 1-.245-.225.248.248 0 0 1 .062-.191A.247.247 0 0 1 25.5 2l1.5-.145zm3-.3a.25.25 0 0 1 .275.225.255.255 0 0 1-.225.275l-1.5.145-.05.005a.25.25 0 0 1 0-.5l1.5-.15zm3-.3a.249.249 0 0 1 .186.053.25.25 0 0 1-.136.442l-1.55.155a.25.25 0 0 1 0-.5l1.5-.15zm2.98-.29a.245.245 0 0 1 .275.22.249.249 0 0 1-.225.275l-1.5.15h-.03a.246.246 0 0 1-.245-.225.249.249 0 0 1 .225-.275l1.5-.145zm2.995-.3a.251.251 0 1 1 .05.5l-1.5.145-.025.005a.25.25 0 0 1-.25-.225.245.245 0 0 1 .225-.275l1.5-.15z" id="y"/>
        <path d="M25.99 42.235a.249.249 0 0 1 .145.325l-.4 1.075a.255.255 0 0 1-.235.145.272.272 0 0 1-.09 0 .25.25 0 0 1-.145-.32l.4-1.075a.26.26 0 0 1 .325-.15zm1.045-2.83a.26.26 0 0 1 .15.325l-.525 1.405a.256.256 0 0 1-.25.165l.015-.02a.243.243 0 0 1-.085 0 .25.25 0 0 1-.15-.32l.525-1.405a.255.255 0 0 1 .32-.15zm1.05-2.81a.25.25 0 0 1 .145.32l-.5 1.41a.255.255 0 0 1-.27.175l.015-.03a.272.272 0 0 1-.09 0 .244.244 0 0 1-.145-.32l.525-1.41a.244.244 0 0 1 .32-.145zm1.03-2.81a.244.244 0 0 1 .145.32l-.52 1.395a.25.25 0 0 1-.24.18l.02-.02h-.085a.249.249 0 0 1-.145-.325l.5-1.405a.249.249 0 0 1 .325-.145zm1.067-2.812a.25.25 0 0 1 .148.322l-.5 1.405a.25.25 0 0 1-.275.17l.015-.02a.243.243 0 0 1-.085 0 .26.26 0 0 1-.15-.325l.525-1.405a.25.25 0 0 1 .322-.147zm1.023-2.808a.25.25 0 0 1 .15.32l-.5 1.405a.26.26 0 0 1-.25.17l.015-.02a.243.243 0 0 1-.085 0 .256.256 0 0 1-.15-.325l.5-1.405a.25.25 0 0 1 .32-.145zm1.05-2.81a.25.25 0 0 1 .15.32l-.525 1.405a.255.255 0 0 1-.225.165l.015-.02a.272.272 0 0 1-.09 0 .244.244 0 0 1-.145-.32l.5-1.405a.244.244 0 0 1 .32-.145zm1.196-2.755a.247.247 0 0 1 .024.265l-.5 1.405a.24.24 0 0 1-.27.165l.015-.02a.272.272 0 0 1-.09 0 .244.244 0 0 1-.145-.32l.525-1.405a.25.25 0 0 1 .192-.184.25.25 0 0 1 .249.094zm.929-2.885a.249.249 0 0 1 .145.325L34 21.465a.246.246 0 0 1-.25.16l.015-.02a.253.253 0 0 1-.205-.106.252.252 0 0 1-.03-.229l.525-1.405a.26.26 0 0 1 .325-.15zm1.045-2.795c.128.049.194.19.15.32l-.525 1.41a.256.256 0 0 1-.25.165l.015-.02a.243.243 0 0 1-.085 0 .255.255 0 0 1-.15-.32l.525-1.405a.25.25 0 0 1 .32-.15zm1.171-2.755a.247.247 0 0 1 .024.265l-.5 1.405a.25.25 0 0 1-.27.165l.015-.015a.272.272 0 0 1-.09 0 .249.249 0 0 1-.145-.325l.525-1.405a.25.25 0 0 1 .192-.184.25.25 0 0 1 .249.094zm1.025-2.81a.247.247 0 0 1 .024.265l-.525 1.405a.246.246 0 0 1-.22.17l.015-.02a.272.272 0 0 1-.09 0 .249.249 0 0 1-.145-.325l.5-1.405a.25.25 0 0 1 .192-.184.25.25 0 0 1 .249.094zm.954-2.86a.244.244 0 0 1 .145.32l-.5 1.405a.25.25 0 0 1-.275.165l.015-.02a.175.175 0 0 1-.085 0 .25.25 0 0 1-.15-.32l.525-1.405a.249.249 0 0 1 .325-.145zm1.02-2.81a.25.25 0 0 1 .15.32l-.5 1.405a.26.26 0 0 1-.245.165l.01-.02a.175.175 0 0 1-.085 0 .244.244 0 0 1-.15-.32l.5-1.405a.25.25 0 0 1 .32-.145zm-2.91-.48 1.5.19a.25.25 0 1 1-.035.5h-.03l-1.5-.19a.251.251 0 0 1-.217-.282.25.25 0 0 1 .282-.218zm-3-.38 1.5.19a.25.25 0 0 1-.03.5l-.005-.005h-.03l-1.5-.19a.25.25 0 0 1-.215-.28.241.241 0 0 1 .28-.215zM30.71 4.44l1.5.19a.255.255 0 0 1 .22.28.256.256 0 0 1-.245.24l-.01-.02h-.03l-1.5-.195a.245.245 0 0 1-.215-.275.248.248 0 0 1 .28-.22zm-3-.375 1.5.19a.25.25 0 0 1-.03.5l-.005-.005h-.03l-1.5-.19a.244.244 0 0 1-.215-.28.25.25 0 0 1 .28-.215zm-2.98-.385 1.5.19a.25.25 0 0 1-.03.5v-.005h-.035l-1.5-.19a.25.25 0 1 1 .065-.495zm-2.945-.37 1.5.195a.245.245 0 0 1 .215.275.25.25 0 0 1-.24.22h-.035l-1.5-.19a.254.254 0 0 1-.202-.151.252.252 0 0 1 .262-.349zm-3-.375 1.5.19a.25.25 0 0 1 .215.28.25.25 0 0 1-.215.22l-.025-.005h-.035l-1.5-.19a.248.248 0 0 1-.22-.28.255.255 0 0 1 .28-.215zm-2.975-.39 1.5.19a.25.25 0 0 1-.03.5h-.03l-1.5-.19a.254.254 0 0 1-.202-.151.252.252 0 0 1 .262-.349zm-2.99-.38 1.5.195a.25.25 0 0 1-.035.5v-.005h-.03l-1.5-.19a.252.252 0 1 1 .065-.5zM9.89 1.81l1.5.19a.255.255 0 0 1 .22.28.255.255 0 0 1-.255.22h-.03l-1.5-.195a.243.243 0 0 1-.215-.28.25.25 0 0 1 .28-.215zm-3-.38 1.5.19a.25.25 0 0 1 .22.28.255.255 0 0 1-.23.2l-.025.02h-.03l-1.5-.19a.252.252 0 1 1 .065-.5zm-2.975-.38 1.5.19a.25.25 0 1 1-.03.5l-.005-.005h-.03l-1.5-.19a.25.25 0 0 1-.215-.28.24.24 0 0 1 .28-.215zM.935.665l1.5.19a.25.25 0 0 1 .215.28.244.244 0 0 1-.22.2l-.025.02H2.37L.87 1.16A.24.24 0 0 1 .655.885a.251.251 0 0 1 .28-.22z" id="A"/>
    </defs>
    <g fill="none" fill-rule="evenodd">
        <g transform="translate(15 31)">
            <mask id="b" fill="#fff">
                <use xlink:href="#a"/>
            </mask>
            <path fill="#000" mask="url(#b)" d="M-4.518-4.096h59.39V48.53h-59.39z"/>
        </g>
        <g transform="translate(15)">
            <mask id="d" fill="#fff">
                <use xlink:href="#c"/>
            </mask>
            <path fill="#000" mask="url(#d)" d="M-4.517-4.03H54.86v41.935H-4.517z"/>
        </g>
        <g transform="translate(63 22)">
            <mask id="f" fill="#fff">
                <use xlink:href="#e"/>
            </mask>
            <path fill="#000" mask="url(#f)" d="M-4.14-4.647h26.175V51.36H-4.14z"/>
        </g>
        <g transform="translate(40)">
            <mask id="h" fill="#fff">
                <use xlink:href="#g"/>
            </mask>
            <path fill="#000" mask="url(#h)" d="M-4.292-4.032h49.355v32.377H-4.292z"/>
        </g>
        <g transform="translate(2)">
            <mask id="j" fill="#fff">
                <use xlink:href="#i"/>
            </mask>
            <path fill="#000" mask="url(#j)" d="M-4.45-4.032h49.162v41.937H-4.45z"/>
        </g>
        <g transform="translate(40 67)">
            <mask id="l" fill="#fff">
                <use xlink:href="#k"/>
            </mask>
            <path fill="#000" mask="url(#l)" d="M-4.67-4.666h49.715V27.72H-4.67z"/>
        </g>
        <g transform="translate(0 22)">
            <mask id="n" fill="#fff">
                <use xlink:href="#m"/>
            </mask>
            <path fill="#000" mask="url(#n)" d="M-4.045-4.655H22.14v56.004H-4.045z"/>
        </g>
        <g transform="translate(0 67)">
            <mask id="p" fill="#fff">
                <use xlink:href="#o"/>
            </mask>
            <path fill="#000" mask="url(#p)" d="M-4.046-4.656H46.34v32.377H-4.047z"/>
        </g>
        <g transform="translate(40 1)">
            <mask id="r" fill="#fff">
                <use xlink:href="#q"/>
            </mask>
            <path fill="#000" mask="url(#r)" d="M-4.36-4.795h49.159v76.89h-49.16z"/>
        </g>
        <g transform="translate(2 17)">
            <mask id="t" fill="#fff">
                <use xlink:href="#s"/>
            </mask>
            <path fill="#000" mask="url(#t)" d="M-4.638-4.365h48.94v59.871h-48.94z"/>
        </g>
        <g transform="translate(16 60)">
            <mask id="v" fill="#fff">
                <use xlink:href="#u"/>
            </mask>
            <path fill="#000" mask="url(#v)" d="M-4.545-4.87h59.3V5.78h-59.3z"/>
        </g>
        <g transform="translate(40 17)">
            <mask id="x" fill="#fff">
                <use xlink:href="#w"/>
            </mask>
            <path fill="#000" mask="url(#x)" d="M-4.517-4.337h49.262V78.03H-4.517z"/>
        </g>
        <g transform="translate(2 17)">
            <mask id="z" fill="#fff">
                <use xlink:href="#y"/>
            </mask>
            <path fill="#000" mask="url(#z)" d="M-4.62-4.336h49.169v81.241h-49.17z"/>
        </g>
        <g transform="translate(40 17)">
            <mask id="B" fill="#fff">
                <use xlink:href="#A"/>
            </mask>
            <path fill="#000" mask="url(#B)" d="M-4.348-4.337H44.76v53.121H-4.348z"/>
        </g>
    </g>
</svg>
