<svg width="77" height="89" viewBox="-10 -10 97 109" xmlns="http://www.w3.org/2000/svg" xmlns:xlink="http://www.w3.org/1999/xlink">
    <defs>
        <path d="m1.115.425 38.25 87.75a.5.5 0 0 1-.68.65L.435 69.7a.5.5 0 0 1-.28-.45V.625a.501.501 0 0 1 .96-.2zm.04 2.6V68.94l36.74 18.37L1.155 3.025z" id="a"/>
        <path d="M.634.122A.51.51 0 0 1 1 .255L76.37 68.88a.5.5 0 0 1-.11.815L39.135 88.82a.5.5 0 1 1-.46-.89l36.5-18.795L.32 1A.5.5 0 0 1 .285.295a.508.508 0 0 1 .35-.173z" id="c"/>
        <path d="m75.385 19.89 1.325.7a.25.25 0 0 1-.115.475.264.264 0 0 1-.12-.03l-1.325-.705a.25.25 0 1 1 .235-.44zm-72.91-.59a.255.255 0 0 1-.11.34l-1.325.695a.262.262 0 0 1-.12.025.246.246 0 0 1-.22-.13.255.255 0 0 1 .105-.34l1.33-.695a.26.26 0 0 1 .34.105zm70.24-.815 1.325.705a.25.25 0 0 1-.1.47h-.02a.257.257 0 0 1-.115-.03l-1.325-.7a.255.255 0 0 1-.105-.34.26.26 0 0 1 .34-.105zM5.13 17.94a.246.246 0 0 1-.105.335l-1.33.695a.231.231 0 0 1-.115.03.25.25 0 0 1-.115-.475l1.33-.695a.25.25 0 0 1 .335.11zm64.955-.83 1.325.7a.25.25 0 0 1 .1.34.254.254 0 0 1-.22.105v.025c-.04 0-.08-.01-.115-.03l-1.325-.7a.25.25 0 0 1 .044-.461.254.254 0 0 1 .191.021zM7.79 16.55a.246.246 0 0 1-.105.335l-1.33.695a.236.236 0 0 1-.115.005v.025a.25.25 0 0 1-.115-.475l1.33-.695a.25.25 0 0 1 .335.11zm59.64-.82 1.325.7a.25.25 0 0 1 .105.34.246.246 0 0 1-.22.08v.025a.27.27 0 0 1-.12 0l-1.325-.705a.247.247 0 0 1-.1-.335.245.245 0 0 1 .335-.105zm-57.125-.718a.25.25 0 0 1 .04.458L9 16.165a.25.25 0 0 1-.1.03.255.255 0 0 1-.225-.135.25.25 0 0 1 .11-.335l1.33-.695a.246.246 0 0 1 .19-.018zm54.485-.737 1.325.7a.255.255 0 0 1 .105.34.251.251 0 0 1-.34.105l-1.325-.7a.253.253 0 0 1 .043-.464.252.252 0 0 1 .192.019zm-51.68-.53a.25.25 0 0 1-.105.335l-1.33.695a.257.257 0 0 1-.115.03.25.25 0 0 1-.12-.47l1.33-.695a.255.255 0 0 1 .34.105zm49.02-.875 1.325.705a.255.255 0 0 1 .105.335.255.255 0 0 1-.225.135c-.04 0-.08-.01-.115-.03l-1.325-.7a.25.25 0 0 1-.105-.34.26.26 0 0 1 .34-.105zm-46.36-.515a.255.255 0 0 1-.11.34l-1.325.695a.352.352 0 0 1-.12.025.24.24 0 0 1-.22-.135.25.25 0 0 1 .105-.335l1.33-.695a.26.26 0 0 1 .34.105zm43.705-.885 1.33.7a.25.25 0 0 1-.235.44l-1.325-.7a.25.25 0 1 1 .23-.44zm-41.05-.505a.25.25 0 0 1-.105.34L17 12a.226.226 0 0 1-.125.025.246.246 0 0 1-.22-.13.255.255 0 0 1 .105-.34l1.33-.695a.25.25 0 0 1 .335.105zm38.4-.905 1.325.7a.25.25 0 0 1 .105.34.246.246 0 0 1-.22.135.262.262 0 0 1-.12-.025l-1.325-.71a.255.255 0 0 1-.105-.335.253.253 0 0 1 .148-.124.252.252 0 0 1 .192.019zm-35.74-.48a.246.246 0 0 1-.105.335l-1.33.695a.231.231 0 0 1-.115.03.25.25 0 0 1-.115-.475l1.33-.695a.25.25 0 0 1 .335.11zm33.09-.92 1.325.7a.25.25 0 0 1-.115.475.264.264 0 0 1-.12-.03l-1.325-.7a.251.251 0 1 1 .235-.445zM23.6 8.067a.25.25 0 0 1 .04.458l-1.33.695a.231.231 0 0 1-.115.03.251.251 0 0 1-.238-.325.245.245 0 0 1 .123-.145l1.33-.695a.246.246 0 0 1 .19-.018zm27.925-.812 1.325.705a.247.247 0 0 1 .1.335.246.246 0 0 1-.335.105l-1.325-.7a.25.25 0 0 1-.105-.34.255.255 0 0 1 .34-.105zm-25.209-.551a.252.252 0 0 1-.016.436l-1.33.69a.257.257 0 0 1-.115.03.25.25 0 0 1-.12-.47l1.33-.695a.254.254 0 0 1 .251.009zm22.554-.849 1.325.7a.25.25 0 0 1 .105.34.246.246 0 0 1-.22.13.303.303 0 0 1-.115-.025l-1.33-.705a.25.25 0 0 1 .235-.44zM29.055 5.41a.26.26 0 0 1-.105.34l-1.33.695a.352.352 0 0 1-.12.025.25.25 0 0 1-.115-.47l1.33-.695a.255.255 0 0 1 .34.105zm17.18-.96 1.325.7a.255.255 0 0 1 .105.34.25.25 0 0 1-.235.135h-.01a.264.264 0 0 1-.12-.03L46 4.89a.25.25 0 1 1 .235-.44zm-14.52-.43a.255.255 0 0 1-.11.34l-1.33.695a.226.226 0 0 1-.105.025h-.01a.246.246 0 0 1-.22-.13.255.255 0 0 1 .105-.34l1.33-.695a.26.26 0 0 1 .34.105zm11.845-.975 1.325.705a.25.25 0 0 1-.11.47h-.01a.257.257 0 0 1-.115-.03l-1.325-.7a.25.25 0 0 1-.105-.34.255.255 0 0 1 .34-.105zm-9.19-.41a.246.246 0 0 1-.105.335l-1.33.695a.228.228 0 0 1-.105.03h-.01a.25.25 0 0 1-.115-.475l1.33-.695a.25.25 0 0 1 .335.11zm6.535-.99 1.33.7a.25.25 0 0 1-.11.47h-.01c-.04 0-.08-.01-.115-.03l-1.325-.7a.25.25 0 1 1 .23-.44zm-4.02-.513a.25.25 0 0 1 .04.458l-1.33.695a.239.239 0 0 1-.095.02l-.02.01a.246.246 0 0 1-.22-.135.25.25 0 0 1 .105-.34l1.33-.69a.246.246 0 0 1 .19-.018zm1.59-.782 1.13.6a.25.25 0 0 1 .105.34.245.245 0 0 1-.21.12l-.02.01a.264.264 0 0 1-.12-.03l-1-.535-.08.04a.252.252 0 0 1-.267.01.25.25 0 0 1 .037-.45l.195-.105a.265.265 0 0 1 .23 0z" id="e"/>
        <path d="m37.625 48.22.915 1.19a.25.25 0 0 1-.045.35.249.249 0 0 1-.15.055.257.257 0 0 1-.2-.1l-.915-1.19a.25.25 0 1 1 .395-.305zm-1.845-2.375.915 1.19a.244.244 0 0 1-.195.4.266.266 0 0 1-.2-.095l-.915-1.19a.25.25 0 1 1 .395-.305zm-1.83-2.375.915 1.185a.246.246 0 0 1-.045.35.256.256 0 0 1-.135.055h-.015a.257.257 0 0 1-.2-.1l-.915-1.185a.25.25 0 1 1 .395-.305zm-1.83-2.38.915 1.19a.25.25 0 0 1-.045.35.256.256 0 0 1-.14.055h-.015a.25.25 0 0 1-.195-.1l-.915-1.19a.25.25 0 0 1 .395-.305zm-1.815-2.395.915 1.19a.245.245 0 0 1-.2.4l-.02.02a.255.255 0 0 1-.195-.095L29.91 39a.25.25 0 0 1 .395-.305zm-1.85-2.355.915 1.185a.25.25 0 0 1-.045.35.257.257 0 0 1-.135.055h-.02a.236.236 0 0 1-.195-.1l-.915-1.185a.25.25 0 1 1 .395-.305zm-1.83-2.38.915 1.19a.255.255 0 0 1-.045.35.246.246 0 0 1-.135.05h-.02a.234.234 0 0 1-.195-.095l-.92-1.19a.255.255 0 0 1 .05-.35.25.25 0 0 1 .35.045zm-1.83-2.375.915 1.185a.255.255 0 0 1-.045.355.246.246 0 0 1-.135.05h-.02a.247.247 0 0 1-.195-.095l-.92-1.19a.255.255 0 0 1 .045-.35.256.256 0 0 1 .355.045zm-1.81-2.39.915 1.19a.255.255 0 0 1-.05.35.235.235 0 0 1-.15.065.257.257 0 0 1-.2-.1l-.915-1.2a.255.255 0 0 1 .045-.35.265.265 0 0 1 .355.045zm-1.83-2.365L22.07 28a.255.255 0 0 1-.05.35.232.232 0 0 1-.15.07.25.25 0 0 1-.2-.095l-.915-1.19a.25.25 0 1 1 .4-.305zm-1.835-2.375.915 1.185a.255.255 0 0 1-.045.355.288.288 0 0 1-.15.05.257.257 0 0 1-.2-.1l-.915-1.185a.25.25 0 0 1 .395-.305zm-1.83-2.38.915 1.19a.244.244 0 0 1-.195.4.25.25 0 0 1-.2-.095l-.915-1.19a.25.25 0 0 1 .395-.305zm-1.83-2.38.915 1.19a.244.244 0 0 1-.195.4v.005a.266.266 0 0 1-.2-.095L15.265 20a.25.25 0 1 1 .395-.305zm-1.83-2.37.915 1.175a.246.246 0 0 1-.045.35.248.248 0 0 1-.15.065.257.257 0 0 1-.2-.1l-.915-1.185a.25.25 0 1 1 .395-.305zM12 14.945l.915 1.19a.245.245 0 0 1-.2.4.247.247 0 0 1-.195-.095l-.915-1.19a.25.25 0 0 1 .395-.305zm-1.83-2.375.915 1.19a.245.245 0 0 1-.2.4.246.246 0 0 1-.195-.1l-.915-1.185a.25.25 0 0 1 .395-.305zm-1.83-2.375.915 1.19a.25.25 0 0 1-.045.35.254.254 0 0 1-.155.05.246.246 0 0 1-.195-.1L7.945 10.5a.25.25 0 1 1 .395-.305zm-1.83-2.38L7.425 9a.245.245 0 0 1-.2.4v.005a.234.234 0 0 1-.195-.095l-.915-1.19a.25.25 0 0 1 .395-.305zM4.68 5.44l.915 1.185a.25.25 0 0 1-.2.405.257.257 0 0 1-.2-.1L4.28 5.745a.255.255 0 0 1 .05-.35.25.25 0 0 1 .35.045zM2.855 3.045l.915 1.19a.255.255 0 0 1-.05.35.244.244 0 0 1-.155.07.257.257 0 0 1-.2-.1l-.915-1.19A.254.254 0 0 1 2.5 3a.256.256 0 0 1 .355.045zM1.02.695l.915 1.19a.255.255 0 0 1-.05.35.235.235 0 0 1-.15.04.266.266 0 0 1-.2-.095L.62 1a.25.25 0 1 1 .4-.305z" id="g"/>
    </defs>
    <g fill="none" fill-rule="evenodd">
        <g>
            <mask id="b" fill="#fff">
                <use xlink:href="#a"/>
            </mask>
            <path fill="#000" mask="url(#b)" d="M-4.845-4.879h49.252v98.754H-4.845z"/>
        </g>
        <g>
            <mask id="d" fill="#fff">
                <use xlink:href="#c"/>
            </mask>
            <path fill="#000" mask="url(#d)" d="M-4.844-4.877h86.377v98.752H-4.844z"/>
        </g>
        <g transform="translate(0 49)">
            <mask id="f" fill="#fff">
                <use xlink:href="#e"/>
            </mask>
            <path fill="#000" mask="url(#f)" d="M-4.328-4.676h86.18v30.741h-86.18z"/>
        </g>
        <g>
            <mask id="h" fill="#fff">
                <use xlink:href="#g"/>
            </mask>
            <path fill="#000" mask="url(#h)" d="M-4.431-4.404h48.023v59.219H-4.431z"/>
        </g>
    </g>
</svg>
