<svg width="81" height="95" viewBox="-10 -10 101 115" xmlns="http://www.w3.org/2000/svg" xmlns:xlink="http://www.w3.org/1999/xlink">
    <defs>
        <path d="M41.93.64a.5.5 0 0 1 .28.535l-11.06 68.06a.5.5 0 0 1-.78.33L.56 48.755a.5.5 0 0 1-.21-.35.501.501 0 0 1 .115-.39L41.34.765a.5.5 0 0 1 .59-.125zm-.99 2.115L1.585 48.25 30.29 68.29 40.94 2.755z" id="a"/>
        <path d="M11.781.596a.5.5 0 0 1 .339.179l38.435 46.69a.501.501 0 0 1-.185.775L.87 69.615a.501.501 0 0 1-.41-.915l48.89-21.115-38-46.175a.5.5 0 0 1 .431-.814z" id="c"/>
        <path d="M1.22 1.015 39.185 44.33l-9-22a.5.5 0 0 1 .925-.38L41.235 46.7a.499.499 0 0 1-.465.69l.01.015a.499.499 0 0 1-.375-.17L.47 1.675a.5.5 0 1 1 .75-.66z" id="e"/>
        <path d="M40.48.4a.5.5 0 0 1 .055.705L1.16 47.23a.5.5 0 0 1-.76-.65L39.775.455A.5.5 0 0 1 40.48.4z" id="g"/>
        <path d="M1.898 20.153a.25.25 0 0 1-.073.442L.5 21.14a.306.306 0 0 1-.095.015.245.245 0 0 1-.23-.155.255.255 0 0 1 .135-.325l1.325-.54a.248.248 0 0 1 .263.018zM78.02 18.76l1.255.82a.255.255 0 0 1 .07.35.25.25 0 0 1-.19.1v.015A.222.222 0 0 1 79 20l-1.255-.82a.25.25 0 0 1-.075-.345.255.255 0 0 1 .35-.075zm-73.306.384a.25.25 0 0 1-.114.316l-1.39.57a.306.306 0 0 1-.095.015.245.245 0 0 1-.23-.155.251.251 0 0 1 .14-.325L4.41 19a.25.25 0 0 1 .304.144zM7.515 18a.25.25 0 0 1-.14.325L6 18.895a.312.312 0 0 1-.105.015.235.235 0 0 1-.23-.155.244.244 0 0 1 .135-.325l1.39-.57a.25.25 0 0 1 .325.14zm68.01-.87 1.255.82a.245.245 0 0 1 .075.345.255.255 0 0 1-.21.095v.02a.269.269 0 0 1-.135-.04l-1.255-.82a.25.25 0 1 1 .27-.42zm-65.311-.371a.251.251 0 0 1-.059.431l-1.39.565a.208.208 0 0 1-.095.02.256.256 0 0 1-.23-.155.244.244 0 0 1 .135-.325l1.39-.57a.251.251 0 0 1 .249.034zm62.801-1.264 1.255.82a.25.25 0 0 1 .075.345.256.256 0 0 1-.21.09v.025A.22.22 0 0 1 74 16.73l-1.26-.82a.25.25 0 0 1 .014-.447.248.248 0 0 1 .261.032zm-60.084.094c.061.025.11.074.134.136a.249.249 0 0 1-.135.33l-1.39.565a.188.188 0 0 1-.09.02.255.255 0 0 1-.235-.155.251.251 0 0 1 .14-.325l1.385-.57a.244.244 0 0 1 .191-.001zm2.837-1.119a.249.249 0 0 1-.083.445l-1.365.585a.218.218 0 0 1-.095 0 .245.245 0 0 1-.23-.155.249.249 0 0 1 .135-.33l1.37-.56a.248.248 0 0 1 .268.015zm54.737-.65 1.255.82c.116.077.15.232.075.35a.26.26 0 0 1-.21.115V15.1a.238.238 0 0 1-.14-.04l-1.255-.82a.25.25 0 0 1 .275-.42zm-51.947-.482a.25.25 0 0 1-.073.442l-1.39.57a.343.343 0 0 1-.095.02.251.251 0 0 1-.23-.155.255.255 0 0 1 .135-.33l1.39-.565a.248.248 0 0 1 .263.018zm49.437-1.153L69.25 13a.245.245 0 0 1 .07.345.239.239 0 0 1-.21.12.28.28 0 0 1-.135-.04l-1.255-.82a.25.25 0 0 1 .275-.42zm-46.734-.002a.248.248 0 0 1 .134.137.244.244 0 0 1-.135.325l-1.39.57a.306.306 0 0 1-.095.015.245.245 0 0 1-.23-.155.251.251 0 0 1 .14-.325l1.385-.57a.245.245 0 0 1 .192.003zm2.914-1.018a.25.25 0 0 1-.14.325l-1.385.565a.254.254 0 1 1-.19-.46l1.39-.57a.25.25 0 0 1 .325.14zm41.31-.625 1.255.825a.25.25 0 0 1 .07.345.24.24 0 0 1-.345.07l-1.255-.82a.25.25 0 0 1-.075-.345.26.26 0 0 1 .35-.075zm-38.532-.492a.25.25 0 0 1-.138.327l-1.39.565a.208.208 0 0 1-.095.02.251.251 0 0 1-.231-.346.245.245 0 0 1 .136-.134l1.39-.57a.251.251 0 0 1 .328.138zM62.97 8.9l1.26.82a.255.255 0 0 1 .07.35.26.26 0 0 1-.21.11.232.232 0 0 1-.135-.04L62.7 9.32a.25.25 0 1 1 .27-.42zm-33.258.013a.25.25 0 0 1-.137.327l-1.39.565a.202.202 0 0 1-.08.02h-.015a.256.256 0 0 1-.23-.155.251.251 0 0 1 .14-.325l1.385-.57a.251.251 0 0 1 .327.138zm2.778-1.138a.251.251 0 0 1-.14.325L31 8.67a.322.322 0 0 1-.115.02h-.015a.245.245 0 0 1-.23-.155.249.249 0 0 1 .135-.33l1.385-.565a.255.255 0 0 1 .33.135zm27.955-.515 1.255.82a.25.25 0 0 1-.12.46h-.015a.269.269 0 0 1-.135-.04l-1.255-.82a.255.255 0 0 1-.075-.35.25.25 0 0 1 .345-.07zm-25.227-.742a.25.25 0 0 1-.073.442l-1.39.57a.313.313 0 0 1-.095.025l-.015-.015a.245.245 0 0 1-.23-.16.25.25 0 0 1 .135-.325l1.405-.555a.248.248 0 0 1 .263.018zM57.935 5.6l1.255.825a.25.25 0 0 1 .075.345.256.256 0 0 1-.195.13l-.015-.015a.243.243 0 0 1-.14-.045l-1.255-.82a.251.251 0 0 1 .275-.42zm-20.029-.262a.248.248 0 0 1 .134.137.244.244 0 0 1-.135.325l-1.39.57a.303.303 0 0 1-.08.045l-.015-.03a.245.245 0 0 1-.23-.155.251.251 0 0 1 .14-.325l1.385-.57a.245.245 0 0 1 .191.003zm2.842-1.072a.251.251 0 0 1-.063.429L39.3 5.26a.227.227 0 0 1-.085.02l-.015-.03a.255.255 0 0 1-.235-.155.251.251 0 0 1 .14-.325l1.395-.54a.251.251 0 0 1 .248.036zm14.677-.296 1.255.82a.245.245 0 0 1 .07.345.241.241 0 0 1-.19.12l-.015-.005a.287.287 0 0 1-.14-.04l-1.255-.82a.25.25 0 0 1 .275-.42zM43.62 3.23a.255.255 0 0 1-.135.33l-1.39.565a.208.208 0 0 1-.095.02.251.251 0 0 1-.231-.346.245.245 0 0 1 .136-.134l1.39-.57a.25.25 0 0 1 .325.135zm9.32-.895 1.255.82a.25.25 0 0 1 .07.345.24.24 0 0 1-.155.11l-.059.005-.043-.006a.271.271 0 0 1-.088-.034l-1.255-.82a.25.25 0 1 1 .275-.42zm-6.689-.386c.061.025.11.074.134.136a.244.244 0 0 1-.135.325L44.86 3a.218.218 0 0 1-.095 0 .256.256 0 0 1-.23-.155.25.25 0 0 1 .135-.325l1.39-.57a.244.244 0 0 1 .191-.001zM50.415.68l1.26.82a.25.25 0 0 1 .07.345.254.254 0 0 1-.21.125v-.01a.231.231 0 0 1-.135-.04l-1.255-.82a.25.25 0 1 1 .27-.42zm-1.327.138a.25.25 0 0 1-.073.442l-1.385.57a.346.346 0 0 1-.085.045l-.01-.01a.254.254 0 1 1-.095-.5L48.825.8a.248.248 0 0 1 .263.018z" id="i"/>
        <path d="M1.05 91.16a.255.255 0 0 1 .21.285l-.23 1.5a.25.25 0 0 1-.25.21H.745a.248.248 0 0 1-.21-.285l.23-1.5a.255.255 0 0 1 .285-.21zm.46-2.96a.248.248 0 0 1 .21.285l-.23 1.5a.25.25 0 0 1-.25.205h-.035a.248.248 0 0 1-.21-.285l.23-1.5a.245.245 0 0 1 .285-.205zm.46-2.965a.248.248 0 0 1 .21.285l-.23 1.5a.25.25 0 0 1-.25.205h-.035a.248.248 0 0 1-.21-.285l.23-1.5a.245.245 0 0 1 .285-.205zm.585-2.912c.07.058.104.148.09.237l-.23 1.5a.255.255 0 0 1-.255.205h-.035a.248.248 0 0 1-.21-.285l.23-1.5a.254.254 0 0 1 .41-.157zm.335-3.018a.255.255 0 0 1 .21.285l-.23 1.5a.255.255 0 0 1-.25.21h-.035a.248.248 0 0 1-.21-.285l.23-1.5a.248.248 0 0 1 .285-.21zm.462-2.968c.139.021.234.15.213.288l-.23 1.5a.255.255 0 0 1-.255.21h-.035a.248.248 0 0 1-.21-.285l.23-1.5a.254.254 0 0 1 .288-.213zm.456-2.964c.138.02.233.149.212.287l-.23 1.5a.255.255 0 0 1-.25.21H3.5a.247.247 0 0 1-.21-.285l.23-1.5a.252.252 0 0 1 .288-.212zm.462-2.963a.255.255 0 0 1 .21.285l-.23 1.5a.255.255 0 0 1-.25.21h-.035a.247.247 0 0 1-.21-.285l.23-1.5a.255.255 0 0 1 .285-.21zm.46-2.965a.255.255 0 0 1 .21.285l-.23 1.5a.255.255 0 0 1-.25.21h-.035a.247.247 0 0 1-.21-.285l.23-1.5a.255.255 0 0 1 .285-.21zm.462-2.968c.139.021.234.15.213.288l-.23 1.5a.25.25 0 0 1-.255.235v-.025h-.035a.248.248 0 0 1-.21-.285l.23-1.5a.254.254 0 0 1 .287-.213zm.458-2.962a.255.255 0 0 1 .21.285l-.23 1.5a.25.25 0 0 1-.25.2v.01h-.035a.248.248 0 0 1-.21-.285l.23-1.5a.255.255 0 0 1 .285-.21zm.46-2.96a.248.248 0 0 1 .21.285l-.23 1.5a.25.25 0 0 1-.25.205h-.035a.248.248 0 0 1-.21-.285l.23-1.5a.245.245 0 0 1 .285-.205zm.46-2.965a.248.248 0 0 1 .21.285l-.23 1.5a.25.25 0 0 1-.25.205h-.035a.248.248 0 0 1-.21-.285l.23-1.5a.245.245 0 0 1 .285-.205zm.465-2.965a.253.253 0 0 1 .21.29l-.23 1.5a.255.255 0 0 1-.255.205h-.035a.248.248 0 0 1-.21-.285l.23-1.5a.253.253 0 0 1 .29-.21zm.455-2.965a.255.255 0 0 1 .21.285l-.23 1.5a.255.255 0 0 1-.25.21h-.035a.248.248 0 0 1-.21-.285l.23-1.5a.248.248 0 0 1 .285-.21zm.46-2.965a.255.255 0 0 1 .21.285l-.23 1.5a.255.255 0 0 1-.25.21h-.035a.248.248 0 0 1-.21-.285l.23-1.5a.248.248 0 0 1 .285-.21zm.583-2.915c.07.056.105.146.092.235l-.23 1.5a.255.255 0 0 1-.255.21h-.035a.247.247 0 0 1-.21-.285l.23-1.5a.253.253 0 0 1 .408-.16zm.337-3.015a.255.255 0 0 1 .21.285l-.23 1.5a.255.255 0 0 1-.25.21h-.035a.247.247 0 0 1-.21-.285l.23-1.5a.255.255 0 0 1 .285-.21zm.583-2.915c.07.056.105.146.092.235l-.23 1.5a.255.255 0 0 1-.255.21h-.035a.247.247 0 0 1-.21-.285l.23-1.5a.253.253 0 0 1 .408-.16zm.354-3.018c.139.021.234.15.213.288l-.23 1.5a.255.255 0 0 1-.232.212L9.5 36.83a.248.248 0 0 1-.21-.285l.23-1.5a.254.254 0 0 1 .287-.213zm.443-2.967a.26.26 0 0 1 .21.29l-.23 1.5a.25.25 0 0 1-.23.21h-.055a.255.255 0 0 1-.21-.29l.23-1.5a.255.255 0 0 1 .285-.21zm.46-2.96a.255.255 0 0 1 .21.285l-.23 1.5a.25.25 0 0 1-.25.21h-.035a.248.248 0 0 1-.21-.285l.23-1.5a.255.255 0 0 1 .285-.21zm-.03-2.74.465 1.39c.007.04.007.08 0 .12a.266.266 0 0 1-.245.245v-.02h-.035a.24.24 0 0 1-.215-.235l-.445-1.345a.246.246 0 0 1 .16-.315.25.25 0 0 1 .315.16zm-1.098-2.992c.059.03.104.083.123.147l.475 1.42a.25.25 0 0 1-.16.315.2.2 0 0 1-.055.035v-.02a.25.25 0 0 1-.235-.17l-.5-1.425a.25.25 0 0 1 .16-.315.246.246 0 0 1 .192.013zm-.947-2.827c.06.029.104.081.125.144l.475 1.425a.25.25 0 0 1-.155.315l-.08.015a.25.25 0 0 1-.24-.17l-.475-1.425a.25.25 0 0 1 .16-.315.246.246 0 0 1 .19.011zm-.943-2.835a.25.25 0 0 1 .128.144l.47 1.425a.25.25 0 0 1-.155.315l-.032.005H8.05a.25.25 0 0 1-.235-.175l-.475-1.42a.245.245 0 0 1 .16-.305.252.252 0 0 1 .192.011zM6.84 14.8l.475 1.42a.26.26 0 0 1-.195.33H7.1a.245.245 0 0 1-.235-.17l-.5-1.42a.25.25 0 0 1 .16-.32c.13-.04.27.031.315.16zm-1.117-3.023a.263.263 0 0 1 .192.178l.475 1.42a.25.25 0 0 1-.16.32l-.075.01a.25.25 0 0 1-.24-.17l-.5-1.425a.261.261 0 0 1 .308-.333zM4.85 8.961c.06.029.105.081.125.144l.475 1.425a.245.245 0 0 1-.155.315l-.09.015a.25.25 0 0 1-.24-.17L4.5 9.265a.255.255 0 0 1 .16-.315.246.246 0 0 1 .19.011zm-.963-2.86a.25.25 0 0 1 .128.144l.47 1.425a.25.25 0 0 1-.155.315.259.259 0 0 1-.055.015.255.255 0 0 1-.235-.17l-.5-1.425a.245.245 0 0 1 .155-.315.252.252 0 0 1 .192.011zm-.991-2.878c.091.02.165.088.194.177l.475 1.425c.04.131-.03.27-.16.315a.206.206 0 0 1-.08.025V5.15a.245.245 0 0 1-.235-.17l-.5-1.42a.264.264 0 0 1 .056-.257.266.266 0 0 1 .25-.08zM2.14.555l.475 1.42a.25.25 0 0 1-.16.32.2.2 0 0 1-.075.025v-.015a.25.25 0 0 1-.24-.17L1.64.71a.262.262 0 0 1 .5-.155z" id="k"/>
    </defs>
    <g fill="none" fill-rule="evenodd">
        <g>
            <mask id="b" fill="#fff">
                <use xlink:href="#a"/>
            </mask>
            <path fill="#000" mask="url(#b)" d="M-4.654-4.407h51.87v79.062h-51.87z"/>
        </g>
        <g transform="translate(30)">
            <mask id="d" fill="#fff">
                <use xlink:href="#c"/>
            </mask>
            <path fill="#000" mask="url(#d)" d="M-4.833-4.406h60.502v79.062H-4.833z"/>
        </g>
        <g transform="translate(0 47)">
            <mask id="f" fill="#fff">
                <use xlink:href="#e"/>
            </mask>
            <path fill="#000" mask="url(#f)" d="M-4.67-4.171h50.943v56.576H-4.67z"/>
        </g>
        <g transform="translate(40 47)">
            <mask id="h" fill="#fff">
                <use xlink:href="#g"/>
            </mask>
            <path fill="#000" mask="url(#h)" d="M-4.72-4.72h50.375v57.125H-4.72z"/>
        </g>
        <g transform="translate(1 28)">
            <mask id="j" fill="#fff">
                <use xlink:href="#i"/>
            </mask>
            <path fill="#000" mask="url(#j)" d="M-4.842-4.367h89.228v30.522H-4.842z"/>
        </g>
        <g transform="translate(40 1)">
            <mask id="l" fill="#fff">
                <use xlink:href="#k"/>
            </mask>
            <path fill="#000" mask="url(#l)" d="M-4.468-4.629h20.619V98.155H-4.468z"/>
        </g>
    </g>
</svg>
