<svg width="74" height="89" viewBox="-10 -10 94 109" xmlns="http://www.w3.org/2000/svg" xmlns:xlink="http://www.w3.org/1999/xlink">
    <defs>
        <path d="M16.25.125a.5.5 0 0 1 .5.415l14.945 87.75a.5.5 0 0 1-.5.585H.81a.501.501 0 0 1-.5-.585L15.75.54a.5.5 0 0 1 .41-.408l.09-.007zm-.015 3.43L1.41 87.875h29.185l-14.36-84.32z" id="a"/>
        <path d="M1.284.097a.501.501 0 0 1 .411.318L37.455 77.5a.5.5 0 0 1-.225.66L16.415 88.845a.455.455 0 0 1-.225.03.5.5 0 0 1-.23-.945l20.385-10.465L.79.835a.5.5 0 0 1 .494-.738z" id="c"/>
        <path d="M1.37.143a.5.5 0 0 1 .305.232l35.755 61.31c.046.077.07.165.07.255v15.75a.5.5 0 0 1-1 0V62.075L.81.875a.5.5 0 0 1 .56-.732z" id="e"/>
        <path d="M37.458.173a.5.5 0 0 1 .237.667L1.66 77.465 22.04 87.93a.5.5 0 1 1-.455.89L.77 78.135a.5.5 0 0 1-.225-.66L36.79.41a.5.5 0 0 1 .668-.237z" id="g"/>
        <path d="M37.495.195a.5.5 0 0 1 .175.685L1.5 62.075V77.69a.5.5 0 0 1-1 0V61.94c0-.09.024-.178.07-.255L36.81.37a.5.5 0 0 1 .685-.175z" id="i"/>
        <path d="m71.695 9.125 1.38.58a.255.255 0 1 1-.095.5l.02-.015a.303.303 0 0 1-.095 0L71.5 9.585a.255.255 0 0 1-.135-.325.252.252 0 0 1 .137-.137.253.253 0 0 1 .193.002zm-69.88.455a.244.244 0 0 1-.135.325l-.585.25A.293.293 0 0 1 1 10.19a.254.254 0 1 1-.095-.5l.585-.245a.25.25 0 0 1 .325.135zM4.58 8.43a.249.249 0 0 1-.135.33l-1.38.58a.208.208 0 0 1-.095.02.26.26 0 0 1-.235-.155.255.255 0 0 1 .135-.325l1.385-.585c.127-.049.27.01.325.135zm64.37-.45 1.38.585a.242.242 0 0 1 .136.134.244.244 0 0 1-.001.191.25.25 0 0 1-.23.135.303.303 0 0 1-.095 0l-1.385-.585a.248.248 0 0 1-.159-.2.248.248 0 0 1 .1-.235.247.247 0 0 1 .254-.025zM7.19 7.132a.249.249 0 0 1 0 .463l-1.38.58a.222.222 0 0 1-.08.02h.005a.254.254 0 1 1-.095-.5L7 7.135a.24.24 0 0 1 .19-.003zm59.005-.337 1.38.585a.242.242 0 0 1 .136.134.244.244 0 0 1-.001.191.25.25 0 0 1-.24.155h.005a.218.218 0 0 1-.095 0L66 7.26a.26.26 0 0 1-.135-.33.255.255 0 0 1 .33-.135zm-56.147-.827a.25.25 0 0 1-.073.442L8.595 7a.213.213 0 0 1-.095.03.254.254 0 1 1-.1-.5l1.385-.58a.248.248 0 0 1 .263.018zm53.372-.313 1.38.58a.242.242 0 0 1 .136.134.244.244 0 0 1-.001.191.25.25 0 0 1-.23.135.218.218 0 0 1-.095 0l-1.385-.58a.26.26 0 0 1-.135-.33.25.25 0 0 1 .33-.13zm-50.607-.832a.25.25 0 0 1-.073.442l-1.38.58a.251.251 0 0 1-.33-.13.26.26 0 0 1 .135-.33l1.385-.58a.248.248 0 0 1 .263.018zm47.842-.333 1.385.58a.25.25 0 0 1 .13.33.247.247 0 0 1-.23.13.218.218 0 0 1-.095 0l-1.385-.58a.25.25 0 0 1-.13-.33.242.242 0 0 1 .135-.133.241.241 0 0 1 .19.003zM15.64 3.775a.244.244 0 0 1-.135.325l-1.38.585a.338.338 0 0 1-.1.015c-.1 0-.19-.059-.23-.15a.26.26 0 0 1 .135-.33l1.38-.58a.255.255 0 0 1 .33.135zm42.25-.45 1.38.58a.252.252 0 0 1 .137.137.253.253 0 0 1-.002.193.247.247 0 0 1-.23.13.218.218 0 0 1-.095 0l-1.385-.58a.255.255 0 0 1-.135-.325.252.252 0 0 1 .137-.137.253.253 0 0 1 .193.002zm-39.485-.69a.244.244 0 0 1-.135.325l-1.38.54a.36.36 0 0 1-.1.04.254.254 0 1 1-.095-.5l1.385-.54a.25.25 0 0 1 .325.135zm36.72-.475 1.385.58a.255.255 0 0 1 .13.33.25.25 0 0 1-.23.135.303.303 0 0 1-.095 0L54.93 2.62a.25.25 0 0 1 .195-.46zM21.17 1.425a.249.249 0 0 1-.135.33l-1.38.58a.227.227 0 0 1-.1.04.254.254 0 1 1-.095-.5l1.38-.585a.26.26 0 0 1 .33.135zm31.19-.43 1.385.585a.242.242 0 0 1 .133.135.241.241 0 0 1-.003.19.25.25 0 0 1-.23.135.303.303 0 0 1-.095 0l-1.385-.585a.25.25 0 0 1 .195-.46zM22.375.705h1.44a.25.25 0 0 1 0 .5H22.42a.241.241 0 0 1-.1.005.25.25 0 0 1-.095-.48l.055-.025a.303.303 0 0 1 .095 0zM50.82.71a.25.25 0 0 1 .25.25.25.25 0 0 1-.255.23l.005.02h-1.5a.255.255 0 0 1-.25-.25.25.25 0 0 1 .25-.25h1.5zm-3 0a.25.25 0 0 1 .25.25.25.25 0 0 1-.255.23l.005.02h-1.5a.255.255 0 0 1-.25-.25.25.25 0 0 1 .25-.25h1.5zm-3 0a.25.25 0 0 1 .25.25.25.25 0 0 1-.255.23l.005.02h-1.5a.255.255 0 0 1-.25-.25.25.25 0 0 1 .25-.25h1.5zm-3 0a.25.25 0 0 1 .25.25.25.25 0 0 1-.255.23l.005.02h-1.5a.255.255 0 0 1-.25-.25.25.25 0 0 1 .25-.25h1.5zm-3 0a.25.25 0 0 1 .25.25.25.25 0 0 1-.255.23l.005.02h-1.5a.255.255 0 0 1-.25-.25.25.25 0 0 1 .25-.25h1.5zm-3 0a.25.25 0 0 1 .25.25.25.25 0 0 1-.255.23l.005.02h-1.5a.255.255 0 0 1-.25-.25.25.25 0 0 1 .25-.25h1.5zm-3 0a.25.25 0 0 1 .25.25.25.25 0 0 1-.255.23l.005.02h-1.5a.255.255 0 0 1-.25-.25.25.25 0 0 1 .25-.25h1.5zm-3 0a.25.25 0 0 1 .25.25.25.25 0 0 1-.255.23l.005.02h-1.5a.255.255 0 0 1-.25-.25.25.25 0 0 1 .25-.25h1.5zm-3 0a.25.25 0 0 1 .25.25.25.25 0 0 1-.255.23l.005.02h-1.5a.255.255 0 0 1-.25-.25.25.25 0 0 1 .25-.25h1.5z" id="k"/>
        <path d="M15.302 51.242a.26.26 0 0 1 .183.183l.395 1.445a.253.253 0 0 1-.023.192.247.247 0 0 1-.152.118l-.08.01a.25.25 0 0 1-.24-.185l-.4-1.445a.258.258 0 0 1 .067-.25.257.257 0 0 1 .25-.068zm-.612-2.712.395 1.45a.25.25 0 0 1-.175.305l-.08.01a.25.25 0 0 1-.24-.185l-.4-1.445a.26.26 0 0 1 .5-.135zm-.795-2.89.395 1.445a.255.255 0 0 1-.175.31l-.08.01a.25.25 0 0 1-.24-.185l-.4-1.445a.258.258 0 0 1 .183-.317.258.258 0 0 1 .317.182zm-.81-2.905.395 1.45a.25.25 0 0 1-.175.305l-.065.01a.25.25 0 0 1-.24-.185l-.4-1.445a.255.255 0 0 1 .175-.31.26.26 0 0 1 .31.175zm-.78-2.89.4 1.445a.255.255 0 0 1-.175.31l-.085.005a.255.255 0 0 1-.245-.18l-.395-1.45a.258.258 0 0 1 .5-.13zm-.795-2.895.4 1.45a.25.25 0 0 1-.175.305l-.085.01a.261.261 0 0 1-.245-.185l-.395-1.445a.26.26 0 0 1 .5-.135zm-.976-3.074a.26.26 0 0 1 .181.184l.4 1.445a.26.26 0 0 1-.175.31l-.085.005a.255.255 0 0 1-.245-.18l-.395-1.45a.259.259 0 0 1 .319-.314zm-.798-2.894a.26.26 0 0 1 .184.183l.4 1.45a.25.25 0 0 1-.175.305l-.085.01a.255.255 0 0 1-.245-.185L9.42 31.3a.259.259 0 0 1 .316-.318zm-.611-2.707.4 1.445a.26.26 0 0 1-.175.31l-.09.005a.244.244 0 0 1-.24-.18l-.395-1.45a.258.258 0 0 1 .5-.13zM8.33 25.38l.4 1.45a.25.25 0 0 1-.175.305l-.09.01a.25.25 0 0 1-.24-.185l-.395-1.445a.258.258 0 0 1 .182-.317.258.258 0 0 1 .318.182zm-.976-3.074a.26.26 0 0 1 .181.184l.4 1.445a.26.26 0 0 1-.175.31l-.09.005a.244.244 0 0 1-.24-.18l-.395-1.45a.259.259 0 0 1 .319-.314zm-.634-2.711.395 1.445a.246.246 0 0 1-.175.31l-.065.01a.25.25 0 0 1-.24-.185l-.4-1.445a.255.255 0 0 1 .175-.31.26.26 0 0 1 .31.175zm-.78-2.855.395 1.445a.24.24 0 0 1-.175.305.137.137 0 0 1-.08.01.245.245 0 0 1-.24-.185l-.4-1.445a.258.258 0 0 1 .5-.13zm-.795-2.895.395 1.445a.246.246 0 0 1-.175.31l-.08.01a.25.25 0 0 1-.24-.185l-.4-1.445a.258.258 0 0 1 .183-.317.258.258 0 0 1 .317.182zm-.8-2.915.395 1.445a.24.24 0 0 1-.175.305.145.145 0 0 1-.065.01.245.245 0 0 1-.24-.185l-.4-1.445a.25.25 0 0 1 .175-.305.255.255 0 0 1 .31.175zm-.963-3.078a.26.26 0 0 1 .183.183L3.96 9.48a.246.246 0 0 1-.175.31l-.08.01a.25.25 0 0 1-.24-.185l-.4-1.445a.259.259 0 0 1 .317-.318zm-.627-2.707L3.15 6.59a.25.25 0 0 1-.175.305l-.037.01H2.91a.245.245 0 0 1-.24-.185l-.4-1.445a.246.246 0 0 1 .175-.305.255.255 0 0 1 .31.175zM1.83 2.083c.057.033.099.088.115.152l.4 1.445a.255.255 0 0 1-.175.31L2.105 4a.25.25 0 0 1-.24-.185l-.4-1.445a.251.251 0 0 1 .364-.287zM1.5.545l.07.245a.25.25 0 0 1-.175.305l-.085.01A.255.255 0 0 1 1.065.92L1 .675a.258.258 0 0 1 .5-.13z" id="m"/>
        <path d="M.98 51.323c.066.067.09.163.065.252L.615 53a.25.25 0 0 1-.24.19h-.07a.255.255 0 0 1-.17-.31l.41-1.445a.26.26 0 0 1 .436-.112zm.695-2.948a.245.245 0 0 1 .17.305l-.41 1.445a.245.245 0 0 1-.24.175h-.07a.255.255 0 0 1-.17-.31l.41-1.445a.25.25 0 0 1 .31-.17zm.812-2.892c.139.037.22.179.183.317l-.41 1.445a.245.245 0 0 1-.26.17.165.165 0 0 1-.07 0 .245.245 0 0 1-.17-.305l.41-1.445a.258.258 0 0 1 .317-.182zm.82-2.886a.26.26 0 0 1 .183.318l-.41 1.445a.245.245 0 0 1-.245.17H2.82a.165.165 0 0 1-.07 0 .25.25 0 0 1-.17-.31l.41-1.44a.26.26 0 0 1 .317-.183zm.937-2.817c.065.065.09.161.066.25l-.41 1.445a.245.245 0 0 1-.245.17H3.57a.25.25 0 0 1-.17-.31l.41-1.44a.258.258 0 0 1 .433-.115zm.696-2.945a.25.25 0 0 1 .17.31l-.41 1.44a.25.25 0 0 1-.2.175h-.11a.25.25 0 0 1-.17-.31l.41-1.44a.245.245 0 0 1 .31-.175zm.946-2.827c.064.067.089.163.064.252l-.41 1.44a.25.25 0 0 1-.245.175H5.21a.25.25 0 0 1-.17-.31l.41-1.445a.26.26 0 0 1 .436-.112zm.82-2.885c.064.067.089.163.064.252l-.41 1.44a.25.25 0 0 1-.245.185l-.015-.01h-.07a.255.255 0 0 1-.17-.31l.41-1.445a.26.26 0 0 1 .436-.112zM7.4 28.18a.245.245 0 0 1 .17.305l-.41 1.445a.245.245 0 0 1-.225.17H6.92a.165.165 0 0 1-.07 0 .245.245 0 0 1-.17-.305l.41-1.445a.25.25 0 0 1 .31-.17zm.827-2.897c.139.037.22.179.183.317L8 27.035a.245.245 0 0 1-.245.18H7.74a.143.143 0 0 1-.065 0 .25.25 0 0 1-.175-.305l.41-1.445a.258.258 0 0 1 .317-.182zm.813-2.878c.13.041.206.178.17.31L8.8 24.16a.245.245 0 0 1-.225.17H8.49a.25.25 0 0 1-.17-.31l.41-1.44a.251.251 0 0 1 .31-.175zm.82-2.885a.25.25 0 0 1 .17.31l-.41 1.445a.245.245 0 0 1-.225.17h-.08a.255.255 0 0 1-.175-.31l.41-1.44a.255.255 0 0 1 .31-.175zm.944-2.825c.065.065.09.161.066.25l-.41 1.44a.25.25 0 0 1-.245.175h-.085a.255.255 0 0 1-.17-.31l.41-1.44a.258.258 0 0 1 .434-.115zm.822-2.887c.065.067.089.163.064.252l-.415 1.44a.25.25 0 0 1-.24.175h-.08a.255.255 0 0 1-.175-.31l.41-1.445a.26.26 0 0 1 .436-.112zm.704-2.958a.26.26 0 0 1 .18.32l-.41 1.44a.244.244 0 0 1-.245.175h-.08a.255.255 0 0 1-.175-.31l.41-1.445a.26.26 0 0 1 .32-.18zm.81-2.87a.245.245 0 0 1 .17.305L12.9 9.73a.245.245 0 0 1-.225.17h-.015a.143.143 0 0 1-.065 0 .25.25 0 0 1-.175-.305l.41-1.445a.25.25 0 0 1 .31-.17zm.848-2.912c.138.037.22.179.182.317l-.41 1.445a.245.245 0 0 1-.26.17.143.143 0 0 1-.065 0 .248.248 0 0 1-.175-.31l.41-1.44a.258.258 0 0 1 .318-.182zm.82-2.886a.26.26 0 0 1 .182.318l-.41 1.445a.245.245 0 0 1-.265.185l.005-.015h-.065a.248.248 0 0 1-.175-.31l.41-1.44a.26.26 0 0 1 .317-.183zM15.324.37a.26.26 0 0 1 .18.32l-.105.37a.245.245 0 0 1-.265.185l.005-.015h-.065A.255.255 0 0 1 14.9.92l.105-.37a.26.26 0 0 1 .32-.18z" id="o"/>
    </defs>
    <g fill="none" fill-rule="evenodd">
        <g transform="translate(21)">
            <mask id="b" fill="#fff">
                <use xlink:href="#a"/>
            </mask>
            <path fill="#000" mask="url(#b)" d="M-4.697-4.875h41.399v98.75h-41.4z"/>
        </g>
        <g transform="translate(36)">
            <mask id="d" fill="#fff">
                <use xlink:href="#c"/>
            </mask>
            <path fill="#000" mask="url(#d)" d="M-4.272-4.906h46.775v98.784H-4.272z"/>
        </g>
        <g transform="translate(36)">
            <mask id="f" fill="#fff">
                <use xlink:href="#e"/>
            </mask>
            <path fill="#000" mask="url(#f)" d="M-4.256-4.874H42.5V83.19H-4.257z"/>
        </g>
        <g>
            <mask id="h" fill="#fff">
                <use xlink:href="#g"/>
            </mask>
            <path fill="#000" mask="url(#h)" d="M-4.503-4.876h47.247v98.751H-4.503z"/>
        </g>
        <g>
            <mask id="j" fill="#fff">
                <use xlink:href="#i"/>
            </mask>
            <path fill="#000" mask="url(#j)" d="M-4.5-4.875h47.24V83.19H-4.5z"/>
        </g>
        <g transform="translate(0 52)">
            <mask id="l" fill="#fff">
                <use xlink:href="#k"/>
            </mask>
            <path fill="#000" mask="url(#l)" d="M-4.302-4.299h82.584V15.21H-4.302z"/>
        </g>
        <g transform="translate(36)">
            <mask id="n" fill="#fff">
                <use xlink:href="#m"/>
            </mask>
            <path fill="#000" mask="url(#n)" d="M-4.008-4.648H20.89V58.19H-4.008z"/>
        </g>
        <g transform="translate(22)">
            <mask id="p" fill="#fff">
                <use xlink:href="#o"/>
            </mask>
            <path fill="#000" mask="url(#p)" d="M-4.874-4.64h25.389v62.83H-4.874z"/>
        </g>
    </g>
</svg>
