<svg width="85" height="77" viewBox="-10 -10 105 97" xmlns="http://www.w3.org/2000/svg" xmlns:xlink="http://www.w3.org/1999/xlink">
    <defs>
        <path d="M42.14.353a.5.5 0 0 1 .3.457v75.375a.5.5 0 0 1-.295.46.507.507 0 0 1-.21.04.499.499 0 0 1-.335-.125L.54 39.435a.5.5 0 0 1 0-.74L41.6.445a.5.5 0 0 1 .54-.092zm-.705 1.607L1.615 39.055l39.82 36V1.96z" id="a"/>
        <path d="M1.275.445 43.46 38.88a.5.5 0 0 1-.005.745l-42.19 36.94a.5.5 0 0 1-.655-.755l41.765-36.565L.6 1.18a.5.5 0 0 1 .675-.735z" id="c"/>
        <path d="m1.095.605 40.845 19.83 42-19.65a.501.501 0 0 1 .42.91L42.15 21.45a.55.55 0 0 1-.215.05.5.5 0 0 1-.215-.05L.655 1.5a.5.5 0 1 1 .44-.895z" id="e"/>
        <path d="m82.89 20.39 1.345.66a.256.256 0 1 1-.11.5v-.05a.29.29 0 0 1-.11 0l-1.345-.66a.25.25 0 0 1 .22-.45zm-81.735.387a.25.25 0 0 1-.02.433l-.145.075a.23.23 0 0 1-.115.025.235.235 0 0 1-.22-.135.25.25 0 0 1 .105-.335l.145-.075a.249.249 0 0 1 .25.012zm2.63-1.4c.063.02.115.064.145.123a.255.255 0 0 1-.105.34l-1.335.685a.226.226 0 0 1-.135.025h.02a.25.25 0 0 1-.115-.47l1.335-.685a.246.246 0 0 1 .19-.018zm76.435-.327 1.345.665a.25.25 0 0 1 .115.335.244.244 0 0 1-.19.126h-.044l-.051.006a.228.228 0 0 1-.055-.007L80 19.5a.25.25 0 0 1 .22-.45zM6.6 18.125a.245.245 0 0 1-.11.335l-1.33.69a.349.349 0 0 1-.135.03l.02-.005a.255.255 0 0 1-.225-.135.25.25 0 0 1 .11-.335l1.335-.685a.25.25 0 0 1 .335.105zm70.925-.385 1.345.66a.25.25 0 0 1-.11.475v-.025a.29.29 0 0 1-.11 0l-1.345-.66a.255.255 0 0 1-.115-.335.25.25 0 0 1 .335-.115zM9.123 16.629a.25.25 0 0 1 .037.461l-1.335.685a.23.23 0 0 1-.135.035l.02-.005a.251.251 0 0 1-.22-.135.255.255 0 0 1 .105-.34l1.335-.685a.25.25 0 0 1 .193-.016zm65.707-.214 1.345.66a.255.255 0 0 1 .115.335.24.24 0 0 1-.245.12l.02-.005a.227.227 0 0 1-.11 0l-1.345-.66a.25.25 0 0 1 .22-.45zm-63.06-1.151a.245.245 0 0 1 .145.126.25.25 0 0 1-.105.335l-1.31.685a.229.229 0 0 1-.14.03.246.246 0 0 1-.22-.135.255.255 0 0 1 .105-.34l1.335-.685a.244.244 0 0 1 .19-.016zm60.35-.209 1.345.66a.256.256 0 1 1-.11.5l.005-.005a.255.255 0 0 1-.11 0l-1.35-.71a.25.25 0 1 1 .22-.445zm-57.61-1.143a.25.25 0 0 1-.035.443l-1.33.685a.254.254 0 0 1-.115.025.245.245 0 0 1-.225-.135.25.25 0 0 1 .11-.335l1.335-.685a.25.25 0 0 1 .26.002zm54.915-.137 1.345.66a.255.255 0 0 1 .115.335.246.246 0 0 1-.225.115.227.227 0 0 1-.11 0l-1.345-.66a.25.25 0 0 1 .22-.45zm-52.17-1.13a.25.25 0 0 1-.11.335l-1.335.69a.303.303 0 0 1-.115.025.251.251 0 0 1-.238-.325.245.245 0 0 1 .123-.145l1.335-.685a.255.255 0 0 1 .34.105zm49.48-.19 1.345.66a.25.25 0 0 1-.11.475v-.025a.255.255 0 0 1-.11 0l-1.35-.665a.25.25 0 1 1 .225-.445zm-46.96-1.306a.245.245 0 0 1 .145.126.25.25 0 0 1-.105.335l-1.315.685a.228.228 0 0 1-.135.03.246.246 0 0 1-.22-.135.246.246 0 0 1 .105-.335l1.335-.69a.244.244 0 0 1 .19-.016zm44.265-.019 1.345.66a.255.255 0 0 1 .115.335.246.246 0 0 1-.225.115.227.227 0 0 1-.11 0l-1.345-.66a.25.25 0 0 1 .22-.45zM22.515 9.772a.25.25 0 0 1-.035.443l-1.335.685a.23.23 0 0 1-.11.055.256.256 0 1 1-.115-.5l1.335-.685a.25.25 0 0 1 .26.002zm38.835.033 1.345.665a.25.25 0 0 1 .115.335.26.26 0 0 1-.225.115.255.255 0 0 1-.11 0l-1.35-.665a.25.25 0 0 1-.11-.335.255.255 0 0 1 .335-.115zm-2.695-1.32 1.345.66a.25.25 0 0 1 .115.335.246.246 0 0 1-.225.115.29.29 0 0 1-.11 0l-1.345-.66a.25.25 0 0 1-.03-.433.251.251 0 0 1 .25-.017zM25.17 8.452a.25.25 0 0 1-.02.433l-1.335.685a.236.236 0 0 1-.115.01v.015a.24.24 0 0 1-.22-.135.25.25 0 0 1 .105-.335l1.335-.685a.249.249 0 0 1 .25.012zm30.79-1.277 1.35.665a.25.25 0 0 1 .115.335.259.259 0 0 1-.225.1v.015a.255.255 0 0 1-.11 0l-1.35-.665a.25.25 0 0 1-.11-.335.248.248 0 0 1 .14-.127.248.248 0 0 1 .19.012zm-28.18-.123c.063.02.115.064.145.123a.255.255 0 0 1-.105.34l-1.32.67a.29.29 0 0 1-.13.025v.015a.255.255 0 0 1-.225-.135.255.255 0 0 1 .11-.335l1.335-.685a.246.246 0 0 1 .19-.018zm25.485-1.237 1.35.685a.25.25 0 0 1 .115.335.245.245 0 0 1-.23.115.298.298 0 0 1-.11-.025l-1.345-.66a.25.25 0 0 1 .22-.45zm-22.82-.151a.245.245 0 0 1 .145.126.245.245 0 0 1-.11.335l-1.33.685a.235.235 0 0 1-.11.03h-.005a.255.255 0 0 1-.225-.135.25.25 0 0 1 .11-.335l1.335-.69a.244.244 0 0 1 .19-.016zM50.57 4.515l1.35.665a.25.25 0 0 1 .11.335.244.244 0 0 1-.215.11h-.005a.205.205 0 0 1-.11 0l-1.35-.66a.25.25 0 0 1 .22-.45zm-17.4-.193a.25.25 0 0 1-.02.433l-1.335.685a.235.235 0 0 1-.11.03H31.7a.251.251 0 0 1-.22-.135.255.255 0 0 1 .105-.34l1.335-.685a.249.249 0 0 1 .25.012zm14.71-1.127 1.345.66a.256.256 0 1 1-.11.5v-.05a.29.29 0 0 1-.11 0l-1.345-.66a.255.255 0 0 1-.115-.335.25.25 0 0 1 .335-.115zm-11.955-.15a.255.255 0 0 1-.105.34l-1.32.685a.25.25 0 0 1-.082.024l-.048.001a.245.245 0 0 1-.225-.135.255.255 0 0 1 .11-.335l1.335-.685a.25.25 0 0 1 .335.105zM45.19 1.89l1.35.66a.25.25 0 0 1 .11.335.24.24 0 0 1-.225.115.208.208 0 0 1-.105 0l-1.35-.66a.25.25 0 0 1 .22-.45zm-6.636-.364A.25.25 0 0 1 38.5 2l-1.335.685a.286.286 0 0 1-.12.04v.02a.25.25 0 0 1-.225-.135.25.25 0 0 1 .11-.335l1.335-.685a.25.25 0 0 1 .29-.064zM42.5.55l1.345.66a.25.25 0 0 1-.11.475V1.68a.29.29 0 0 1-.11 0L42.28 1a.255.255 0 0 1-.115-.335A.25.25 0 0 1 42.5.55zM41.205.227a.25.25 0 0 1-.02.433l-1.335.685a.231.231 0 0 1-.14.01l.025.02a.251.251 0 0 1-.238-.325.245.245 0 0 1 .123-.145l1.335-.69a.249.249 0 0 1 .25.012z" id="g"/>
    </defs>
    <g fill="none" fill-rule="evenodd">
        <g>
            <mask id="b" fill="#fff">
                <use xlink:href="#a"/>
            </mask>
            <path fill="#000" mask="url(#b)" d="M-4.624-4.688H47.44v86.373H-4.624z"/>
        </g>
        <g transform="translate(41)">
            <mask id="d" fill="#fff">
                <use xlink:href="#c"/>
            </mask>
            <path fill="#000" mask="url(#d)" d="M-4.56-4.666h53.185v86.351H-4.559z"/>
        </g>
        <g transform="translate(0 38)">
            <mask id="f" fill="#fff">
                <use xlink:href="#e"/>
            </mask>
            <path fill="#000" mask="url(#f)" d="M-4.658-4.464h94.31V26.5h-94.31z"/>
        </g>
        <g transform="translate(0 18)">
            <mask id="h" fill="#fff">
                <use xlink:href="#g"/>
            </mask>
            <path fill="#000" mask="url(#h)" d="M-4.373-4.813h93.809v31.369H-4.373z"/>
        </g>
    </g>
</svg>
