<svg width="65" height="95" viewBox="-10 -10 85 115" xmlns="http://www.w3.org/2000/svg" xmlns:xlink="http://www.w3.org/1999/xlink">
    <defs>
        <path d="M33.273.346a.46.46 0 0 1 .41.258l30.142 61.22a.46.46 0 0 1-.078.516L33.605 94.507a.462.462 0 0 1-.327.147h-.01a.462.462 0 0 1-.327-.134L.567 62.354a.46.46 0 0 1-.083-.544L32.858.59a.461.461 0 0 1 .415-.244zm-.018 1.499L1.448 61.939l31.793 31.59 29.602-31.585L33.255 1.845z" id="a"/>
        <path d="M1.6.489 32 32.134c.084.087.13.202.13.323l-.259 29.574a.462.462 0 0 1-.378.45l-.083.007a.461.461 0 0 1-.461-.461l.258-29.386L.937 1.125a.46.46 0 0 1 .209-.793.46.46 0 0 1 .455.157z" id="c"/>
        <path d="M33.596.461a.463.463 0 0 1 0 .655L1.356 32.65v29.377a.461.461 0 0 1-.923 0v-29.57a.46.46 0 0 1 .139-.332L32.946.461a.46.46 0 0 1 .65 0z" id="e"/>
        <path d="M63.41.566a.46.46 0 1 1 0 .922H.895a.461.461 0 0 1 0-.922H63.41z" id="g"/>
        <path d="m32.093 60.837.17.328.047-.097a.232.232 0 1 1 .415.207l-.249.503a.245.245 0 0 1-.208.129.241.241 0 0 1-.207-.124l-.378-.734a.23.23 0 0 1 .097-.309.235.235 0 0 1 .313.097zm1.757-2.329a.231.231 0 0 1 .106.309l-.618 1.241a.228.228 0 0 1-.212.106h.005a.288.288 0 0 1-.102 0 .233.233 0 0 1-.101-.314l.613-1.236a.231.231 0 0 1 .31-.106zm-3.223-.247a.23.23 0 0 1 .193.127l.637 1.227a.23.23 0 0 1-.097.314.279.279 0 0 1-.11.018.22.22 0 0 1-.204-.124l-.64-1.227a.232.232 0 0 1 .221-.335zm4.455-2.252a.226.226 0 0 1 .101.309l-.613 1.24a.23.23 0 0 1-.208.125.232.232 0 0 1-.207-.332l.618-1.241a.23.23 0 0 1 .309-.101zm-5.678-.192a.225.225 0 0 1 .134.113l.637 1.227a.222.222 0 0 1-.097.309.219.219 0 0 1-.106.028.232.232 0 0 1-.203-.125l-.641-1.227a.23.23 0 0 1 .101-.309.227.227 0 0 1 .175-.016zm6.794-2.32a.23.23 0 0 1 .216.349l-.613 1.236a.226.226 0 0 1-.208.124v-.018a.288.288 0 0 1-.101 0 .232.232 0 0 1-.106-.309l.618-1.241a.232.232 0 0 1 .194-.141zm-7.956-.039.637 1.227a.227.227 0 0 1-.097.309.209.209 0 0 1-.088.046l-.018-.018a.231.231 0 0 1-.203-.125l-.641-1.226a.235.235 0 0 1 .101-.314.23.23 0 0 1 .31.101zm9.284-2.421c.11.06.155.196.101.309l-.613 1.241a.24.24 0 0 1-.199.143l-.009-.014a.191.191 0 0 1-.101-.028.232.232 0 0 1-.106-.309l.618-1.236a.231.231 0 0 1 .309-.106zm-10.561-.032.641 1.231a.23.23 0 0 1-.101.309.207.207 0 0 1-.088.042l-.019-.014a.233.233 0 0 1-.202-.124l-.641-1.232a.23.23 0 0 1 .101-.309.236.236 0 0 1 .309.097zm11.792-2.421a.23.23 0 0 1 .102.309l-.614 1.236a.231.231 0 0 1-.189.12l-.018-.014a.194.194 0 0 1-.102 0 .232.232 0 0 1-.106-.309l.618-1.241a.23.23 0 0 1 .309-.101zm-13.06-.018.64 1.226a.236.236 0 0 1-.1.314.293.293 0 0 1-.097.023l-.019-.014a.22.22 0 0 1-.203-.124l-.632-1.213a.231.231 0 1 1 .41-.212zm14.188-2.463a.23.23 0 0 1 .224.332l-.614 1.24a.232.232 0 0 1-.208.107.315.315 0 0 1-.106 0 .236.236 0 0 1-.101-.309l.613-1.241a.232.232 0 0 1 .192-.129zm-15.59-.095a.225.225 0 0 1 .134.113l.64 1.227a.23.23 0 0 1-.1.309.204.204 0 0 1-.107.018v.01a.231.231 0 0 1-.203-.125l-.64-1.227a.23.23 0 0 1 .1-.308.223.223 0 0 1 .176-.017zm16.962-2.358a.23.23 0 0 1 .106.308l-.618 1.241a.225.225 0 0 1-.24.092l.037.009a.211.211 0 0 1-.106 0 .23.23 0 0 1-.102-.308l.614-1.241a.234.234 0 0 1 .309-.101zm-18.28-.13a.23.23 0 0 1 .197.148l.641 1.227a.23.23 0 0 1-.101.309.213.213 0 0 1-.13.018l.024.009a.229.229 0 0 1-.203-.124l-.637-1.227a.23.23 0 0 1 .21-.36zm19.51-2.347a.232.232 0 0 1 .107.309l-.641 1.227a.226.226 0 0 1-.208.106l.023.009a.288.288 0 0 1-.101 0 .228.228 0 0 1-.102-.309l.614-1.24a.224.224 0 0 1 .309-.102zm-20.59.037.622 1.222a.226.226 0 0 1-.101.309.215.215 0 0 1-.11.028l.022.009a.232.232 0 0 1-.203-.125l-.636-1.231a.227.227 0 0 1 .097-.309.23.23 0 0 1 .309.097zm21.822-2.541a.23.23 0 0 1 .106.309l-.618 1.24a.225.225 0 0 1-.23.12l.023.01a.294.294 0 0 1-.102-.023.233.233 0 0 1-.101-.314l.613-1.236a.23.23 0 0 1 .31-.106zm-23.1.078.641 1.227a.23.23 0 0 1-.23.337l.023.009a.222.222 0 0 1-.203-.125l-.636-1.236a.227.227 0 0 1 .097-.309.232.232 0 0 1 .308.097zm24.295-2.541a.228.228 0 0 1 .101.309l-.613 1.241a.23.23 0 0 1-.208.101.194.194 0 0 1-.101 0 .23.23 0 0 1-.106-.309l.618-1.24a.23.23 0 0 1 .309-.102zm-25.595.088.641 1.227a.226.226 0 0 1-.097.309.234.234 0 0 1-.314-.097l-.636-1.227a.23.23 0 0 1 .406-.212zm-1.277-2.453.64 1.226a.23.23 0 0 1-.41.212l-.636-1.226a.235.235 0 0 1 .097-.314.23.23 0 0 1 .308.102zm28.117-.116c.113.06.159.199.101.314l-.613 1.236a.23.23 0 0 1-.208.106v.023a.273.273 0 0 1-.101-.023.235.235 0 0 1-.106-.309l.618-1.241a.23.23 0 0 1 .309-.106zm-29.395-2.319.641 1.226a.236.236 0 0 1-.097.314.238.238 0 0 1-.106.004v.024a.235.235 0 0 1-.207-.125l-.637-1.231a.23.23 0 0 1 .406-.212zm30.51-.181a.232.232 0 0 1 .218.356l-.614 1.24a.234.234 0 0 1-.207.079v.023a.194.194 0 0 1-.102 0 .232.232 0 0 1-.106-.309l.618-1.236a.232.232 0 0 1 .194-.153zm-31.921-2.409a.226.226 0 0 1 .134.113l.64 1.227a.235.235 0 0 1-.096.313.298.298 0 0 1-.106.023.224.224 0 0 1-.208-.124l-.636-1.227a.23.23 0 0 1 .272-.325zm33.264-.067a.232.232 0 0 1 .106.309l-.614 1.236a.23.23 0 0 1-.17.127l-.044.002-.045-.004a.19.19 0 0 1-.05-.019.23.23 0 0 1-.106-.309l.614-1.24a.23.23 0 0 1 .133-.117.23.23 0 0 1 .176.015zm-34.54-2.387a.229.229 0 0 1 .137.114l.636 1.226a.233.233 0 0 1-.203.337.236.236 0 0 1-.207-.124l-.637-1.227a.23.23 0 0 1 .274-.326zm35.654-.117a.232.232 0 0 1 .223.332l-.613 1.241a.229.229 0 0 1-.208.133v-.004a.297.297 0 0 1-.106-.023.235.235 0 0 1-.101-.309l.613-1.241a.232.232 0 0 1 .192-.129zm-36.795-2.223.637 1.227a.23.23 0 0 1-.203.337.235.235 0 0 1-.208-.125l-.636-1.227a.235.235 0 0 1 .097-.313.236.236 0 0 1 .313.101zm38.143-.23a.23.23 0 0 1 .106.309l-.617 1.24a.226.226 0 0 1-.203.125.228.228 0 0 1-.107-.023.23.23 0 0 1-.101-.309l.613-1.241a.234.234 0 0 1 .31-.101zm-39.425-2.228.637 1.227a.236.236 0 0 1-.097.314.224.224 0 0 1-.102.027h-.004a.236.236 0 0 1-.208-.124l-.636-1.232a.23.23 0 0 1 .097-.309.24.24 0 0 1 .313.097zm40.652-.253a.234.234 0 0 1 .106.313l-.613 1.255a.225.225 0 0 1-.226.11h.014a.273.273 0 0 1-.102-.023.226.226 0 0 1-.102-.309l.614-1.24a.23.23 0 0 1 .309-.106zM10.24 19.006a.229.229 0 0 1 .137.114l.636 1.227a.235.235 0 0 1-.097.313.27.27 0 0 1-.101.014l-.005.009a.234.234 0 0 1-.207-.124l-.636-1.227a.23.23 0 0 1 .273-.326zm43.297-.163a.231.231 0 0 1 .106.309l-.617 1.241a.237.237 0 0 1-.203.12l-.005.009a.202.202 0 0 1-.101-.028.232.232 0 0 1-.106-.309l.617-1.235a.231.231 0 0 1 .31-.107zM9.095 16.671l.636 1.227a.23.23 0 0 1-.097.309.214.214 0 0 1-.096.014l-.005-.005a.226.226 0 0 1-.203-.124l-.646-1.209a.23.23 0 0 1 .41-.212zm45.674-.318a.228.228 0 0 1 .101.309l-.613 1.241a.233.233 0 0 1-.203.129l-.005-.005a.23.23 0 0 1-.208-.332l.619-1.24a.23.23 0 0 1 .309-.102zM7.628 14.075a.23.23 0 0 1 .194.125l.637 1.226a.23.23 0 0 1-.097.309.204.204 0 0 1-.102.032l-.004-.004a.226.226 0 0 1-.203-.125l-.641-1.226a.231.231 0 0 1 .216-.337zm48.27-.249a.23.23 0 0 1 .217.355l-.613 1.241a.23.23 0 0 1-.217.133l.01-.004a.273.273 0 0 1-.102-.023.236.236 0 0 1-.106-.309l.618-1.241a.23.23 0 0 1 .193-.152zM6.55 11.746l.637 1.227a.23.23 0 0 1-.097.313.208.208 0 0 1-.106.028.232.232 0 0 1-.203-.124l-.641-1.232a.23.23 0 0 1 .097-.309.235.235 0 0 1 .313.097zm50.571-.369a.23.23 0 0 1 .217.355l-.613 1.241a.234.234 0 0 1-.207.101.194.194 0 0 1-.102 0 .23.23 0 0 1-.106-.309l.618-1.236a.23.23 0 0 1 .193-.152zM5.272 9.293l.646 1.226a.231.231 0 0 1-.097.314.269.269 0 0 1-.116.023.233.233 0 0 1-.203-.124l-.64-1.227a.23.23 0 1 1 .41-.212zm53.19-.369a.23.23 0 0 1 .107.309l-.614 1.236a.231.231 0 0 1-.415-.203l.614-1.241a.226.226 0 0 1 .309-.101zM3.995 6.839l.637 1.227a.226.226 0 0 1-.097.309.219.219 0 0 1-.106.028.231.231 0 0 1-.203-.125l-.641-1.227a.23.23 0 0 1 .41-.212zm55.7-.396a.23.23 0 0 1 .106.309l-.618 1.24a.221.221 0 0 1-.309.102.23.23 0 0 1-.101-.309l.613-1.236a.235.235 0 0 1 .309-.106zM2.522 4.261a.232.232 0 0 1 .195.125l.636 1.227a.226.226 0 0 1-.096.309.229.229 0 0 1-.309-.097l-.641-1.227a.232.232 0 0 1 .216-.337zm58.403-.295a.232.232 0 0 1 .106.309l-.618 1.241a.226.226 0 0 1-.203.124.206.206 0 0 1-.106-.023.23.23 0 0 1-.101-.309l.613-1.24a.236.236 0 0 1 .31-.102zM1.44 1.914l.636 1.227a.23.23 0 0 1-.097.313.208.208 0 0 1-.106.056.222.222 0 0 1-.203-.125l-.64-1.259a.23.23 0 0 1 .41-.212zm60.717-.387a.23.23 0 0 1 .106.309l-.618 1.213a.227.227 0 0 1-.208.115v.018a.247.247 0 0 1-.101 0 .227.227 0 0 1-.102-.309l.614-1.24a.23.23 0 0 1 .309-.106zM1.817.231a.23.23 0 1 1 0 .461H.795a.236.236 0 0 1-.102.314.298.298 0 0 1-.096.032.231.231 0 0 1-.203-.125L.208.567a.216.216 0 0 1 0-.059.153.153 0 0 1 0-.079.2.2 0 0 1 .028-.092.264.264 0 0 1 .07-.074.246.246 0 0 1 .078-.032h1.434zM59.902.226a.23.23 0 1 1 0 .461h-1.383a.235.235 0 0 1-.23-.23.23.23 0 0 1 .23-.231h1.383zm-2.767 0a.23.23 0 1 1 0 .461h-1.383a.235.235 0 0 1-.23-.23.23.23 0 0 1 .23-.231h1.384zm5.534 0a.23.23 0 1 1 0 .461h-1.383a.235.235 0 0 1-.23-.23.23.23 0 0 1 .23-.231h1.383zM51.6.226a.23.23 0 1 1 0 .461h-1.383a.235.235 0 0 1-.23-.23.23.23 0 0 1 .23-.231H51.6zm-2.767 0a.23.23 0 1 1 0 .461H47.45a.235.235 0 0 1-.23-.23.23.23 0 0 1 .23-.231h1.383zm-2.767 0a.23.23 0 1 1 0 .461h-1.383a.235.235 0 0 1-.23-.23.23.23 0 0 1 .23-.231h1.383zm-2.767 0a.23.23 0 1 1 0 .461h-1.383a.235.235 0 0 1-.23-.23.23.23 0 0 1 .23-.231H43.3zm-2.767 0a.23.23 0 1 1 0 .461H39.15a.235.235 0 0 1-.23-.23.23.23 0 0 1 .23-.231h1.383zm-2.766 0a.23.23 0 1 1 0 .461h-1.384a.234.234 0 0 1-.23-.23.23.23 0 0 1 .23-.231h1.384zm-2.767 0a.23.23 0 1 1 0 .461h-1.384a.234.234 0 0 1-.23-.23.23.23 0 0 1 .23-.231h1.383zm-2.767 0a.23.23 0 1 1 0 .461h-1.384a.235.235 0 0 1-.23-.23.23.23 0 0 1 .23-.231h1.384zm-2.767 0a.23.23 0 1 1 0 .461H28.08a.235.235 0 0 1-.23-.23.23.23 0 0 1 .23-.231h1.384zm-2.767 0a.23.23 0 1 1 0 .461h-1.384a.235.235 0 0 1-.23-.23.23.23 0 0 1 .23-.231h1.384zm-2.767 0a.23.23 0 1 1 0 .461h-1.384a.235.235 0 0 1-.23-.23.23.23 0 0 1 .23-.231h1.384zm-2.767 0a.23.23 0 1 1 0 .461H19.78a.235.235 0 0 1-.23-.23.23.23 0 0 1 .23-.231h1.384zm-2.767 0a.23.23 0 1 1 0 .461h-1.384a.235.235 0 0 1-.23-.23.23.23 0 0 1 .23-.231h1.384zm-2.767 0a.23.23 0 1 1 0 .461h-1.384a.235.235 0 0 1-.23-.23.23.23 0 0 1 .23-.231h1.384zm-2.767 0a.23.23 0 1 1 0 .461h-1.384a.235.235 0 0 1-.23-.23.23.23 0 0 1 .23-.231h1.384zm-2.767 0a.23.23 0 1 1 0 .461H8.712a.234.234 0 0 1-.23-.23.23.23 0 0 1 .23-.231h1.384zm-2.767 0a.23.23 0 1 1 0 .461H5.945a.234.234 0 0 1-.23-.23.23.23 0 0 1 .23-.231H7.33zm-2.767 0a.23.23 0 1 1 0 .461H3.178a.235.235 0 0 1-.23-.23.23.23 0 0 1 .23-.231h1.384zm49.805 0a.23.23 0 1 1 0 .461h-1.383a.235.235 0 0 1-.23-.23.23.23 0 0 1 .23-.231h1.383z" id="i"/>
    </defs>
    <g fill="none" fill-rule="evenodd">
        <g>
            <mask id="b" fill="#fff">
                <use xlink:href="#a"/>
            </mask>
            <path fill="#000" mask="url(#b)" d="M-4.57-4.654h73.441V99.654h-73.44z"/>
        </g>
        <g transform="translate(32)">
            <mask id="d" fill="#fff">
                <use xlink:href="#c"/>
            </mask>
            <path fill="#000" mask="url(#d)" d="M-4.216-4.679H37.13v72.167H-4.216z"/>
        </g>
        <g>
            <mask id="f" fill="#fff">
                <use xlink:href="#e"/>
            </mask>
            <path fill="#000" mask="url(#f)" d="M-4.566-4.673h43.298v72.161H-4.566z"/>
        </g>
        <g transform="translate(0 61)">
            <mask id="h" fill="#fff">
                <use xlink:href="#g"/>
            </mask>
            <path fill="#000" mask="url(#h)" d="M-4.566-4.434H68.87V6.488H-4.567z"/>
        </g>
        <g transform="translate(1 32)">
            <mask id="j" fill="#fff">
                <use xlink:href="#i"/>
            </mask>
            <path fill="#000" mask="url(#j)" d="M-4.797-4.774H67.9v71.681H-4.797z"/>
        </g>
    </g>
</svg>
