<svg width="92" height="71" viewBox="-10 -10 112 91" xmlns="http://www.w3.org/2000/svg" xmlns:xlink="http://www.w3.org/1999/xlink">
    <defs>
        <path d="m30 .5 60.75 34.85a.502.502 0 0 1-.005.87L60.37 53.095a.536.536 0 0 1-.245.06.498.498 0 0 1-.25-.065L.25 18.215a.5.5 0 0 1 0-.865L29.5.5a.502.502 0 0 1 .5 0zm-.25 1L1.5 17.785 60.135 52.08 89.5 35.775 29.75 1.5z" id="a"/>
        <path d="M31.5.845a.5.5 0 0 1 .5.5V18.22a.5.5 0 0 1-.255.435L1.37 35.53a.5.5 0 0 1-.5-.005.5.5 0 0 1-.245-.43V18.22a.5.5 0 0 1 1 0v16.025L31 17.925V1.345a.5.5 0 0 1 .5-.5z" id="c"/>
        <path d="M.5.845a.5.5 0 0 1 .5.5v16.59l58.815 34.73a.502.502 0 0 1 .18.685.5.5 0 0 1-.685.175L.245 18.65A.5.5 0 0 1 0 18.22V1.345a.5.5 0 0 1 .5-.5z" id="e"/>
        <path d="m57.875 51.765 1.305.735a.244.244 0 0 1 .09.34.243.243 0 0 1-.34.095l-1.305-.735a.255.255 0 0 1-.095-.345.255.255 0 0 1 .345-.09zm-2.63-1.48 1.305.74a.25.25 0 0 1-.12.465l.015-.02a.271.271 0 0 1-.125-.03L55 50.72a.255.255 0 0 1-.095-.34.25.25 0 0 1 .34-.095zM52.65 48.79l1.305.74a.25.25 0 0 1 .095.34.243.243 0 0 1-.34.095l-1.305-.74a.247.247 0 0 1-.095-.34c.07-.118.22-.16.34-.095zm-2.61-1.495 1.305.74a.25.25 0 0 1-.12.465.271.271 0 0 1-.125-.03l-1.305-.74a.25.25 0 1 1 .245-.435zm-2.61-1.48 1.305.74c.118.07.16.22.095.34a.245.245 0 0 1-.22.165v-.035a.205.205 0 0 1-.12-.035l-1.305-.74a.247.247 0 0 1-.095-.34.25.25 0 0 1 .34-.095zm-2.61-1.495 1.305.735a.26.26 0 0 1 .095.345.255.255 0 0 1-.22.18v-.055a.251.251 0 0 1-.12-.03l-1.305-.74a.25.25 0 0 1-.095-.34.245.245 0 0 1 .34-.095zm-2.61-1.48 1.305.74c.118.07.16.22.095.34a.264.264 0 0 1-.22.185v-.055a.29.29 0 0 1-.125-.035l-1.305-.74a.25.25 0 0 1-.095-.34.26.26 0 0 1 .345-.095zm-2.615-1.495 1.305.735c.12.07.163.223.095.345a.25.25 0 0 1-.215.2v-.075a.221.221 0 0 1-.125-.035l-1.305-.735a.255.255 0 0 1-.095-.34.245.245 0 0 1 .34-.095zm-2.61-1.5 1.305.74a.25.25 0 0 1-.12.465.271.271 0 0 1-.125-.03l-1.305-.74a.255.255 0 0 1-.095-.34.25.25 0 0 1 .34-.095zm-2.61-1.48 1.305.74a.25.25 0 0 1 .095.34.245.245 0 0 1-.215.225v-.095a.221.221 0 0 1-.125-.035l-1.305-.735a.251.251 0 1 1 .245-.44zm-2.63-1.38 1.305.74a.247.247 0 0 1 .095.34.252.252 0 0 1-.2.125v-.115a.264.264 0 0 1-.12-.03L31.5 37.42a.25.25 0 1 1 .245-.435zm-2.59-1.595 1.305.74c.118.07.16.22.095.34a.245.245 0 0 1-.22.245V36.6a.205.205 0 0 1-.12-.035l-1.305-.74a.247.247 0 0 1-.095-.34.25.25 0 0 1 .34-.095zm-2.61-1.495 1.305.74a.25.25 0 0 1 .095.34.26.26 0 0 1-.22.26V35.1a.251.251 0 0 1-.12-.03l-1.31-.74a.244.244 0 0 1-.09-.34.245.245 0 0 1 .34-.095zm-2.61-1.33 1.305.74a.244.244 0 0 1 .09.34.255.255 0 0 1-.215.115v-.16a.24.24 0 0 1-.125-.035L23.685 33a.25.25 0 0 1-.095-.34.26.26 0 0 1 .345-.095zm-2.615-1.5 1.305.735c.12.07.163.223.095.345a.251.251 0 0 1-.22.135l.005-.18a.271.271 0 0 1-.125-.03l-1.305-.57a.255.255 0 0 1-.095-.34.245.245 0 0 1 .34-.095zm-2.61-1.67 1.305.74a.25.25 0 0 1-.12.465.271.271 0 0 1-.125-.03l-1.305-.74a.247.247 0 0 1-.095-.34c.07-.118.22-.16.34-.095zM16.1 27.92l1.305.735a.25.25 0 0 1 .095.34.244.244 0 0 1-.215.33v-.2a.221.221 0 0 1-.125-.035l-1.305-.735a.255.255 0 0 1-.095-.345.244.244 0 0 1 .34-.09zm-2.61-1.5 1.305.74a.25.25 0 0 1-.125.465.264.264 0 0 1-.12-.03l-1.305-.74a.25.25 0 1 1 .245-.435zm-2.61-1.505 1.305.74c.118.07.16.22.095.34a.25.25 0 0 1-.22.375v-.245a.205.205 0 0 1-.12-.035l-1.31-.735a.255.255 0 0 1 .25-.44zm-2.63-1.23 1.305.74a.25.25 0 0 1 .095.34.26.26 0 0 1-.2.125v-.265a.285.285 0 0 1-.125-.03L8 24.12a.25.25 0 1 1 .25-.435zm-2.595-1.77 1.305.74a.25.25 0 0 1 .095.34c.08.075.102.194.052.292a.246.246 0 0 1-.267.128v-.29a.221.221 0 0 1-.125-.035l-1.305-.74a.25.25 0 0 1 .245-.435zm-2.61-1.185 1.305.74a.25.25 0 0 1-.12.465v-.31a.271.271 0 0 1-.125-.03l-1.305-.43a.255.255 0 0 1-.095-.34.25.25 0 0 1 .34-.095zm-2.61-1.81L1.74 20a.25.25 0 0 1-.12.465v-.34a.271.271 0 0 1-.125-.03l-1.305-.74a.247.247 0 0 1-.095-.34c.07-.118.22-.16.34-.095zM.31 15.89a.25.25 0 0 1 .25.25v1.5a.316.316 0 0 1-.25.58v-.33a.255.255 0 0 1-.25-.25v-1.5a.25.25 0 0 1 .25-.25zm0-3a.25.25 0 0 1 .25.25v1.5a.316.316 0 0 1-.25.58v-.33a.255.255 0 0 1-.25-.25v-1.5a.25.25 0 0 1 .25-.25zm0-3a.25.25 0 0 1 .25.25v1.5a.316.316 0 0 1-.25.58v-.33a.255.255 0 0 1-.25-.25v-1.5a.25.25 0 0 1 .25-.25zm0-3a.25.25 0 0 1 .25.25v1.5a.316.316 0 0 1-.25.58v-.33a.255.255 0 0 1-.25-.25v-1.5a.25.25 0 0 1 .25-.25zm0-3a.25.25 0 0 1 .25.25v1.5a.316.316 0 0 1-.25.58v-.33a.255.255 0 0 1-.25-.25v-1.5a.25.25 0 0 1 .25-.25zm0-3a.25.25 0 0 1 .25.25v1.5a.316.316 0 0 1-.25.58v-.33a.255.255 0 0 1-.25-.25v-1.5A.25.25 0 0 1 .31.89z" id="g"/>
        <path d="M1.946 15.846a.251.251 0 0 1-.011.434L.62 17a.264.264 0 0 1-.12.03.246.246 0 0 1-.22-.13.255.255 0 0 1 .1-.34l1.315-.72a.25.25 0 0 1 .25.006zM4.67 14.5a.25.25 0 0 1-.1.34l-1.32.72a.24.24 0 0 1-.12.03.243.243 0 0 1-.215-.13.25.25 0 0 1 .095-.34l1.32-.72a.25.25 0 0 1 .34.1zm2.63-1.44a.25.25 0 0 1-.1.34l-1.315.72a.264.264 0 0 1-.12.03.25.25 0 0 1-.12-.47l1.315-.72a.25.25 0 0 1 .34.1zm2.63-1.46a.25.25 0 0 1-.1.34l-1.33.74a.243.243 0 0 1-.105.03.246.246 0 0 1-.22-.13.255.255 0 0 1 .1-.34l1.315-.74a.254.254 0 0 1 .34.1zm2.635-1.42a.25.25 0 0 1-.1.34l-1.32.72a.24.24 0 0 1-.12.03.243.243 0 0 1-.215-.13.25.25 0 0 1 .095-.34l1.32-.72a.25.25 0 0 1 .34.1zm2.63-1.44a.25.25 0 0 1-.1.34l-1.315.72a.264.264 0 0 1-.12.03.25.25 0 0 1-.12-.47l1.315-.72a.25.25 0 0 1 .34.1zM17.84 7.3a.25.25 0 0 1-.1.34l-1.315.72a.254.254 0 0 1-.135.03.246.246 0 0 1-.22-.13.255.255 0 0 1 .1-.34l1.33-.72a.254.254 0 0 1 .34.1zm2.53-1.534a.251.251 0 0 1-.01.434l-1.32.72a.24.24 0 0 1-.12.03.243.243 0 0 1-.215-.13.25.25 0 0 1 .095-.34l1.32-.72a.25.25 0 0 1 .25.006zm2.72-1.356a.25.25 0 0 1-.1.34l-1.315.75a.27.27 0 0 1-.12 0 .246.246 0 0 1-.22-.13.255.255 0 0 1 .1-.34l1.315-.72a.25.25 0 0 1 .34.1zm2.63-1.44a.244.244 0 0 1-.1.34l-1.315.72a.256.256 0 0 1-.12.04v-.01a.251.251 0 0 1-.22-.13.255.255 0 0 1 .1-.34l1.315-.72a.254.254 0 0 1 .34.1zm2.62-1.43a.25.25 0 0 1-.1.34l-1.3.72a.264.264 0 0 1-.12.03v-.01a.25.25 0 0 1-.12-.47l1.3-.71a.25.25 0 0 1 .34.1zM30.442.244a.252.252 0 0 1-.007.436l-.865.47a.258.258 0 0 1-.12.04v-.01a.246.246 0 0 1-.22-.13.255.255 0 0 1 .1-.34l.86-.47a.252.252 0 0 1 .252.004z" id="i"/>
    </defs>
    <g fill="none" fill-rule="evenodd">
        <g>
            <mask id="b" fill="#fff">
                <use xlink:href="#a"/>
            </mask>
            <path fill="#000" mask="url(#b)" d="M-5-4.567H96v62.722H-5z"/>
        </g>
        <g transform="translate(59 35)">
            <mask id="d" fill="#fff">
                <use xlink:href="#c"/>
            </mask>
            <path fill="#000" mask="url(#d)" d="M-4.375-4.155H37v44.75H-4.375z"/>
        </g>
        <g transform="translate(0 17)">
            <mask id="f" fill="#fff">
                <use xlink:href="#e"/>
            </mask>
            <path fill="#000" mask="url(#f)" d="M-5-4.155h70.064v62.75H-5z"/>
        </g>
        <g transform="translate(30)">
            <mask id="h" fill="#fff">
                <use xlink:href="#g"/>
            </mask>
            <path fill="#000" mask="url(#h)" d="M-4.94-4.11h69.245v62.08H-4.94z"/>
        </g>
        <g transform="translate(0 19)">
            <mask id="j" fill="#fff">
                <use xlink:href="#i"/>
            </mask>
            <path fill="#000" mask="url(#j)" d="M-4.75-4.792h40.314V22.03H-4.749z"/>
        </g>
    </g>
</svg>
