<svg width="77" height="77" viewBox="-10 -10 97 97" xmlns="http://www.w3.org/2000/svg" xmlns:xlink="http://www.w3.org/1999/xlink">
    <defs>
        <path d="M38.5.875C59.28.875 76.125 17.72 76.125 38.5 76.1 59.269 59.269 76.1 38.5 76.125 17.72 76.125.875 59.28.875 38.5S17.72.875 38.5.875zm0 1C18.273 1.875 1.875 18.273 1.875 38.5S18.273 75.125 38.5 75.125 75.125 58.727 75.125 38.5C75.103 18.282 58.718 1.897 38.5 1.875z" id="a"/>
        <path d="M75.625 0a.5.5 0 0 1 .5.5c0 10.5-16.88 19.06-37.625 19.06S.875 11.01.875.5a.5.5 0 0 1 1 0c0 9.96 16.43 18.06 36.625 18.06S75.125 10.46 75.125.5a.5.5 0 0 1 .5-.5z" id="c"/>
        <path d="M75.625 0a.5.5 0 0 1 .5.5c0 10.5-16.88 19.06-37.625 19.06S.875 11.01.875.5a.5.5 0 0 1 1 0c0 9.96 16.43 18.06 36.625 18.06S75.125 10.46 75.125.5a.5.5 0 0 1 .5-.5z" id="e"/>
        <path d="M.535 17.76a.253.253 0 0 1 .21.29A9.35 9.35 0 0 0 .63 19.5a.251.251 0 0 1-.255.25.25.25 0 0 1-.25-.25c0-.512.04-1.024.12-1.53a.253.253 0 0 1 .29-.21zm73.677-1.428a.25.25 0 0 1 .183.188c.156.49.273.992.35 1.5a.25.25 0 0 1-.21.285L74.5 18.3a.255.255 0 0 1-.25-.21 9.43 9.43 0 0 0-.33-1.42.25.25 0 0 1 .292-.338zM1.485 14.945a.255.255 0 0 1 .12.335c-.214.437-.394.89-.54 1.355a.25.25 0 0 1-.225.17L.825 16.8H.75a.255.255 0 0 1-.165-.315c.158-.485.347-.959.565-1.42a.25.25 0 0 1 .335-.12zm71.615-1.19c.27.43.516.876.735 1.335a.25.25 0 0 1-.12.335.24.24 0 0 1-.09.03l-.015-.005a.244.244 0 0 1-.225-.145c-.211-.44-.449-.868-.71-1.28a.246.246 0 0 1 .08-.345.25.25 0 0 1 .345.075zM3.138 12.438a.25.25 0 0 1 .042.352c-.308.385-.595.785-.86 1.2a.24.24 0 0 1-.2.12l-.01-.005a.25.25 0 0 1-.21-.385c.265-.415.565-.835.885-1.24a.25.25 0 0 1 .353-.042zm68.082-1.073c.353.366.686.75 1 1.15a.25.25 0 0 1-.04.35.252.252 0 0 1-.145.06l-.01-.005a.255.255 0 0 1-.195-.095c-.3-.375-.625-.75-.97-1.115a.25.25 0 1 1 .36-.345zM5.095 10.209c.066 0 .13.028.175.076a.245.245 0 0 1 0 .35 17.4 17.4 0 0 0-1.065 1.03.26.26 0 0 1-.205.1.264.264 0 0 1-.175-.07.25.25 0 0 1 0-.355c.345-.36.71-.715 1.095-1.055a.242.242 0 0 1 .175-.076zm63.91-.854c.405.315.795.645 1.165.975a.25.25 0 0 1-.335.37c-.36-.325-.74-.645-1.135-.955a.25.25 0 0 1 .042-.452.25.25 0 0 1 .263.062zm-61.36-.87a.25.25 0 0 1-.065.35c-.41.285-.815.58-1.195.875a.226.226 0 0 1-.18.05l.025.005a.25.25 0 0 1-.155-.445c.39-.305.8-.61 1.22-.9a.255.255 0 0 1 .35.065zM66.52 7.62c.435.265.86.545 1.265.825a.25.25 0 0 1 .065.35.246.246 0 0 1-.23.1l.025.005c-.05 0-.1-.015-.14-.045-.4-.275-.82-.55-1.245-.81a.255.255 0 0 1-.085-.345.244.244 0 0 1 .345-.08zm-56.384-.8a.25.25 0 0 1-.026.45c-.435.245-.87.5-1.285.75a.248.248 0 0 1-.155.035l.025.005a.25.25 0 0 1-.13-.465c.42-.26.86-.5 1.305-.76a.25.25 0 0 1 .266-.015zm53.744-.67c.455.23.905.465 1.335.705a.25.25 0 0 1-.12.47.205.205 0 0 1-.12-.035c-.43-.233-.87-.463-1.32-.69a.245.245 0 0 1-.11-.335.25.25 0 0 1 .335-.115zm-51.014-.564a.25.25 0 0 1-.111.324c-.46.21-.91.42-1.35.64a.214.214 0 0 1-.11.05.256.256 0 0 1-.11-.5c.447-.22.902-.435 1.365-.645a.25.25 0 0 1 .316.131zm48.239-.641c.47.195.935.395 1.385.6a.255.255 0 1 1-.105.5V6a.24.24 0 0 1-.1 0c-.45-.205-.905-.4-1.37-.59a.245.245 0 0 1-.135-.325.248.248 0 0 1 .133-.137.245.245 0 0 1 .192-.003zm-45.5-.581a.25.25 0 0 1-.09.441c-.47.175-.935.36-1.39.545a.307.307 0 0 1-.095.015.24.24 0 0 1-.23-.155.25.25 0 0 1 .135-.325c.46-.185.93-.37 1.405-.545a.248.248 0 0 1 .265.024zm42.67-.499c.5.165.96.33 1.425.5a.244.244 0 0 1 .145.32.25.25 0 0 1-.235.155v.025a.203.203 0 0 1-.085 0c-.46-.17-.93-.335-1.405-.5a.261.261 0 1 1 .155-.5zM18.464 3.45a.25.25 0 0 1-.119.435l-1.425.455a.193.193 0 0 1-.075-.015v.04a.253.253 0 0 1-.08-.5c.47-.155.95-.31 1.435-.455a.25.25 0 0 1 .264.04zm36.931-.425c.5.13.97.27 1.445.415a.25.25 0 0 1 .165.315.246.246 0 0 1-.235.125v.04h-.075c-.47-.145-.95-.28-1.435-.415a.255.255 0 0 1-.175-.31.25.25 0 0 1 .31-.17zm-34.099-.38c.058.034.099.09.114.155a.255.255 0 0 1-.185.305c-.5.12-.97.245-1.445.375l-.065.015a.252.252 0 1 1-.065-.5c.48-.13.965-.255 1.455-.375a.246.246 0 0 1 .191.025zm31.174-.35c.5.11 1 .225 1.465.345a.25.25 0 0 1 .185.3.25.25 0 0 1-.245.145v.04h-.06c-.5-.12-.965-.23-1.455-.34a.25.25 0 0 1-.19-.3.26.26 0 0 1 .3-.19zm-28.122-.122a.254.254 0 0 1-.203.297c-.5.095-1 .195-1.465.3l-.055.005a.251.251 0 1 1-.05-.5c.5-.11.975-.21 1.475-.305a.254.254 0 0 1 .297.203zm25.162-.458c.5.085 1 .175 1.5.27a.255.255 0 0 1 .2.295.25.25 0 0 1-.265.16v.04h-.05c-.487-.093-.977-.183-1.47-.27a.255.255 0 0 1-.205-.29.26.26 0 0 1 .29-.205zm-22.48-.24a.255.255 0 0 1 .28.21.247.247 0 0 1-.21.285c-.5.07-1 .15-1.5.235h-.03A.25.25 0 0 1 25.325 2a.255.255 0 0 1 .205-.29c.5-.085 1-.16 1.5-.235zm19.495-.235c.5.06 1 .13 1.5.2a.25.25 0 1 1-.035.5h-.025c-.5-.07-1-.14-1.5-.2a.252.252 0 0 1 .06-.5zm-16.5-.18a.25.25 0 0 1 .221.406.243.243 0 0 1-.166.089l-1.5.17-.025.005a.25.25 0 0 1-.03-.5c.5-.065 1-.12 1.5-.17zM43.54.935c.5.04 1 .09 1.5.14a.249.249 0 0 1 .225.275.26.26 0 0 1-.201.214L45 1.57c-.5-.05-1-.095-1.5-.135a.248.248 0 0 1-.23-.27.255.255 0 0 1 .27-.23zM32.98.82a.235.235 0 0 1 .26.235.245.245 0 0 1-.23.265c-.5.03-1 .065-1.5.105h-.01a.255.255 0 0 1-.25-.23.26.26 0 0 1 .23-.27c.5-.04 1-.075 1.5-.105zm7.54-.07c.5 0 1 .045 1.5.075a.25.25 0 0 1 .044.492L42 1.325c-.5-.03-1-.055-1.5-.075a.26.26 0 0 1-.24-.26.26.26 0 0 1 .26-.24zM36 .7a.252.252 0 0 1 .187.425.246.246 0 0 1-.177.075c-.5 0-1 0-1.5.045h-.01a.25.25 0 0 1 0-.5c.5 0 1-.035 1.5-.045zm3 .005a.246.246 0 0 1 .245.255.25.25 0 0 1-.18.235l-.065.01h-1.5a.255.255 0 0 1-.25-.25.25.25 0 0 1 .25-.25H39z" id="g"/>
    </defs>
    <g fill="none" fill-rule="evenodd">
        <g>
            <mask id="b" fill="#fff">
                <use xlink:href="#a"/>
            </mask>
            <path fill="#000" mask="url(#b)" d="M-4.125-4.125h85.25v85.25h-85.25z"/>
        </g>
        <g transform="translate(0 38)">
            <mask id="d" fill="#fff">
                <use xlink:href="#c"/>
            </mask>
            <path fill="#000" mask="url(#d)" d="M-4.125-5h85.25v29.56h-85.25z"/>
        </g>
        <g transform="translate(0 38)">
            <mask id="f" fill="#fff">
                <use xlink:href="#e"/>
            </mask>
            <path fill="#000" mask="url(#f)" d="M-4.125-5h85.25v29.56h-85.25z"/>
        </g>
        <g transform="translate(1 19)">
            <mask id="h" fill="#fff">
                <use xlink:href="#g"/>
            </mask>
            <path fill="#000" mask="url(#h)" d="M-4.875-4.3h84.623v29.05H-4.875z"/>
        </g>
    </g>
</svg>
