<svg width="79" height="89" viewBox="-10 -10 99 109" xmlns="http://www.w3.org/2000/svg" xmlns:xlink="http://www.w3.org/1999/xlink">
    <defs>
        <path d="M38.37.125a.5.5 0 0 1 .44.25L78.185 69a.5.5 0 0 1-.215.7L38.595 88.825a.507.507 0 0 1-.45-.005L1 69.695a.5.5 0 0 1-.245-.295.5.5 0 0 1 .035-.39L37.935.385a.5.5 0 0 1 .435-.26zm.02 1.525L1.935 69.04 38.38 87.815l38.67-18.78L38.39 1.65z" id="a"/>
        <path d="M1.375.125a.5.5 0 0 1 .5.5v87.75a.5.5 0 0 1-1 0V.625a.5.5 0 0 1 .5-.5z" id="c"/>
        <path d="m75.52 19.355 1.34.67a.25.25 0 1 1-.22.45l-1.345-.675a.25.25 0 0 1-.11-.335.255.255 0 0 1 .335-.11zm-73.225-.18a.25.25 0 0 1-.1.34l-1.325.7a.259.259 0 0 1-.092.029l-.031.001-.051-.007a.25.25 0 0 1-.184-.318.245.245 0 0 1 .123-.145l1.325-.705a.25.25 0 0 1 .335.105zM72.86 18.01l1.34.675a.245.245 0 0 1 .11.335.25.25 0 0 1-.185.133l-.043.002-.054-.005a.212.212 0 0 1-.053-.02l-1.34-.67a.245.245 0 0 1-.11-.335.25.25 0 0 1 .335-.115zm-67.99-.343a.25.25 0 0 1-.025.443l-1.345.7-.058.022-.051.007-.058-.008a.251.251 0 0 1-.153-.121.255.255 0 0 1 .105-.34l1.325-.7c.08-.05.18-.051.26-.003zm65.3-.972 1.34.67a.25.25 0 0 1-.11.475v-.025a.255.255 0 0 1-.11 0l-1.345-.675a.25.25 0 1 1 .225-.445zm-62.724-.451a.25.25 0 0 1 .044.461l-1.325.7a.224.224 0 0 1-.085.029l-.034.001-.05-.004a.24.24 0 0 1-.166-.126.25.25 0 0 1 .1-.34l1.325-.7a.254.254 0 0 1 .19-.021zm60.039-.919L68.83 16a.25.25 0 0 1-.225.445l-1.34-.67a.25.25 0 0 1 .22-.45zm-57.373-.484a.253.253 0 0 1 .166.314.245.245 0 0 1-.123.145L8.8 16l-.056.023-.046.005-.037-.003a.25.25 0 0 1-.066-.465l1.325-.7a.252.252 0 0 1 .192-.019zm54.658-.831 1.34.67a.25.25 0 0 1-.11.475v-.025a.318.318 0 0 1-.115 0l-1.34-.675a.25.25 0 1 1 .225-.445zm-52.055-.573c.063.02.115.064.145.123a.244.244 0 0 1-.1.335l-1.31.705a.231.231 0 0 1-.115.03h-.02a.25.25 0 0 1-.115-.475l1.325-.7a.246.246 0 0 1 .19-.018zm49.37-.772 1.345.675a.25.25 0 0 1-.115.47v-.025a.227.227 0 0 1-.11 0l-1.34-.67a.25.25 0 0 1-.03-.433.251.251 0 0 1 .25-.017zM15.4 12.032c.063.02.115.064.145.123a.244.244 0 0 1-.1.335l-1.325.705a.251.251 0 0 1-.358-.295.245.245 0 0 1 .123-.145l1.325-.705a.246.246 0 0 1 .19-.018zm44.04-.707 1.34.67a.245.245 0 0 1 .11.335.241.241 0 0 1-.18.115h-.042l-.056.006a.279.279 0 0 1-.057-.006l-1.34-.675a.25.25 0 1 1 .225-.445zm-41.22-.575a.25.25 0 0 1-.105.335l-1.325.705a.261.261 0 0 1-.155.03h.035a.25.25 0 0 1-.115-.47l1.325-.705a.255.255 0 0 1 .34.105zm38.5-.795 1.345.675a.25.25 0 0 1 .11.335.255.255 0 0 1-.205.135h.035a.227.227 0 0 1-.11 0l-1.395-.695a.25.25 0 0 1 .22-.45zm-35.88-.61a.25.25 0 0 1-.105.34l-1.325.7a.226.226 0 0 1-.078.027l-.018.002-.044-.005a.255.255 0 0 1-.17-.129.255.255 0 0 1 .105-.335L20.5 9.24a.255.255 0 0 1 .34.105zm33.255-.73 1.34.67a.245.245 0 0 1 .11.335.24.24 0 0 1-.255.14h.035c-.04 0-.08-.01-.115-.03l-1.34-.67a.25.25 0 1 1 .225-.445zm-30.61-.685a.25.25 0 0 1-.105.34L22.055 9a.224.224 0 0 1-.115 0 .25.25 0 0 1-.12-.47l1.33-.705a.254.254 0 0 1 .335.105zm27.89-.67 1.34.67a.256.256 0 1 1-.11.5v-.025a.262.262 0 0 1-.11-.025l-1.345-.67a.251.251 0 1 1 .225-.45zm-25.372-.855a.25.25 0 0 1 .047.46l-1.33.7a.232.232 0 0 1-.13.04l.015-.01a.246.246 0 0 1-.22-.13.25.25 0 0 1 .105-.34l1.325-.7a.243.243 0 0 1 .188-.02zM48.71 5.92l1.34.67a.245.245 0 0 1 .11.335.245.245 0 0 1-.24.15l.015-.01a.235.235 0 0 1-.11-.03l-1.34-.67a.25.25 0 0 1 .225-.445zM28.654 5a.25.25 0 0 1 .046.46l-1.325.7a.268.268 0 0 1-.135.04l.015-.01a.246.246 0 0 1-.22-.13.25.25 0 0 1 .105-.34l1.325-.7a.243.243 0 0 1 .189-.02zm17.371-.425 1.34.67a.256.256 0 1 1-.11.5V5.72a.262.262 0 0 1-.11-.025l-1.345-.67a.26.26 0 0 1-.11-.34.255.255 0 0 1 .335-.11zm-14.65-.963a.25.25 0 0 1-.025.443L30 4.77a.261.261 0 0 1-.11.025l.015-.01a.251.251 0 0 1-.22-.13.255.255 0 0 1 .105-.34l1.325-.7c.08-.05.18-.051.26-.003zm11.965-.377 1.345.67a.25.25 0 0 1 .11.335.255.255 0 0 1-.24.15l.015-.01a.235.235 0 0 1-.11-.03l-1.34-.67a.25.25 0 0 1 .03-.461.244.244 0 0 1 .19.016zm-9.373-1.049a.253.253 0 0 1 .166.314.245.245 0 0 1-.123.145l-1.325.705a.228.228 0 0 1-.14.045l.025-.015a.25.25 0 0 1-.12-.475l1.325-.7a.252.252 0 0 1 .192-.019zm6.703-.301 1.34.67a.256.256 0 1 1-.11.5V3.03a.325.325 0 0 1-.115-.025l-1.34-.675a.25.25 0 0 1-.11-.335.255.255 0 0 1 .335-.11zM36.592.806a.253.253 0 0 1 .166.314.245.245 0 0 1-.123.145l-1.325.705a.231.231 0 0 1-.115.03.251.251 0 0 1-.22-.135.244.244 0 0 1 .1-.335L36.4.825a.252.252 0 0 1 .192-.019zM37.96.55l1.345.675a.25.25 0 0 1-.115.47l.005.015a.221.221 0 0 1-.11-.025L37.74 1a.25.25 0 0 1 .22-.45z" id="e"/>
    </defs>
    <g fill="none" fill-rule="evenodd">
        <g>
            <mask id="b" fill="#fff">
                <use xlink:href="#a"/>
            </mask>
            <path fill="#000" mask="url(#b)" d="M-4.27-4.875h87.522v98.75H-4.27z"/>
        </g>
        <g transform="translate(37)">
            <mask id="d" fill="#fff">
                <use xlink:href="#c"/>
            </mask>
            <path fill="#000" mask="url(#d)" d="M-4.125-4.875h11v98.75h-11z"/>
        </g>
        <g transform="translate(1 49)">
            <mask id="f" fill="#fff">
                <use xlink:href="#e"/>
            </mask>
            <path fill="#000" mask="url(#f)" d="M-4.5-4.476h86.501V25.5h-86.5z"/>
        </g>
    </g>
</svg>
