<svg width="83" height="83" viewBox="-10 -10 103 103" xmlns="http://www.w3.org/2000/svg" xmlns:xlink="http://www.w3.org/1999/xlink">
    <defs>
        <path d="M22.61.935 41.735 11.06a.5.5 0 0 1 .265.44V70a.5.5 0 0 1-.5.5.5.5 0 0 1-.25-.07L.75 46.805a.5.5 0 0 1-.2-.645l21.375-45a.5.5 0 0 1 .685-.225zm-.005 1.125L1.65 46.175 41 69.13V11.8L22.605 2.06z" id="a"/>
        <path d="M20.78.9c.13.043.236.137.295.26l21.375 45a.5.5 0 0 1-.2.645L1.75 70.43a.452.452 0 0 1-.25.07.5.5 0 0 1-.25-.93l40.1-23.395L20.395 2.06l-18.66 9.88a.5.5 0 1 1-.47-.88L20.39.935A.5.5 0 0 1 20.78.9z" id="c"/>
        <path d="m20.77.58 19.125 12.375a.499.499 0 0 1-.54.84L20.5 1.595l-18.855 12.2a.5.5 0 0 1-.54-.84L20.23.58a.498.498 0 0 1 .54 0z" id="e"/>
        <path d="m78.815 22.42 1.31.735c.118.07.16.22.095.34a.255.255 0 0 1-.345.1l-1.305-.74a.25.25 0 1 1 .245-.435zM1.81 21.79a.244.244 0 0 1-.095.34l-1.305.74a.285.285 0 0 1-.125.03.25.25 0 0 1-.24-.315.247.247 0 0 1 .12-.15l1.305-.74a.254.254 0 0 1 .34.095zm74.39-.84 1.31.735a.25.25 0 0 1-.245.435l-1.31-.735a.255.255 0 0 1-.095-.34.25.25 0 0 1 .34-.095zm-71.79-.63c.065.12.023.27-.095.34L3 21.395a.255.255 0 0 1-.1.035h-.015a.25.25 0 0 1-.125-.47l1.31-.735a.25.25 0 0 1 .34.095zm69.165-.845 1.305.735a.25.25 0 0 1 .095.34.244.244 0 0 1-.205.13h-.015a.221.221 0 0 1-.12-.035l-1.305-.735a.25.25 0 1 1 .245-.435zm-66.555-.63a.244.244 0 0 1-.095.34l-1.305.74a.264.264 0 0 1-.12.03.246.246 0 0 1-.22-.13.25.25 0 0 1 .095-.34l1.305-.735a.25.25 0 0 1 .34.095zM71 18l1.305.74c.096.057.142.17.115.278a.25.25 0 0 1-.235.187h-.04a.274.274 0 0 1-.125-.03l-1.305-.735A.263.263 0 1 1 71 18zm-61.367-.633a.25.25 0 0 1-.083.333l-1.3.75a.271.271 0 0 1-.125.05A.257.257 0 1 1 8 18l1.305-.735a.25.25 0 0 1 .328.102zm58.727-.817 1.31.735c.118.07.16.22.095.34a.247.247 0 0 1-.22.11v.02a.205.205 0 0 1-.12-.035l-1.31-.735a.255.255 0 0 1-.095-.34.25.25 0 0 1 .34-.095zm-56.095-.66a.25.25 0 0 1-.095.34l-1.305.77a.24.24 0 0 1-.125 0 .255.255 0 0 1-.22-.13.255.255 0 0 1 .095-.34l1.31-.735a.25.25 0 0 1 .34.095zm53.485-.825 1.305.74a.246.246 0 0 1 .095.34.25.25 0 0 1-.22.115v-.01a.263.263 0 0 1-.12-.03l-1.31-.72a.25.25 0 1 1 .25-.435zm-50.87-.635c.065.12.023.27-.095.34l-1.285.73a.272.272 0 0 1-.145.035.25.25 0 0 1-.125-.465l1.305-.74a.255.255 0 0 1 .345.1zm48.255-.865 1.305.735a.25.25 0 0 1 .095.34.256.256 0 0 1-.215.15.221.221 0 0 1-.125-.035L62.89 14a.248.248 0 0 1-.083-.333.25.25 0 0 1 .328-.102zm-45.657-.603a.25.25 0 0 1-.083.333l-1.305.735a.243.243 0 0 1-.34-.095.25.25 0 0 1 .095-.34l1.305-.735a.25.25 0 0 1 .328.102zm43.042-.852 1.31.74a.25.25 0 0 1 .095.34.26.26 0 0 1-.345.095l-1.305-.74a.25.25 0 1 1 .245-.435zm-40.413-.627a.251.251 0 0 1-.097.342l-1.305.735a.285.285 0 0 1-.125.03.25.25 0 0 1-.12-.465l1.305-.74a.251.251 0 0 1 .343.098zm37.788-.843 1.31.735a.25.25 0 1 1-.245.435l-1.31-.735a.255.255 0 0 1-.095-.34.25.25 0 0 1 .34-.095zm-35.185-.63c.065.12.023.27-.095.34l-1.31.735a.206.206 0 0 1-.11.035h-.01a.25.25 0 0 1-.125-.47l1.31-.735a.25.25 0 0 1 .34.095zm32.575-.845 1.305.735a.25.25 0 0 1 .095.34.246.246 0 0 1-.185.13h-.035a.221.221 0 0 1-.12-.035L55.04 9.6a.25.25 0 1 1 .245-.435zm-29.945-.63a.244.244 0 0 1-.095.34l-1.305.74a.267.267 0 0 1-.13.03h-.01a.251.251 0 0 1-.245-.315.247.247 0 0 1 .12-.15L25 8.44a.25.25 0 0 1 .34.095zm27.33-.84 1.305.735c.096.057.142.17.115.278a.25.25 0 0 1-.36.157l-1.305-.735a.25.25 0 0 1-.095-.34.245.245 0 0 1 .34-.095zm-24.747-.623a.25.25 0 0 1-.083.333l-1.305.735a.275.275 0 0 1-.115.035h-.01a.256.256 0 0 1-.215-.13.25.25 0 0 1 .095-.34l1.305-.735a.25.25 0 0 1 .328.102zm22.132-.852 1.31.735c.118.07.16.22.095.34a.25.25 0 0 1-.21.13h-.01a.205.205 0 0 1-.12-.035l-1.31-.735a.25.25 0 0 1 .245-.435zm-19.517-.623a.25.25 0 0 1-.083.333l-1.305.74a.288.288 0 0 1-.115.03h-.01a.26.26 0 0 1-.22-.125.255.255 0 0 1 .095-.345l1.31-.735a.25.25 0 0 1 .328.102zm16.907-.852 1.305.74a.247.247 0 0 1-.115.465h-.01a.264.264 0 0 1-.12-.03l-1.31-.74a.25.25 0 0 1-.095-.34.255.255 0 0 1 .345-.095zM33.15 4.12c.065.12.023.27-.095.34l-1.31.735a.265.265 0 0 1-.095.03h-.025a.25.25 0 0 1-.125-.465l1.31-.735a.25.25 0 0 1 .34.095zm11.69-.825 1.305.735a.25.25 0 0 1 .095.34.256.256 0 0 1-.215.13.221.221 0 0 1-.125-.035l-1.305-.735a.25.25 0 1 1 .245-.435zm-9.067-.623a.25.25 0 0 1-.083.333l-1.305.735a.223.223 0 0 1-.125.015v.02a.243.243 0 0 1-.215-.13.25.25 0 0 1 .095-.34l1.305-.735a.25.25 0 0 1 .328.102zm6.472-.872 1.305.74a.247.247 0 0 1 .095.34.25.25 0 0 1-.235.12v.025a.285.285 0 0 1-.125-.03L42 2.235a.247.247 0 0 1-.095-.34c.07-.118.22-.16.34-.095zM38.4 1.195a.25.25 0 0 1-.095.34L37 2.25a.285.285 0 0 1-.125.03v.02a.25.25 0 0 1-.12-.465l1.305-.74a.254.254 0 0 1 .34.1zM39.625.36l1.295.73a.25.25 0 0 1-.125.47v-.005a.205.205 0 0 1-.12-.035L39.41.81a.256.256 0 0 1-.135-.115.244.244 0 0 1 .095-.335.268.268 0 0 1 .255 0z" id="g"/>
        <path d="M.5 21.75a.25.25 0 0 1 .25.25v.375a.25.25 0 0 1-.5 0V22a.25.25 0 0 1 .25-.25zm0-3a.25.25 0 0 1 .25.25v1.5a.25.25 0 0 1-.5 0V19a.25.25 0 0 1 .25-.25zm0-3a.25.25 0 0 1 .25.25v1.5a.25.25 0 0 1-.5 0V16a.25.25 0 0 1 .25-.25zm0-3a.25.25 0 0 1 .25.25v1.5a.25.25 0 0 1-.5 0V13a.25.25 0 0 1 .25-.25zm0-3a.25.25 0 0 1 .25.25v1.5a.25.25 0 0 1-.5 0V10a.25.25 0 0 1 .25-.25zm0-3A.25.25 0 0 1 .75 7v1.5a.25.25 0 0 1-.5 0V7a.25.25 0 0 1 .25-.25zm0-3A.25.25 0 0 1 .75 4v1.5a.25.25 0 0 1-.5 0V4a.25.25 0 0 1 .25-.25zm0-3A.25.25 0 0 1 .75 1v1.5a.25.25 0 0 1-.5 0V1A.25.25 0 0 1 .5.75z" id="i"/>
    </defs>
    <g fill="none" fill-rule="evenodd">
        <g transform="translate(0 12)">
            <mask id="b" fill="#fff">
                <use xlink:href="#a"/>
            </mask>
            <path fill="#000" mask="url(#b)" d="M-4.498-4.124H47V75.5H-4.498z"/>
        </g>
        <g transform="translate(40 12)">
            <mask id="d" fill="#fff">
                <use xlink:href="#c"/>
            </mask>
            <path fill="#000" mask="url(#d)" d="M-4.03-4.124h51.528V75.5H-4.03z"/>
        </g>
        <g transform="translate(21)">
            <mask id="f" fill="#fff">
                <use xlink:href="#e"/>
            </mask>
            <path fill="#000" mask="url(#f)" d="M-4.103-4.499h49.227v23.374H-4.103z"/>
        </g>
        <g transform="translate(2 35)">
            <mask id="h" fill="#fff">
                <use xlink:href="#g"/>
            </mask>
            <path fill="#000" mask="url(#h)" d="M-4.964-4.672H85.25v33.297H-4.964z"/>
        </g>
        <g transform="translate(41)">
            <mask id="j" fill="#fff">
                <use xlink:href="#i"/>
            </mask>
            <path fill="#000" mask="url(#j)" d="M-4.75-4.25h10.5v31.875h-10.5z"/>
        </g>
    </g>
</svg>
