<svg width="77" height="67" viewBox="-10 -10 97 87" xmlns="http://www.w3.org/2000/svg" xmlns:xlink="http://www.w3.org/1999/xlink">
    <defs>
        <path d="M55.06.22a.5.5 0 0 1 .47.32l17.44 46.125a.5.5 0 0 1-.06.465.5.5 0 0 1-.41.215H.5a.5.5 0 0 1-.465-.685l18-46.125A.5.5 0 0 1 18.5.22h36.56zm-.345 1H18.84L1.23 46.345h70.545L54.715 1.22z" id="a"/>
        <path d="M1.475.875 20.6 29a.5.5 0 0 1 .085.295L19.56 65.86a.5.5 0 0 1-.408.476l-.087.009a.5.5 0 0 1-.5-.5l1.12-36.4L1.56 2.795V19.72a.5.5 0 0 1-1 0V1.155a.5.5 0 0 1 .915-.28z" id="c"/>
        <path d="M20.086.676a.5.5 0 0 1 .354.479V20.28a.5.5 0 0 1-1 0V2.78L1.315 29.43l1.12 36.4a.5.5 0 0 1-.5.5v.015a.5.5 0 0 1-.5-.5L.31 29.28a.5.5 0 0 1 .085-.295L19.525.875a.499.499 0 0 1 .561-.199z" id="e"/>
        <path d="M38.06.655a.5.5 0 0 1 0 1H.94a.5.5 0 0 1 0-1h37.12z" id="g"/>
        <path d="M74.625.47a.25.25 0 0 1 0 .5h-1.5a.25.25 0 0 1 0-.5h1.5zm-3 0a.25.25 0 0 1 0 .5h-1.5a.25.25 0 0 1 0-.5h1.5zm-3 0a.25.25 0 0 1 0 .5h-1.5a.25.25 0 0 1 0-.5h1.5zm-3 0a.25.25 0 0 1 0 .5h-1.5a.25.25 0 0 1 0-.5h1.5zm-3 0a.25.25 0 0 1 0 .5h-1.5a.25.25 0 0 1 0-.5h1.5zm-3 0a.25.25 0 0 1 0 .5h-1.5a.25.25 0 0 1 0-.5h1.5zm-3 0a.25.25 0 0 1 0 .5h-1.5a.25.25 0 0 1 0-.5h1.5zm-3 0a.25.25 0 0 1 0 .5h-1.5a.25.25 0 0 1 0-.5h1.5zm-3 0a.25.25 0 0 1 0 .5h-1.5a.25.25 0 0 1 0-.5h1.5zm-3 0a.25.25 0 0 1 0 .5h-1.5a.25.25 0 0 1 0-.5h1.5zm-3 0a.25.25 0 0 1 0 .5h-1.5a.25.25 0 0 1 0-.5h1.5zm-3 0a.25.25 0 0 1 0 .5h-1.5a.25.25 0 0 1 0-.5h1.5zm-3 0a.25.25 0 0 1 0 .5h-1.5a.25.25 0 0 1 0-.5h1.5zm-3 0a.25.25 0 0 1 0 .5h-1.5a.25.25 0 0 1 0-.5h1.5zm-3 0a.25.25 0 0 1 0 .5h-1.5a.25.25 0 0 1 0-.5h1.5zm-3 0a.25.25 0 0 1 0 .5h-1.5a.25.25 0 0 1 0-.5h1.5zm-3 0a.25.25 0 0 1 0 .5h-1.5a.25.25 0 0 1 0-.5h1.5zm-3 0a.25.25 0 0 1 0 .5h-1.5a.25.25 0 0 1 0-.5h1.5zm-3 0a.25.25 0 0 1 0 .5h-1.5a.25.25 0 0 1 0-.5h1.5zm-3 0a.25.25 0 0 1 0 .5h-1.5a.25.25 0 0 1 0-.5h1.5zm-3 0a.25.25 0 0 1 0 .5h-1.5a.25.25 0 0 1 0-.5h1.5zm-3 0a.25.25 0 0 1 0 .5h-1.5a.25.25 0 0 1 0-.5h1.5zm-3 0a.25.25 0 0 1 0 .5h-1.5a.25.25 0 0 1 0-.5h1.5zm-3 0a.25.25 0 0 1 0 .5h-1.5a.25.25 0 0 1 0-.5h1.5zm-3 0a.25.25 0 0 1 0 .5h-1.5a.25.25 0 0 1 0-.5h1.5z" id="i"/>
    </defs>
    <g fill="none" fill-rule="evenodd">
        <g transform="translate(2 19)">
            <mask id="b" fill="#fff">
                <use xlink:href="#a"/>
            </mask>
            <path fill="#000" mask="url(#b)" d="M-5-4.78h83.002v57.125H-5z"/>
        </g>
        <g transform="translate(56)">
            <mask id="d" fill="#fff">
                <use xlink:href="#c"/>
            </mask>
            <path fill="#000" mask="url(#d)" d="M-4.44-4.346h30.125v75.691H-4.44z"/>
        </g>
        <g>
            <mask id="f" fill="#fff">
                <use xlink:href="#e"/>
            </mask>
            <path fill="#000" mask="url(#f)" d="M-4.69-4.346h30.13v75.691H-4.69z"/>
        </g>
        <g transform="translate(19)">
            <mask id="h" fill="#fff">
                <use xlink:href="#g"/>
            </mask>
            <path fill="#000" mask="url(#h)" d="M-4.56-4.345h48.12v11H-4.56z"/>
        </g>
        <g transform="translate(1 28)">
            <mask id="j" fill="#fff">
                <use xlink:href="#i"/>
            </mask>
            <path fill="#000" mask="url(#j)" d="M-4.125-4.53h84v10.5h-84z"/>
        </g>
    </g>
</svg>