<svg width="95" height="84" viewBox="-10 -10 115 104" xmlns="http://www.w3.org/2000/svg" xmlns:xlink="http://www.w3.org/1999/xlink">
    <defs>
        <path d="M23.664.233a.48.48 0 0 1 .383.307L44.56 55.597a.48.48 0 0 1-.134.533.481.481 0 0 1-.543.057L.701 32.437a.48.48 0 0 1-.159-.705L23.212.425a.482.482 0 0 1 .452-.192zm-.202 1.483L1.636 31.857l41.575 22.867L23.462 1.716z" id="a"/>
        <path d="M49.363.269a.48.48 0 0 1 .288.273l21.591 53.977a.48.48 0 0 1-.211.595l-49.66 28.069a.493.493 0 0 1-.258.062.481.481 0 0 1-.235-.897l49.289-27.862-21.231-53.08L.832 28.126a.482.482 0 0 1-.48-.835L48.97.302a.478.478 0 0 1 .393-.033z" id="c"/>
        <path d="m43.201 53.284 1.233.744a.237.237 0 0 1 .081.326.231.231 0 0 1-.206.12.222.222 0 0 1-.12-.033l-1.238-.744a.242.242 0 0 1 .009-.418.244.244 0 0 1 .241.005zm-2.471-1.473 1.233.739a.24.24 0 0 1 .086.327.242.242 0 0 1-.331.086l-1.233-.744a.24.24 0 0 1 .245-.408zm-2.447-1.473 1.233.739a.237.237 0 0 1 .081.331.244.244 0 0 1-.225.106.214.214 0 0 1-.12-.034l-1.238-.739a.244.244 0 0 1 .078-.445.242.242 0 0 1 .191.042zm-2.49-1.492 1.233.744a.235.235 0 0 1-.12.441.23.23 0 0 1-.125-.033l-1.233-.739a.239.239 0 0 1-.112-.148.241.241 0 0 1 .357-.265zm-2.457-1.482 1.233.743a.24.24 0 1 1-.245.413l-1.237-.744a.241.241 0 1 1 .249-.412zm-2.485-1.478 1.233.739a.244.244 0 0 1 .086.331.249.249 0 0 1-.141.105l-.057.01-.037-.003a.226.226 0 0 1-.081-.031l-1.248-.739a.24.24 0 0 1 .245-.412zm-2.452-1.483 1.233.739a.24.24 0 0 1-.07.44l-.06.006-.037-.003a.21.21 0 0 1-.078-.03l-1.238-.739a.242.242 0 0 1 .25-.413zm-2.481-1.492 1.238.744a.24.24 0 0 1 .082.326.244.244 0 0 1-.206.12.272.272 0 0 1-.125-.034l-1.233-.743a.233.233 0 0 1-.082-.327.24.24 0 0 1 .326-.086zm-2.466-1.478 1.233.739a.24.24 0 0 1 .082.331.243.243 0 0 1-.206.125v-.01a.22.22 0 0 1-.12-.033l-1.238-.744a.24.24 0 0 1-.133-.214.24.24 0 0 1 .382-.194zm-2.471-1.482 1.233.739a.245.245 0 0 1-.12.455v-.009a.227.227 0 0 1-.124-.034l-1.233-.739a.233.233 0 0 1-.112-.148.232.232 0 0 1 .03-.183.24.24 0 0 1 .326-.081zm-2.466-1.483 1.233.744a.236.236 0 0 1 .082.326.238.238 0 0 1-.207.125v-.01a.218.218 0 0 1-.119-.033l-1.238-.739a.243.243 0 0 1-.117-.211.243.243 0 0 1 .125-.207.244.244 0 0 1 .241.005zM16.059 37l1.233.739a.24.24 0 0 1-.12.446.236.236 0 0 1-.125-.033l-1.233-.744a.24.24 0 0 1 .245-.408zm-2.476-1.468 1.233.739a.242.242 0 0 1 .11.148.24.24 0 0 1-.029.183.244.244 0 0 1-.15.096l-.053.004-.035-.003a.23.23 0 0 1-.078-.03l-1.248-.725a.244.244 0 0 1-.081-.331.237.237 0 0 1 .148-.109.236.236 0 0 1 .183.028zm-2.462-1.497 1.234.744a.236.236 0 0 1 .114.268.236.236 0 0 1-.234.173.228.228 0 0 1-.125-.034l-1.233-.739a.236.236 0 0 1-.082-.331.24.24 0 0 1 .326-.081zm-2.466-1.478 1.233.739a.24.24 0 1 1-.244.413l-1.238-.744a.24.24 0 1 1 .25-.408zm-2.47-1.483 1.232.739a.245.245 0 0 1 .087.331.251.251 0 0 1-.156.11l-.059.005-.035-.002a.232.232 0 0 1-.081-.031l-1.233-.739a.24.24 0 0 1 .244-.413zm-2.467-1.482 1.233.739a.24.24 0 0 1-.073.442l-.058.004-.035-.003a.215.215 0 0 1-.078-.031l-1.238-.738a.241.241 0 0 1 .25-.413zM1.29 28.129l.039.028 1.156.696a.24.24 0 0 1 .082.326.244.244 0 0 1-.155.114l-.058.005-.058-.008a.299.299 0 0 1-.06-.024l-1.214-.734a.235.235 0 0 1-.072-.346.244.244 0 0 1 .34-.057zm1.699-2.313a.24.24 0 0 1 .053.336l-.854 1.156a.246.246 0 0 1-.192.082l.014-.01a.262.262 0 0 1-.144-.043.245.245 0 0 1-.053-.336l.84-1.132a.24.24 0 0 1 .336-.053zm1.708-2.346a.24.24 0 0 1 .048.336l-.854 1.161a.235.235 0 0 1-.192.105l.014-.009c-.05 0-.1-.017-.139-.048a.238.238 0 0 1-.095-.155.233.233 0 0 1 .042-.176l.854-1.162a.245.245 0 0 1 .322-.052zm1.718-2.318c.105.08.128.228.052.336l-.854 1.156a.236.236 0 0 1-.206.111l.014-.01a.24.24 0 0 1-.192-.384l.85-1.156a.242.242 0 0 1 .336-.053zm1.564-2.354a.24.24 0 0 1 .163.382l-.85 1.157a.233.233 0 0 1-.196.1.244.244 0 0 1-.192-.383l.854-1.162a.242.242 0 0 1 .22-.094zm1.835-2.253a.24.24 0 0 1 .065.313l-.864 1.161a.245.245 0 0 1-.197.096h-.014a.263.263 0 0 1-.144-.043.24.24 0 0 1-.048-.336l.883-1.161a.24.24 0 0 1 .319-.03zm1.59-2.39a.24.24 0 0 1 .168.381l-.854 1.161a.245.245 0 0 1-.191.096.227.227 0 0 1-.144-.048.245.245 0 0 1-.053-.336l.854-1.156a.24.24 0 0 1 .22-.098zm1.713-2.319a.242.242 0 0 1 .206.151.243.243 0 0 1-.047.251l-.854 1.156a.222.222 0 0 1-.192.086v-.004a.223.223 0 0 1-.139-.048.239.239 0 0 1-.053-.336l.854-1.137a.239.239 0 0 1 .225-.119zm1.814-2.271c.105.08.129.228.053.336l-.854 1.156a.237.237 0 0 1-.192.106v-.005a.24.24 0 0 1-.192-.384l.849-1.161a.24.24 0 0 1 .336-.048zm1.708-2.322a.24.24 0 0 1 .048.336l-.849 1.161a.247.247 0 0 1-.197.101v-.005a.227.227 0 0 1-.139-.048.24.24 0 0 1-.053-.331l.854-1.161a.245.245 0 0 1 .336-.053zm1.703-2.317a.237.237 0 0 1 .053.335l-.854 1.161a.234.234 0 0 1-.192.101v-.005a.24.24 0 0 1-.192-.383l.854-1.157a.235.235 0 0 1 .331-.052zm1.711-2.32c.107.079.13.231.05.338L19.249 4.1a.235.235 0 0 1-.192.106v-.005a.227.227 0 0 1-.144-.048.245.245 0 0 1-.052-.336l.854-1.161a.241.241 0 0 1 .338-.05zm1.706-2.32a.23.23 0 0 1 .048.331l-.854 1.161a.222.222 0 0 1-.192.101.244.244 0 0 1-.236-.205.238.238 0 0 1 .044-.179l.854-1.161a.24.24 0 0 1 .336-.048z" id="e"/>
        <path d="M2.375 29.142a.234.234 0 0 1-.086.326l-1.238.734a.224.224 0 0 1-.12.053.238.238 0 0 1-.207-.12.24.24 0 0 1 .082-.326l1.238-.753a.245.245 0 0 1 .331.086zm2.476-1.444a.235.235 0 0 1-.082.331l-1.238.734a.284.284 0 0 1-.124.029.243.243 0 0 1-.12-.451l1.237-.725a.24.24 0 0 1 .327.082zm2.48-1.468a.234.234 0 0 1-.086.326l-1.238.734a.242.242 0 0 1-.326-.082.238.238 0 0 1 .081-.331L7 26.143a.245.245 0 0 1 .331.087zm2.476-1.44a.24.24 0 0 1-.082.326l-1.237.735a.292.292 0 0 1-.125.009v.024a.24.24 0 0 1-.12-.446l1.238-.734a.24.24 0 0 1 .326.086zm2.392-1.555a.239.239 0 0 1 .002.418l-1.238.729a.223.223 0 0 1-.12.01v.024a.24.24 0 0 1-.124-.446l1.238-.73a.241.241 0 0 1 .242-.005zm2.564-1.376a.24.24 0 0 1-.081.326l-1.248.71a.223.223 0 0 1-.115.034v.024a.24.24 0 0 1-.125-.447l1.243-.734a.24.24 0 0 1 .326.087zm2.48-1.469a.244.244 0 0 1-.085.331l-1.238.735a.277.277 0 0 1-.125.004v.024a.239.239 0 0 1-.206-.115.245.245 0 0 1 .086-.331l1.238-.729a.245.245 0 0 1 .33.081zm2.476-1.439a.24.24 0 0 1-.08.326l-1.244.734a.214.214 0 0 1-.12-.014v.048a.24.24 0 0 1-.206-.12.24.24 0 0 1 .082-.326l1.242-.734a.24.24 0 0 1 .326.086zm2.481-1.468a.245.245 0 0 1-.086.331l-1.238.686a.286.286 0 0 1-.125.034v.048a.246.246 0 0 1-.206-.12.237.237 0 0 1 .086-.327l1.238-.734a.245.245 0 0 1 .331.082zm2.476-1.516a.234.234 0 0 1-.086.326l-1.238.734a.24.24 0 1 1-.245-.413l1.238-.734a.245.245 0 0 1 .331.087zm2.33-1.552a.236.236 0 0 1 .146.112.231.231 0 0 1-.082.327l-1.238.734a.24.24 0 1 1-.245-.413l1.239-.734a.235.235 0 0 1 .18-.026zm2.538-1.443a.24.24 0 0 1 .002.418l-1.238.71a.23.23 0 0 1-.12.034v.019a.225.225 0 0 1-.206-.115.236.236 0 0 1 .081-.331l1.238-.729a.239.239 0 0 1 .243-.006zm2.564-1.376a.235.235 0 0 1-.081.326l-1.238.734a.231.231 0 0 1-.125.014v.02a.24.24 0 0 1-.12-.447l1.238-.734a.24.24 0 0 1 .326.087zM34.5 10.04a.24.24 0 0 1 .002.419l-1.238.734a.277.277 0 0 1-.124.009v.019a.239.239 0 0 1-.207-.115.245.245 0 0 1 .087-.331l1.238-.729a.239.239 0 0 1 .242-.006zm2.563-1.376a.24.24 0 0 1-.08.326l-1.243.734a.206.206 0 0 1-.12.015v.019a.24.24 0 0 1-.12-.446l1.238-.734a.24.24 0 0 1 .325.086zm2.482-1.444a.245.245 0 0 1-.086.331l-1.238.734a.292.292 0 0 1-.125-.009v.043a.246.246 0 0 1-.206-.12.237.237 0 0 1 .086-.327l1.238-.734a.246.246 0 0 1 .33.082zm2.475-1.464a.24.24 0 0 1-.08.327l-1.243.734a.223.223 0 0 1-.12-.01v.044a.24.24 0 0 1-.125-.447l1.242-.734a.24.24 0 0 1 .326.086zM44.5 4.317a.24.24 0 0 1-.086.326l-1.233.667a.228.228 0 0 1-.13.034v.067a.244.244 0 0 1-.232-.301.234.234 0 0 1 .112-.145l1.238-.734a.245.245 0 0 1 .331.086zm2.328-1.58a.237.237 0 0 1 .148.112.245.245 0 0 1-.086.331l-1.238.729a.221.221 0 0 1-.12-.033v.067a.242.242 0 0 1-.235-.298.24.24 0 0 1 .11-.148l1.238-.73a.24.24 0 0 1 .183-.03zm2.479-1.44a.237.237 0 0 1 .145.113.229.229 0 0 1-.082.326l-1.238.734a.226.226 0 0 1-.124-.058v.092a.246.246 0 0 1-.207-.12.24.24 0 0 1 .087-.327l1.237-.734a.235.235 0 0 1 .182-.026zM51.334.296a.246.246 0 0 1-.082.332l-.643.379a.276.276 0 0 1-.12-.063v.091a.233.233 0 0 1-.206-.115.235.235 0 0 1 .081-.331l.643-.379a.24.24 0 0 1 .327.086z" id="g"/>
    </defs>
    <g fill="none" fill-rule="evenodd">
        <g transform="translate(0 27)">
            <mask id="b" fill="#fff">
                <use xlink:href="#a"/>
            </mask>
            <path fill="#000" mask="url(#b)" d="M-4.55-4.771h54.14v66.016H-4.55z"/>
        </g>
        <g transform="translate(23)">
            <mask id="d" fill="#fff">
                <use xlink:href="#c"/>
            </mask>
            <path fill="#000" mask="url(#d)" d="M-4.89-4.759h81.166v93.005H-4.89z"/>
        </g>
        <g transform="translate(50 1)">
            <mask id="f" fill="#fff">
                <use xlink:href="#e"/>
            </mask>
            <path fill="#000" mask="url(#f)" d="M-4.098-4.762H49.55v64.236H-4.098z"/>
        </g>
        <g transform="translate(0 29)">
            <mask id="h" fill="#fff">
                <use xlink:href="#g"/>
            </mask>
            <path fill="#000" mask="url(#h)" d="M-4.309-4.822h60.676v40.077H-4.309z"/>
        </g>
    </g>
</svg>
