<?xml version="1.0" encoding="UTF-8"?>
<svg width="54px" height="54px" viewBox="0 0 54 54" version="1.1" xmlns="http://www.w3.org/2000/svg" xmlns:xlink="http://www.w3.org/1999/xlink">
    <title>Group 64</title>
    <g id="Student-UI" stroke="none" stroke-width="1" fill="none" fill-rule="evenodd">
        <g id="Group-64">
            <g id="Group-57-Copy-2" fill="#FFFFFF">
                <circle id="Oval-Copy-5" cx="27" cy="27" r="27"></circle>
            </g>
            <g id="zoom-in-copy-3" transform="translate(15.000000, 15.000000)" fill="#F9A722" fill-rule="nonzero">
                <path d="M23.7253653,22.3992664 L16.9541795,15.6280822 C20.03921,11.8745684 19.8293038,6.30258677 16.323664,2.79699473 C12.5943368,-0.932331576 6.52632263,-0.932331576 2.79699541,2.79699473 C-0.932331804,6.52632103 -0.932331804,12.5943337 2.79699541,16.32366 C6.30165081,19.8283145 11.8729307,20.0405176 15.628086,16.9541753 L22.3992719,23.7253595 C22.7654593,24.0915468 23.359131,24.0915468 23.7253184,23.7253595 C24.0915527,23.3591253 24.0915527,22.7654537 23.7253653,22.3992664 Z M14.9976174,14.9975669 C11.9994932,17.9956904 7.12121311,17.9956436 4.12308884,14.9975669 C1.12496457,11.9994434 1.12496457,7.12116449 4.12308884,4.12304096 C7.12111936,1.12505804 11.9993994,1.12482367 14.9976174,4.12304096 C17.9957417,7.12116449 17.9957417,11.9994434 14.9976174,14.9975669 Z" id="Shape"></path>
                <path d="M14.0166286,8.50843189 L10.376814,8.50843189 L8.50843189,8.50843189 L4.86861729,8.50843189 C4.35267334,8.50843189 3.93442623,8.926679 3.93442623,9.44262295 C3.93442623,9.9585669 4.35267334,10.376814 4.86861729,10.376814 L8.50843189,10.376814 L10.376814,10.376814 L14.0166286,10.376814 C14.5325726,10.376814 14.9508197,9.9585669 14.9508197,9.44262295 C14.9508197,8.926679 14.5325726,8.50843189 14.0166286,8.50843189 Z" id="Path"></path>
            </g>
        </g>
    </g>
</svg>