<svg xmlns="http://www.w3.org/2000/svg" xmlns:xlink="http://www.w3.org/1999/xlink" width="54px" height="54px" viewBox="0 0 54 54" version="1.1">
    <title>zoom out white</title>
    <g id="Student-UI" stroke="none" stroke-width="3" fill="#ffffff" fill-rule="evenodd">
        <g id="zoom-out-white" fill="#ffffff">
            <path d="M29.0166286,23.5084319 L25.376814,23.5084319 L23.5084319,23.5084319 L19.8686173,23.5084319 C19.3526733,23.5084319 18.9344262,23.926679 18.9344262,24.442623 C18.9344262,24.9585669 19.3526733,25.376814 19.8686173,25.376814 L23.5084319,25.376814 L25.376814,25.376814 L29.0166286,25.376814 C29.5325726,25.376814 29.9508197,24.9585669 29.9508197,24.442623 C29.9508197,23.926679 29.5325726,23.5084319 29.0166286,23.5084319 Z M38.7253653,37.3992664 L31.9541795,30.6280822 C35.03921,26.8745684 34.8293038,21.3025868 31.323664,17.7969947 C27.5943368,14.0676684 21.5263226,14.0676684 17.7969954,17.7969947 C14.0676682,21.526321 14.0676682,27.5943337 17.7969954,31.32366 C21.3016508,34.8283145 26.8729307,35.0405176 30.628086,31.9541753 L37.3992719,38.7253595 C37.7654593,39.0915468 38.359131,39.0915468 38.7253184,38.7253595 C39.0915527,38.3591253 39.0915527,37.7654537 38.7253653,37.3992664 Z M29.9976174,29.9975669 C26.9994932,32.9956904 22.1212131,32.9956436 19.1230888,29.9975669 C16.1249646,26.9994434 16.1249646,22.1211645 19.1230888,19.123041 C22.1211194,16.125058 26.9993994,16.1248237 29.9976174,19.123041 C32.9957417,22.1211645 32.9957417,26.9994434 29.9976174,29.9975669 Z" id="Shape" fill="#f28334" fill-rule="nonzero"/>
        </g>
    </g>
</svg>