<?xml version="1.0" encoding="UTF-8"?>
<svg width="77px" height="49px" viewBox="-10 -10 97 69" version="1.1" xmlns="http://www.w3.org/2000/svg" xmlns:xlink="http://www.w3.org/1999/xlink">
    <title>35CE4B02-9036-43D2-80E7-64D774020895</title>
    <defs>
        <path d="M6.14,0.145 L6.375,0.17 L6.875,5.64 C7.6308,4.7696 8.3084,3.8344 8.9,2.845 C9.1315,2.5159 9.2838,2.1377 9.345,1.74 C9.3463,1.6406 9.3222,1.5425 9.275,1.455 C9.2134,1.3741 9.1349,1.3075 9.045,1.26 C8.9319,1.1974 8.8358,1.1081 8.765,1 C8.7114,0.9129 8.6837,0.8123 8.685,0.71 C8.6825,0.5654 8.7426,0.4269 8.85,0.33 C8.9665,0.2218 9.1211,0.1643 9.28,0.17 C9.4715,0.1683 9.6543,0.2505 9.78,0.395 C9.9322,0.5586 10.0116,0.7769 10,1 C10.0025,1.2395 9.9653,1.4777 9.89,1.705 C9.6671,2.2746 9.3821,2.8179 9.04,3.325 C8.52,4.115 7.9883,4.85 7.445,5.53 C6.9,6.205 6.49,6.68 6.225,6.955 L5.955,6.955 L5.5,1.9 L2.5,6.945 L2.18,6.945 C2.1744,5.3018 2.0693,3.6605 1.865,2.03 C1.8542,1.6661 1.7262,1.3153 1.5,1.03 C1.3421,0.9076 1.1441,0.8488 0.945,0.865 C0.7661,0.8686 0.5875,0.8819 0.41,0.905 L0.41,0.645 L2.5,0.145 C2.8557,1.3607 3.0474,2.6185 3.07,3.885 C3.1,4.525 3.12,4.925 3.14,5.09 L6.14,0.145 Z" id="path-1"></path>
        <path d="M5.825,0.33 C6.1576,0.317 6.4816,0.438 6.725,0.665 C6.9458,0.885 7.0638,1.188 7.05,1.5 C7.0368,1.99 6.8609,2.461 6.55,2.84 C5.7304,3.807 4.7636,4.639 3.685,5.305 L2.815,8.27 C2.7304,8.531 2.68,8.801 2.665,9.075 C2.6501,9.345 2.7396,9.61 2.915,9.815 C3.0783,9.988 3.3071,10.0843 3.545,10.08 C3.8983,10.0536 4.2334,9.913 4.5,9.68 C4.934,9.304 5.2863,8.843 5.535,8.325 L5.805,8.42 C5.5029,9.073 5.0568,9.649 4.5,10.105 C4.1127,10.411 3.6382,10.5861 3.145,10.605 C2.7404,10.6211 2.3479,10.4648 2.065,10.175 C1.7692,9.86 1.6156,9.437 1.64,9.005 C1.6468,8.686 1.7007,8.369 1.8,8.065 L2.325,6.3 L1,7.22 L0.82,6.965 L2.5,5.83 L3.185,3.435 C3.389,2.592 3.7559,1.797 4.265,1.095 C4.6333,0.606 5.2128,0.322 5.825,0.33 Z M5.925,0.89 C5.6546,0.892 5.3966,1.004 5.21,1.2 C4.8618,1.616 4.6183,2.11 4.5,2.64 L3.82,4.845 C4.6437,4.291 5.3931,3.634 6.05,2.89 C6.3759,2.523 6.5741,2.059 6.615,1.57 C6.6257,1.384 6.5566,1.202 6.425,1.07 C6.2882,0.947 6.1088,0.882 5.925,0.89 Z" id="path-3"></path>
        <path d="M64.38,0.145 C64.8964,0.145 65.315,0.5636 65.315,1.08 L65.315,33.735 C65.315,33.983 65.2165,34.2208 65.0411,34.3961 C64.8658,34.5715 64.628,34.67 64.38,34.67 L0.935,34.67 C0.687,34.67 0.4492,34.5715 0.2739,34.3961 C0.0985,34.2208 0,33.983 0,33.735 L0,1.08 C0,0.5636 0.4186,0.145 0.935,0.145 L64.38,0.145 Z M63.45,2 L1.865,2 L1.88,32.805 L63.45,32.805 L63.45,2 Z" id="path-5"></path>
    </defs>
    <g id="Page-1" stroke="none" stroke-width="1" fill="none" fill-rule="evenodd">
        <g id="SHAPES" transform="translate(-246.000000, -6481.000000)">
            <g id="Group-69" transform="translate(246.000000, 6481.000000)">
                <g id="Group-4873" transform="translate(67.000000, 27.000000)">
                    <mask id="mask-2" fill="white">
                        <use xlink:href="#path-1"></use>
                    </mask>
                    <g id="Clip-4872"></g>
                    <polygon id="Fill-4871" fill="#000000" mask="url(#mask-2)" points="-4.59 -4.855 15.0011 -4.855 15.0011 11.955 -4.59 11.955"></polygon>
                </g>
                <g id="Group-4876" transform="translate(32.000000, 0.000000)">
                    <mask id="mask-4" fill="white">
                        <use xlink:href="#path-3"></use>
                    </mask>
                    <g id="Clip-4875"></g>
                    <polygon id="Fill-4874" fill="#000000" mask="url(#mask-4)" points="-4.18 -4.671 12.0511 -4.671 12.0511 15.6061 -4.18 15.6061"></polygon>
                </g>
                <g id="Group-4879" transform="translate(0.000000, 14.000000)">
                    <mask id="mask-6" fill="white">
                        <use xlink:href="#path-5"></use>
                    </mask>
                    <g id="Clip-4878"></g>
                    <polygon id="Fill-4877" fill="#000000" mask="url(#mask-6)" points="-5 -4.855 70.315 -4.855 70.315 39.67 -5 39.67"></polygon>
                </g>
            </g>
        </g>
    </g>
</svg>