<?xml version="1.0" encoding="UTF-8"?>
<svg width="61px" height="61px" viewBox="-10 -10 81 81" version="1.1" xmlns="http://www.w3.org/2000/svg" xmlns:xlink="http://www.w3.org/1999/xlink">
    <title>2F550563-57DE-4936-8F34-9DE02F0CB621</title>
    <defs>
        <path d="M30.5067,0.64 C46.9972,0.641 60.365,14.009 60.365,30.5 L60.365,30.5 C60.36,46.9912 46.9912,60.36 30.5,60.36 C14.0094,60.3572 0.6432,46.9872 0.645,30.4967 C0.6468,14.006 14.0161,0.639 30.5067,0.64 Z M50.3,10.705 C40.8546,1.259 26.0516,-0.2 14.9443,7.222 C3.837,14.643 -0.4807,28.8773 4.6317,41.2188 C9.7441,53.5603 22.8627,60.5716 35.9644,57.9646 C49.066,55.3576 58.5014,43.8585 58.5,30.5 L58.5,30.5 L58.4964034,30.0161088 C58.3797053,22.7646704 55.4437935,15.8359783 50.3,10.705 Z" id="path-1"></path>
        <polygon id="path-3" points="0.6 0.565 27.66 2.435 0.6 2.435"></polygon>
        <path d="M3.5,0.7 C5.0464,0.7 6.3,1.9536 6.3,3.5 C6.3,5.0464 5.0464,6.3 3.5,6.3 C1.9536,6.3 0.7,5.0464 0.7,3.5 C0.7,1.9536 1.9536,0.7 3.5,0.7 Z" id="path-5"></path>
        <path d="M5.38,0.97 C5.5198,0.9637 5.6558,1.0163 5.755,1.115 C5.8558,1.2268 5.9064,1.3749 5.895,1.525 C5.895,1.8478 5.8105,2.165 5.65,2.445 C5.5626,2.643 5.3664,2.7705 5.15,2.77 C5.0437,2.7721 4.9404,2.7347 4.86,2.665 C4.77,2.5743 4.7181,2.4527 4.715,2.325 C4.7142,2.2585 4.6893,2.1946 4.645,2.145 C4.6107,2.1066 4.5615,2.0848 4.51,2.085 C4.4279,2.0854 4.3472,2.106 4.275,2.145 C4.055,2.3041 3.861,2.4964 3.7,2.715 C3.2178,3.2993 2.7784,3.9176 2.385,4.565 C2.1745,4.9084 1.9986,5.2718 1.86,5.65 C1.66,6.205 1.54,6.54 1.51,6.65 L1.28,7.57 L0.165,7.57 L1.51,3.04 C1.6367,2.6785 1.7157,2.302 1.745,1.92 C1.7466,1.8331 1.7055,1.7508 1.635,1.7 C1.5233,1.6193 1.3876,1.5788 1.25,1.585 C1.062,1.5935 0.8749,1.6152 0.69,1.65 L0.65,1.385 L3.15,0.975 L2.1,4.52 C2.7011,3.3845 3.483,2.3543 4.415,1.47 C4.6735,1.2025 5.0124,1.0269 5.38,0.97 Z" id="path-7"></path>
    </defs>
    <g id="Page-1" stroke="none" stroke-width="1" fill="none" fill-rule="evenodd">
        <g id="SHAPES" transform="translate(-124.000000, -6475.000000)">
            <g id="Group-70" transform="translate(124.000000, 6475.000000)">
                <g id="Group-4611">
                    <mask id="mask-2" fill="white">
                        <use xlink:href="#path-1"></use>
                    </mask>
                    <g id="Clip-4610"></g>
                    <polygon id="Fill-4609" fill="#000000" mask="url(#mask-2)" points="-4.355 -4.36 65.365 -4.36 65.365 65.36 -4.355 65.36"></polygon>
                </g>
                <g id="Group-4614" transform="translate(32.000000, 29.000000)">
                    <mask id="mask-4" fill="white">
                        <use xlink:href="#path-3"></use>
                    </mask>
                    <g id="Clip-4613"></g>
                    <polygon id="Fill-4612" fill="#000000" mask="url(#mask-4)" points="-4.4 -4.435 32.66 -4.435 32.66 7.435 -4.4 7.435"></polygon>
                </g>
                <g id="Group-4617" transform="translate(27.000000, 27.000000)">
                    <mask id="mask-6" fill="white">
                        <use xlink:href="#path-5"></use>
                    </mask>
                    <g id="Clip-4616"></g>
                    <polygon id="Fill-4615" fill="#000000" mask="url(#mask-6)" points="-4.3 -4.3 11.3 -4.3 11.3 11.3 -4.3 11.3"></polygon>
                </g>
                <g id="Group-4620" transform="translate(42.000000, 20.000000)">
                    <mask id="mask-8" fill="white">
                        <use xlink:href="#path-7"></use>
                    </mask>
                    <g id="Clip-4619"></g>
                    <polygon id="Fill-4618" fill="#000000" mask="url(#mask-8)" points="-4.835 -4.031 10.8966 -4.031 10.8966 12.57 -4.835 12.57"></polygon>
                </g>
            </g>
        </g>
    </g>
</svg>