<?xml version="1.0" encoding="UTF-8"?>
<svg width="73px" height="63px" viewBox="-10 -10 93 83" version="1.1" xmlns="http://www.w3.org/2000/svg" xmlns:xlink="http://www.w3.org/1999/xlink">
    <title>534B6CA0-35D2-4CCD-98DB-60F7877123D2</title>
    <defs>
        <path d="M5.025,0.73 L3,7.805 C3.5873,6.8461 4.2818,5.957 5.07,5.155 C5.4482,4.768 5.9552,4.5331 6.495,4.495 C6.7135,4.4896 6.9242,4.5768 7.075,4.735 C7.2379,4.909 7.3228,5.142 7.31,5.38 C7.2965,5.776 7.2275,6.1682 7.105,6.545 L6.215,9.6 C6.1491,9.8002 6.094,10.0039 6.05,10.21 C6.0477,10.2722 6.0691,10.333 6.11,10.38 C6.1461,10.4224 6.1993,10.4463 6.255,10.445 C6.3353,10.4383 6.411,10.4048 6.47,10.35 C6.7875,10.0958 7.0656,9.7959 7.295,9.46 L7.52,9.6 C7.318,9.9036 7.0887,10.1881 6.835,10.45 C6.6126,10.6976 6.3568,10.913 6.075,11.09 C5.9052,11.1975 5.7107,11.2595 5.51,11.27 C5.3448,11.2772 5.1842,11.2147 5.0673,11.0977 C4.9503,10.9808 4.8878,10.8202 4.895,10.655 C4.9339,10.2482 5.0195,9.8472 5.15,9.46 L5.99,6.545 C6.0807,6.2666 6.1345,5.9774 6.15,5.685 C6.1534,5.5977 6.1208,5.5128 6.06,5.45 C5.9953,5.3929 5.9113,5.3625 5.825,5.365 C5.6471,5.3729 5.4744,5.4281 5.325,5.525 C4.8844,5.8389 4.4978,6.2222 4.18,6.66 C4.134,6.722 4.0448,6.856 3.91176,7.06264 L3.76408296,7.29351704 C3.57468889,7.59117778 3.32533333,7.988 3.015,8.485 C2.8055,8.836 2.6377,9.2102 2.515,9.6 L2.045,11.1 L0.955,11.1 L3.35,2.76 L3.605,1.855 C3.6036,1.7263 3.5472,1.6044 3.45,1.52 C3.3447,1.4246 3.2071,1.3727 3.065,1.375 C2.9307,1.3801 2.797,1.3952 2.665,1.42 L2.515,1.42 L2.515,1.135 L5.025,0.73 Z" id="path-1"></path>
        <path d="M4.75,0.32 L3.315,5.355 C3.6672,4.9602 4.0788,4.6228 4.535,4.355 C4.8711,4.1781 5.2452,4.0854 5.625,4.085 C6.1187,4.067 6.5968,4.2597 6.94,4.615 C7.2915,5.0114 7.4713,5.5311 7.44,6.06 C7.427,6.8839 7.1958,7.6896 6.77,8.395 C6.3617,9.1262 5.7839,9.7486 5.085,10.21 C4.4946,10.6135 3.7999,10.8375 3.085,10.855 C2.2648,10.8231 1.4748,10.5365 0.825,10.035 L3.045,2.4 C3.1566,2.0621 3.2419,1.7161 3.3,1.365 C3.3072,1.2564 3.2627,1.1508 3.18,1.08 C3.0323,0.9826 2.8565,0.9368 2.68,0.95 C2.524,0.9548 2.3685,0.9715 2.215,1 L2.215,0.725 L4.75,0.32 Z M5.125,4.77999995 C4.6324,4.7977 4.1625,4.991 3.8,5.325 C3.346,5.7191 3.0233,6.2424 2.875,6.825 L1.93,10.12 C2.3189,10.3569 2.7603,10.4943 3.215,10.52 C3.6953,10.4998 4.1586,10.3361 4.545,10.05 C5.0779,9.6381 5.4906,9.0907 5.74,8.465 C6.0681,7.7584 6.2387,6.989 6.24,6.21 C6.2617,5.8315 6.1443,5.4581 5.91,5.16 C5.7203,4.9199 5.431,4.7799 5.125,4.77999995 Z" id="path-3"></path>
        <path d="M24.6884,0.16 C24.9858,0.113 25.2879,0.211 25.5,0.425 L25.5,0.425 L72.175,48.945 L71.5,49.595 L71.5,48.675 L69.311,48.675 L70.83,50.255 L71.5,49.61 L72.175,48.96 C72.427,49.2283 72.5,49.6192 72.36,49.96 C72.213,50.3042 71.874,50.5269 71.5,50.5250376 L71.5,50.5250376 L1.51,50.5250376 C1.1888,50.5279 0.8893,50.363 0.72,50.09 C0.5477,49.8195 0.5269,49.4794 0.665,49.19 L0.665,49.19 L24,0.665 C24.1348,0.396 24.391,0.208 24.6884,0.16 Z M25.105,2.7 L3,48.675 L69.311,48.675 L25.105,2.7 Z" id="path-5"></path>
        <polygon id="path-7" points="1.305 0.065 0.37 13.595 0.37 0.065"></polygon>
        <path d="M9.31,0.795 C9.5676,0.7977 9.775,1.0074 9.775,1.265 L9.775,1.265 L9.775,10.595 L9.745,10.595 C9.7202,10.8345 9.5183,11.0166 9.2775,11.0166 C9.0367,11.0166 8.8348,10.8345 8.81,10.595 L8.81,10.595 L8.81,1.73 L0.81,1.73 C0.5705,1.7052 0.3884,1.5033 0.3884,1.2625 C0.3884,1.0217 0.5705,0.8198 0.81,0.795 L0.81,0.795 L9.31,0.795 Z" id="path-9"></path>
        <polygon id="path-11" points="1.305 0.735 0.37 7.265 0.37 0.735"></polygon>
        <polygon id="path-13" points="1.305 0.87 0.37 7.4 0.37 0.87"></polygon>
        <polygon id="path-15" points="1.305 0.005 0.37 6.535 0.37 0.005"></polygon>
        <polygon id="path-17" points="1.305 0.07 0.37 6.605 0.37 0.07"></polygon>
    </defs>
    <g id="Page-1" stroke="none" stroke-width="1" fill="none" fill-rule="evenodd">
        <g id="SHAPES" transform="translate(-378.000000, -6474.000000)">
            <g id="Group-68" transform="translate(378.000000, 6474.000000)">
                <g id="Group-5006" transform="translate(26.000000, 18.000000)">
                    <mask id="mask-2" fill="white">
                        <use xlink:href="#path-1"></use>
                    </mask>
                    <g id="Clip-5005"></g>
                    <polygon id="Fill-5004" fill="#000000" mask="url(#mask-2)" points="-4.045 -4.27 12.52 -4.27 12.52 16.2706 -4.045 16.2706"></polygon>
                </g>
                <g id="Group-5009" transform="translate(29.000000, 52.000000)">
                    <mask id="mask-4" fill="white">
                        <use xlink:href="#path-3"></use>
                    </mask>
                    <g id="Clip-5008"></g>
                    <polygon id="Fill-5007" fill="#000000" mask="url(#mask-4)" points="-4.175 -4.68 12.4435 -4.68 12.4435 15.855 -4.175 15.855"></polygon>
                </g>
                <g id="Group-5012">
                    <mask id="mask-6" fill="white">
                        <use xlink:href="#path-5"></use>
                    </mask>
                    <g id="Clip-5011"></g>
                    <polygon id="Fill-5010" fill="#000000" mask="url(#mask-6)" points="-4.4256 -4.852 77.43 -4.852 77.43 55.5251 -4.4256 55.5251"></polygon>
                </g>
                <g id="Group-5015" transform="translate(24.000000, 36.000000)">
                    <mask id="mask-8" fill="white">
                        <use xlink:href="#path-7"></use>
                    </mask>
                    <g id="Clip-5014"></g>
                    <polygon id="Fill-5013" fill="#000000" mask="url(#mask-8)" points="-4.63 -4.935 6.305 -4.935 6.305 18.595 -4.63 18.595"></polygon>
                </g>
                <g id="Group-5018" transform="translate(24.000000, 39.000000)">
                    <mask id="mask-10" fill="white">
                        <use xlink:href="#path-9"></use>
                    </mask>
                    <g id="Clip-5017"></g>
                    <polygon id="Fill-5016" fill="#000000" mask="url(#mask-10)" points="-4.6116 -4.205 14.775 -4.205 14.775 16.0166 -4.6116 16.0166"></polygon>
                </g>
                <g id="Group-5021" transform="translate(24.000000, 26.000000)">
                    <mask id="mask-12" fill="white">
                        <use xlink:href="#path-11"></use>
                    </mask>
                    <g id="Clip-5020"></g>
                    <polygon id="Fill-5019" fill="#000000" mask="url(#mask-12)" points="-4.63 -4.265 6.305 -4.265 6.305 12.265 -4.63 12.265"></polygon>
                </g>
                <g id="Group-5024" transform="translate(24.000000, 17.000000)">
                    <mask id="mask-14" fill="white">
                        <use xlink:href="#path-13"></use>
                    </mask>
                    <g id="Clip-5023"></g>
                    <polygon id="Fill-5022" fill="#000000" mask="url(#mask-14)" points="-4.63 -4.13 6.305 -4.13 6.305 12.4 -4.63 12.4"></polygon>
                </g>
                <g id="Group-5027" transform="translate(24.000000, 9.000000)">
                    <mask id="mask-16" fill="white">
                        <use xlink:href="#path-15"></use>
                    </mask>
                    <g id="Clip-5026"></g>
                    <polygon id="Fill-5025" fill="#000000" mask="url(#mask-16)" points="-4.63 -4.995 6.305 -4.995 6.305 11.535 -4.63 11.535"></polygon>
                </g>
                <g id="Group-5030" transform="translate(24.000000, 1.000000)">
                    <mask id="mask-18" fill="white">
                        <use xlink:href="#path-17"></use>
                    </mask>
                    <g id="Clip-5029"></g>
                    <polygon id="Fill-5028" fill="#000000" mask="url(#mask-18)" points="-4.63 -4.93 6.305 -4.93 6.305 11.605 -4.63 11.605"></polygon>
                </g>
            </g>
        </g>
    </g>
</svg>