<?xml version="1.0" encoding="UTF-8"?>
<svg width="79px" height="67px" viewBox="-10 -10 99 87" version="1.1" xmlns="http://www.w3.org/2000/svg" xmlns:xlink="http://www.w3.org/1999/xlink">
    <title>3AB48C08-5636-4D95-8931-9C4C386778AC</title>
    <defs>
        <path d="M4.39,0.525 L2.955,5.565 C3.3076,5.1707 3.7192,4.8334 4.175,4.565 C4.5111,4.3881 4.8852,4.2954 5.265,4.295 C5.7593,4.2789 6.2373,4.4734 6.58,4.83 C6.9302,5.2252 7.11,5.7428 7.08,6.27 C7.0679,7.0956 6.8367,7.9031 6.41,8.61 C6.0016,9.3397 5.4237,9.9605 4.725,10.42 C4.1356,10.8263 3.4407,11.0522 2.725,11.07 C1.916,11.0312 1.1388,10.743 0.5,10.245 L2.72,2.61 C2.8328,2.2724 2.9181,1.9263 2.975,1.575 C2.983,1.4677 2.9383,1.3632 2.855,1.295 C2.7089,1.1936 2.5323,1.1459 2.355,1.16 C2.1989,1.1671 2.0435,1.1855 1.89,1.215 L1.89,0.935 L4.39,0.525 Z M4.765,4.98999995 C4.273,5.0059 3.803,5.1975 3.44,5.53 C2.9885,5.9261 2.6662,6.4487 2.515,7.03 L1.57,10.325 C1.9589,10.5619 2.4003,10.6993 2.855,10.725 C3.3358,10.7073 3.7998,10.5433 4.185,10.255 C4.7192,9.8443 5.1321,9.2966 5.38,8.67 C5.7053,7.9643 5.8758,7.1971 5.88,6.42 C5.9036,6.0412 5.786,5.6672 5.55,5.37 C5.3603,5.1299 5.071,4.9899 4.765,4.98999995 Z" id="path-1"></path>
        <path d="M5.635,1.16 C5.8878,1.352 6.0343,1.6526 6.03,1.97 C6.0351,2.254 5.9354,2.5299 5.75,2.745 C5.6314,2.9011 5.446,2.992 5.25,2.99 C5.1102,2.9963 4.9742,2.9437 4.875,2.845 C4.7771,2.749 4.7228,2.6171 4.725,2.48 C4.723,2.3919 4.7418,2.3045 4.78,2.225 C4.8383,2.1194 4.9144,2.0246 5.005,1.945 C5.0846,1.8773 5.1537,1.7981 5.21,1.71 C5.2355,1.6623 5.2492,1.6091 5.25,1.555 C5.2469,1.4525 5.1948,1.3576 5.11,1.3 C4.9287,1.1935 4.7199,1.143 4.51,1.155 C3.9986,1.1665 3.5044,1.3417 3.1,1.655 C2.5978,2.0343 2.189,2.5234 1.905,3.085 C1.5218,3.772 1.3156,4.5435 1.305,5.33 C1.2813,5.7646 1.4347,6.1903 1.73,6.51 C2.0353,6.81 2.4526,6.9678 2.88,6.945 C3.2677,6.9418 3.6487,6.844 3.99,6.66 C4.4559,6.3999 4.8737,6.0617 5.225,5.66 L5.44,5.84 C5.0158,6.3766 4.4952,6.8293 3.905,7.175 C3.4081,7.4572 2.8464,7.6054 2.275,7.605 C1.6791,7.6404 1.095,7.4288 0.66,7.02 C0.2618,6.599 0.0524,6.0338 0.08,5.455 C0.0893,4.6807 0.305,3.923 0.705,3.26 C1.1124,2.5462 1.6873,1.9422 2.38,1.5 C2.9886,1.0801 3.7059,0.8457 4.445,0.825 C4.8689,0.7918 5.2907,0.9106 5.635,1.16 Z" id="path-3"></path>
        <path d="M7.5,0.955 L6.08,5.9 L5.92,6.56 C5.9062,6.6123 5.8978,6.6659 5.895,6.72 C5.8929,6.7954 5.9197,6.8688 5.97,6.925 C6.0056,6.968 6.0592,6.992 6.115,6.99 C6.2084,6.979 6.2959,6.9388 6.365,6.875 C6.647,6.6166 6.8941,6.3224 7.1,6 L7.35,6.175 C7.0731,6.616 6.7231,7.0066 6.315,7.33 C6.0338,7.5682 5.6829,7.7086 5.315,7.73 C5.1431,7.7427 4.9735,7.6849 4.845,7.57 C4.7337,7.4456 4.6778,7.2814 4.69,7.115 C4.7017,6.796 4.7555,6.4799 4.85,6.175 L5,5.63 C4.5214,6.3083 3.9274,6.8972 3.245,7.37 C2.91,7.5946 2.5182,7.7194 2.115,7.73 C1.757,7.7276 1.4191,7.5642 1.195,7.285 C0.9219,6.9429 0.7847,6.512 0.81,6.075 C0.8333,5.2131 1.0723,4.3708 1.505,3.625 C1.9314,2.8146 2.5367,2.1118 3.275,1.57 C3.7222,1.201 4.276,0.9854 4.855,0.955 C5.1213,0.946 5.3826,1.029 5.595,1.19 C5.8196,1.3951 5.9765,1.6636 6.045,1.96 L6.305,1.13 L7.5,0.955 Z M4.903,1.335 C4.5309,1.358 4.1769,1.512 3.905,1.77 C3.3365,2.2812 2.8846,2.9087 2.58,3.61 C2.2271,4.2917 2.0291,5.0429 2,5.81 C1.9859,6.0933 2.0747,6.3721 2.25,6.595 C2.3857,6.7704 2.5933,6.8751 2.815,6.88 C3.345,6.88 3.925,6.49 4.545,5.71 C5.3174,4.8193 5.7573,3.6885 5.79,2.51 C5.818,2.1911 5.733,1.8726 5.55,1.61 C5.40642857,1.44782857 5.20569796,1.3500898 4.99245656,1.33536093 L4.903,1.335 Z" id="path-5"></path>
        <path d="M0.8807,0.4042 C1.1976,0.25 1.5743,0.287 1.855,0.5 L1.855,0.5 L67.175,52.73 C67.4851,52.9782 67.6046,53.3952 67.4729,53.7699 C67.3412,54.1447 66.9872,54.395 66.59,54.395 L66.59,54.395 L1.27,54.395 C1.0224,54.3938 0.7852,54.295 0.61,54.12 C0.4382,53.9431 0.3414,53.7066 0.34,53.46 L0.34,53.46 L0.34,1.205 L0.357,1.205 L0.364073388,1.11394376 C0.401790809,0.846858711 0.553444993,0.608716598 0.779419204,0.461530316 L0.8807,0.4042 Z M2.205,3.16 L2.205,52.525 L63.93,52.525 L2.205,3.16 Z M2.205,1.205 L0.357,1.205 L0.355,1.23 L0.355,1.23 L1.285,1.23 L0.705,1.96 L2.205,3.16 L2.205,1.205 Z" id="path-7"></path>
        <path d="M9.935,0.664822378 C10.0589,0.6626 10.1783,0.7115 10.265,0.8 C10.3516,0.888 10.4,1.0065 10.4,1.13 L10.4,1.13 L10.4,10.46 C10.4,10.7168 10.1918,10.925 9.935,10.925 C9.6782,10.925 9.47,10.7168 9.47,10.46 L9.47,10.46 L9.47,1.595 L1.27,1.595 C1.0132,1.595 0.805,1.3868 0.805,1.13 C0.805,0.8732 1.0132,0.664822378 1.27,0.664822378 L1.27,0.664822378 L9.935,0.664822378 Z" id="path-9"></path>
    </defs>
    <g id="Page-1" stroke="none" stroke-width="1" fill="none" fill-rule="evenodd">
        <g id="SHAPES" transform="translate(-115.000000, -6651.000000)">
            <g id="Group-74" transform="translate(115.000000, 6651.000000)">
                <g id="Group-4691" transform="translate(0.000000, 23.000000)">
                    <mask id="mask-2" fill="white">
                        <use xlink:href="#path-1"></use>
                    </mask>
                    <g id="Clip-4690"></g>
                    <polygon id="Fill-4689" fill="#000000" mask="url(#mask-2)" points="-4.5 -4.475 12.0832 -4.475 12.0832 16.07 -4.5 16.07"></polygon>
                </g>
                <g id="Group-4694" transform="translate(48.000000, 19.000000)">
                    <mask id="mask-4" fill="white">
                        <use xlink:href="#path-3"></use>
                    </mask>
                    <g id="Clip-4693"></g>
                    <polygon id="Fill-4692" fill="#000000" mask="url(#mask-4)" points="-4.9224 -4.1805 11.0302 -4.1805 11.0302 12.6088 -4.9224 12.6088"></polygon>
                </g>
                <g id="Group-4697" transform="translate(36.000000, 59.000000)">
                    <mask id="mask-6" fill="white">
                        <use xlink:href="#path-5"></use>
                    </mask>
                    <g id="Clip-4696"></g>
                    <polygon id="Fill-4695" fill="#000000" mask="url(#mask-6)" points="-4.193 -4.0457 12.5 -4.0457 12.5 12.7317 -4.193 12.7317"></polygon>
                </g>
                <g id="Group-4700" transform="translate(11.000000, 0.000000)">
                    <mask id="mask-8" fill="white">
                        <use xlink:href="#path-7"></use>
                    </mask>
                    <g id="Clip-4699"></g>
                    <polygon id="Fill-4698" fill="#000000" mask="url(#mask-8)" points="-4.66 -4.6901 72.5258 -4.6901 72.5258 59.395 -4.66 59.395"></polygon>
                </g>
                <g id="Group-4703" transform="translate(11.000000, 43.000000)">
                    <mask id="mask-10" fill="white">
                        <use xlink:href="#path-9"></use>
                    </mask>
                    <g id="Clip-4702"></g>
                    <polygon id="Fill-4701" fill="#000000" mask="url(#mask-10)" points="-4.195 -4.3352 15.4 -4.3352 15.4 15.925 -4.195 15.925"></polygon>
                </g>
            </g>
        </g>
    </g>
</svg>