<?xml version="1.0" encoding="UTF-8"?>
<svg width="77px" height="81px" viewBox="-10 -10 97 101" version="1.1" xmlns="http://www.w3.org/2000/svg" xmlns:xlink="http://www.w3.org/1999/xlink">
    <title>B36EDEFA-375D-4800-8662-D664898FD64D</title>
    <defs>
        <path d="M3.635,0.88 C3.7776,0.8797 3.9199,0.8931 4.06,0.92 C4.125,0.92 4.285,0.995 4.53,1.095 C4.6884,1.1692 4.8569,1.2198 5.03,1.245 C5.2542,1.2417 5.4581,1.1147 5.56,0.915 L5.845,0.9 L5.345,3.125 L5.075,3.125 C5.103,2.6203 4.9661,2.1201 4.685,1.7 C4.4622,1.4112 4.1197,1.2399 3.755,1.235 C3.4935,1.2159 3.2349,1.3003 3.035,1.47 C2.8633,1.6184 2.7633,1.8331 2.76,2.06 C2.7562,2.2186 2.7887,2.3759 2.855,2.52 C2.9767,2.7458 3.128,2.9543 3.305,3.14 C3.76,3.6195 4.1607,4.1477 4.5,4.715 C4.664,5.023 4.7515,5.366 4.755,5.715 C4.7411,6.2327 4.5019,6.7184 4.1,7.045 C3.6583,7.429 3.0845,7.6263 2.5,7.595 C2.0857,7.5759 1.6779,7.4845 1.295,7.325 C1.1769,7.2757 1.0523,7.2437 0.925,7.23 C0.7074,7.2254 0.5091,7.3543 0.425,7.555 L0.155,7.555 L0.655,5.21 L0.92,5.21 C0.8842,5.7666 1.0355,6.3193 1.35,6.78 C1.6345,7.1051 2.048,7.2881 2.48,7.28 C2.7999,7.3012 3.1154,7.1972 3.36,6.99 C3.5752,6.7984 3.6973,6.5232 3.695,6.235 C3.7017,6.0493 3.6658,5.8646 3.59,5.695 C3.3649,5.254 3.0862,4.8425 2.76,4.47 C2.4457,4.1115 2.1723,3.7191 1.945,3.3 C1.8299,3.058 1.7718,2.7929 1.775,2.525 C1.7737,2.0712 1.9688,1.6391 2.31,1.34 C2.6736,1.0177 3.1499,0.8524 3.635,0.88 Z" id="path-1"></path>
        <path d="M3.75,0.765 C3.891,0.7685 4.0315,0.7835 4.17,0.81 C4.3318,0.8566 4.4904,0.9134 4.645,0.98 C4.804,1.0538 4.9722,1.1059 5.145,1.135 C5.3693,1.1275 5.572,0.9994 5.675,0.8 L5.945,0.795 L5.445,3.02 L5.18,3.02 C5.208,2.5153 5.0711,2.0151 4.79,1.595 C4.5682,1.3057 4.2246,1.1358 3.86,1.135 C3.5992,1.1145 3.3407,1.1971 3.14,1.365 C2.9654,1.5133 2.8648,1.7309 2.865,1.96 C2.8597,2.1187 2.8923,2.2764 2.96,2.42 C3.0824,2.6454 3.2336,2.8538 3.41,3.04 C3.8638,3.5193 4.2629,4.0475 4.6,4.615 C4.7676,4.9219 4.8569,5.2654 4.86,5.615 C4.8441,6.1322 4.6053,6.6172 4.205,6.945 C3.7662,7.3346 3.1908,7.5342 2.605,7.5 C2.1922,7.4815 1.7859,7.3901 1.405,7.23 C1.2874,7.1799 1.1624,7.1495 1.035,7.14 C0.817,7.134 0.618,7.2633 0.535,7.465 L0.265,7.465 L0.765,5.115 L1.035,5.115 C0.998,5.6733 1.1494,6.2279 1.465,6.69 C1.7506,7.008 2.163,7.1821 2.59,7.165 C2.9104,7.1906 3.2276,7.0861 3.47,6.875 C3.6871,6.6843 3.8111,6.409 3.81,6.12 C3.8167,5.9343 3.7808,5.7496 3.705,5.58 C3.4767,5.1409 3.1982,4.7298 2.875,4.355 C2.559,3.9979 2.2855,3.6052 2.06,3.185 C1.9428,2.9436 1.883,2.6784 1.885,2.41 C1.8871,1.9584 2.0817,1.5292 2.42,1.23 C2.7838,0.9042 3.2625,0.7368 3.75,0.765 Z" id="path-3"></path>
        <path d="M4.26,0.165 C4.4029,0.1638 4.5455,0.1789 4.685,0.21 C4.845,0.257 5.002,0.3137 5.155,0.38 C5.3134,0.4542 5.4819,0.5048 5.655,0.53 C5.8795,0.5278 6.084,0.4005 6.185,0.2 L6.465,0.175 L5.965,2.4 L5.695,2.4 C5.7252,1.895 5.5882,1.3942 5.305,0.975 C5.0822,0.6862 4.7397,0.5149 4.375,0.51 C4.1135,0.4909 3.8549,0.5753 3.655,0.745 C3.482,0.8946 3.3818,1.1113 3.38,1.34 C3.3767,1.4985 3.4092,1.6558 3.475,1.8 C3.6001,2.0221 3.7511,2.2286 3.925,2.415 C4.3792,2.897 4.7798,3.4268 5.12,3.995 C5.2863,4.3022 5.3739,4.6457 5.375,4.995 C5.361,5.5115 5.124,5.9966 4.725,6.325 C4.286,6.7142 3.7107,6.9137 3.125,6.88 C2.7107,6.8609 2.3029,6.7695 1.92,6.61 C1.8019,6.5607 1.6773,6.5287 1.55,6.515 C1.3316,6.5126 1.1337,6.6432 1.05,6.845 L0.78,6.845 L1.28,4.495 L1.55,4.495 C1.509,5.0522 1.6608,5.6065 1.98,6.065 C2.2625,6.3899 2.6745,6.573 3.105,6.565 C3.4252,6.5889 3.7418,6.4846 3.985,6.275 C4.1985,6.0816 4.3217,5.808 4.325,5.52 C4.3277,5.3342 4.2901,5.15 4.215,4.98 C3.9886,4.5398 3.71,4.1284 3.385,3.755 C3.0707,3.3965 2.7973,3.0041 2.57,2.585 C2.4549,2.343 2.3968,2.0779 2.4,1.81 C2.4007,1.3567 2.5954,0.9253 2.935,0.625 C3.2986,0.3027 3.7749,0.1374 4.26,0.165 Z" id="path-5"></path>
        <polygon id="path-7" points="7.31 0.5 10.38 0.555 10.26 1.295 7.845 1.25 2.71 12.835 1.71 12.835 0.21 6.025 1.035 5.77 2.29 11.935"></polygon>
        <path d="M3.675,0.92 C4.424,0.9097 5.145,1.2017 5.675,1.73 C6.179,2.2056 6.459,2.8721 6.445,3.565 C6.432,4.0871 6.302,4.5996 6.065,5.065 C5.601,5.9737 4.997,6.8039 4.275,7.525 C3.045,8.825 2.277,9.6067 1.97,9.87 L4.545,9.92 C4.912,9.9361 5.28,9.9227 5.645,9.88 C5.851,9.8482 6.047,9.7714 6.22,9.655 C6.408,9.5251 6.563,9.3541 6.675,9.155 L6.94,9.15 L6.215,11.03 L0.395,10.925 L0.395,10.655 C1.747,9.5296 2.982,8.2698 4.08,6.895 C4.712,6.131 5.095,5.1926 5.18,4.205 C5.209,3.6344 5.011,3.0755 4.63,2.65 C4.286,2.2578 3.792,2.0306 3.27,2.025 C2.8,2.0112 2.338,2.1517 1.955,2.425 C1.542,2.7332 1.236,3.1634 1.08,3.655 L0.81,3.655 C0.888,2.8805 1.231,2.1565 1.78,1.605 C2.297,1.1356 2.978,0.8894 3.675,0.92 Z" id="path-9"></path>
        <path d="M6.3,0.75 L6.18,7.18 L7.5,7.22 L7.5,8.25 L6.175,8.25 L6.125,10.855 L4.925,10.855 L4.975,8.255 L0.8,8.175 L0.8,7.245 L5.5,0.75 L6.3,0.75 Z M5.09,2.275 L1.5,7.105 L5,7.17 L5.09,2.275 Z" id="path-11"></path>
        <path d="M3.05,0.055 L6.585,0.12 L6,1.35 L3.035,1.295 L2.36,2.605 C3.509,2.7532 4.5755,3.2811 5.39,4.105 C6.3528,5.1207 6.584,6.6274 5.97,7.885 C5.7646,8.3021 5.487,8.6796 5.15,9 C4.8297,9.2998 4.4634,9.5463 4.065,9.73 C3.5253,9.9814 2.9353,10.1063 2.34,10.095 C1.8881,10.125 1.4383,10.0113 1.055,9.77 C0.8236,9.6236 0.678,9.3736 0.665,9.1 C0.6694,8.9616 0.7309,8.8313 0.835,8.74 C0.9544,8.6382 1.1084,8.5862 1.265,8.595 C1.3767,8.5937 1.4874,8.6159 1.59,8.66 C1.7667,8.7443 1.9342,8.8465 2.09,8.965 C2.4069,9.2081 2.791,9.3478 3.19,9.365 C3.7532,9.3742 4.2954,9.1519 4.69,8.75 C5.1197,8.3448 5.3638,7.7806 5.365,7.19 C5.3724,6.5799 5.1753,5.9849 4.805,5.5 C4.4055,4.9547 3.8642,4.5293 3.24,4.27 C2.5522,4.0103 1.8251,3.87 1.09,3.855 L3.05,0.055 Z" id="path-13"></path>
        <path d="M2.5,8.67361738e-19 C3.0959,0.0078 3.6638,0.2538 4.0771,0.6831 C4.4904,1.1124 4.7147,1.6893 4.7,2.285 C4.6765,3.5276 3.6501,4.516 2.4075,4.4925 C1.1649,4.469 0.1765,3.4426 0.2,2.2 C0.2032,1.6034 0.4508,1.0341 0.885,0.625 C1.3123,0.2 1.898,-0.0266 2.5,8.67361738e-19 Z M2.5,0.615 C1.6055,0.5986 0.8671,1.3103 0.8506,2.2048 C0.834,3.0993 1.5457,3.8378 2.4402,3.8544 C3.3347,3.8711 4.0733,3.1595 4.09,2.265 C4.1021,1.8342 3.9404,1.4166 3.6414,1.1062 C3.3423,0.7959 2.931,0.6189 2.5,0.615 Z" id="path-15"></path>
        <path d="M6.01,0.405 L5.89,6.835 L7.21,6.875 L7.21,7.905 L5.885,7.88 L5.835,10.485 L4.635,10.46 L4.685,7.86 L0.51,7.78 L0.51,6.85 L5.21,0.405 L6.01,0.405 Z M4.8,1.93 L1.245,6.76 L4.71,6.825 L4.8,1.93 Z" id="path-17"></path>
        <path d="M2.79,0.715 L6.31,0.775 L5.72,2 L2.75,1.945 L2.08,3.255 C3.229,3.4032 4.296,3.9311 5.11,4.755 C5.724,5.3783 6.056,6.2255 6.03,7.1 C6.027,7.5979 5.91,8.0885 5.69,8.535 C5.486,8.9513 5.208,9.3273 4.87,9.645 C4.552,9.9458 4.187,10.1924 3.79,10.375 C3.25,10.6264 2.66,10.7513 2.065,10.74 C1.613,10.77 1.163,10.6563 0.78,10.415 C0.5486,10.2686 0.403,10.0186 0.39,9.745 C0.3944,9.6066 0.4559,9.4763 0.56,9.385 C0.6773,9.283 0.8298,9.231 0.985,9.24 C1.098,9.2383 1.211,9.2605 1.315,9.305 C1.492,9.3893 1.659,9.4915 1.815,9.61 C2.132,9.8531 2.516,9.9928 2.915,10.01 C3.478,10.0192 4.02,9.7969 4.415,9.395 C4.845,8.9898 5.089,8.4256 5.09,7.835 C5.096,7.2321 4.905,6.6438 4.545,6.16 C4.145,5.6147 3.604,5.1893 2.98,4.93 C2.29,4.6705 1.562,4.5302 0.825,4.515 L2.79,0.715 Z" id="path-19"></path>
        <path d="M3.24,0.625 L3.24,0.63 C3.836,0.6378 4.404,0.8838 4.817,1.3131 C5.23,1.7424 5.455,2.3193 5.44,2.915 C5.417,3.8174 4.855,4.6178 4.014,4.9455 C3.173,5.2732 2.217,5.0641 1.59,4.415 C1.173,3.9928 0.947,3.4182 0.965,2.825 C0.973,2.2309 1.217,1.6645 1.645,1.2515 C2.072,0.8385 2.646,0.613 3.24,0.625 Z M3.234,1.245 C2.809,1.2343 2.392,1.3963 2.081,1.6949 C1.77,1.9935 1.592,2.404 1.585,2.835 C1.573,3.2659 1.738,3.6829 2.04,3.99 C2.663,4.6337 3.69,4.6516 4.335,4.03 C4.977,3.407 4.998,2.3827 4.38,1.735 C4.11925,1.457625 3.76739063,1.28690156 3.39208398,1.25170332 L3.234,1.245 Z" id="path-21"></path>
        <path d="M2.435,0.785 L68.535,67.82 C68.794,68.0882 68.87,68.485 68.726,68.8295 C68.583,69.174 68.248,69.4002 67.875,69.405 L1.79,69.405 C1.286,69.405 0.8735,69.0038 0.859984178,68.5 L0.859984178,1.44 C0.8578,1.0615 1.0852,0.7195 1.435,0.575 C1.7806,0.4419 2.1721,0.5241 2.435,0.785 Z M2.72,3.71 L2.72,67.54 L65.665,67.54 L2.72,3.71 Z" id="path-23"></path>
        <path d="M9.185,0.63 C9.4418,0.63 9.65,0.8382 9.65,1.095 L9.65,9.94 C9.65,10.0633 9.601,10.1816 9.5138,10.2688 C9.4266,10.356 9.3083,10.405 9.185,10.405 C8.9274,10.405 8.7177,10.1976 8.715,9.94 L8.715,1.56 L0.79,1.56 C0.5332,1.56 0.325,1.3518 0.325,1.095 C0.325,0.8382 0.5332,0.63 0.79,0.63 L9.185,0.63 Z" id="path-25"></path>
    </defs>
    <g id="Page-1" stroke="none" stroke-width="1" fill="none" fill-rule="evenodd">
        <g id="SHAPES" transform="translate(-376.000000, -6644.000000)">
            <g id="Group-72" transform="translate(376.000000, 6644.000000)">
                <g id="Group-4760" transform="translate(0.000000, 31.000000)">
                    <mask id="mask-2" fill="white">
                        <use xlink:href="#path-1"></use>
                    </mask>
                    <g id="Clip-4759"></g>
                    <polygon id="Fill-4758" fill="#000000" mask="url(#mask-2)" points="-4.845 -4.123 10.845 -4.123 10.845 12.5982 -4.845 12.5982"></polygon>
                </g>
                <g id="Group-4763" transform="translate(39.000000, 73.000000)">
                    <mask id="mask-4" fill="white">
                        <use xlink:href="#path-3"></use>
                    </mask>
                    <g id="Clip-4762"></g>
                    <polygon id="Fill-4761" fill="#000000" mask="url(#mask-4)" points="-4.735 -4.2381 10.945 -4.2381 10.945 12.5038 -4.735 12.5038"></polygon>
                </g>
                <g id="Group-4766" transform="translate(45.000000, 28.000000)">
                    <mask id="mask-6" fill="white">
                        <use xlink:href="#path-5"></use>
                    </mask>
                    <g id="Clip-4765"></g>
                    <polygon id="Fill-4764" fill="#000000" mask="url(#mask-6)" points="-4.22 -4.838 11.465 -4.838 11.465 11.8837 -4.22 11.8837"></polygon>
                </g>
                <g id="Group-4769" transform="translate(53.000000, 22.000000)">
                    <mask id="mask-8" fill="white">
                        <use xlink:href="#path-7"></use>
                    </mask>
                    <g id="Clip-4768"></g>
                    <polygon id="Fill-4767" fill="#000000" mask="url(#mask-8)" points="-4.79 -4.5 15.38 -4.5 15.38 17.835 -4.79 17.835"></polygon>
                </g>
                <g id="Group-4772" transform="translate(60.000000, 24.000000)">
                    <mask id="mask-10" fill="white">
                        <use xlink:href="#path-9"></use>
                    </mask>
                    <g id="Clip-4771"></g>
                    <polygon id="Fill-4770" fill="#000000" mask="url(#mask-10)" points="-4.605 -4.0826 11.94 -4.0826 11.94 16.03 -4.605 16.03"></polygon>
                </g>
                <g id="Group-4775" transform="translate(11.000000, 23.000000)">
                    <mask id="mask-12" fill="white">
                        <use xlink:href="#path-11"></use>
                    </mask>
                    <g id="Clip-4774"></g>
                    <polygon id="Fill-4773" fill="#000000" mask="url(#mask-12)" points="-4.2 -4.25 12.5 -4.25 12.5 15.855 -4.2 15.855"></polygon>
                </g>
                <g id="Group-4778" transform="translate(19.000000, 24.000000)">
                    <mask id="mask-14" fill="white">
                        <use xlink:href="#path-13"></use>
                    </mask>
                    <g id="Clip-4777"></g>
                    <polygon id="Fill-4776" fill="#000000" mask="url(#mask-14)" points="-4.335 -4.945 11.585 -4.945 11.585 15.0997 -4.335 15.0997"></polygon>
                </g>
                <g id="Group-4781" transform="translate(27.000000, 24.000000)">
                    <mask id="mask-16" fill="white">
                        <use xlink:href="#path-15"></use>
                    </mask>
                    <g id="Clip-4780"></g>
                    <polygon id="Fill-4779" fill="#000000" mask="url(#mask-16)" points="-4.8004 -5.0021 9.7007 -5.0021 9.7007 9.4929 -4.8004 9.4929"></polygon>
                </g>
                <g id="Group-4784" transform="translate(42.000000, 55.000000)">
                    <mask id="mask-18" fill="white">
                        <use xlink:href="#path-17"></use>
                    </mask>
                    <g id="Clip-4783"></g>
                    <polygon id="Fill-4782" fill="#000000" mask="url(#mask-18)" points="-4.49 -4.595 12.21 -4.595 12.21 15.485 -4.49 15.485"></polygon>
                </g>
                <g id="Group-4787" transform="translate(50.000000, 55.000000)">
                    <mask id="mask-20" fill="white">
                        <use xlink:href="#path-19"></use>
                    </mask>
                    <g id="Clip-4786"></g>
                    <polygon id="Fill-4785" fill="#000000" mask="url(#mask-20)" points="-4.61 -4.285 11.31 -4.285 11.31 15.7447 -4.61 15.7447"></polygon>
                </g>
                <g id="Group-4790" transform="translate(57.000000, 55.000000)">
                    <mask id="mask-22" fill="white">
                        <use xlink:href="#path-21"></use>
                    </mask>
                    <g id="Clip-4789"></g>
                    <polygon id="Fill-4788" fill="#000000" mask="url(#mask-22)" points="-4.036 -4.3755 10.441 -4.3755 10.441 10.0984 -4.036 10.0984"></polygon>
                </g>
                <g id="Group-4793" transform="translate(8.000000, 0.000000)">
                    <mask id="mask-24" fill="white">
                        <use xlink:href="#path-23"></use>
                    </mask>
                    <g id="Clip-4792"></g>
                    <polygon id="Fill-4791" fill="#000000" mask="url(#mask-24)" points="-4.14 -4.4878 73.798 -4.4878 73.798 74.405 -4.14 74.405"></polygon>
                </g>
                <g id="Group-4796" transform="translate(9.000000, 59.000000)">
                    <mask id="mask-26" fill="white">
                        <use xlink:href="#path-25"></use>
                    </mask>
                    <g id="Clip-4795"></g>
                    <polygon id="Fill-4794" fill="#000000" mask="url(#mask-26)" points="-4.675 -4.37 14.65 -4.37 14.65 15.405 -4.675 15.405"></polygon>
                </g>
            </g>
        </g>
    </g>
</svg>