<?xml version="1.0" encoding="UTF-8"?>
<svg width="95px" height="69px" viewBox="-10 -10 115 89" version="1.1" xmlns="http://www.w3.org/2000/svg" xmlns:xlink="http://www.w3.org/1999/xlink">
    <title>77855899-186B-4497-BCF1-46FC5F56EA42</title>
    <defs>
        <path d="M84.0132,0.88 C84.2873,0.7183 84.6275,0.7183 84.9015,0.88 C85.1773,1.0381 85.3481495,1.3316 85.3481495,1.6495 L85.3481495,1.6495 L85.3481495,51.1968 C85.3506,51.4318 85.2583,51.6581 85.0921,51.8243 C84.9258,51.9906 84.6996,52.0828 84.4645,52.0803495 L84.4645,52.0803495 L1.292,52.0803495 C0.8939,52.0803495 0.5447,51.8146 0.4393,51.4307 C0.3339,51.0468 0.4983,50.6398 0.8407,50.4368 L0.8407,50.4368 L83.9895,0.88 L84.4407,1.64 L84.446,1.65 L84.4645,1.6495 L84.0132,0.88 Z M83.6,3.184 L4.5077,50.3133 L83.6,50.3133 L83.6,3.184 Z M84.446,1.65 L83.6,1.6495 L83.6,3.184 L84.9158,2.4 L84.446,1.65 Z" id="path-1"></path>
        <path d="M5.0575,1.5793 C5.5682,1.9976 5.8745,2.6153 5.8982,3.275 C5.9063,3.7654 5.8074,4.2517 5.6085,4.7 C5.2067,5.5836 4.6699,6.3992 4.0172,7.1178 C2.9105,8.405 2.2123,9.184 1.9367,9.45 L4.383,9.3787 C4.733,9.3776 5.0824,9.349 5.428,9.2933 C5.6223,9.2521 5.8054,9.1695 5.9647,9.051 C6.1318,8.9234 6.2695,8.7614 6.3685,8.576 L6.625,8.5618 L6.0217,10.4 L0.4928,10.5663 L0.4928,10.3098 C1.7239,9.1786 2.8379,7.9262 3.8178,6.5715 C4.384,5.8124 4.701,4.8963 4.725,3.9495 C4.7224,3.4158 4.511,2.9043 4.136,2.5245 C3.7996,2.1583 3.3222,1.9542 2.825,1.964 C2.3778,1.9736 1.9459,2.1286 1.5947,2.4058 C1.2168,2.7179 0.9447,3.1393 0.8157,3.6123 L0.564,3.6123 C0.6087,2.876 0.9037,2.1771 1.4,1.6315 C1.8666,1.1657 2.4982,0.9029 3.1575,0.9 C3.8557,0.8665 4.5388,1.1107 5.0575,1.5793 Z" id="path-3"></path>
        <path d="M7.0993,1.0588 C7.2171,1.1494 7.2856,1.2901 7.2845,1.4388 C7.3034,1.567 7.2691,1.6974 7.1895,1.7998 C7.0729,1.9151 6.9165,1.9814 6.7525,1.985 C6.6472,1.9874 6.5424,1.9697 6.4438,1.9327 C6.3016,1.8809 6.1529,1.8489 6.002,1.8378 C5.8537,1.8585 5.7175,1.9308 5.6173,2.042 C5.2157,2.4616 4.8838,2.9427 4.634,3.467 L5.2705,5.842 C5.3148,6.0686 5.395,6.2867 5.508,6.488 C5.5513,6.5485 5.6191,6.5867 5.6933,6.5925 C5.8198,6.5735 5.9366,6.5134 6.0258,6.4215 C6.2881,6.1834 6.5011,5.8961 6.6528,5.576 L6.8998,5.6947 C6.6465,6.2201 6.2894,6.6887 5.85,7.0722 C5.6812,7.2472 5.4589,7.3609 5.2183,7.3953 C4.9448,7.3973 4.6972,7.2341 4.5913,6.982 C4.3116,6.23 4.0878,5.4584 3.9215,4.6735 C3.4975,5.5748 2.9385,6.4061 2.2638,7.1387 C2.0452,7.3515 1.76,7.4823 1.4563,7.5092 C1.2689,7.5125 1.0873,7.4446 0.948,7.3193 C0.8324,7.2194 0.7679,7.0729 0.7723,6.9203 C0.7646,6.7787 0.8142,6.64 0.91,6.5355 C1.0057,6.4319 1.1395,6.3719 1.2805,6.3692 C1.4585,6.3806 1.6268,6.4547 1.7555,6.5782 C1.8308,6.6569 1.9288,6.71 2.0358,6.7302 C2.1183,6.7156 2.1935,6.6738 2.2495,6.6115 C2.585,6.2662 2.8711,5.8762 3.0998,5.4525 C3.3605,5.0433 3.5922,4.6163 3.7933,4.1748 C3.475,3.0632 3.3183,2.4742 3.2803,2.4125 C3.2005,2.1671 3.0502,1.9506 2.848,1.7903 C2.618,1.6575 2.3524,1.5994 2.088,1.624 L1.7223,1.624 L1.7223,1.377 L3.5368,1.0207 C3.7479,1.2274 3.9272,1.4644 4.0688,1.7237 C4.2467,2.1454 4.3958,2.5787 4.5153,3.0205 L5.0948,2.0705 C5.2594,1.8326 5.4506,1.6143 5.6648,1.4198 C5.8397,1.2478 6.0399,1.1036 6.2585,0.9923 C6.3743,0.9427 6.4984,0.9153 6.6243,0.9115 C6.7955,0.8992 6.965,0.9518 7.0993,1.0588 Z" id="path-5"></path>
        <path d="M3.8628,0.7962 C4.0573,1.0128 4.2175,1.2579 4.3378,1.523 C4.4986,1.9514 4.6272,2.3912 4.7225,2.8388 L5.3495,1.9362 C5.5251,1.7071 5.7259,1.4984 5.948,1.314 C6.1326,1.1508 6.3408,1.0163 6.5655,0.915 C6.6819,0.8696 6.8064,0.8486 6.9313,0.8533 C7.1051,0.8453 7.2753,0.9049 7.4063,1.0195 C7.5214,1.1151 7.5848,1.2595 7.5773,1.409 C7.5866,1.5387 7.5477,1.6673 7.468,1.77 C7.3446,1.8777 7.1853,1.9354 7.0215,1.9315 C6.9153,1.9295 6.8104,1.9069 6.7128,1.865 C6.5736,1.8046 6.4264,1.7646 6.2758,1.7463 C6.127,1.7609 5.9877,1.8263 5.8815,1.9315 C5.4596,2.3293 5.1051,2.7929 4.8318,3.3043 L5.3543,5.6793 C5.3894,5.9088 5.4599,6.1315 5.5633,6.3395 C5.6025,6.4004 5.667,6.4404 5.739,6.4488 C5.8666,6.437 5.9868,6.3835 6.081,6.2967 C6.3535,6.0701 6.5793,5.7926 6.746,5.4797 L6.9883,5.608 C6.7035,6.1248 6.3174,6.5788 5.853,6.9428 C5.6746,7.1066 5.448,7.2082 5.207,7.2325 C4.9332,7.219 4.6939,7.0432 4.599,6.786 C4.3567,6.023 4.1694,5.2436 4.0385,4.4538 C3.5719,5.3295 2.9763,6.1302 2.2715,6.8288 C2.0424,7.0306 1.7502,7.1465 1.445,7.1565 C1.2664,7.1472 1.0975,7.0729 0.97,6.9475 C0.7613,6.7261 0.7613,6.3804 0.97,6.159 C1.0679,6.0584 1.2053,6.0062 1.3453,6.0165 C1.5265,6.0304 1.696,6.1118 1.8203,6.2445 C1.8929,6.3268 1.9891,6.3848 2.0958,6.4108 C2.1781,6.3978 2.2544,6.3596 2.3143,6.3015 C2.6659,5.9736 2.9697,5.5978 3.2168,5.1852 C3.4961,4.7878 3.7484,4.372 3.972,3.9407 C3.7123,2.8166 3.5698,2.2228 3.5445,2.1595 C3.4771,1.9088 3.3365,1.6839 3.1408,1.5135 C2.918,1.3693 2.6552,1.2994 2.3903,1.314 L2.0245,1.314 L2.0245,1.314 L2.0245,1.067 L3.8628,0.7962 Z" id="path-7"></path>
        <path d="M3.5437,0.9555 C3.7383,1.1721 3.8985,1.4172 4.0187,1.6823 C4.1758,2.1119 4.3043,2.5514 4.4035,2.998 L5.0258,2.0955 C5.2031,1.8663 5.4054,1.6576 5.629,1.4733 C5.8121,1.3102 6.0186,1.1757 6.2418,1.0743 C6.3604,1.031 6.486,1.0101 6.6123,1.0125 C6.7858,1.0065 6.9553,1.0658 7.0872,1.1788 C7.2038,1.2754 7.2674,1.4218 7.2582,1.573 C7.2719,1.7017 7.2324,1.8303 7.149,1.9293 C7.0268,2.0391 6.8667,2.097 6.7025,2.0907 C6.5964,2.0878 6.4917,2.0653 6.3937,2.0243 C6.2543,1.9694 6.1094,1.9295 5.9615,1.9055 C5.8115,1.9209 5.6711,1.9861 5.5625,2.0908 C5.1432,2.4908 4.789,2.954 4.5127,3.4635 L5.0352,5.8385 C5.0691,6.0668 5.1397,6.2882 5.2442,6.494 C5.2835,6.5549 5.348,6.5949 5.42,6.6033 C5.5585,6.6112 5.6947,6.5652 5.8,6.475 C6.0738,6.2496 6.2999,5.9719 6.465,5.658 L6.7072,5.7862 C6.4242,6.3028 6.0397,6.7568 5.5767,7.121 C5.3968,7.2861 5.1688,7.3893 4.926,7.4155 C4.6458,7.3949 4.4058,7.2074 4.318,6.9405 C4.0804,6.1765 3.8947,5.3973 3.7622,4.6082 C3.2945,5.4845 2.6972,6.2852 1.9905,6.9832 C1.7641,7.1872 1.4732,7.3049 1.1687,7.3157 C0.9812,7.309 0.8024,7.2348 0.6652,7.1068 C0.5544,6.999 0.497,6.8477 0.5085,6.6935 C0.503,6.5505 0.5624,6.4126 0.67,6.3183 C0.7683,6.2208 0.9021,6.1676 1.0405,6.171 C1.2222,6.1871 1.3915,6.27 1.5155,6.4038 C1.5864,6.4849 1.6812,6.5415 1.7862,6.5653 C1.865,6.5576 1.9396,6.5261 2,6.475 C2.351,6.1452 2.6561,5.7697 2.9072,5.3587 C3.1837,4.9594 3.4359,4.5439 3.6625,4.1142 C3.3965,2.9885 3.254,2.3948 3.2302,2.3283 C3.129,1.7859 2.6236,1.4157 2.076,1.4828 L1.7102,1.4828 L1.7102,1.4828 L1.7102,1.25 L3.5437,0.9555 Z" id="path-9"></path>
        <polygon id="path-11" points="7.3808 0.6023 10.2972 0.6545 10.2117 1.3813 7.9175 1.3385 3.025 12.3537 2.075 12.3537 0.65 5.8795 1.4338 5.642 2.6308 11.475"></polygon>
        <path d="M3.6155,0.9535 C4.2754,0.9252 4.9104,1.2083 5.3303,1.7183 C5.6136,2.0448 5.7674,2.4639 5.7625,2.8963 C5.7625,3.5771 5.3208,4.2738 4.4373,4.9863 C4.956,5.1809 5.4055,5.5246 5.7293,5.9742 C6.0187,6.4164 6.1632,6.9377 6.1425,7.4658 C6.1418,8.2393 5.8522,8.9847 5.3303,9.5557 C4.5659,10.3502 3.4836,10.7569 2.3853,10.6625 C1.9408,10.6954 1.4959,10.6067 1.098,10.406 C0.9099,10.2997 0.7857,10.1081 0.7655,9.893 C0.7708,9.7584 0.8329,9.6324 0.9365,9.5463 C1.0441,9.4483 1.1853,9.3955 1.3308,9.399 C1.4502,9.4038 1.5684,9.4245 1.6823,9.4608 C1.8639,9.5372 2.0401,9.6261 2.2095,9.7268 C2.3907,9.8332 2.5815,9.9223 2.7795,9.9928 C2.9541,10.0507 3.137,10.0796 3.321,10.0783 C3.7888,10.0907 4.2391,9.9001 4.556,9.5558 C4.9047,9.2202 5.102,8.7572 5.1023,8.2733 C5.1095,7.9047 5.0331,7.5393 4.879,7.2045 C4.792,6.9838 4.663,6.7821 4.499,6.6108 C4.262,6.3949 3.9907,6.2199 3.6963,6.093 C3.3654,5.9398 3.0063,5.8573 2.6418,5.8508 L2.4185,5.8508 L2.4185,5.6418 C2.8074,5.5953 3.1825,5.4692 3.5205,5.2713 C3.8572,5.0947 4.1383,4.8284 4.3328,4.5018 C4.5058,4.1977 4.5974,3.8541 4.5988,3.5043 C4.6239,3.0761 4.4709,2.6567 4.176,2.3453 C3.8904,2.0411 3.4913,1.869 3.074,1.8703 C2.3111,1.8748 1.6115,2.2956 1.25,2.9675 L1.041,2.8535 C1.2725,2.3043 1.6287,1.8164 2.0813,1.4285 C2.5183,1.0897 3.0635,0.9209 3.6155,0.9535 Z" id="path-13"></path>
        <path d="M5.6397,0.4745 L6.0387,0.4793 L6.0387,0.75 C5.5247,0.7751 5.0188,0.8875 4.5425,1.0825 C4.1149,1.2865 3.7246,1.5611 3.3882,1.8948 C3.012,2.2552 2.6918,2.6698 2.4383,3.125 C2.1611,3.6398 1.9444,4.185 1.7922,4.7495 C2.3717,4.3241 3.0686,4.0885 3.7872,4.075 C4.4295,4.0866 5.034,4.3802 5.4402,4.8778 C5.9135,5.4344 6.1519,6.1531 6.1052,6.8823 C6.0961,7.6548 5.8323,8.4028 5.3547,9.0103 C4.8336,9.752 3.971,10.1779 3.0652,10.1408 C2.4595,10.1449 1.8775,9.9052 1.4502,9.4758 C0.5842,8.6315 0.1267,7.4532 0.1962,6.2458 C0.2087,5.4244 0.3948,4.615 0.7425,3.8708 C1.0973,3.1156 1.6014,2.4402 2.2245,1.8853 C2.744,1.385 3.3619,0.9984 4.039,0.75 C4.5532,0.5685 5.0944,0.4753 5.6397,0.4745 Z M3.127,4.6735 C2.934,4.6757 2.7428,4.7111 2.5617,4.778 C2.2446,4.9022 1.9394,5.0548 1.6497,5.234 L1.6497,5.2293 C1.5684,5.7276 1.5177,6.2305 1.4977,6.735 C1.5016,7.218 1.5752,7.698 1.7162,8.16 C1.844,8.6277 2.0874,9.0556 2.424,9.4045 C2.652,9.625 2.9571,9.7478 3.2742,9.74651022 C3.7003,9.7362 4.0993,9.5358 4.362,9.2003 C4.7128,8.7493 4.8943,8.1895 4.875,7.6185 C4.9095,6.9087 4.7607,6.202 4.4427,5.5665 C4.2183,5.0357 3.7032,4.686 3.127,4.6735 Z" id="path-15"></path>
        <path d="M3.3375,0.559985536 C4.1168,0.6101 4.8242,1.0327 5.2375,1.6953 C5.9855,2.781 6.3392,4.0902 6.2398,5.405 C6.2491,6.3499 6.0732,7.2875 5.722,8.1648 C5.4745,8.8147 5.048,9.3812 4.4918,9.7988 C4.0779,10.1017 3.5796,10.2678 3.0668,10.2738 C2.169,10.2738 1.4375,9.718 0.8628,8.6493 C0.3641,7.6554 0.1332,6.5486 0.193,5.4383 C0.1885,4.494 0.3692,3.558 0.725,2.6833 C0.9967,2.0036 1.4543,1.4143 2.0455,0.9828 C2.4195,0.7065 2.8726,0.5583 3.3375,0.559985536 Z M2.473,1.4198 C2.075,1.9392 1.8299,2.5593 1.7652,3.2105 C1.633,4.0116 1.5584,4.8212 1.542,5.633 C1.4891,6.7057 1.6307,7.779 1.96,8.8013 C2.2118,9.4948 2.5965,9.8415 3.119,9.851 C3.4082,9.8406 3.6843,9.7278 3.898,9.5328 C4.2139,9.2336 4.4324,8.8463 4.525,8.4213 C4.7867,7.3245 4.9143,6.2 4.905,5.0725 C4.9428,4.1703 4.8468,3.2675 4.62,2.3935 C4.5225,1.9631 4.3071,1.5683 3.9977,1.2535 C3.5303,0.8802 2.8491,0.9545 2.473,1.4198 Z" id="path-17"></path>
        <path d="M2.6502,0.6598 C3.8308,0.682 4.7697,1.6571 4.7474,2.8376 C4.7251,4.0181 3.75,4.957 2.5695,4.9348 C1.8058,4.9203 1.1079,4.4996 0.7386,3.831 C0.3692,3.1625 0.3846,2.3477 0.7789,1.6935 C1.1733,1.0394 1.8866,0.6453 2.6502,0.6598 Z M2.636,1.22497776 L2.6502,1.244 C2.241,1.2277 1.8434,1.3826 1.553,1.6715 C0.9452,2.2633 0.9309,3.2354 1.5211,3.8448 C2.1113,4.4542 3.0833,4.4711 3.6943,3.8826 C4.3053,3.2941 4.3248,2.3221 3.738,1.7095 C3.4561,1.3989 3.0555,1.2227 2.636,1.22497776 Z" id="path-19"></path>
        <path d="M3.3698,0.222 C4.0213,0.1912 4.6506,0.4629 5.075,0.9583 C5.3567,1.2861 5.5117,1.704 5.512,2.1363 C5.512,2.8202 5.037,3.5137 4.182,4.2262 C4.7012,4.4152 5.1525,4.7541 5.4787,5.2 C5.7684,5.6402 5.913,6.1602 5.892,6.6867 C5.8955,7.4691 5.6038,8.2239 5.075,8.8005 C4.3087,9.592 3.2279,9.9982 2.13,9.9072 C1.6868,9.9376 1.2436,9.8473 0.8475,9.646 C0.6571,9.5437 0.5306,9.3529 0.5103,9.1377 C0.5142,9.0015 0.5764,8.8734 0.6813,8.7862 C0.7882,8.6877 0.9303,8.6364 1.0755,8.6437 C1.1954,8.6438 1.3143,8.6647 1.427,8.7055 C1.6089,8.7795 1.7852,8.8668 1.9543,8.9667 C2.1357,9.074 2.3265,9.1646 2.5243,9.2375 C2.6998,9.2913 2.8821,9.32 3.0657,9.323 C3.5344,9.3325 3.985,9.1426 4.3055,8.8005 C4.6493,8.4616 4.8456,8.0007 4.8518,7.518 C4.8552,7.1498 4.779,6.7853 4.6285,6.4493 C4.5399,6.2269 4.4093,6.0237 4.2437,5.8507 C4.0042,5.6371 3.7315,5.4638 3.4362,5.3378 C3.1068,5.1849 2.7496,5.1008 2.3865,5.0907 L2.1633,5.0907 L2.1633,4.8865 C2.5525,4.8386 2.9276,4.7108 3.2653,4.5113 C3.6006,4.335 3.8814,4.0706 4.0775,3.7465 C4.2505,3.4424 4.3421,3.0988 4.3435,2.749 C4.3692,2.3208 4.2161,1.9011 3.9207,1.59 C3.6341,1.2872 3.2357,1.1155 2.8188,1.115 C2.0575,1.1305 1.3645,1.5579 1.009,2.2313 L0.8,2.122 C1.0277,1.5718 1.3826,1.0835 1.8355,0.697 C2.2732,0.3594 2.8179,0.1907 3.3698,0.222 Z" id="path-21"></path>
        <path d="M3.756,0.321680257 C4.5334,0.3779 5.2382,0.799 5.656,1.457 C6.4115,2.5524 6.7702,3.8729 6.6725,5.2 C6.678,6.1466 6.5006,7.0853 6.15,7.9645 C5.9027,8.6146 5.4761,9.1812 4.9198,9.5985 C4.5047,9.8992 4.0072,10.0651 3.4947,10.0735 C2.6018,10.0545 1.8671,9.513 1.2908,8.449 C0.7838,7.444 0.548,6.3241 0.6068,5.2 C0.6019,4.2568 0.7843,3.3219 1.1435,2.4497 C1.4104,1.7687 1.867,1.1786 2.4592,0.7492 C2.8336,0.4697 3.2888,0.3197 3.756,0.321680257 Z M3.737,0.796691337 C3.4079,0.798 3.097,0.9482 2.8915,1.2052 C2.4935,1.7247 2.2484,2.3448 2.1838,2.996 C2.0519,3.794 1.9773,4.6004 1.9605,5.409 C1.9056,6.4722 2.0472,7.546 2.3785,8.5677 C2.6255,9.2565 3.0103,9.608 3.5327,9.6175 C3.8224,9.605 4.0982,9.4906 4.3117,9.2945 C4.631,8.9973 4.8515,8.6094 4.9435,8.183 C5.2061,7.0944 5.3337,5.9777 5.3235,4.858 C5.3613,3.9558 5.2653,3.053 5.0385,2.179 C4.9445,1.7483 4.7304,1.353 4.421,1.039 C4.228,0.8813 3.9862,0.7957 3.737,0.796691337 Z" id="path-23"></path>
        <path d="M3.064,0.45 C3.6316,0.4491 4.1739,0.6849 4.5602,1.1008 C4.9571,1.5033 5.1717,2.051 5.154,2.616 C5.153,3.1818 4.9174,3.7219 4.5032,4.1075 C4.1007,4.5044 3.553,4.7189 2.988,4.7013 C2.4248,4.6913 1.8887,4.4579 1.4977,4.0526 C1.1066,3.6473 0.8926,3.1031 0.9027,2.54 C0.9102,1.9756 1.1426,1.4375 1.5484,1.0452 C1.9541,0.6528 2.4997,0.4386 3.064,0.45 Z M3.0545,1.0153 L3.064,1.0295 C2.4407,1.0189 1.8722,1.3842 1.6229,1.9556 C1.3735,2.527 1.4923,3.1922 1.924,3.642 C2.5144,4.253 3.4882,4.27 4.0995,3.68 C4.7137,3.0906 4.735,2.1153 4.147,1.4998 C3.8656,1.194 3.47,1.0186 3.0545,1.0153 Z" id="path-25"></path>
        <path d="M9.4645,0.789197525 C9.6921,0.8128 9.865,1.0046 9.865,1.2334 C9.865,1.4622 9.6921,1.6539 9.4645,1.6775 L9.4645,1.6775 L1.5842,1.6775 L1.5842,9.1968 C1.5842,9.4407 1.3865,9.6385 1.1425,9.6385 C0.8985,9.6385 0.7007,9.4407 0.7007,9.1968 L0.7007,9.1968 L0.7007,1.231 C0.7014,1.1153 0.7475,1.0044 0.829,0.9223 C0.9109,0.8369 1.0242,0.7888 1.1425,0.789197525 L1.1425,0.789197525 L9.4645,0.789197525 Z" id="path-27"></path>
    </defs>
    <g id="Page-1" stroke="none" stroke-width="1" fill="none" fill-rule="evenodd">
        <g id="SHAPES" transform="translate(-237.000000, -6650.000000)">
            <g id="Group-73" transform="translate(237.000000, 6650.000000)">
                <g id="Group-4712">
                    <mask id="mask-2" fill="white">
                        <use xlink:href="#path-1"></use>
                    </mask>
                    <g id="Clip-4711"></g>
                    <polygon id="Fill-4710" fill="#000000" mask="url(#mask-2)" points="-4.5923 -4.2413 90.3481 -4.2413 90.3481 57.0804 -4.5923 57.0804"></polygon>
                </g>
                <g id="Group-4715" transform="translate(29.000000, 11.000000)">
                    <mask id="mask-4" fill="white">
                        <use xlink:href="#path-3"></use>
                    </mask>
                    <g id="Clip-4714"></g>
                    <polygon id="Fill-4713" fill="#000000" mask="url(#mask-4)" points="-4.5072 -4.103 11.625 -4.103 11.625 15.5663 -4.5072 15.5663"></polygon>
                </g>
                <g id="Group-4718" transform="translate(35.000000, 14.000000)">
                    <mask id="mask-6" fill="white">
                        <use xlink:href="#path-5"></use>
                    </mask>
                    <g id="Clip-4717"></g>
                    <polygon id="Fill-4716" fill="#000000" mask="url(#mask-6)" points="-4.2285 -4.0902 12.2896 -4.0902 12.2896 12.5094 -4.2285 12.5094"></polygon>
                </g>
                <g id="Group-4721" transform="translate(87.000000, 24.000000)">
                    <mask id="mask-8" fill="white">
                        <use xlink:href="#path-7"></use>
                    </mask>
                    <g id="Clip-4720"></g>
                    <polygon id="Fill-4719" fill="#000000" mask="url(#mask-8)" points="-4.1865 -4.2038 12.5786 -4.2038 12.5786 12.2325 -4.1865 12.2325"></polygon>
                </g>
                <g id="Group-4724" transform="translate(36.000000, 61.000000)">
                    <mask id="mask-10" fill="white">
                        <use xlink:href="#path-9"></use>
                    </mask>
                    <g id="Clip-4723"></g>
                    <polygon id="Fill-4722" fill="#000000" mask="url(#mask-10)" points="-4.4929 -4.0445 12.2609 -4.0445 12.2609 12.4155 -4.4929 12.4155"></polygon>
                </g>
                <g id="Group-4727" transform="translate(44.000000, 56.000000)">
                    <mask id="mask-12" fill="white">
                        <use xlink:href="#path-11"></use>
                    </mask>
                    <g id="Clip-4726"></g>
                    <polygon id="Fill-4725" fill="#000000" mask="url(#mask-12)" points="-4.35 -4.3977 15.2972 -4.3977 15.2972 17.3537 -4.35 17.3537"></polygon>
                </g>
                <g id="Group-4730" transform="translate(51.000000, 58.000000)">
                    <mask id="mask-14" fill="white">
                        <use xlink:href="#path-13"></use>
                    </mask>
                    <g id="Clip-4729"></g>
                    <polygon id="Fill-4728" fill="#000000" mask="url(#mask-14)" points="-4.2345 -4.0505 11.1444 -4.0505 11.1444 15.6759 -4.2345 15.6759"></polygon>
                </g>
                <g id="Group-4733" transform="translate(64.000000, 14.000000)">
                    <mask id="mask-16" fill="white">
                        <use xlink:href="#path-15"></use>
                    </mask>
                    <g id="Clip-4732"></g>
                    <polygon id="Fill-4731" fill="#000000" mask="url(#mask-16)" points="-4.8107 -4.5255 11.111 -4.5255 11.111 15.143 -4.8107 15.143"></polygon>
                </g>
                <g id="Group-4736" transform="translate(71.000000, 14.000000)">
                    <mask id="mask-18" fill="white">
                        <use xlink:href="#path-17"></use>
                    </mask>
                    <g id="Clip-4735"></g>
                    <polygon id="Fill-4734" fill="#000000" mask="url(#mask-18)" points="-4.8162 -4.44 11.2562 -4.44 11.2562 15.2738 -4.8162 15.2738"></polygon>
                </g>
                <g id="Group-4739" transform="translate(78.000000, 14.000000)">
                    <mask id="mask-20" fill="white">
                        <use xlink:href="#path-19"></use>
                    </mask>
                    <g id="Clip-4738"></g>
                    <polygon id="Fill-4737" fill="#000000" mask="url(#mask-20)" points="-4.528 -4.3406 9.7478 -4.3406 9.7478 9.9351 -4.528 9.9351"></polygon>
                </g>
                <g id="Group-4742" transform="translate(22.000000, 39.000000)">
                    <mask id="mask-22" fill="white">
                        <use xlink:href="#path-21"></use>
                    </mask>
                    <g id="Clip-4741"></g>
                    <polygon id="Fill-4740" fill="#000000" mask="url(#mask-22)" points="-4.4897 -4.7817 10.894 -4.7817 10.894 14.9198 -4.4897 14.9198"></polygon>
                </g>
                <g id="Group-4745" transform="translate(29.000000, 39.000000)">
                    <mask id="mask-24" fill="white">
                        <use xlink:href="#path-23"></use>
                    </mask>
                    <g id="Clip-4744"></g>
                    <polygon id="Fill-4743" fill="#000000" mask="url(#mask-24)" points="-4.4021 -4.6783 11.6882 -4.6783 11.6882 15.0735 -4.4021 15.0735"></polygon>
                </g>
                <g id="Group-4748" transform="translate(36.000000, 39.000000)">
                    <mask id="mask-26" fill="white">
                        <use xlink:href="#path-25"></use>
                    </mask>
                    <g id="Clip-4747"></g>
                    <polygon id="Fill-4746" fill="#000000" mask="url(#mask-26)" points="-4.0976 -4.5504 10.155 -4.5504 10.155 9.7023 -4.0976 9.7023"></polygon>
                </g>
                <g id="Group-4751" transform="translate(75.000000, 42.000000)">
                    <mask id="mask-28" fill="white">
                        <use xlink:href="#path-27"></use>
                    </mask>
                    <g id="Clip-4750"></g>
                    <polygon id="Fill-4749" fill="#000000" mask="url(#mask-28)" points="-4.2993 -4.2108 14.865 -4.2108 14.865 14.6385 -4.2993 14.6385"></polygon>
                </g>
            </g>
        </g>
    </g>
</svg>