<?xml version="1.0" encoding="UTF-8"?>
<svg width="91px" height="59px" viewBox="-10 -10 111 79" version="1.1" xmlns="http://www.w3.org/2000/svg" xmlns:xlink="http://www.w3.org/1999/xlink">
    <title>AFB35F43-3076-4EDC-B1EB-AA1CE4AAB83A</title>
    <defs>
        <path d="M5.395,0.135 C5.726,0.1232 6.0481,0.2437 6.29,0.47 C6.5153,0.6826 6.6406,0.9803 6.635,1.29 C6.6219,1.7783 6.4459,2.2482 6.135,2.625 C5.3204,3.5871 4.3584,4.414 3.285,5.075 L2.425,8.025 C2.337,8.2816 2.2849,8.5491 2.27,8.82 C2.2543,9.0882 2.344,9.352 2.52,9.555 C2.6814,9.7308 2.9114,9.8276 3.15,9.82 C3.5011,9.7947 3.8345,9.6561 4.1,9.425 C4.532,9.0501 4.8825,8.5907 5.13,8.075 L5.395,8.17 C5.1005,8.8235 4.659,9.4001 4.105,9.855 C3.7199,10.1615 3.2468,10.3367 2.755,10.355 C2.3545,10.3695 1.9664,10.2153 1.685,9.93 C1.3925,9.6129 1.241,9.1908 1.265,8.76 C1.2698,8.4419 1.3238,8.1266 1.425,7.825 L1.925,6.07 L0.595,7 L0.435,6.735 L2.09,5.605 L2.77,3.225 C2.9733,2.3858 3.3385,1.5943 3.845,0.895 C4.2117,0.4099 4.787,0.1279 5.395,0.135 Z M5.53,0.69 C5.2613,0.6937 5.0054,0.8055 4.82,1 C4.4661,1.411 4.2174,1.9017 4.095,2.43 L3.435,4.625 C4.2555,4.0747 5.0016,3.421 5.655,2.68 C5.9774,2.3147 6.1737,1.8554 6.215,1.37 C6.224,1.1851 6.1572,1.0045 6.03,0.87 C5.8921,0.7489 5.7134,0.6846 5.53,0.69 Z" id="path-1"></path>
        <path d="M6.66,0.845 L6.905,0.855 L7.405,6.295 C8.1517,5.4304 8.8209,4.5018 9.405,3.52 C9.6335,3.1898 9.784,2.8119 9.845,2.415 C9.8463,2.3172 9.8222,2.2207 9.775,2.135 C9.7134,2.0541 9.6349,1.9875 9.545,1.94 C9.4329,1.876 9.3371,1.787 9.265,1.68 C9.2143,1.5934 9.1868,1.4953 9.185,1.395 C9.1837,1.2496 9.2458,1.1109 9.355,1.015 C9.4696,0.9071 9.6227,0.8495 9.78,0.855 C9.9714,0.8539 10.1538,0.936 10.28,1.08 C10.4216,1.243 10.495,1.4543 10.485,1.67 C10.4879,1.9079 10.4507,2.1445 10.375,2.37 C10.1625,2.9428 9.8858,3.4896 9.55,4 C9.0592,4.758 8.5302,5.4906 7.965,6.195 C7.42,6.87 7.015,7.34 6.75,7.61 L6.5,7.61 L6.025,2.61 L3.025,7.61 L2.705,7.61 C2.6993,5.9768 2.5941,4.3454 2.39,2.725 C2.3807,2.3616 2.2544,2.0109 2.03,1.725 C1.8736,1.6034 1.6775,1.5446 1.48,1.56 C1.2992,1.5632 1.1188,1.5783 0.94,1.605 L0.94,1.345 L3.025,0.845 C3.3785,2.0542 3.5685,3.3053 3.59,4.565 C3.615,5.2 3.64,5.6 3.66,5.76 L6.66,0.845 Z" id="path-3"></path>
        <path d="M4.175,0.915 L2.14,7.95 C2.7236,6.9971 3.4129,6.1131 4.195,5.315 C4.5712,4.9316 5.0743,4.6987 5.61,4.66 C5.8285,4.6546 6.0392,4.7418 6.19,4.9 C6.3498,5.0736 6.4328,5.3044 6.42,5.54 C6.4081,5.9341 6.3407,6.3246 6.22,6.7 L5.335,9.735 C5.2677,9.9348 5.2126,10.1385 5.17,10.345 C5.1684,10.4056 5.1899,10.4646 5.23,10.51 C5.2641,10.5522 5.3158,10.5762 5.37,10.575 C5.4517,10.5682 5.529,10.5349 5.59,10.48 C5.9045,10.2261 6.1807,9.928 6.41,9.595 L6.63,9.735 C6.4294,10.038 6.2,10.321 5.945,10.58 C5.7271,10.8269 5.4744,11.0408 5.195,11.215 C5.0252,11.3225 4.8307,11.3845 4.63,11.395 C4.4675,11.4024 4.3094,11.3407 4.195,11.225 C4.0796,11.1084 4.018,10.9489 4.025,10.785 C4.061,10.3799 4.145,9.9804 4.275,9.595 L5.11,6.7 C5.2007,6.4216 5.2545,6.1324 5.27,5.84 C5.2732,5.7542 5.2406,5.6709 5.18,5.61 C5.1167,5.5505 5.0317,5.5197 4.945,5.525 C4.7665,5.5295 4.593,5.585 4.445,5.685 C4.0036,5.9943 3.6181,6.3764 3.305,6.815 C3.282,6.845 3.2482,6.893 3.20356,6.95908 L3.09981481,7.11537037 C2.90277778,7.41611111 2.585,7.91833333 2.145,8.625 C1.9385,8.9757 1.7708,9.3479 1.645,9.735 L1.185,11.235 L0.095,11.235 L2.5,2.93 L2.755,2.03 C2.7518,1.9017 2.6957,1.7805 2.6,1.695 C2.4962,1.6003 2.3605,1.5485 2.22,1.55 C2.0857,1.5546 1.952,1.5696 1.82,1.595 L1.665,1.595 L1.665,1.315 L4.175,0.915 Z" id="path-5"></path>
        <path d="M57.895,0.574987073 C58.1412,0.5737 58.3778,0.6705 58.5523,0.8442 C58.7269,1.0178 58.825,1.2538 58.825,1.5 L58.825,30.265 C58.8141,30.77 58.4001,31.1728 57.895,31.1700145 L1.295,31.1700145 C0.7841,31.1700145 0.37,30.7559 0.37,30.245 L0.37,1.5 C0.37,0.9891 0.7841,0.574987073 1.295,0.574987073 L57.895,0.574987073 Z M56.97,2.41 L2.225,2.41 L2.225,29.315 L56.97,29.315 L56.97,2.41 Z" id="path-7"></path>
        <path d="M80.17,0.634999013 C80.5839,0.6344 80.9483,0.9074 81.0642,1.3047 C81.18,1.702 81.0193,2.1281 80.67,2.35 L58.39,16.265 C58.2426,16.3603 58.0706,16.4107096 57.895,16.41 C57.4811,16.4107096 57.1167,16.1376 57.0008,15.7403 C56.885,15.343 57.0457,14.9169 57.395,14.695 L76.93,2.5 L23.83,2.5 L1.79,16.265 C1.5095,16.4436 1.1551,16.4591 0.8602,16.3055 C0.5652,16.1519 0.3746,15.8527 0.3602,15.5205 C0.3457,15.1883 0.5095,14.8736 0.79,14.695 L23.07,0.775 C23.2206,0.6833 23.3936,0.634999013 23.57,0.634999013 L80.17,0.634999013 Z" id="path-9"></path>
        <path d="M24.165,0.63 C24.6786,0.63 25.095,1.0464 25.095,1.56 L25.095,28.47 C25.0931,28.7721 24.9461,29.0549 24.7,29.23 L2.43,45 C2.2737,45.111 2.0867,45.1705 1.895,45.1700051 C1.5948,45.171 1.313,45.0254 1.14,44.78 C0.8438,44.3615 0.9422,43.7822 1.36,43.485 L23.235,27.985 L23.235,1.56 C23.235,1.0464 23.6514,0.63 24.165,0.63 Z" id="path-11"></path>
    </defs>
    <g id="Page-1" stroke="none" stroke-width="1" fill="none" fill-rule="evenodd">
        <g id="SHAPES" transform="translate(-109.000000, -6834.000000)">
            <g id="Group-77" transform="translate(109.000000, 6834.000000)">
                <g id="Group-4644" transform="translate(27.000000, 48.000000)">
                    <mask id="mask-2" fill="white">
                        <use xlink:href="#path-1"></use>
                    </mask>
                    <g id="Clip-4643"></g>
                    <polygon id="Fill-4642" fill="#000000" mask="url(#mask-2)" points="-4.565 -4.8658 11.6352 -4.8658 11.6352 15.3559 -4.565 15.3559"></polygon>
                </g>
                <g id="Group-4647" transform="translate(72.000000, 35.000000)">
                    <mask id="mask-4" fill="white">
                        <use xlink:href="#path-3"></use>
                    </mask>
                    <g id="Clip-4646"></g>
                    <polygon id="Fill-4645" fill="#000000" mask="url(#mask-4)" points="-4.06 -4.155 15.4859 -4.155 15.4859 12.61 -4.06 12.61"></polygon>
                </g>
                <g id="Group-4650" transform="translate(84.000000, 8.000000)">
                    <mask id="mask-6" fill="white">
                        <use xlink:href="#path-5"></use>
                    </mask>
                    <g id="Clip-4649"></g>
                    <polygon id="Fill-4648" fill="#000000" mask="url(#mask-6)" points="-4.905 -4.085 11.63 -4.085 11.63 16.3956 -4.905 16.3956"></polygon>
                </g>
                <g id="Group-4653" transform="translate(0.000000, 14.000000)">
                    <mask id="mask-8" fill="white">
                        <use xlink:href="#path-7"></use>
                    </mask>
                    <g id="Clip-4652"></g>
                    <polygon id="Fill-4651" fill="#000000" mask="url(#mask-8)" points="-4.63 -4.425 63.825 -4.425 63.825 36.17 -4.63 36.17"></polygon>
                </g>
                <g id="Group-4656">
                    <mask id="mask-10" fill="white">
                        <use xlink:href="#path-9"></use>
                    </mask>
                    <g id="Clip-4655"></g>
                    <polygon id="Fill-4654" fill="#000000" mask="url(#mask-10)" points="-4.6407 -4.365 86.1014 -4.365 86.1014 21.4107 -4.6407 21.4107"></polygon>
                </g>
                <g id="Group-4659" transform="translate(56.000000, 0.000000)">
                    <mask id="mask-12" fill="white">
                        <use xlink:href="#path-11"></use>
                    </mask>
                    <g id="Clip-4658"></g>
                    <polygon id="Fill-4657" fill="#000000" mask="url(#mask-12)" points="-4.0309 -4.37 30.095 -4.37 30.095 50.17 -4.0309 50.17"></polygon>
                </g>
            </g>
        </g>
    </g>
</svg>