<?xml version="1.0" encoding="UTF-8"?>
<svg width="75px" height="57px" viewBox="-10 -10 95 77" version="1.1" xmlns="http://www.w3.org/2000/svg" xmlns:xlink="http://www.w3.org/1999/xlink">
    <title>168111A2-6BCD-4751-A6AF-AC225D130742</title>
    <defs>
        <path d="M4.5,0.695 L2.45,7.775 C3.0363,6.8138 3.7308,5.923 4.52,5.12 C4.8979,4.7332 5.4054,4.4999 5.945,4.465 C6.1635,4.4596 6.3742,4.5468 6.525,4.705 C6.6857,4.8784 6.7703,5.1088 6.76,5.345 C6.7465,5.741 6.6775,6.1332 6.555,6.51 L5.665,9.565 C5.598,9.7666 5.5429,9.972 5.5,10.18 C5.4974,10.2408 5.519,10.3001 5.56,10.345 C5.5961,10.3874 5.6493,10.4113 5.705,10.41 C5.7853,10.4033 5.861,10.3698 5.92,10.315 C6.2375,10.0627 6.5156,9.7644 6.745,9.43 L6.97,9.565 C6.7677,9.8697 6.5366,10.1543 6.28,10.415 C6.0618,10.6649 5.8073,10.8807 5.525,11.055 C5.3552,11.1625 5.1607,11.2245 4.96,11.235 C4.796,11.2426 4.6363,11.1809 4.52,11.065 C4.4033,10.9489 4.3399,10.7896 4.345,10.625 C4.383,10.2181 4.4686,9.817 4.6,9.43 L5.44,6.51 C5.5311,6.2317 5.5849,5.9425 5.6,5.65 C5.6044,5.564 5.5716,5.4802 5.51,5.42 C5.4457,5.3584 5.359,5.3259 5.27,5.33 C5.0921,5.3379 4.9194,5.3931 4.77,5.49 C4.3282,5.8044 3.9413,6.1896 3.625,6.63 C3.51,6.78 3.125,7.385 2.46,8.45 C2.2535,8.8025 2.0859,9.1764 1.96,9.565 L1.495,11.065 L0.4,11.065 L2.8,2.725 L3.055,1.82 C3.0536,1.6913 2.9972,1.5694 2.9,1.485 C2.7947,1.3896 2.6571,1.3377 2.515,1.34 C2.3807,1.3451 2.247,1.3602 2.115,1.385 L1.96,1.385 L1.96,1.1 L4.5,0.695 Z" id="path-1"></path>
        <path d="M5.28,0.865 C5.4207,0.856 5.5587,0.9068 5.66,1.005 C5.7583,1.1182 5.8086,1.2653 5.8,1.415 C5.7994,1.7384 5.7132,2.0558 5.55,2.335 C5.4642,2.535 5.2676,2.6647 5.05,2.665 C4.9429,2.6662 4.8394,2.6269 4.76,2.555 C4.6724,2.4643 4.6194,2.3458 4.61,2.22 C4.6113,2.1525 4.5883,2.0868 4.545,2.035 C4.507,1.9996 4.4569,1.9799 4.405,1.98 C4.325,1.9797 4.2462,1.9985 4.175,2.035 C3.9531,2.1935 3.7574,2.3859 3.595,2.605 C3.1158,3.1904 2.6781,3.8086 2.285,4.455 C2.0704,4.7979 1.8944,5.1635 1.76,5.545 C1.555,6.095 1.44,6.43 1.41,6.545 L1.175,7.465 L0.06,7.465 L1.41,2.94 C1.5344,2.5761 1.6133,2.1982 1.645,1.815 C1.6435,1.7288 1.6031,1.6479 1.535,1.595 C1.423,1.515 1.2875,1.4745 1.15,1.48 C0.9604,1.4884 0.7716,1.5101 0.585,1.545 L0.555,1.275 L3.055,0.87 L2,4.41 C2.6024,3.2754 3.386,2.2469 4.32,1.365 C4.5774,1.0988 4.9143,0.9233 5.28,0.865 Z" id="path-3"></path>
        <path d="M33.17,0.5 C38.6009,0.4706 44.0227,0.9476 49.365,1.925 C54.145,2.845 58.19,4.15 61.145,5.77 C63.11,6.85 64.615,8.065 65.5,9.5 C66.0045,10.3014 66.2747,11.228 66.28,12.175 L66.28,12.17 L66.29,12.17 C66.27902,13.01555 66.056387,13.843442 65.6443355,14.5785161 L65.5,14.82 C64.9389,15.6826 64.2317,16.4406 63.41,17.06 C61.65,18.445 59.23,19.625 56.23,20.625 C50.27,22.605 42.145,23.815 33.17,23.815 C27.7369,23.8423 22.3131,23.3602 16.97,22.375 C12.19,21.455 8.14,20.15 5.19,18.535 C3.225,17.45 1.72,16.235 0.835,14.8 C-0.2182,13.1903 -0.2182,11.1097 0.835,9.5 C1.3971,8.6352 2.1061,7.8755 2.93,7.255 C4.69,5.87 7.11,4.69 10.11,3.69 C16.07,1.71 24.17,0.5 33.17,0.5 Z M33.185,2.375 C27.8693,2.3451 22.5626,2.8155 17.335,3.78 C12.685,4.665 8.795,5.925 6.1,7.425 C4.305,8.405 3.055,9.495 2.44,10.495 C1.7585,11.5077 1.7585,12.8323 2.44,13.845 C2.8861,14.5271 3.4478,15.1261 4.1,15.615 C5.6,16.8 7.87,17.925 10.715,18.875 C16.41,20.775 24.38,21.97 33.185,21.97 C38.5005,21.9949 43.8068,21.5245 49.035,20.565 C53.685,19.675 57.575,18.415 60.27,16.915 C62.065,15.935 63.315,14.845 63.93,13.845 C64.2513,13.345 64.4247,12.7643 64.43,12.17 L64.43,12.175 L64.415,12.175 C64.4103625,11.6549875 64.2770234,11.1453875 64.0285152,10.6911518 L63.915,10.5 C63.4728,9.8181 62.9163,9.2177 62.27,8.725 C60.77,7.54 58.5,6.415 55.655,5.47 C49.96,3.57 41.99,2.375 33.185,2.375 Z" id="path-5"></path>
        <path d="M1.96,0.705 L1.96,34.147 L1.975625,34.19375 C1.9821875,34.21375 1.98953125,34.2359375 1.99773438,34.2603125 L2.025,34.34 C2.1554,34.6903 2.323,35.0255 2.525,35.34 C3.443,36.6636 4.6371,37.7725 6.025,38.59 C9.89,41.04 17.415,43.59 31.77,43.59 L31.77,43.59 L34.57,43.59 C48.255,43.595 55.745,41.28 59.755,38.94 C63.3093182,36.8659091 64.1924587,34.8389566 64.3960201,34.2518689 L64.4222443,34.1730954 L64.4222443,34.1730954 L64.43,34.146 L64.43,0.705 L66.28,0.705 L66.28,34.47 C66.255,34.675 65.61,37.53 61.31,40.225 C57.01,42.92 49.14,45.5 34.57,45.5 L34.57,45.5 L31.77,45.5 C17.2,45.5 9.32,42.915 5.015,40.22 C0.71,37.525 0.07,34.67 0.045,34.465 L0.045,34.465 L0.045,0.705 L1.96,0.705 Z" id="path-7"></path>
        <path d="M3.7,0.84 C5.2444,0.84 6.4972,2.0906 6.50000439,3.635 C6.502,4.7679 5.8211,5.7905 4.775,6.2254 C3.7289,6.6604 2.5237,6.4221 1.7219,5.6217 C0.92,4.8213 0.6796,3.6165 1.1127,2.5696 C1.5458,1.5227 2.5671,0.84 3.7,0.84 Z" id="path-9"></path>
        <polygon id="path-11" points="17.16 0.755 1.12 10.435 0.155 8.84"></polygon>
    </defs>
    <g id="Page-1" stroke="none" stroke-width="1" fill="none" fill-rule="evenodd">
        <g id="SHAPES" transform="translate(-247.000000, -6835.000000)">
            <g id="Group-76" transform="translate(247.000000, 6835.000000)">
                <g id="Group-4906" transform="translate(68.000000, 24.000000)">
                    <mask id="mask-2" fill="white">
                        <use xlink:href="#path-1"></use>
                    </mask>
                    <g id="Clip-4905"></g>
                    <polygon id="Fill-4904" fill="#000000" mask="url(#mask-2)" points="-4.6 -4.305 11.97 -4.305 11.97 16.2356 -4.6 16.2356"></polygon>
                </g>
                <g id="Group-4909" transform="translate(45.000000, 8.000000)">
                    <mask id="mask-4" fill="white">
                        <use xlink:href="#path-3"></use>
                    </mask>
                    <g id="Clip-4908"></g>
                    <polygon id="Fill-4907" fill="#000000" mask="url(#mask-4)" points="-4.94 -4.136 10.8009 -4.136 10.8009 12.465 -4.94 12.465"></polygon>
                </g>
                <g id="Group-4912">
                    <mask id="mask-6" fill="white">
                        <use xlink:href="#path-5"></use>
                    </mask>
                    <g id="Clip-4911"></g>
                    <polygon id="Fill-4910" fill="#000000" mask="url(#mask-6)" points="-4.9549 -4.5013 71.29 -4.5013 71.29 28.8161 -4.9549 28.8161"></polygon>
                </g>
                <g id="Group-4915" transform="translate(0.000000, 11.000000)">
                    <mask id="mask-8" fill="white">
                        <use xlink:href="#path-7"></use>
                    </mask>
                    <g id="Clip-4914"></g>
                    <polygon id="Fill-4913" fill="#000000" mask="url(#mask-8)" points="-4.955 -4.295 71.28 -4.295 71.28 50.5 -4.955 50.5"></polygon>
                </g>
                <g id="Group-4918" transform="translate(29.000000, 9.000000)">
                    <mask id="mask-10" fill="white">
                        <use xlink:href="#path-9"></use>
                    </mask>
                    <g id="Clip-4917"></g>
                    <polygon id="Fill-4916" fill="#000000" mask="url(#mask-10)" points="-4.1001 -4.16 11.5 -4.16 11.5 11.4401 -4.1001 11.4401"></polygon>
                </g>
                <g id="Group-4921" transform="translate(33.000000, 3.000000)">
                    <mask id="mask-12" fill="white">
                        <use xlink:href="#path-11"></use>
                    </mask>
                    <g id="Clip-4920"></g>
                    <polygon id="Fill-4919" fill="#000000" mask="url(#mask-12)" points="-4.845 -5.845 22.16 -5.845 22.16 15.435 -4.845 15.435"></polygon>
                </g>
            </g>
        </g>
    </g>
</svg>