<?xml version="1.0" encoding="UTF-8"?>
<svg width="65px" height="81px" viewBox="-10 -10 85 101" version="1.1" xmlns="http://www.w3.org/2000/svg" xmlns:xlink="http://www.w3.org/1999/xlink">
    <title>597839BF-E104-4BCC-BC04-ABB4BFFBB7F0</title>
    <defs>
        <path d="M4.675,0.47 L2.63,7.55 C3.2177,6.5898 3.9121,5.6991 4.7,4.895 C5.078,4.5113 5.5828,4.2784 6.12,4.24 C6.3401,4.2338 6.5526,4.321 6.705,4.48 C6.8643,4.6539 6.9472,4.8845 6.935,5.12 C6.9232,5.5174 6.8559,5.9112 6.735,6.29 L5.845,9.345 C5.7748,9.5443 5.718,9.7481 5.675,9.955 C5.6718,10.0183 5.6954,10.08 5.74,10.125 C5.7757,10.165 5.8264,10.1885 5.88,10.19 C5.9612,10.1809 6.0378,10.1479 6.1,10.095 C6.4146,9.8392 6.6908,9.5395 6.92,9.205 L7.15,9.345 C6.9475,9.648 6.7164,9.931 6.46,10.19 C6.2387,10.4402 5.9828,10.6574 5.7,10.835 C5.529,10.939 5.3349,10.9991 5.135,11.01 C4.9711,11.0172 4.8118,10.9552 4.6958,10.8392 C4.5798,10.7232 4.5178,10.5639 4.525,10.4 C4.563,9.9931 4.6486,9.592 4.78,9.205 L5.62,6.29 C5.7103,6.0115 5.7641,5.7224 5.78,5.43 C5.7846,5.3415 5.7498,5.2555 5.685,5.195 C5.6222,5.1342 5.5373,5.1016 5.45,5.105 C5.2721,5.1129 5.0994,5.1681 4.95,5.265 C4.507,5.578 4.1199,5.9634 3.805,6.405 C3.69,6.555 3.305,7.165 2.64,8.225 C2.4315,8.5782 2.2638,8.954 2.14,9.345 L1.675,10.845 L0.58,10.845 L3,2.5 L3.255,1.6 C3.2537,1.4702 3.1951,1.3476 3.095,1.265 C2.9935,1.1662 2.8566,1.1122 2.715,1.115 C2.5807,1.1196 2.447,1.1346 2.315,1.16 L2.16,1.16 L2.16,0.875 L4.675,0.47 Z" id="path-1"></path>
        <path d="M5.23,0.695 C5.3715,0.6873 5.5096,0.74 5.61,0.84 C5.707,0.9537 5.7555,1.1009 5.745,1.25 C5.745,1.5728 5.6605,1.89 5.5,2.17 C5.4116,2.3671 5.216,2.4943 5,2.495 C4.8942,2.4975 4.7917,2.4579 4.715,2.385 C4.6243,2.2964 4.5707,2.1766 4.565,2.05 C4.5629,1.9846 4.5401,1.9216 4.5,1.87 C4.4637,1.8314 4.413,1.8096 4.36,1.81 C4.2779,1.8104 4.1972,1.831 4.125,1.87 C3.9049,2.029 3.7109,2.2213 3.55,2.44 C3.068,3.0233 2.6301,3.6417 2.24,4.29 C2.0342,4.6323 1.8665,4.9961 1.74,5.375 C1.535,5.93 1.42,6.265 1.39,6.375 L1.155,7.295 L0,7.295 L1.35,2.765 C1.4728,2.4027 1.5501,2.0264 1.58,1.645 C1.5812,1.5593 1.5424,1.478 1.475,1.425 C1.3622,1.3428 1.2244,1.3022 1.085,1.31 C0.897,1.3185 0.7099,1.3402 0.525,1.375 L0.5,1.11 L3,0.7 L1.95,4.245 C2.5511,3.1095 3.333,2.0793 4.265,1.195 C4.5235,0.9275 4.8624,0.7519 5.23,0.695 Z" id="path-3"></path>
        <path d="M0.5,0.06 L1.365,0.395 C1.1605,0.923 1.0538,1.4838 1.05,2.05 L1.05,2.05 L0.125,2.06 C0.1267,1.376 0.2538,0.6981 0.5,0.06 L0.5,0.06 Z" id="path-5"></path>
        <path d="M3.605,5.96 L4.075,6.765 C3.0827,7.3258 2.1569,7.9967 1.315,8.765 L1.315,8.765 L1.315,8.78 L0.675,8.1 C1.5681,7.2787 2.551,6.5609 3.605,5.96 L3.605,5.96 Z M55.405,5.875 C56.4578,6.4759 57.4405,7.192 58.335,8.01 L58.335,8.01 L57.7,8.69 C56.8542,7.9243 55.927,7.2537 54.935,6.69 L54.935,6.69 L54.935,6.68 L55.405,5.875 Z M10.195,3.145 L10.47,4.035 C9.305,4.395 8.19,4.795 7.19,5.215 L7.19,5.215 L6.83,4.355 C7.875,3.92 9,3.515 10.195,3.145 L10.195,3.145 Z M48.815,3.11 C50.005,3.48 51.13,3.885 52.18,4.32 L52.18,4.32 L51.82,5.185 C50.8,4.7583 49.705,4.3633 48.535,4 L48.535,4 L48.815,3.11 Z M17.125,1.51 L17.285,2.43 C16.095,2.63 14.95,2.86 13.85,3.12 L13.85,3.12 L13.84,3.12 L13.625,2.21 C14.755,1.95 15.925,1.715 17.125,1.51 L17.125,1.51 Z M41.87,1.48 C43.0833,1.6867 44.25,1.92 45.37,2.18 L45.37,2.18 L45.16,3.09 C44.055,2.835 42.91,2.6 41.72,2.4 L41.72,2.4 L41.71,2.4 L41.87,1.48 Z M24.19,0.68 L24.255,1.61 C23.065,1.69 21.895,1.8 20.755,1.93 L20.755,1.93 L20.65,1.005 C21.8067,0.8683 22.9867,0.76 24.19,0.68 L24.19,0.68 Z M34.82,0.65 C36.0233,0.7367 37.2033,0.845 38.36,0.975 L38.36,0.975 L38.255,1.905 C37.1117,1.7717 35.945,1.665 34.755,1.585 L34.755,1.585 L34.82,0.65 Z M31.27,0.5 L31.27,1.43 L31.27,1.43 L27.755,1.43 L27.715,0.5 L27.715,0.5 L31.27,0.5 Z" id="path-7"></path>
        <path d="M1.505,0.05 C1.7512,0.6881 1.8783,1.366 1.88,2.05 L1.88,2.05 L0.95,2.05 C0.9462,1.4838 0.8395,0.923 0.635,0.395 L0.635,0.395 L0.635,0.385 L1.505,0.05 Z" id="path-9"></path>
        <path d="M32.5,0.8852 C32.8613,0.8852 33.1903,1.0934 33.345,1.42 L33.345,1.42 L64.26,66.65 L63.415,67.05 L64.265,66.65 C64.3032,66.7338 64.3295333,66.8222667 64.3434667,66.9128519 L64.355,67.05 C64.3456,68.0552 64.0934,69.0432 63.62,69.93 C63.1017,70.8807 62.4253,71.7362 61.62,72.46 C59.5781,74.2162 57.2331,75.5852 54.7,76.5 C48.96,78.75 41.135,80.115 32.5,80.115 C27.2577,80.1437 22.0281,79.5971 16.905,78.485 C12.3,77.445 8.4,75.96 5.555,74.125 C3.66,72.9 2.215,71.515 1.385,69.93 C0.9116,69.0432 0.6594,68.0552 0.65,67.05 C0.6521,66.9119 0.6827,66.7757 0.74,66.65 L0.74,66.65 L31.655,1.42 C31.8097,1.0934 32.1387,0.8852 32.5,0.8852 Z M32.5,4 L2.564,67.173 L2.56873672,67.3158609 C2.60197578,67.8360984 2.72946172,68.3460422 2.94495078,68.8207172 L3.06,69.055 C3.4777,69.8166 4.0222,70.5014 4.67,71.08 C6.5396,72.6776 8.6847,73.9212 11,74.75 C16.425,76.9 24.065,78.25 32.5,78.25 C37.6248,78.2788 42.7372,77.744 47.745,76.655 C52.2,75.65 55.92,74.215 58.5,72.55 C60.19,71.435 61.39,70.23 62,69.05 C62.3262,68.4337 62.4978,67.7473 62.5,67.05 L62.492,67.285 L32.5,4 Z M2.56,67.055 L1.585,67.055 L2.43,67.455 L2.564,67.173 L2.56,67.055 L2.56,67.055 Z M63.415,67.05 L62.5,67.05 L62.492,67.285 L62.57,67.45 L63.415,67.05 Z" id="path-11"></path>
        <path d="M1.6225,0.9483 C2.1124,0.9483 2.5192,1.3264 2.555,1.815 L2.555,1.815 L2.555,67.135 L32.415,67.135 C32.7644,67.1094 33.0989,67.2813 33.2814,67.5804 C33.464,67.8795 33.464,68.2555 33.2814,68.5546 C33.0989,68.8537 32.7644,69.0256 32.415,69 L32.415,69 L1.62,69 C1.373,69.0007 1.1357,68.9037 0.96,68.73 C0.7882,68.5531 0.6914,68.3166 0.69,68.07 L0.69,68.07 L0.69,1.815 C0.7258,1.3264 1.1326,0.9483 1.6225,0.9483 Z" id="path-13"></path>
        <path d="M9.13,0.205 C9.2535,0.205 9.372,0.2534 9.46,0.34 C9.544,0.4297 9.5921,0.5471 9.595,0.67 L9.595,0.67 L9.595,9.07 C9.595,9.3268 9.3868,9.535 9.13,9.535 C8.8732,9.535 8.665,9.3268 8.665,9.07 L8.665,9.07 L8.665,1.135 L0.5,1.135 C0.2432,1.135 0.035,0.9268 0.035,0.67 C0.035,0.4132 0.2432,0.205 0.5,0.205 L0.5,0.205 L9.13,0.205 Z" id="path-15"></path>
    </defs>
    <g id="Page-1" stroke="none" stroke-width="1" fill="none" fill-rule="evenodd">
        <g id="SHAPES" transform="translate(-122.000000, -7002.000000)">
            <g id="Group-79" transform="translate(122.000000, 7002.000000)">
                <g id="Group-4831" transform="translate(36.000000, 33.000000)">
                    <mask id="mask-2" fill="white">
                        <use xlink:href="#path-1"></use>
                    </mask>
                    <g id="Clip-4830"></g>
                    <polygon id="Fill-4829" fill="#000000" mask="url(#mask-2)" points="-4.42 -4.53 12.15 -4.53 12.15 16.0106 -4.42 16.0106"></polygon>
                </g>
                <g id="Group-4834" transform="translate(45.000000, 58.000000)">
                    <mask id="mask-4" fill="white">
                        <use xlink:href="#path-3"></use>
                    </mask>
                    <g id="Clip-4833"></g>
                    <polygon id="Fill-4832" fill="#000000" mask="url(#mask-4)" points="-5 -4.3057 10.7464 -4.3057 10.7464 12.295 -5 12.295"></polygon>
                </g>
                <g id="Group-4837" transform="translate(1.000000, 65.000000)">
                    <mask id="mask-6" fill="white">
                        <use xlink:href="#path-5"></use>
                    </mask>
                    <g id="Clip-4836"></g>
                    <polygon id="Fill-4835" fill="#000000" mask="url(#mask-6)" points="-4.875 -4.94 6.365 -4.94 6.365 7.06 -4.875 7.06"></polygon>
                </g>
                <g id="Group-4840" transform="translate(3.000000, 54.000000)">
                    <mask id="mask-8" fill="white">
                        <use xlink:href="#path-7"></use>
                    </mask>
                    <g id="Clip-4839"></g>
                    <polygon id="Fill-4838" fill="#000000" mask="url(#mask-8)" points="-4.325 -4.5 63.335 -4.5 63.335 13.78 -4.325 13.78"></polygon>
                </g>
                <g id="Group-4843" transform="translate(62.000000, 65.000000)">
                    <mask id="mask-10" fill="white">
                        <use xlink:href="#path-9"></use>
                    </mask>
                    <g id="Clip-4842"></g>
                    <polygon id="Fill-4841" fill="#000000" mask="url(#mask-10)" points="-4.365 -4.95 6.88 -4.95 6.88 7.05 -4.365 7.05"></polygon>
                </g>
                <g id="Group-4846">
                    <mask id="mask-12" fill="white">
                        <use xlink:href="#path-11"></use>
                    </mask>
                    <g id="Clip-4845"></g>
                    <polygon id="Fill-4844" fill="#000000" mask="url(#mask-12)" points="-4.35 -4.1148 69.355 -4.1148 69.355 85.1161 -4.35 85.1161"></polygon>
                </g>
                <g id="Group-4849" transform="translate(31.000000, 0.000000)">
                    <mask id="mask-14" fill="white">
                        <use xlink:href="#path-13"></use>
                    </mask>
                    <g id="Clip-4848"></g>
                    <polygon id="Fill-4847" fill="#000000" mask="url(#mask-14)" points="-4.31 -4.0517 38.4183 -4.0517 38.4183 74.0025 -4.31 74.0025"></polygon>
                </g>
                <g id="Group-4852" transform="translate(32.000000, 59.000000)">
                    <mask id="mask-16" fill="white">
                        <use xlink:href="#path-15"></use>
                    </mask>
                    <g id="Clip-4851"></g>
                    <polygon id="Fill-4850" fill="#000000" mask="url(#mask-16)" points="-4.965 -4.795 14.595 -4.795 14.595 14.535 -4.965 14.535"></polygon>
                </g>
            </g>
        </g>
    </g>
</svg>