<?xml version="1.0" encoding="UTF-8"?>
<svg width="91px" height="81px" viewBox="-10 -10 111 101" version="1.1" xmlns="http://www.w3.org/2000/svg" xmlns:xlink="http://www.w3.org/1999/xlink">
    <title>05DC3FEB-7859-4999-98AE-1C6A264C6138</title>
    <defs>
        <path d="M5,0.235 L2.885,7.545 C3.49,6.5533 4.2063,5.634 5.02,4.805 C5.4116,4.408 5.9339,4.1664 6.49,4.125 C6.7175,4.1213 6.9364,4.2118 7.095,4.375 C7.2604,4.5559 7.3468,4.7952 7.335,5.04 C7.3216,5.4495 7.2509,5.8551 7.125,6.245 L6.205,9.4 C6.1353,9.6067 6.0768,9.817 6.03,10.03 C6.026,10.0949 6.0496,10.1585 6.095,10.205 C6.1306,10.2487 6.1837,10.2743 6.24,10.275 C6.325,10.2656 6.4051,10.2307 6.47,10.175 C6.797,9.9118 7.0834,9.6018 7.32,9.255 L7.55,9.4 C7.3426,9.7142 7.1048,10.0073 6.84,10.275 C6.6105,10.5321 6.3463,10.7559 6.055,10.94 C5.8801,11.0491 5.6807,11.1127 5.475,11.125 C5.3046,11.1324 5.1392,11.0669 5.02,10.945 C4.8986,10.8254 4.8333,10.6602 4.84,10.49 C4.881,10.0696 4.97,9.6552 5.105,9.255 L5.97,6.255 C6.064,5.9669 6.1195,5.6676 6.135,5.365 C6.1397,5.275 6.1051,5.1874 6.04,5.125 C5.9754,5.0639 5.8889,5.0314 5.8,5.035 C5.6216,5.0443 5.4489,5.1013 5.3,5.2 C4.8429,5.522 4.4439,5.9193 4.12,6.375 C4,6.53 3.62,7.155 2.915,8.255 C2.7038,8.6191 2.5359,9.0068 2.415,9.41 L1.915,10.955 L0.785,10.955 L3.285,2.335 L3.55,1.405 C3.5498,1.2696 3.4893,1.1413 3.385,1.055 C3.2783,0.9549 3.1363,0.901 2.99,0.905 C2.8508,0.9099 2.7121,0.925 2.575,0.95 L2.42,0.975 L2.42,0.68 L5,0.235 Z" id="path-1"></path>
        <path d="M9.34,0.335 C9.5318,0.3372 9.7136,0.4208 9.84,0.565 C9.9895,0.7339 10.0668,0.9547 10.055,1.18 C10.0579,1.4277 10.0207,1.6742 9.945,1.91 C9.7116,2.4972 9.4149,3.0572 9.06,3.58 C8.552,4.3683 8.003,5.1294 7.415,5.86 C6.85,6.56 6.415,7.05 6.155,7.335 L5.875,7.335 L5.375,2.12 L2.265,7.335 L2,7.335 C1.9946,5.6366 1.8861,3.9402 1.675,2.255 C1.6563,1.8909 1.5253,1.5416 1.3,1.255 C1.1372,1.1264 0.9319,1.064 0.725,1.08 C0.5392,1.0832 0.3539,1.0982 0.17,1.125 L0.17,0.855 L2.33,0.355 C2.6998,1.6109 2.8982,2.911 2.92,4.22 C2.95,4.88 2.975,5.29 2.995,5.465 L6.09,0.355 L6.355,0.335 L6.855,5.985 C7.6357,5.0871 8.3351,4.1217 8.945,3.1 C9.1822,2.7576 9.3394,2.3663 9.405,1.955 C9.407,1.8517 9.381,1.7498 9.33,1.66 C9.2667,1.5775 9.1866,1.5093 9.095,1.46 C8.9773,1.3956 8.8777,1.3028 8.805,1.19 C8.7497,1.1015 8.7203,0.9993 8.72,0.895 C8.7155,0.7436 8.7799,0.5984 8.895,0.5 C9.015,0.3872 9.1755,0.3277 9.34,0.335 Z" id="path-3"></path>
        <path d="M4.42,0.725 L1.845,9.685 C1.7558,9.9517 1.6922,10.2263 1.655,10.505 C1.6538,10.5748 1.6788,10.6426 1.725,10.695 C1.772,10.7438 1.8372,10.771 1.905,10.77 C2.0185,10.7626 2.1261,10.7168 2.21,10.64 C2.5338,10.3673 2.8123,10.045 3.035,9.685 L3.26,9.92 C2.9031,10.4614 2.4567,10.9382 1.94,11.33 C1.6933,11.504 1.4016,11.603 1.1,11.6151769 C0.7346,11.6206 0.4332,11.3303 0.425,10.965 C0.4651,10.5854 0.5472,10.2114 0.67,9.85 L2.71,2.785 C2.8163,2.4578 2.8999,2.1237 2.96,1.785 C2.962,1.6677 2.9082,1.5563 2.815,1.485 C2.6843,1.3966 2.5272,1.3559 2.37,1.37 C2.2024,1.3757 2.0354,1.3924 1.87,1.42 L1.87,1.14 L4.42,0.725 Z" id="path-5"></path>
        <path d="M47.855,0.67 L90.275,43.085 C90.4687,43.2851 90.5702,43.5569 90.555,43.835 C90.5344,44.112 90.396,44.3668 90.175,44.535 L62.215,65.745 C62.049,65.8732 61.8447,65.9419 61.635,65.9400384 L1.865,65.9400384 C1.5109,65.9368 1.1873,65.7389 1.0231,65.4252 C0.8589,65.1114 0.8808,64.7328 1.08,64.44 L46.39,0.79 C46.5549,0.5596 46.8127,0.4134 47.095,0.39 C47.3773,0.366 47.6557,0.4685 47.855,0.67 Z M47.3,2.84 L3.735,64 L61.31,64 L88.13,43.655 L47.3,2.84 Z" id="path-7"></path>
        <path d="M2.115,1.135 L16.575,64.765 C16.6904,65.2836 16.3672,65.7985 15.85,65.92 C15.7792,65.9339 15.7072,65.9400054 15.635,65.9400054 C15.1845,65.9415 14.7935,65.6296 14.695,65.19 L2.14,9.945 L2.14,53.41 C2.14,53.943 1.708,54.375 1.175,54.375 C0.642,54.375 0.21,53.943 0.21,53.41 L0.21,1.35 C0.2116,0.8601 0.58,0.4492 1.0668,0.3943 C1.5535,0.3394 2.0042,0.6578 2.115,1.135 Z" id="path-9"></path>
        <path d="M1.16,0.085 L6.945,0.085 C7.2211,0.085 7.445,0.3089 7.445,0.585 L7.445,5.405 C7.4372,5.6695 7.2245,5.8822 6.96,5.89 C6.6839,5.89 6.46,5.6661 6.46,5.39 L6.46,1.05 L1.16,1.05 C0.9567,1.1052 0.7407,1.0272 0.6196,0.8548 C0.4986,0.6824 0.4986,0.4526 0.6196,0.2802 C0.7407,0.1078 0.9567,0.0298 1.16,0.085 Z" id="path-11"></path>
        <path d="M53.73,42.22 L57.585,42.285 L57.585,43.25 L53.73,43.185 L53.73,42.22 Z M46.015,42.09 L49.87,42.155 L49.87,43.12 L46.015,43.055 L46.015,42.09 Z M38.305,41.97 L42.16,42.035 L42.16,43 L38.305,42.935 L38.305,41.97 Z M30.595,41.84 L34.45,41.905 L34.45,42.87 L30.595,42.805 L30.595,41.84 Z M22.88,41.71 L26.735,41.775 L26.74,42.74 L22.88,42.675 L22.88,41.71 Z M15.17,41.58 L19.025,41.645 L19.025,42.605 L15.17,42.54 L15.17,41.58 Z M7.46,41.445 L11.315,41.515 L11.315,42.475 L7.46,42.41 L7.46,41.445 Z M0.575,40.755 L1.48,41.07 L1.385,41.345 L3.62,41.38 L3.605,42.345 L0.04,42.285 L0.575,40.755 Z M3.115,33.47 L4.025,33.79 L2.755,37.43 L1.845,37.115 L3.115,33.47 Z M5.655,26.19 L6.565,26.505 L5.295,30.15 L4.385,29.83 L5.655,26.19 Z M8.195,18.905 L9.105,19.225 L7.835,22.865 L6.925,22.55 L8.195,18.905 Z M10.735,11.625 L11.645,11.945 L10.375,15.585 L9.465,15.265 L10.735,11.625 Z M13.27,4.36 L14.18,4.675 L12.915,8.3 L12,8 L13.27,4.36 Z M14.72,0.185 L15.63,0.505 L15.455,1 L14.545,0.685 L14.72,0.185 Z" id="path-13"></path>
        <path d="M3.715,18.335 L4.275,19.12 L1.145,21.37 L0.58,20.585 L3.715,18.335 Z M9.975,13.835 L10.54,14.62 L7.405,16.87 L6.845,16.085 L9.975,13.835 Z M16.24,9.34 L16.8,10.12 L13.67,12.37 L13.105,11.59 L16.24,9.34 Z M22.5,4.835 L23.065,5.62 L19.93,7.87 L19.37,7.085 L22.5,4.835 Z M28.765,0.335 L29.325,1.12 L26.195,3.37 L25.63,2.585 L28.765,0.335 Z" id="path-15"></path>
    </defs>
    <g id="Page-1" stroke="none" stroke-width="1" fill="none" fill-rule="evenodd">
        <g id="SHAPES" transform="translate(-239.000000, -7002.000000)">
            <g id="Group-78" transform="translate(239.000000, 7002.000000)">
                <g id="Group-4954" transform="translate(37.000000, 29.000000)">
                    <mask id="mask-2" fill="white">
                        <use xlink:href="#path-1"></use>
                    </mask>
                    <g id="Clip-4953"></g>
                    <polygon id="Fill-4952" fill="#000000" mask="url(#mask-2)" points="-4.215 -4.765 12.55 -4.765 12.55 16.1256 -4.215 16.1256"></polygon>
                </g>
                <g id="Group-4957" transform="translate(80.000000, 54.000000)">
                    <mask id="mask-4" fill="white">
                        <use xlink:href="#path-3"></use>
                    </mask>
                    <g id="Clip-4956"></g>
                    <polygon id="Fill-4955" fill="#000000" mask="url(#mask-4)" points="-4.83 -4.6656 15.0562 -4.6656 15.0562 12.335 -4.83 12.335"></polygon>
                </g>
                <g id="Group-4960" transform="translate(28.000000, 69.000000)">
                    <mask id="mask-6" fill="white">
                        <use xlink:href="#path-5"></use>
                    </mask>
                    <g id="Clip-4959"></g>
                    <polygon id="Fill-4958" fill="#000000" mask="url(#mask-6)" points="-4.575 -4.275 9.42 -4.275 9.42 16.6152 -4.575 16.6152"></polygon>
                </g>
                <g id="Group-4963">
                    <mask id="mask-8" fill="white">
                        <use xlink:href="#path-7"></use>
                    </mask>
                    <g id="Clip-4962"></g>
                    <polygon id="Fill-4961" fill="#000000" mask="url(#mask-8)" points="-4.0863 -4.6134 95.5565 -4.6134 95.5565 70.9401 -4.0863 70.9401"></polygon>
                </g>
                <g id="Group-4966" transform="translate(46.000000, 0.000000)">
                    <mask id="mask-10" fill="white">
                        <use xlink:href="#path-9"></use>
                    </mask>
                    <g id="Clip-4965"></g>
                    <polygon id="Fill-4964" fill="#000000" mask="url(#mask-10)" points="-4.79 -4.6119 21.5984 -4.6119 21.5984 70.94 -4.79 70.94"></polygon>
                </g>
                <g id="Group-4969" transform="translate(46.000000, 48.000000)">
                    <mask id="mask-12" fill="white">
                        <use xlink:href="#path-11"></use>
                    </mask>
                    <g id="Clip-4968"></g>
                    <polygon id="Fill-4967" fill="#000000" mask="url(#mask-12)" points="-4.4711 -4.9325 12.445 -4.9325 12.445 10.89 -4.4711 10.89"></polygon>
                </g>
                <g id="Group-4972" transform="translate(32.000000, 1.000000)">
                    <mask id="mask-14" fill="white">
                        <use xlink:href="#path-13"></use>
                    </mask>
                    <g id="Clip-4971"></g>
                    <polygon id="Fill-4970" fill="#000000" mask="url(#mask-14)" points="-4.96 -4.815 62.585 -4.815 62.585 48.25 -4.96 48.25"></polygon>
                </g>
                <g id="Group-4975" transform="translate(1.000000, 44.000000)">
                    <mask id="mask-16" fill="white">
                        <use xlink:href="#path-15"></use>
                    </mask>
                    <g id="Clip-4974"></g>
                    <polygon id="Fill-4973" fill="#000000" mask="url(#mask-16)" points="-4.42 -4.665 34.325 -4.665 34.325 26.37 -4.42 26.37"></polygon>
                </g>
            </g>
        </g>
    </g>
</svg>