<?xml version="1.0" encoding="UTF-8"?>
<svg width="63px" height="63px" viewBox="-10 -10 83 83" version="1.1" xmlns="http://www.w3.org/2000/svg" xmlns:xlink="http://www.w3.org/1999/xlink">
    <title>37DACF11-64A2-47A9-A5E9-827E76EF2388</title>
    <defs>
        <path d="M6.085,0.085 C6.225,0.0787 6.361,0.1313 6.46,0.23 C6.561,0.3414 6.612,0.4899 6.6,0.64 C6.6,0.9628 6.516,1.28 6.355,1.56 C6.266,1.7563 6.071,1.883 5.855,1.885 C5.748,1.8877 5.644,1.8482 5.565,1.775 C5.476,1.685 5.423,1.5661 5.415,1.44 C5.416,1.3742 5.393,1.3103 5.35,1.26 C5.316,1.2216 5.267,1.1998 5.215,1.2 C5.133,1.2004 5.052,1.221 4.98,1.26 C4.757,1.4161 4.563,1.6088 4.405,1.83 C3.923,2.4143 3.483,3.0326 3.09,3.68 C2.887,4.0238 2.72,4.3874 2.59,4.765 C2.39,5.32 2.27,5.655 2.24,5.765 L2.01,6.685 L0.895,6.685 L2.24,2.155 C2.366,1.7934 2.445,1.4169 2.475,1.035 C2.477,0.9481 2.436,0.8658 2.365,0.815 C2.254,0.732 2.118,0.6912 1.98,0.7 C1.792,0.7085 1.605,0.7302 1.42,0.765 L1.35,0.5 L3.85,0.09 L2.805,3.635 C3.406,2.4995 4.188,1.4693 5.12,0.585 C5.379,0.3175 5.717,0.1419 6.085,0.085 Z" id="path-1"></path>
        <path d="M31.5,0.705 C48.508,0.705 62.295,14.4924 62.295,31.5 L62.295,31.5 L62.2906972,32.0091821 C62.0129979,48.7796061 48.33495,62.289555 31.5,62.295 C14.4924,62.295 0.705,48.5076 0.705,31.5 C0.705,14.4924 14.4924,0.705 31.5,0.705 Z M51.955,11.045 C42.1996,1.2892 26.9115,-0.2173 15.4396,7.4469 C3.9677,15.111 -0.4931,29.8113 4.7851,42.5582 C10.0634,55.3051 23.6107,62.5487 37.1425,59.8593 C50.674,57.1699 60.422,45.2965 60.425,31.5 L60.425,31.5 L60.4214918,31.0106354 C60.3042187,23.5140278 57.2714255,16.3496809 51.955,11.045 Z" id="path-3"></path>
        <path d="M2.575,0.48 C2.575,1.83 3.24,3.185 4.635,4.53 C6.4248,6.1176 8.4929,7.3602 10.735,8.195 C16,10.35 23.36,11.695 31.5,11.695 C37.0489,11.7419 42.5798,11.0577 47.95,9.66 C52.62,8.385 56.285,6.55 58.365,4.55 C59.76,3.205 60.425,1.85 60.425,0.5 L60.425,0.5 L62.295,0.5 C62.295,2.5 61.29,4.335 59.66,5.895 C57.698,7.6466 55.428,9.0182 52.965,9.94 C47.41,12.195 39.85,13.565 31.5,13.565 C25.7846,13.6025 20.0891,12.888 14.56,11.44 C9.7,10.1 5.795,8.22 3.34,5.875 C1.705,4.315 0.705,2.48 0.705,0.48 L0.705,0.48 L2.575,0.48 Z" id="path-5"></path>
        <path d="M1.46,0.5 C1.701,1.1393 1.825,1.8168 1.825,2.5 L1.825,2.5 L0.895,2.49 C0.893,1.9208 0.788,1.3568 0.585,0.825 L0.585,0.825 L1.46,0.5 Z" id="path-7"></path>
        <path d="M52.91,5.975 C54.066,6.6046 55.145,7.3664 56.125,8.245 L56.125,8.245 L55.495,8.93 C54.567,8.1025 53.547,7.3845 52.455,6.79 L52.455,6.79 L52.91,5.975 Z M4.105,5.965 L4.54,6.78 C3.4477,7.374 2.4276,8.0921 1.5,8.92 L1.5,8.92 L0.89,8.23 C1.8733,7.3568 2.9518,6.5971 4.105,5.965 L4.105,5.965 Z M45.705,3.1 C47.005,3.47 48.235,3.88 49.38,4.325 L49.38,4.325 L49.04,5.2 C47.925,4.765 46.725,4.365 45.45,4 L45.45,4 L45.705,3.1 Z M11.315,3.095 L11.57,3.99 C10.295,4.35 9.09,4.755 7.975,5.19 L7.975,5.19 L7.64,4.32 C8.8437,3.8504 10.0703,3.4415 11.315,3.095 L11.315,3.095 Z M38.135,1.545 C39.445,1.725 40.715,1.94 41.945,2.19 L41.945,2.19 L41.755,3.105 C40.55,2.86 39.3,2.645 38.005,2.47 L38.005,2.47 L38.135,1.545 Z M18.89,1.54 L19.015,2.465 C17.72,2.64 16.47,2.855 15.265,3.1 L15.265,3.1 L15.08,2.185 C16.3067,1.935 17.5767,1.72 18.89,1.54 L18.89,1.54 Z M26.605,0.925 L26.605,1.86 C25.315,1.8933 24.0467,1.96 22.8,2.06 L22.8,2.06 L22.73,1.13 C23.985,1.03 25.275,0.96 26.58,0.925 L26.58,0.925 L26.605,0.925 Z M30.44,0.93 C31.75,0.96 33.035,1.03 34.295,1.13 L34.295,1.13 L34.32,1.13 L34.245,2.06 C33.0017,1.9633 31.7333,1.8967 30.44,1.86 L30.44,1.86 L30.44,0.93 Z" id="path-9"></path>
        <path d="M3.5,0.7 C5.0464,0.7 6.3,1.9536 6.3,3.5 C6.3,4.6325 5.6178,5.6535 4.5715,6.0869 C3.5252,6.5202 2.3209,6.2807 1.5201,5.4799 C0.7193,4.6791 0.4798,3.4748 0.9131,2.4285 C1.3465,1.3822 2.3675,0.7 3.5,0.7 Z" id="path-11"></path>
        <polygon id="path-13" points="30.36 0.565 30.36 2.435 0.5 0.565"></polygon>
    </defs>
    <g id="Page-1" stroke="none" stroke-width="1" fill="none" fill-rule="evenodd">
        <g id="SHAPES" transform="translate(-383.000000, -6832.000000)">
            <g id="Group-75" transform="translate(383.000000, 6832.000000)">
                <g id="Group-5064" transform="translate(43.000000, 23.000000)">
                    <mask id="mask-2" fill="white">
                        <use xlink:href="#path-1"></use>
                    </mask>
                    <g id="Clip-5063"></g>
                    <polygon id="Fill-5062" fill="#000000" mask="url(#mask-2)" points="-4.105 -4.9155 11.602 -4.9155 11.602 11.685 -4.105 11.685"></polygon>
                </g>
                <g id="Group-5067">
                    <mask id="mask-4" fill="white">
                        <use xlink:href="#path-3"></use>
                    </mask>
                    <g id="Clip-5066"></g>
                    <polygon id="Fill-5065" fill="#000000" mask="url(#mask-4)" points="-4.295 -4.295 67.295 -4.295 67.295 67.295 -4.295 67.295"></polygon>
                </g>
                <g id="Group-5070" transform="translate(0.000000, 31.000000)">
                    <mask id="mask-6" fill="white">
                        <use xlink:href="#path-5"></use>
                    </mask>
                    <g id="Clip-5069"></g>
                    <polygon id="Fill-5068" fill="#000000" mask="url(#mask-6)" points="-4.295 -4.52 67.295 -4.52 67.295 18.5664 -4.295 18.5664"></polygon>
                </g>
                <g id="Group-5073" transform="translate(60.000000, 29.000000)">
                    <mask id="mask-8" fill="white">
                        <use xlink:href="#path-7"></use>
                    </mask>
                    <g id="Clip-5072"></g>
                    <polygon id="Fill-5071" fill="#000000" mask="url(#mask-8)" points="-4.415 -4.5 6.825 -4.5 6.825 7.5 -4.415 7.5"></polygon>
                </g>
                <g id="Group-5076" transform="translate(3.000000, 18.000000)">
                    <mask id="mask-10" fill="white">
                        <use xlink:href="#path-9"></use>
                    </mask>
                    <g id="Clip-5075"></g>
                    <polygon id="Fill-5074" fill="#000000" mask="url(#mask-10)" points="-4.11 -4.075 61.125 -4.075 61.125 13.93 -4.11 13.93"></polygon>
                </g>
                <g id="Group-5082" transform="translate(28.000000, 28.000000)">
                    <mask id="mask-12" fill="white">
                        <use xlink:href="#path-11"></use>
                    </mask>
                    <g id="Clip-5081"></g>
                    <polygon id="Fill-5080" fill="#000000" mask="url(#mask-12)" points="-4.3001 -4.3 11.3 -4.3 11.3 11.3001 -4.3001 11.3001"></polygon>
                </g>
                <g id="Group-5085" transform="translate(31.000000, 30.000000)">
                    <mask id="mask-14" fill="white">
                        <use xlink:href="#path-13"></use>
                    </mask>
                    <g id="Clip-5084"></g>
                    <polygon id="Fill-5083" fill="#000000" mask="url(#mask-14)" points="-4.5 -4.435 35.36 -4.435 35.36 7.435 -4.5 7.435"></polygon>
                </g>
            </g>
        </g>
    </g>
</svg>