<svg width="53" height="63" viewBox="-10 -10 73 83" xmlns="http://www.w3.org/2000/svg" xmlns:xlink="http://www.w3.org/1999/xlink">
    <defs>
        <path stroke-width="4" d="M37.5 4.772c12.086 7.012 17.963 21.261 14.334 34.754C48.203 53.019 35.971 62.397 22 62.4a30.712 30.712 0 0 1-21.785-9 .5.5 0 0 1 .59-.795c10.056 5.332 22.477 2.833 29.688-5.973 7.212-8.807 7.212-21.477 0-30.284C23.283 7.542 10.861 5.043.805 10.375a.5.5 0 0 1-.59-.795C10.127-.268 25.414-2.239 37.5 4.772zM3.31 8.17a24.9 24.9 0 0 1 28.635 38.252A24.9 24.9 0 0 1 3.31 54.83c12.223 9.798 29.937 8.5 40.602-2.975 10.665-11.474 10.665-29.236 0-40.71C33.247-.33 15.534-1.628 3.31 8.17z" id="a"/>
    </defs>
    <g fill="none" fill-rule="evenodd">
        <mask id="b" fill="#fff">
            <use xlink:href="#a"/>
        </mask>
        <path fill="#000" mask="url(#b)" d="M-4.933-4.401h62.83V67.4h-62.83z"/>
    </g>
</svg>
