<svg width="65" height="63" viewBox="-10 -10 85 83" xmlns="http://www.w3.org/2000/svg" xmlns:xlink="http://www.w3.org/1999/xlink">
    <defs>
        <path d="M42.39.6c.106 0 .21.033.295.095l16 11.615c.087.06.15.148.18.25l6.105 18.785a.47.47 0 0 1 0 .31L58.865 50.44a.458.458 0 0 1-.18.25l-16 11.615a.501.501 0 0 1-.31.095h-19.75a.504.504 0 0 1-.295-.095l-16-11.615a.458.458 0 0 1-.18-.25L.06 31.655a.47.47 0 0 1 0-.31L6.165 12.56a.458.458 0 0 1 .18-.25l16-11.615A.503.503 0 0 1 22.64.6h19.75zm-.175 1h-19.43L7.065 13l-6 18.5 6 18.5 15.72 11.4h19.43L57.935 50l6-18.5-6-18.5-15.72-11.4z" id="a"/>
    </defs>
    <g fill="none" fill-rule="evenodd">
        <mask id="b" fill="#fff">
            <use xlink:href="#a"/>
        </mask>
        <path fill="#000" mask="url(#b)" d="M-4.966-4.4h74.962v71.801H-4.966z"/>
    </g>
</svg>
