<svg width="69" height="63" viewBox="-10 -10 89 83" xmlns="http://www.w3.org/2000/svg" xmlns:xlink="http://www.w3.org/1999/xlink">
    <defs>
        <path d="M48.5.6c10.24.045 18.756 7.896 19.63 18.1.021.194.036.388.044.583l.006.292v.725a19.665 19.665 0 0 1-2.5 9.59c-7.645 17.725-30.71 32.29-30.94 32.435a.499.499 0 0 1-.24.075.506.506 0 0 1-.265-.075c-.23-.145-23.295-14.71-30.94-32.435a19.665 19.665 0 0 1-2.5-9.59v-.725c0-.225.045-.83.05-.89C1.728 8.478 10.255.632 20.5.6a19.503 19.503 0 0 1 14 5.845A19.503 19.503 0 0 1 48.5.6zm0 1a18.502 18.502 0 0 0-13.635 5.9.5.5 0 0 1-.73 0A18.502 18.502 0 0 0 20.5 1.6c-9.721.042-17.805 7.494-18.635 17.18a7.065 7.065 0 0 0-.045.83v.69a18.652 18.652 0 0 0 2.38 9.125v.045c7.075 16.425 27.715 30.165 30.3 31.835 2.585-1.67 23.225-15.41 30.3-31.835v-.045a18.681 18.681 0 0 0 2.38-9.125v-.69a6.55 6.55 0 0 0-.045-.815C66.312 9.103 58.227 1.643 48.5 1.6z" id="a"/>
    </defs>
    <g fill="none" fill-rule="evenodd">
        <mask id="b" fill="#fff">
            <use xlink:href="#a"/>
        </mask>
        <path fill="#000" mask="url(#b)" d="M-4.205-4.4H73.18v71.8H-4.205z"/>
    </g>
</svg>
