<svg width="65" height="63" viewBox="-10 -10 85 83" xmlns="http://www.w3.org/2000/svg" xmlns:xlink="http://www.w3.org/1999/xlink">
    <defs>
        <path d="M46.335.74c.154-.001.3.069.395.19l17.22 21.6a.5.5 0 0 1 .1.42L57.9 49.885a.498.498 0 0 1-.27.34l-24.89 12a.505.505 0 0 1-.24.035.5.5 0 0 1-.215-.05l-24.89-12a.498.498 0 0 1-.27-.34L1 22.95a.5.5 0 0 1 .1-.42L18.32.93a.499.499 0 0 1 .395-.19h27.62zm-.265 1H18.93L2 22.965l6.045 26.46L32.5 61.205l24.455-11.78L63 22.965 46.07 1.74z" id="a"/>
    </defs>
    <g fill="none" fill-rule="evenodd">
        <mask id="b" fill="#fff">
            <use xlink:href="#a"/>
        </mask>
        <path fill="#000" mask="url(#b)" d="M-4.011-4.26H69.06v71.523H-4.01z"/>
    </g>
</svg>
