<svg width="63" height="61" viewBox="-10 -10 83 81" xmlns="http://www.w3.org/2000/svg" xmlns:xlink="http://www.w3.org/1999/xlink">
    <defs>
        <path d="M42.045.095a.5.5 0 0 1 .325.115l16.155 13.56a.504.504 0 0 1 .175.295l3.66 20.775a.496.496 0 0 1-.06.335l-10.545 18.27a.497.497 0 0 1-.26.22l-19.825 7.21a.493.493 0 0 1-.34 0l-19.83-7.21a.5.5 0 0 1-.26-.22L.7 35.175a.5.5 0 0 1-.06-.335L4.3 14.065a.5.5 0 0 1 .175-.295L20.63.21a.5.5 0 0 1 .325-.115h21.09zm-.18 1h-20.73L5.255 14.42l-3.6 20.41L12 52.785l19.5 7.09 19.5-7.09L61.365 34.83l-3.6-20.41-15.9-13.325z" id="a"/>
    </defs>
    <g fill="none" fill-rule="evenodd">
        <mask id="b" fill="#fff">
            <use xlink:href="#a"/>
        </mask>
        <path fill="#000" mask="url(#b)" d="M-4.367-4.905h71.734v70.81H-4.367z"/>
    </g>
</svg>
