<svg width="61" height="61" viewBox="-10 -10 81 81" xmlns="http://www.w3.org/2000/svg" xmlns:xlink="http://www.w3.org/1999/xlink">
    <defs>
        <path d="M42.81.28a.497.497 0 0 1 .355.145l17.41 17.41a.497.497 0 0 1 .145.355v24.62a.497.497 0 0 1-.145.355l-17.41 17.41a.497.497 0 0 1-.355.145H18.19a.497.497 0 0 1-.355-.145L.425 43.165a.5.5 0 0 1-.145-.355V18.19a.5.5 0 0 1 .145-.355L17.835.425A.497.497 0 0 1 18.19.28h24.62zm-.205 1h-24.21L1.28 18.395v24.21L18.395 59.72h24.21L59.72 42.605v-24.21L42.605 1.28z" id="a"/>
    </defs>
    <g fill="none" fill-rule="evenodd">
        <mask id="b" fill="#fff">
            <use xlink:href="#a"/>
        </mask>
        <path fill="#000" mask="url(#b)" d="M-4.72-4.72h70.44v70.44H-4.72z"/>
    </g>
</svg>
