<svg width="69" height="65" viewBox="-10 -10 89 85" xmlns="http://www.w3.org/2000/svg" xmlns:xlink="http://www.w3.org/1999/xlink">
    <defs>
        <path d="M34.5.366a.5.5 0 0 1 .46.304l9.33 21.5 23.5 2.37a.5.5 0 0 1 .265.885L50.15 40.155 55.53 64a.5.5 0 0 1-.195.5.503.503 0 0 1-.29.11.493.493 0 0 1-.26-.07L34.5 52.17 14.215 64.54a.5.5 0 0 1-.745-.54l5.38-23.845L.945 25.425a.5.5 0 0 1 .265-.885l23.5-2.37L34.04.67a.5.5 0 0 1 .46-.304zm0 1.779-9 20.69a.5.5 0 0 1-.405.3L2.5 25.415l17.215 14.16a.5.5 0 0 1 .17.5l-5.185 23 19.535-11.91a.499.499 0 0 1 .265-.08.507.507 0 0 1 .26.075l19.535 11.91-5.185-23a.5.5 0 0 1 .17-.5L66.5 25.415l-22.6-2.28a.5.5 0 0 1-.405-.3L34.5 2.145z" id="a"/>
    </defs>
    <g fill="none" fill-rule="evenodd">
        <mask id="b" fill="#fff">
            <use xlink:href="#a"/>
        </mask>
        <path fill="#000" mask="url(#b)" d="M-4.236-4.634h77.472v74.245H-4.236z"/>
    </g>
</svg>
