<svg width="65" height="61" viewBox="-10 -10 85 81" xmlns="http://www.w3.org/2000/svg" xmlns:xlink="http://www.w3.org/1999/xlink">
    <defs>
        <path d="M53.437 1.958A18.1 18.1 0 0 1 49.5 36.28a18.106 18.106 0 0 1-17 24.32 18.107 18.107 0 0 1-17-24.32 18.1 18.1 0 1 1 17-29.725 18.101 18.101 0 0 1 20.937-4.597zM18.9 1.4C9.958 1.386 2.515 8.263 1.824 17.179 1.133 26.094 7.427 34.036 16.265 35.4a.5.5 0 0 1 .36.25.5.5 0 0 1 0 .435 17.1 17.1 0 1 0 31.7 0 .5.5 0 0 1 .385-.685A17.1 17.1 0 1 0 32.86 7.65a.499.499 0 0 1-.77 0A17.05 17.05 0 0 0 18.9 1.4z" id="a"/>
    </defs>
    <g fill="none" fill-rule="evenodd">
        <mask id="b" fill="#fff">
            <use xlink:href="#a"/>
        </mask>
        <path fill="#000" mask="url(#b)" d="M-4.197-4.598h73.394V65.6H-4.197z"/>
    </g>
</svg>
