<svg width="74" height="65" viewBox="-10 -10 94 85" xmlns="http://www.w3.org/2000/svg" xmlns:xlink="http://www.w3.org/1999/xlink">
    <defs>
        <path d="m8.77.775.016.003c.114.022.815.166 1.91.523l.323.108c4.174 1.424 13.144 5.69 18.131 17.026L.055 31.1 8.77.775z" id="a"/>
        <path d="m2.59.12 1.175 4.295-.535.145-.13-.5c-.08.194-.205.365-.365.5a1.551 1.551 0 0 1-.59.305 1.7 1.7 0 0 1-.85 0 1.471 1.471 0 0 1-.705-.4A1.792 1.792 0 0 1 .165 3.7a1.719 1.719 0 0 1 0-.87c.062-.269.201-.514.4-.705.21-.198.466-.341.745-.415.21-.058.43-.071.645-.04.203.034.395.116.56.24L2.055.22l.535-.1zm-1.155 2.1c-.188.048-.36.144-.5.28A1 1 0 0 0 .67 3a1.169 1.169 0 0 0 0 .6c.048.198.148.379.29.525.13.136.294.235.475.285.378.089.776-.02 1.055-.29h.06a1 1 0 0 0 .265-.5 1.176 1.176 0 0 0 0-.6A1.27 1.27 0 0 0 2.5 2.5a1.004 1.004 0 0 0-.5-.28 1.15 1.15 0 0 0-.565 0z" id="c"/>
        <path d="m1.535 1.905.84 3.07-.56.15L.98 2.06l.555-.155zM1.195.67a.344.344 0 0 1 .175.225.366.366 0 0 1-.035.29.346.346 0 0 1-.24.18A.373.373 0 0 1 .8 1.36a.372.372 0 0 1-.18-.225A.36.36 0 0 1 .66.85.374.374 0 0 1 .9.67a.396.396 0 0 1 .295 0z" id="e"/>
        <path d="M2.765.33c.309.182.524.488.59.84l.5 1.85-.525.145-.11-.405a.923.923 0 0 1-.305.435c-.172.132-.37.228-.58.28-.29.104-.606.104-.895 0a.82.82 0 0 1-.5-.57.835.835 0 0 1 .115-.73c.222-.264.53-.441.87-.5l.88-.245-.03-.11a.736.736 0 0 0-.36-.5.925.925 0 0 0-.665-.025 1.816 1.816 0 0 0-.5.235c-.143.098-.268.22-.37.36l-.345-.35c.136-.181.306-.334.5-.45A2.41 2.41 0 0 1 1.71.3a1.45 1.45 0 0 1 1.055.03zm.17 1.47-.86.235c-.47.13-.66.35-.575.67.036.145.14.262.28.315a.844.844 0 0 0 .535 0 1.07 1.07 0 0 0 .51-.29.826.826 0 0 0 .225-.5l-.115-.43z" id="g"/>
        <path d="M4.895.68c.318.204.538.529.61.9l.5 1.765-.555.155-.465-1.705a.998.998 0 0 0-.39-.61.774.774 0 0 0-.65-.07.915.915 0 0 0-.595.45c-.123.257-.14.551-.045.82l.435 1.58-.56.155-.465-1.7a1.001 1.001 0 0 0-.385-.615.797.797 0 0 0-.65-.07.913.913 0 0 0-.6.45C.947 2.435.918 2.728 1 3l.435 1.585-.555.15-.84-3.07.53-.145.125.46c.068-.195.187-.368.345-.5.17-.14.37-.239.585-.29.219-.067.451-.077.675-.03.209.042.4.149.545.305.068-.215.197-.406.37-.55.189-.163.413-.279.655-.34.341-.11.713-.071 1.025.105z" id="i"/>
        <path d="M2.285.61c.266.067.507.21.695.41.199.219.341.483.415.77a.91.91 0 0 1 .025.17l-2.5.68a1 1 0 0 0 .535.555c.262.107.554.121.825.04a1.17 1.17 0 0 0 .78-.615l.41.275a1.507 1.507 0 0 1-.42.5 1.905 1.905 0 0 1-.655.315c-.299.088-.615.1-.92.035a1.445 1.445 0 0 1-.73-.4 1.636 1.636 0 0 1-.43-.755 1.659 1.659 0 0 1 0-.855c.064-.268.2-.514.395-.71.205-.202.46-.345.74-.415.273-.075.562-.075.835 0zm-1.33.905h.01a1.036 1.036 0 0 0-.145.725l1.97-.535a.998.998 0 0 0-.5-.55 1.065 1.065 0 0 0-1.335.36z" id="k"/>
        <path d="m1.185.18.185.675.88-.24.125.455-.88.24.45 1.66a.594.594 0 0 0 .23.35.5.5 0 0 0 .395.035.693.693 0 0 0 .395-.265l.28.355a.84.84 0 0 1-.255.24c-.11.069-.23.121-.355.155-.26.089-.544.071-.79-.05a1 1 0 0 1-.445-.645l-.46-1.68-.5.14-.125-.455.5-.145L.63.335 1.185.18z" id="m"/>
        <path d="M2.12 1.015c.264.069.503.211.69.41.202.217.347.482.42.77.011.056.02.113.025.17l-2.5.68a1 1 0 0 0 .535.555c.26.109.55.123.82.04a1.17 1.17 0 0 0 .785-.615L3.3 3.3c-.1.196-.241.366-.415.5a1.932 1.932 0 0 1-.66.315c-.297.088-.612.1-.915.035a1.503 1.503 0 0 1-.735-.4A1.645 1.645 0 0 1 .15 3a1.68 1.68 0 0 1 0-.86c.062-.269.2-.515.395-.71.205-.199.459-.342.735-.415.275-.075.565-.075.84 0zm-1.33.91H.8a1 1 0 0 0-.145.72l1.97-.535a.998.998 0 0 0-.5-.55 1.075 1.075 0 0 0-1.335.365z" id="o"/>
        <path d="m2.21.955.145.535-.13.03c-.266.062-.496.23-.635.465a1.09 1.09 0 0 0-.05.835l.42 1.53-.555.15-.84-3.065.535-.145.14.5c.05-.198.16-.376.315-.51.19-.158.414-.269.655-.325z" id="q"/>
        <path d="m2.75.59.4.38-.37.39a.993.993 0 0 1 .61 0c.232.083.443.218.615.395l-.385.4-.01-.01-.053-.053-.032-.032a1 1 0 0 0-.72-.31c-.29.026-.558.166-.745.39L.965 3.28l-.42-.4L2.75.59z" id="s"/>
        <path d="M2.115.44c.222.022.438.087.635.19.218.112.419.255.595.425.284.238.464.577.505.945a1.25 1.25 0 0 1-.415.94l-1.33 1.385-.395-.38.29-.3a.922.922 0 0 1-.53-.04 1.629 1.629 0 0 1-.54-.355 1.32 1.32 0 0 1-.435-.78.826.826 0 0 1 .24-.71.81.81 0 0 1 .685-.275 1.5 1.5 0 0 1 .88.5l.655.63.08-.08a.75.75 0 0 0 .24-.56.934.934 0 0 0-.32-.585 1.724 1.724 0 0 0-.465-.315 1.426 1.426 0 0 0-.5-.135l.125-.5zM1.16 2.135a.445.445 0 0 0-.125.405c.04.178.136.338.275.455.142.134.319.225.51.265v.025c.182.04.372.019.54-.06l.31-.32-.64-.615c-.355-.34-.64-.39-.87-.155z" id="u"/>
        <path d="M2.34.235c.279.079.533.227.74.43.159.148.283.329.365.53.076.192.104.4.08.605L4.74.535l.395.385L2.05 4.13l-.4-.38.35-.365c-.21.04-.427.025-.63-.045-.21-.075-.4-.194-.56-.35a1.645 1.645 0 0 1-.455-.72 1.44 1.44 0 0 1 0-.81A1.79 1.79 0 0 1 .795.7 1.73 1.73 0 0 1 1.53.235c.265-.074.545-.074.81 0zM1.705.79a1.201 1.201 0 0 0-.5.325c-.141.138-.244.31-.3.5a1 1 0 0 0 0 .55c.115.373.413.66.79.76l-.01-.005c.18.051.37.051.55 0 .192-.064.364-.176.5-.325.143-.138.248-.31.305-.5a.92.92 0 0 0 0-.545 1.135 1.135 0 0 0-.79-.76 1.009 1.009 0 0 0-.545 0z" id="w"/>
        <path d="m3.04 1.595.415.4-2.2 2.29-.42-.4 2.205-2.29zm.87-.88a.364.364 0 0 1 .275.11.385.385 0 0 1 .13.27.345.345 0 0 1-.1.265.357.357 0 0 1-.27.12.385.385 0 0 1-.28-.11.4.4 0 0 1-.12-.29l-.005.015A.341.341 0 0 1 3.645.83.348.348 0 0 1 3.91.715z" id="y"/>
        <path d="m2.22.735.415.395-1.22 1.275a1.001 1.001 0 0 0-.325.66.814.814 0 0 0 .295.61.957.957 0 0 0 .71.3c.284-.025.546-.162.73-.38l1.14-1.185.42.4L2.18 5.1l-.39-.38.33-.345a1.157 1.157 0 0 1-.595-.04A1.467 1.467 0 0 1 1 4a1.399 1.399 0 0 1-.5-.945c.002-.383.168-.747.455-1L2.22.735z" id="A"/>
        <path d="M3.07.745c.337.07.643.245.875.5.156.148.293.316.405.5.105.152.183.321.23.5l-.5.155a1.645 1.645 0 0 0-.5-.815 1.032 1.032 0 0 0-.5-.3.36.36 0 0 0-.36.095.31.31 0 0 0-.09.25c.012.1.046.195.1.28.06.095.145.22.255.38.128.171.245.349.35.535a.89.89 0 0 1 .115.465.71.71 0 0 1-.225.5.802.802 0 0 1-.745.235 1.708 1.708 0 0 1-.9-.5 2.765 2.765 0 0 1-.44-.6 1.695 1.695 0 0 1-.225-.585l.5-.16c.04.176.107.345.2.5.101.183.227.352.375.5.365.35.645.42.845.21a.28.28 0 0 0 .085-.235.673.673 0 0 0-.1-.265c-.055-.09-.14-.21-.25-.365a3.837 3.837 0 0 1-.36-.53.946.946 0 0 1-.115-.5.735.735 0 0 1 .235-.5.826.826 0 0 1 .74-.25z" id="C"/>
        <path d="m2.78.85.17.5.66-.22.185.545-.66.22.29.865-.445.155-.295-.865-1.63.55a.562.562 0 0 0-.335.25.455.455 0 0 0 0 .39.675.675 0 0 0 .285.38l-.35.305A.902.902 0 0 1 .4 3.68a1.256 1.256 0 0 1-.18-.345 1 1 0 0 1 0-.785 1 1 0 0 1 .61-.5L2.5 1.5 2.33 1l.45-.15z" id="E"/>
        <path d="M3.315.615c.197.117.367.274.5.46.144.199.256.42.33.655.129.337.123.711-.015 1.045a1.25 1.25 0 0 1-.805.64L1.5 4.03l-.175-.5.4-.13a.946.946 0 0 1-.455-.285 1.497 1.497 0 0 1-.31-.56 1.31 1.31 0 0 1-.03-.89.88.88 0 0 1 1.275-.45 1.5 1.5 0 0 1 .555.84l.29.865.11-.04a.714.714 0 0 0 .47-.385.9.9 0 0 0 0-.665 1.7 1.7 0 0 0-.265-.5 1.463 1.463 0 0 0-.38-.35l.33-.365zM1.67 1.655a.455.455 0 0 0-.3.295.88.88 0 0 0 .035.535c.058.2.172.379.33.515v-.025a.884.884 0 0 0 .5.2l.42-.145-.285-.84c-.155-.465-.39-.64-.7-.535z" id="G"/>
        <path d="m3.825.045.18.5L3.55.7c.193.062.365.174.5.325.155.174.273.378.345.6.141.326.147.695.015 1.025a1.384 1.384 0 0 1-.865.665l-1.73.585-.185-.545L3.3 2.79a.999.999 0 0 0 .59-.43.835.835 0 0 0 0-.68.958.958 0 0 0-.5-.61 1.058 1.058 0 0 0-.83 0l-1.555.525-.18-.55 3-1z" id="I"/>
        <path d="M3.47.06a1.4 1.4 0 0 1 .7.375c.369.368.563.875.535 1.395a1.27 1.27 0 0 1-.21.605l.47-.16.18.52-2.6.88c-.415.18-.885.18-1.3 0A1.714 1.714 0 0 1 .47 2.63a2.97 2.97 0 0 1-.16-.85 1.67 1.67 0 0 1 .125-.735l.5.115a1.731 1.731 0 0 0-.11.62c0 .23.036.458.11.675.069.289.248.538.5.695.271.116.579.116.85 0l.235-.085a1.251 1.251 0 0 1-.5-.355 1.671 1.671 0 0 1-.32-.57 1.704 1.704 0 0 1-.08-.845c.043-.267.157-.517.33-.725.186-.212.427-.369.695-.455.264-.095.55-.114.825-.055zm-.635.625a1.04 1.04 0 0 0-.465.31.946.946 0 0 0-.225.5 1.23 1.23 0 0 0 .055.58c.065.172.168.327.3.455a.996.996 0 0 0 1.03.21 1 1 0 0 0 .61-.5 1.23 1.23 0 0 0-.5-1.5.996.996 0 0 0-.805-.055z" id="K"/>
        <path d="M2.755 1c.271.049.524.172.73.355.213.192.372.437.46.71.094.268.115.556.06.835a1.39 1.39 0 0 1-.37.715 1.719 1.719 0 0 1-.74.46l-.17.04L1.9 1.67a1.002 1.002 0 0 0-.5.565 1.2 1.2 0 0 0 0 .825c.098.334.337.608.655.75l-.25.42a1.452 1.452 0 0 1-.535-.385 1.84 1.84 0 0 1-.355-.64 1.824 1.824 0 0 1-.09-.915c.042-.281.166-.543.355-.755A1.78 1.78 0 0 1 2.755 1zm-.46.54.65 1.935c.22-.104.396-.281.5-.5a1.075 1.075 0 0 0-.44-1.315l.02-.02a1 1 0 0 0-.73-.1z" id="M"/>
        <path d="M3.635.315 3.81.84l-.455.15c.192.063.364.175.5.325.154.174.27.378.34.6.147.324.156.694.025 1.025a1.37 1.37 0 0 1-.86.665l-1.735.585-.185-.545 1.67-.565a.969.969 0 0 0 .59-.43.835.835 0 0 0 0-.68 1 1 0 0 0-.5-.61 1.058 1.058 0 0 0-.83 0l-1.55.5-.185-.545 3-1z" id="O"/>
        <path d="m2.83.75.17.5.66-.22.185.545-.66.22.295.865-.45.15-.295-.86-1.625.55a.57.57 0 0 0-.335.245.5.5 0 0 0 0 .395.691.691 0 0 0 .285.38l-.345.315a.83.83 0 0 1-.255-.24 1.247 1.247 0 0 1-.175-.345 1 1 0 0 1 0-.79c.127-.244.35-.425.615-.5l1.655-.56L2.38.9l.45-.15z" id="Q"/>
        <path d="M2.945.575c.235.077.442.221.595.415l-.39.35a.94.94 0 0 0-.42-.285 1.047 1.047 0 0 0-.5-.04 1.117 1.117 0 0 0-.535.22c-.15.116-.265.272-.33.45a1.29 1.29 0 0 0 .18 1.16.95.95 0 0 0 .44.33c.186.067.385.085.58.055.168-.025.327-.09.465-.19a.954.954 0 0 0 .32-.39l.5.205a1.274 1.274 0 0 1-.445.58 1.61 1.61 0 0 1-.735.29 1.759 1.759 0 0 1-.915-.075A1.665 1.665 0 0 1 .83 1.51c.101-.263.275-.491.5-.66a1.81 1.81 0 0 1 .83-.335c.263-.042.532-.021.785.06z" id="S"/>
        <path d="m1.505.905.26 1.7c.1-.174.242-.319.415-.42.19-.116.404-.191.625-.22.35-.076.716-.004 1.01.2.29.241.47.589.5.965l.275 1.81-.57.085-.265-1.745a.998.998 0 0 0-.325-.655c-.193-.135-.434-.184-.665-.135a.997.997 0 0 0-.685.38 1.08 1.08 0 0 0-.15.815l.245 1.62-.57.085-.67-4.4.57-.085z" id="U"/>
        <path d="M2.415.46c.264.101.495.274.665.5.183.229.299.504.335.795.05.289.021.586-.085.86a1.46 1.46 0 0 1-.5.66 1.747 1.747 0 0 1-.805.335 1.76 1.76 0 0 1-.875-.08A1.626 1.626 0 0 1 .145 2.235a1.6 1.6 0 0 1 .085-.86c.101-.263.275-.491.5-.66.239-.179.52-.292.815-.33.292-.052.592-.026.87.075zm-.8.435a1.077 1.077 0 0 0-.5.22c-.145.117-.255.27-.32.445a1.2 1.2 0 0 0-.05.6c.024.203.101.397.225.56.113.15.266.266.44.335a1.082 1.082 0 0 0 1.06-.165c.144-.12.254-.275.32-.45a1.19 1.19 0 0 0 .045-.6 1.127 1.127 0 0 0-.225-.555 1.001 1.001 0 0 0-.995-.39z" id="W"/>
        <path d="m2.65.775.085.555H2.6c-.272.031-.52.172-.685.39a1.125 1.125 0 0 0-.145.825l.24 1.565-.57.085L.965 1.05 1.5 1l.08.5a.997.997 0 0 1 .385-.475c.207-.134.44-.219.685-.25z" id="Y"/>
        <path d="m3.1 0 .665 4.4-.545.08-.075-.5c-.098.19-.243.351-.42.47a1.56 1.56 0 0 1-.62.235c-.286.048-.579.02-.85-.08a1.498 1.498 0 0 1-.65-.5 1.736 1.736 0 0 1-.335-.81c-.048-.29-.02-.588.08-.865.1-.26.274-.486.5-.65.23-.177.502-.289.79-.325.213-.036.431-.026.64.03.2.057.384.162.535.305L2.55.06 3.1 0zM1.745 1.97a1.032 1.032 0 0 0-.5.22.964.964 0 0 0-.32.445 1.19 1.19 0 0 0-.055.6c.029.201.108.392.23.555a1 1 0 0 0 1 .39c.181-.029.352-.105.495-.22H2.6a.944.944 0 0 0 .32-.45c.068-.191.085-.396.05-.595a1.249 1.249 0 0 0-.225-.56.928.928 0 0 0-.44-.33 1.049 1.049 0 0 0-.56-.055z" id="aa"/>
        <path d="m1.39.38.23.465c-.3.124-.557.332-.74.6-.12.144-.199.316-.23.5a.354.354 0 0 0 .15.34c.073.059.17.079.26.055a.673.673 0 0 0 .265-.14c.085-.07.195-.17.34-.305a4.42 4.42 0 0 1 .475-.425.899.899 0 0 1 .44-.18c.18-.015.36.04.5.155a.79.79 0 0 1 .345.7c-.024.353-.157.69-.38.965a2.723 2.723 0 0 1-.545.575 1.685 1.685 0 0 1-.545.305l-.23-.465a1.66 1.66 0 0 0 .5-.275c.164-.124.307-.272.425-.44.295-.41.325-.7.09-.865a.297.297 0 0 0-.245-.05.723.723 0 0 0-.25.135c-.08.07-.185.17-.325.305a4.192 4.192 0 0 1-.475.43.96.96 0 0 1-.455.185.714.714 0 0 1-.5-.16.83.83 0 0 1-.36-.695c.015-.342.137-.671.35-.94C.606.982.752.824.915.685c.14-.128.3-.231.475-.305z" id="ac"/>
        <path d="M1.795.825c.294.04.573.155.81.335.04.034.076.071.11.11l-1.5 2.1c.234.128.508.161.765.09.274-.083.51-.26.665-.5.21-.276.291-.63.22-.97l.5-.04a1.34 1.34 0 0 1 0 .66 1.869 1.869 0 0 1-.305.66 1.964 1.964 0 0 1-.69.605 1.5 1.5 0 0 1-.825.155A1.78 1.78 0 0 1 .18 3.06a1.502 1.502 0 0 1-.14-.8c.034-.284.14-.555.31-.785A1.53 1.53 0 0 1 1 .945a1.44 1.44 0 0 1 .795-.12zm-.455.545A1.08 1.08 0 0 0 .53 2.5c.032.252.157.484.35.65l1.185-1.665a1.064 1.064 0 0 0-.725-.115z" id="ae"/>
        <path d="m1.84.77-.025.5a.905.905 0 0 0-.5.105 1.042 1.042 0 0 0-.38.33c-.115.16-.189.345-.215.54a1 1 0 0 0 .095.545c.091.182.227.339.395.455.165.122.357.201.56.23.188.021.378-.01.55-.09.173-.088.323-.216.435-.375.1-.139.168-.3.195-.47a1 1 0 0 0-.06-.5l.5-.195c.108.223.147.474.11.72a1.657 1.657 0 0 1-.305.73A1.78 1.78 0 0 1 2.5 3.9a1.548 1.548 0 0 1-.82.15 1.75 1.75 0 0 1-1.36-.975 1.5 1.5 0 0 1-.12-.82c.038-.299.153-.584.335-.825.152-.221.354-.403.59-.53.22-.115.469-.161.715-.13z" id="ag"/>
        <path d="m1.665.5.39.275-.53.725 1.4 1c.11.093.252.138.395.125a.5.5 0 0 0 .33-.22.685.685 0 0 0 .135-.45l.445.085a.805.805 0 0 1-.05.35 1.387 1.387 0 0 1-.175.345 1 1 0 0 1-.645.455 1 1 0 0 1-.75-.215l-1.42-1-.315.44L.49 2.14.8 1.7l-.565-.405.335-.47.565.405.53-.73z" id="ai"/>
        <path d="M2.375.98a1.75 1.75 0 0 1 1.36 1 1.5 1.5 0 0 1 .13.815 1.724 1.724 0 0 1-.32.81 1.69 1.69 0 0 1-.67.545 1.499 1.499 0 0 1-.815.145 1.647 1.647 0 0 1-.805-.31 1.693 1.693 0 0 1-.555-.66 1.535 1.535 0 0 1-.125-.82c.039-.293.15-.571.325-.81.167-.246.397-.442.665-.57.25-.125.532-.175.81-.145zm-.63.64a1.142 1.142 0 0 0-.64.895 1 1 0 0 0 .095.54c.091.182.227.339.395.455.164.122.357.199.56.225.186.023.375-.006.545-.085a1.1 1.1 0 0 0 .635-.89.959.959 0 0 0-.1-.54 1.218 1.218 0 0 0-.395-.455 1.25 1.25 0 0 0-.555-.225.947.947 0 0 0-.54.08z" id="ak"/>
        <path d="m1.3.335.455.325a.999.999 0 0 0-.255.84c.073.283.252.526.5.68l1.285.92-.335.47L.365 1.72l.32-.45.435.31A1 1 0 0 1 1 1c.047-.242.15-.469.3-.665z" id="am"/>
    </defs>
    <g fill="none" fill-rule="evenodd">
        <g transform="translate(41 1)">
            <mask id="b" fill="#fff">
                <use xlink:href="#a"/>
            </mask>
            <path fill="#E6E6E6" mask="url(#b)" d="M-4.945-4.225H34.15V36.1H-4.945z"/>
        </g>
        <g stroke="#000" stroke-linecap="round" stroke-linejoin="round">
            <path d="M70.15 19.435 41.055 32.1 49.77 1.775S63.5 4.32 70.15 19.435z" stroke-width=".5"/>
            <path d="M41.205 63.9c17.48 0 31.65-14.17 31.65-31.65C72.855 14.77 58.685.6 41.205.6c-17.48 0-31.65 14.17-31.65 31.65 0 17.48 14.17 31.65 31.65 31.65z"/>
            <path stroke-width=".5" d="m11.03 42.34 60.08-19.745M18.625 10.075 41.055 32.1M70.15 45.065l-49.96 10.85M.955 12.2l16.8 52.2"/>
        </g>
        <g transform="translate(32 38)">
            <mask id="d" fill="#fff">
                <use xlink:href="#c"/>
            </mask>
            <path fill="#000" mask="url(#d)" d="M-4.89-4.88H8.764V9.919H-4.891z"/>
        </g>
        <g transform="translate(35 37)">
            <mask id="f" fill="#fff">
                <use xlink:href="#e"/>
            </mask>
            <path fill="#000" mask="url(#f)" d="M-4.393-4.358H7.375v14.483H-4.393z"/>
        </g>
        <g transform="translate(37 38)">
            <mask id="h" fill="#fff">
                <use xlink:href="#g"/>
            </mask>
            <path fill="#000" mask="url(#h)" d="M-4.465-4.785h13.32V8.553h-13.32z"/>
        </g>
        <g transform="translate(41 36)">
            <mask id="j" fill="#fff">
                <use xlink:href="#i"/>
            </mask>
            <path fill="#000" mask="url(#j)" d="M-4.96-4.486h15.965V9.735H-4.96z"/>
        </g>
        <g transform="translate(47 35)">
            <mask id="l" fill="#fff">
                <use xlink:href="#k"/>
            </mask>
            <path fill="#000" mask="url(#l)" d="M-4.741-4.446H8.47V8.787H-4.741z"/>
        </g>
        <g transform="translate(50 34)">
            <mask id="n" fill="#fff">
                <use xlink:href="#m"/>
            </mask>
            <path fill="#000" mask="url(#n)" d="M-4.685-4.82h12.93V8.896h-12.93z"/>
        </g>
        <g transform="translate(53 33)">
            <mask id="p" fill="#fff">
                <use xlink:href="#o"/>
            </mask>
            <path fill="#000" mask="url(#p)" d="M-4.906-4.041H8.3V9.192H-4.906z"/>
        </g>
        <g transform="translate(56 32)">
            <mask id="r" fill="#fff">
                <use xlink:href="#q"/>
            </mask>
            <path fill="#000" mask="url(#r)" d="M-4.435-4.045h11.79V9.5h-11.79z"/>
        </g>
        <g transform="translate(19 17)">
            <mask id="t" fill="#fff">
                <use xlink:href="#s"/>
            </mask>
            <path fill="#000" mask="url(#t)" d="M-4.455-4.41h13.46V8.28h-13.46z"/>
        </g>
        <g transform="translate(21 19)">
            <mask id="v" fill="#fff">
                <use xlink:href="#u"/>
            </mask>
            <path fill="#000" mask="url(#v)" d="M-4.514-4.56H8.85V9.325H-4.514z"/>
        </g>
        <g transform="translate(24 22)">
            <mask id="x" fill="#fff">
                <use xlink:href="#w"/>
            </mask>
            <path fill="#000" mask="url(#x)" d="M-4.703-4.821h14.838V9.13H-4.703z"/>
        </g>
        <g transform="translate(26 23)">
            <mask id="z" fill="#fff">
                <use xlink:href="#y"/>
            </mask>
            <path fill="#000" mask="url(#z)" d="M-4.165-4.285h13.48v13.57h-13.48z"/>
        </g>
        <g transform="translate(28 25)">
            <mask id="B" fill="#fff">
                <use xlink:href="#A"/>
            </mask>
            <path fill="#000" mask="url(#B)" d="M-4.5-4.265H9.385V10.1H-4.5z"/>
        </g>
        <g transform="translate(30 28)">
            <mask id="D" fill="#fff">
                <use xlink:href="#C"/>
            </mask>
            <path fill="#000" mask="url(#D)" d="M-4.085-4.267H9.58V9.042H-4.085z"/>
        </g>
        <g transform="translate(0 27)">
            <mask id="F" fill="#fff">
                <use xlink:href="#E"/>
            </mask>
            <path fill="#000" mask="url(#F)" d="M-4.86-4.15H8.795V8.925H-4.86z"/>
        </g>
        <g transform="translate(0 30)">
            <mask id="H" fill="#fff">
                <use xlink:href="#G"/>
            </mask>
            <path fill="#000" mask="url(#H)" d="M-4.134-4.385H9.238V9.03H-4.134z"/>
        </g>
        <g transform="translate(1 34)">
            <mask id="J" fill="#fff">
                <use xlink:href="#I"/>
            </mask>
            <path fill="#000" mask="url(#J)" d="M-4.175-4.955h13.68V8.9h-13.68z"/>
        </g>
        <g transform="translate(2 38)">
            <mask id="L" fill="#fff">
                <use xlink:href="#K"/>
            </mask>
            <path fill="#000" mask="url(#L)" d="M-4.693-4.974h14.838V8.81H-4.693z"/>
        </g>
        <g transform="translate(4 41)">
            <mask id="N" fill="#fff">
                <use xlink:href="#M"/>
            </mask>
            <path fill="#000" mask="url(#N)" d="M-4.197-4.022H9.035V9.23H-4.197z"/>
        </g>
        <g transform="translate(5 45)">
            <mask id="P" fill="#fff">
                <use xlink:href="#O"/>
            </mask>
            <path fill="#000" mask="url(#P)" d="M-4.365-4.685H9.312V9.19H-4.365z"/>
        </g>
        <g transform="translate(7 48)">
            <mask id="R" fill="#fff">
                <use xlink:href="#Q"/>
            </mask>
            <path fill="#000" mask="url(#R)" d="M-4.796-4.25H8.845V8.835H-4.796z"/>
        </g>
        <g transform="translate(39 54)">
            <mask id="T" fill="#fff">
                <use xlink:href="#S"/>
            </mask>
            <path fill="#000" mask="url(#T)" d="M-4.282-4.506H8.85v13.26H-4.282z"/>
        </g>
        <g transform="translate(42 52)">
            <mask id="V" fill="#fff">
                <use xlink:href="#U"/>
            </mask>
            <path fill="#000" mask="url(#V)" d="M-4.065-4.095H9.59V10.39H-4.065z"/>
        </g>
        <g transform="translate(47 53)">
            <mask id="X" fill="#fff">
                <use xlink:href="#W"/>
            </mask>
            <path fill="#000" mask="url(#X)" d="M-4.88-4.641H8.44V8.633H-4.88z"/>
        </g>
        <g transform="translate(50 52)">
            <mask id="Z" fill="#fff">
                <use xlink:href="#Y"/>
            </mask>
            <path fill="#000" mask="url(#Z)" d="M-4.035-4.225h11.77v13.42h-11.77z"/>
        </g>
        <g transform="translate(53 51)">
            <mask id="ab" fill="#fff">
                <use xlink:href="#aa"/>
            </mask>
            <path fill="#000" mask="url(#ab)" d="M-4.753-5H8.765V9.708H-4.753z"/>
        </g>
        <g transform="translate(48 22)">
            <mask id="ad" fill="#fff">
                <use xlink:href="#ac"/>
            </mask>
            <path fill="#000" mask="url(#ad)" d="M-4.87-4.62H8.426V8.99H-4.87z"/>
        </g>
        <g transform="translate(50 19)">
            <mask id="af" fill="#fff">
                <use xlink:href="#ae"/>
            </mask>
            <path fill="#000" mask="url(#af)" d="M-4.968-4.188H8.406V9.037H-4.968z"/>
        </g>
        <g transform="translate(52 16)">
            <mask id="ah" fill="#fff">
                <use xlink:href="#ag"/>
            </mask>
            <path fill="#000" mask="url(#ah)" d="M-4.814-4.239H8.514V9.056H-4.814z"/>
        </g>
        <g transform="translate(53 14)">
            <mask id="aj" fill="#fff">
                <use xlink:href="#ai"/>
            </mask>
            <path fill="#000" mask="url(#aj)" d="M-4.765-4.5H9.232V8.197H-4.764z"/>
        </g>
        <g transform="translate(55 11)">
            <mask id="al" fill="#fff">
                <use xlink:href="#ak"/>
            </mask>
            <path fill="#000" mask="url(#al)" d="M-4.436-4.029H8.875V9.303H-4.437z"/>
        </g>
        <g transform="translate(57 9)">
            <mask id="an" fill="#fff">
                <use xlink:href="#am"/>
            </mask>
            <path fill="#000" mask="url(#an)" d="M-4.635-4.665h12.92V8.57h-12.92z"/>
        </g>
    </g>
</svg>
