<svg width="93" height="45" viewBox="-10 -10 113 65" xmlns="http://www.w3.org/2000/svg" xmlns:xlink="http://www.w3.org/1999/xlink">
    <defs>
        <path d="M4.62.805v6.23h-.775V6.33a1.74 1.74 0 0 1-.68.565 2.139 2.139 0 0 1-.905.19A2.337 2.337 0 0 1 1.1 6.8 2 2 0 0 1 .3 6C.1 5.636 0 5.225.01 4.81 0 4.396.1 3.987.3 3.625c.188-.335.465-.612.8-.8a2.337 2.337 0 0 1 1.16-.285c.303-.004.603.058.88.18.266.12.498.304.675.535V.805h.805zm-2.295 2.44a1.506 1.506 0 0 0-.765.195c-.236.13-.43.324-.56.56a1.82 1.82 0 0 0 0 1.64c.128.229.315.42.54.555.233.132.497.199.765.195.275.004.546-.067.785-.205.227-.132.414-.324.54-.555a1.82 1.82 0 0 0 0-1.64 1.398 1.398 0 0 0-.54-.55 1.528 1.528 0 0 0-.765-.195z" id="a"/>
        <path d="M21.5.85C33.374.85 43 10.476 43 22.35l-.003.356c-.19 11.71-9.742 21.144-21.497 21.144C9.626 43.85 0 34.224 0 22.35S9.626.85 21.5.85zm14.5 7a20.5 20.5 0 0 0-25.884-2.557A20.5 20.5 0 1 0 42 22.35l-.004-.453A20.435 20.435 0 0 0 36 7.85z" id="c"/>
        <path d="M40.74 1.1a.25.25 0 0 1 0 .5H.3a.25.25 0 0 1 0-.5h40.44z" id="e"/>
        <path d="M.535.835C.583.834.63.848.67.875L4.225 3.14a.245.245 0 0 1 0 .42L.67 5.825a.25.25 0 0 1-.27-.42L3.63 3.35.4 1.295a.25.25 0 0 1 .135-.46z" id="g"/>
        <path d="M4.505.835a.25.25 0 0 1 .135.46L1.41 3.35l3.23 2.055a.25.25 0 1 1-.27.42L.815 3.56a.245.245 0 0 1 0-.42L4.37.875a.232.232 0 0 1 .135-.04z" id="i"/>
        <path d="M2.97.94v.785h-.185a1.356 1.356 0 0 0-1 .39A1.539 1.539 0 0 0 1.41 3.23v2.215H.605V1h.77v.745c.132-.256.34-.466.595-.6a2.253 2.253 0 0 1 1-.205z" id="k"/>
        <path d="M21.5.15C33.374.15 43 9.776 43 21.65l-.003.356c-.19 11.71-9.742 21.144-21.497 21.144C9.626 43.15 0 33.524 0 21.65S9.626.15 21.5.15zm14.5 7a20.5 20.5 0 0 0-25.884-2.557A20.5 20.5 0 1 0 42 21.65l-.004-.453A20.435 20.435 0 0 0 36 7.15z" id="m"/>
        <path d="M20.825.4a.25.25 0 0 1 0 .5H.78a.25.25 0 0 1 0-.5h20.045z" id="o"/>
        <path d="M.635.135a.232.232 0 0 1 .135.04L4.325 2.44a.25.25 0 0 1 0 .42L.77 5.125a.255.255 0 0 1-.35-.075.25.25 0 0 1 .08-.345L3.71 2.65.485.595a.25.25 0 0 1 .15-.46z" id="q"/>
        <path d="M3.985.135c.087-.001.167.043.215.115a.246.246 0 0 1-.08.345L.895 2.65 4.12 4.705a.244.244 0 0 1 .08.345.25.25 0 0 1-.345.075L.295 2.86a.25.25 0 0 1 0-.42L3.855.175a.216.216 0 0 1 .13-.04z" id="s"/>
    </defs>
    <g fill="none" fill-rule="evenodd">
        <g transform="translate(19 13)">
            <mask id="b" fill="#fff">
                <use xlink:href="#a"/>
            </mask>
            <path fill="#000" mask="url(#b)" d="M-4.99-4.195H9.62v16.28H-4.99z"/>
        </g>
        <g>
            <mask id="d" fill="#fff">
                <use xlink:href="#c"/>
            </mask>
            <path fill="#000" mask="url(#d)" d="M-5-4.15h53v53H-5z"/>
        </g>
        <g transform="translate(1 21)">
            <mask id="f" fill="#fff">
                <use xlink:href="#e"/>
            </mask>
            <path fill="#000" mask="url(#f)" d="M-4.95-3.9h50.94V6.6H-4.95z"/>
        </g>
        <g transform="translate(38 19)">
            <mask id="h" fill="#fff">
                <use xlink:href="#g"/>
            </mask>
            <path fill="#000" mask="url(#h)" d="M-4.715-4.165H9.345v15.023H-4.714z"/>
        </g>
        <g transform="translate(0 19)">
            <mask id="j" fill="#fff">
                <use xlink:href="#i"/>
            </mask>
            <path fill="#000" mask="url(#j)" d="M-4.304-4.165h14.07v15.037h-14.07z"/>
        </g>
        <g transform="translate(80 14)">
            <mask id="l" fill="#fff">
                <use xlink:href="#k"/>
            </mask>
            <path fill="#000" mask="url(#l)" d="M-4.395-4.061H7.97v14.506H-4.395z"/>
        </g>
        <g transform="translate(50 1)">
            <mask id="n" fill="#fff">
                <use xlink:href="#m"/>
            </mask>
            <path fill="#000" mask="url(#n)" d="M-5-4.85h53v53H-5z"/>
        </g>
        <g transform="translate(71 22)">
            <mask id="p" fill="#fff">
                <use xlink:href="#o"/>
            </mask>
            <path fill="#000" mask="url(#p)" d="M-4.47-4.6h30.545V5.9H-4.47z"/>
        </g>
        <g transform="translate(88 20)">
            <mask id="r" fill="#fff">
                <use xlink:href="#q"/>
            </mask>
            <path fill="#000" mask="url(#r)" d="M-4.633-4.866H9.439v15.031H-4.633z"/>
        </g>
        <g transform="translate(71 20)">
            <mask id="t" fill="#fff">
                <use xlink:href="#s"/>
            </mask>
            <path fill="#000" mask="url(#t)" d="M-4.82-4.865H9.24v15.03H-4.82z"/>
        </g>
    </g>
</svg>
