<svg width="61" height="61" viewBox="-10 -10 81 81" xmlns="http://www.w3.org/2000/svg" xmlns:xlink="http://www.w3.org/1999/xlink">
    <defs>
        <path d="M2.79.68v.915a1.286 1.286 0 0 0-.215 0 1.574 1.574 0 0 0-1.2.455 1.81 1.81 0 0 0-.435 1.3v2.585H0V.73h.905v.875c.16-.3.413-.54.72-.685A2.598 2.598 0 0 1 2.79.68z" id="a"/>
        <path d="M30.5.95c16.32 0 29.55 13.23 29.55 29.55l-.004.49A29.55 29.55 0 0 1 30.5 60.05C14.18 60.05.95 46.82.95 30.5S14.18.95 30.5.95zm20.19 9.36C41.061.681 25.971-.806 14.648 6.758 3.325 14.323-1.078 28.832 4.131 41.414c5.21 12.582 18.582 19.732 31.938 17.077C49.425 55.837 59.047 44.118 59.05 30.5l-.004-.483A28.475 28.475 0 0 0 50.69 10.31z" id="c"/>
        <path d="M29.3.25a.25.25 0 0 1 0 .5H1.1a.25.25 0 0 1 0-.5h28.2z" id="e"/>
        <path d="M1.095.985c.047-.001.092.013.13.04l3.56 2.265a.25.25 0 0 1 0 .42l-3.56 2.265a.25.25 0 0 1-.379-.265.243.243 0 0 1 .114-.155L4.185 3.5.96 1.445A.243.243 0 0 1 .88 1.1a.255.255 0 0 1 .215-.115z" id="g"/>
        <path d="M4.305.985c.08.006.152.048.195.115a.246.246 0 0 1-.08.345L1.215 3.5 4.44 5.555a.244.244 0 0 1 .08.345.25.25 0 0 1-.345.075L.615 3.71a.25.25 0 0 1 0-.42l3.56-2.265a.216.216 0 0 1 .13-.04z" id="i"/>
    </defs>
    <g fill="none" fill-rule="evenodd">
        <g transform="translate(44 22)">
            <mask id="b" fill="#fff">
                <use xlink:href="#a"/>
            </mask>
            <path fill="#000" mask="url(#b)" d="M-5-4.321H7.79v15.256H-5z"/>
        </g>
        <g>
            <mask id="d" fill="#fff">
                <use xlink:href="#c"/>
            </mask>
            <path fill="#000" mask="url(#d)" d="M-4.05-4.05h69.1v69.1h-69.1z"/>
        </g>
        <g transform="translate(30 30)">
            <mask id="f" fill="#fff">
                <use xlink:href="#e"/>
            </mask>
            <path fill="#000" mask="url(#f)" d="M-4.15-4.75h38.7v10.5h-38.7z"/>
        </g>
        <g transform="translate(55 27)">
            <mask id="h" fill="#fff">
                <use xlink:href="#g"/>
            </mask>
            <path fill="#000" mask="url(#h)" d="M-4.16-4.015H9.899v15.03H-4.16z"/>
        </g>
        <g transform="translate(30 27)">
            <mask id="j" fill="#fff">
                <use xlink:href="#i"/>
            </mask>
            <path fill="#000" mask="url(#j)" d="M-4.5-4.015H9.56v15.03H-4.5z"/>
        </g>
    </g>
</svg>
