<svg xmlns="http://www.w3.org/2000/svg" xmlns:xlink="http://www.w3.org/1999/xlink" width="24px" height="24px" viewBox="0 0 24 24" version="1.1">
    <title>3988174B-4F50-422B-A319-E8A91D774B62</title>
    <g id="Iconography" stroke="none" stroke-width="1" fill="none" fill-rule="evenodd">
        <g id="Icons-/-Base-/-Bas-26">
            <rect id="Rectangle" x="4.4408921e-14" y="-3.59356989e-12" width="23.9975009" height="23.9975009"/>
            <rect id="Rectangle" x="4.4408921e-14" y="-3.59356989e-12" width="23.9975009" height="23.9975009"/>
            <path d="M22,10.1823625 C22,9.45726728 21.7,8.77136636 21.18,8.24224279 L16.64,3.79368536 C15.56,2.73543821 13.78,2.73543821 12.7,3.79368536 L3.82,12.4752314 C3.3,12.9847578 3,13.6706587 3,14.4153511 C3,15.1404464 3.3,15.8263473 3.82,16.3554709 L6.56,19.0402831 L4.98,19.0402831 C4.42,19.0402831 3.98,19.491018 3.98,20.0201415 C3.98,20.5688623 4.44,21 4.98,21 L20,21 C20.56,21 21,20.5492651 21,20.0201415 C21,19.4714208 20.54,19.0402831 20,19.0402831 L14.14,19.0402831 L21.2,12.1224823 C21.7,11.6129559 22,10.927055 22,10.1823625 Z M9.36407767,19.1052632 L5.12320388,15.0227889 C4.98116505,14.8860553 4.9,14.6907216 4.9,14.495388 C4.9,14.3000543 4.98116505,14.1047206 5.12320388,13.967987 L9.62786408,9.63157895 L15.35,15.1399891 L11.251165,19.1052632 L9.36407767,19.1052632 Z" id="Shape" fill="#f28334"/>
        </g>
    </g>
</svg>
