<?xml version="1.0" encoding="UTF-8"?>
<svg width="95px" height="37px" viewBox="-10 -10 115 57" version="1.1" xmlns="http://www.w3.org/2000/svg" xmlns:xlink="http://www.w3.org/1999/xlink">
    <title>A77602E5-E27B-4937-B183-2B4ACB089EB5</title>
    <defs>
        <path d="M1.0355,1.103 L37.4728,35.175 L94.288,35.175 C94.55,35.175 94.763,35.388 94.763,35.65 C94.763,35.912 94.55,36.125 94.288,36.125 L37.2875,36.125 C37.1675,36.125 37.0521,36.079 36.9645,35.997 L0.3895,1.797 C0.2516,1.685 0.1876,1.506 0.2235,1.332 C0.2593,1.158 0.3891,1.019 0.56,0.971 C0.7308,0.922 0.9142,0.974 1.0355,1.103 Z" id="path-1"></path>
        <path d="M16.4823,1.93 C21.7177,3.883 25.7124,8.209 27.2428,13.584 C27.2618,13.644 27.2553,13.71 27.2248,13.765 C27.1943,13.821 27.1425,13.862 27.0813,13.878 L27.0148,13.8880106 C26.9087,13.889 26.8149,13.819 26.7868,13.716 C25.2985,8.486 21.4111,4.275 16.316,2.375 C11.2208,0.474 5.5254,1.11 0.9753,4.088 C0.8656,4.151 0.7261,4.117 0.6578,4.01 C0.5895,3.904 0.6163,3.763 0.7188,3.689 C5.3949,0.63 11.2469,-0.023 16.4823,1.93 Z" id="path-3"></path>
    </defs>
    <g id="Page-1" stroke="none" stroke-width="1" fill="none" fill-rule="evenodd">
        <g id="SHAPES" transform="translate(-365.000000, -3577.000000)">
            <g id="Group-42" transform="translate(365.000000, 3577.000000)">
                <g id="Group-4182">
                    <mask id="mask-2" fill="white">
                        <use xlink:href="#path-1"></use>
                    </mask>
                    <g id="Clip-4181"></g>
                    <polygon id="Fill-4180" fill="#000000" mask="url(#mask-2)" points="-4.7863 -4.047 99.763 -4.047 99.763 41.125 -4.7863 41.125"></polygon>
                </g>
                <g id="Group-4185" transform="translate(26.000000, 22.000000)">
                    <mask id="mask-4" fill="white">
                        <use xlink:href="#path-3"></use>
                    </mask>
                    <g id="Clip-4184"></g>
                    <polygon id="Fill-4183" fill="#000000" mask="url(#mask-4)" points="-4.3799 -4.178 32.2535 -4.178 32.2535 18.888 -4.3799 18.888"></polygon>
                </g>
            </g>
        </g>
    </g>
</svg>