<?xml version="1.0" encoding="UTF-8"?>
<svg width="93px" height="47px" viewBox="0 0 93 47" version="1.1" xmlns="http://www.w3.org/2000/svg" xmlns:xlink="http://www.w3.org/1999/xlink">
    <title>4B678607-9853-49FE-98F3-1D18DCEBF17F</title>
    <defs>
        <path d="M23.78,0.525 L92.405,22.275 C92.611,22.34 92.752,22.529 92.7566088,22.745 C92.767,22.969 92.628,23.174 92.415,23.245 L23.785,46.5 L23.705,46.506 L23.705,46.506 L23.625,46.5 C23.4914,46.499 23.3635,46.445 23.27,46.35 L0.395,23.1 C0.3002,23.004 0.2479,22.875 0.249844677,22.74 C0.2532,22.607 0.309,22.481 0.405,22.39 L23.28,0.64 C23.4128,0.513 23.6049,0.468 23.78,0.525 Z M23.755,1.565 L1.465,22.76 L23.76,45.425 L90.645,22.765 L23.755,1.565 Z" id="path-1"></path>
        <path d="M1.625,0.67 L7.625,7.42 C7.807,7.627 7.7869,7.943 7.58,8.125 C7.4888,8.205 7.3715,8.25 7.25,8.25 C7.1064,8.25 6.9698,8.188 6.875,8.08 L0.875,1.33 C0.7477,1.197 0.7033,1.006 0.7596,0.831 C0.8158,0.656 0.9636,0.526 1.1444,0.492 C1.3251,0.458 1.5097,0.527 1.625,0.67 Z" id="path-3"></path>
        <path d="M6.6056,0.492 C6.7864,0.526 6.9342,0.656 6.9904,0.831 C7.0467,1.006 7.0023,1.197 6.875,1.33 L0.875,8.08 C0.7802,8.188 0.6436,8.25 0.5,8.25 C0.3785,8.25 0.2612,8.205 0.17,8.125 C-0.0369,7.943 -0.057,7.627 0.125,7.42 L6.125,0.67 C6.2403,0.527 6.4249,0.458 6.6056,0.492 Z" id="path-5"></path>
        <path d="M3.125,0.27 C3.39,0.35 3.54,0.63 3.46,0.895 L1.21,8.395 C1.148,8.599 0.963,8.742 0.75,8.75 C0.588,8.757 0.433,8.685 0.333,8.557 C0.234,8.429 0.203,8.26 0.25,8.105 L2.5,0.605 C2.58,0.34 2.86,0.19 3.125,0.27 Z" id="path-7"></path>
        <path d="M3.125,0.02 C3.39,0.1 3.54,0.38 3.46,0.645 L1.21,8.145 C1.148,8.349 0.963,8.492 0.75,8.5 C0.588,8.507 0.433,8.435 0.333,8.307 C0.234,8.179 0.203,8.01 0.25,7.855 L2.5,0.355 C2.58,0.09 2.86,-0.06 3.125,0.02 Z" id="path-9"></path>
        <path d="M1.425,0.375 C1.546,0.432 1.64,0.534 1.685,0.66 L4.36,8.02 C4.454,8.28 4.319,8.566 4.06,8.66 C4.007,8.687 3.949,8.704 3.89,8.71 C3.679,8.71 3.492,8.578 3.42,8.38 L0.745,1 C0.651,0.742 0.782,0.456 1.04,0.36 C1.165,0.313 1.304,0.319 1.425,0.375 Z" id="path-11"></path>
        <path d="M1.83,0.87 L4.5,8.23 C4.594,8.488 4.463,8.774 4.205,8.87 C4.152,8.889 4.096,8.899 4.04,8.9 C3.829,8.9 3.642,8.768 3.57,8.57 L0.89,1.215 C0.795,0.955 0.928,0.668 1.188,0.572 C1.447,0.477 1.735,0.61 1.83,0.87 Z" id="path-13"></path>
        <path d="M11.5,0.765 C18.31,0.765 21.065,8.035 21.095,8.105 C21.1394,8.236 21.0735,8.379 20.945,8.43 L20.86,8.43 C20.7547,8.43 20.6608,8.364 20.625,8.265 C20.625,8.195 17.99,1.265 11.5,1.265 C6.426,1.265 3.0084595,4.98133719 1.74198254,6.6316843 L1.57927498,6.84797521 C1.33152893,7.18417355 1.20136364,7.39409091 1.195,7.405 C1.1617,7.463 1.106,7.506 1.0408,7.522 C0.9755,7.538 0.9066,7.526 0.85,7.49 C0.7337,7.419 0.6959,7.268 0.765,7.15 C0.805,7.085 4.69,0.765 11.5,0.765 Z" id="path-15"></path>
        <path d="M20.935,0.28 C21.0677,0.319 21.1454,0.456 21.11,0.59 C21.075,0.66 18.715,8.625 10.375,8.625 C2.035,8.625 0.03,2.2 0.01,2.125 C-0.0123,2.037 0.0137,1.945 0.0784,1.882 C0.143,1.818 0.2364,1.795 0.3234,1.819 C0.4103,1.844 0.4777,1.912 0.5,2 C0.9149,3.151 1.5712,4.199 2.425,5.075 C3.76,6.47 6.225,8.135 10.385,8.135 C18.345,8.135 20.605,0.53 20.63,0.455 C20.6451,0.39 20.6865,0.334 20.7444,0.301 C20.8022,0.268 20.8713,0.26 20.935,0.28 Z" id="path-17"></path>
    </defs>
    <g id="Page-1" stroke="none" stroke-width="1" fill="none" fill-rule="evenodd">
        <g id="SHAPES" transform="translate(-368.000000, -5638.000000)">
            <g id="Group-64" transform="translate(368.000000, 5638.000000)">
                <g id="Group-4462">
                    <mask id="mask-2" fill="white">
                        <use xlink:href="#path-1"></use>
                    </mask>
                    <g id="Clip-4461"></g>
                    <polygon id="Fill-4460" fill="#000000" mask="url(#mask-2)" points="-4.7501 -4.499 97.756 -4.499 97.756 51.506 -4.7501 51.506"></polygon>
                </g>
                <g id="Group-4465" transform="translate(10.000000, 6.000000)">
                    <mask id="mask-4" fill="white">
                        <use xlink:href="#path-3"></use>
                    </mask>
                    <g id="Clip-4464"></g>
                    <polygon id="Fill-4463" fill="#000000" mask="url(#mask-4)" points="-4.2644 -4.516 12.7493 -4.516 12.7493 13.25 -4.2644 13.25"></polygon>
                </g>
                <g id="Group-4468" transform="translate(10.000000, 30.000000)">
                    <mask id="mask-6" fill="white">
                        <use xlink:href="#path-5"></use>
                    </mask>
                    <g id="Clip-4467"></g>
                    <polygon id="Fill-4466" fill="#000000" mask="url(#mask-6)" points="-4.9993 -4.516 12.0144 -4.516 12.0144 13.25 -4.9993 13.25"></polygon>
                </g>
                <g id="Group-4471" transform="translate(60.000000, 10.000000)">
                    <mask id="mask-8" fill="white">
                        <use xlink:href="#path-7"></use>
                    </mask>
                    <g id="Clip-4470"></g>
                    <polygon id="Fill-4469" fill="#000000" mask="url(#mask-8)" points="-4.7716 -4.752 8.482 -4.752 8.482 13.75 -4.7716 13.75"></polygon>
                </g>
                <g id="Group-4474" transform="translate(63.000000, 11.000000)">
                    <mask id="mask-10" fill="white">
                        <use xlink:href="#path-9"></use>
                    </mask>
                    <g id="Clip-4473"></g>
                    <polygon id="Fill-4472" fill="#000000" mask="url(#mask-10)" points="-4.7716 -5.002 8.482 -5.002 8.482 13.5 -4.7716 13.5"></polygon>
                </g>
                <g id="Group-4477" transform="translate(63.000000, 27.000000)">
                    <mask id="mask-12" fill="white">
                        <use xlink:href="#path-11"></use>
                    </mask>
                    <g id="Clip-4476"></g>
                    <polygon id="Fill-4475" fill="#000000" mask="url(#mask-12)" points="-4.2855 -4.671 9.39 -4.671 9.39 13.71 -4.2855 13.71"></polygon>
                </g>
                <g id="Group-4480" transform="translate(60.000000, 28.000000)">
                    <mask id="mask-14" fill="white">
                        <use xlink:href="#path-13"></use>
                    </mask>
                    <g id="Clip-4479"></g>
                    <polygon id="Fill-4478" fill="#000000" mask="url(#mask-14)" points="-4.1408 -4.458 9.53 -4.458 9.53 13.9 -4.1408 13.9"></polygon>
                </g>
                <g id="Group-4483" transform="translate(17.000000, 33.000000)">
                    <mask id="mask-16" fill="white">
                        <use xlink:href="#path-15"></use>
                    </mask>
                    <g id="Clip-4482"></g>
                    <polygon id="Fill-4481" fill="#000000" mask="url(#mask-16)" points="-4.2696 -4.235 26.1088 -4.235 26.1088 13.43 -4.2696 13.43"></polygon>
                </g>
                <g id="Group-4486" transform="translate(17.000000, 5.000000)">
                    <mask id="mask-18" fill="white">
                        <use xlink:href="#path-17"></use>
                    </mask>
                    <g id="Clip-4485"></g>
                    <polygon id="Fill-4484" fill="#000000" mask="url(#mask-18)" points="-4.9979 -4.731 26.1185 -4.731 26.1185 13.625 -4.9979 13.625"></polygon>
                </g>
            </g>
        </g>
    </g>
</svg>