<?xml version="1.0" encoding="UTF-8"?>
<svg width="41px" height="41px" viewBox="-10 -10 61 61" version="1.1" xmlns="http://www.w3.org/2000/svg" xmlns:xlink="http://www.w3.org/1999/xlink">
    <title>61ADD774-1AAE-4322-8010-DE86C41DF1A7</title>
    <defs>
        <path d="M39.625,0.875 C39.9011,0.875 40.125,1.099 40.125,1.375 L40.125,39.625 C40.125,39.901 39.9011,40.125 39.625,40.125 L1.375,40.125 C1.0989,40.125 0.875,39.901 0.875,39.625 L0.875,1.375 C0.875,1.099 1.0989,0.875 1.375,0.875 L39.625,0.875 Z M39.125,1.875 L1.875,1.875 L1.875,39.125 L39.125,39.125 L39.125,1.875 Z" id="path-1"></path>
        <path d="M8.625,0.125 C8.7631,0.125 8.875,0.237 8.875,0.375 L8.875,9.155 C8.875,9.293 8.7631,9.405 8.625,9.405 L0.375,9.405 C0.2369,9.405 0.125,9.293 0.125,9.155 C0.125,9.017 0.2369,8.905 0.375,8.905 L8.375,8.905 L8.375,0.375 C8.375,0.237 8.4869,0.125 8.625,0.125 Z" id="path-3"></path>
        <path d="M8.625,0.875 C8.7631,0.875 8.875,0.987 8.875,1.125 L8.875,8.405 C8.875,8.543 8.7631,8.655 8.625,8.655 C8.4869,8.655 8.375,8.543 8.375,8.405 L8.375,1.375 L0.375,1.375 C0.2369,1.375 0.125,1.263 0.125,1.125 C0.125,0.987 0.2369,0.875 0.375,0.875 L8.625,0.875 Z" id="path-5"></path>
        <path d="M0.375,0.125 C0.5131,0.125 0.625,0.237 0.625,0.375 L0.625,8.905 L8.625,8.905 C8.7631,8.905 8.875,9.017 8.875,9.155 C8.875,9.293 8.7631,9.405 8.625,9.405 L0.375,9.405 C0.2369,9.405 0.125,9.293 0.125,9.155 L0.125,0.375 C0.125,0.237 0.2369,0.125 0.375,0.125 Z" id="path-7"></path>
        <path d="M8.625,0.875 C8.7631,0.875 8.875,0.987 8.875,1.125 C8.875,1.263 8.7631,1.375 8.625,1.375 L0.625,1.375 L0.625,8.405 C0.625,8.543 0.5131,8.655 0.375,8.655 C0.2369,8.655 0.125,8.543 0.125,8.405 L0.125,1.125 C0.125,0.987 0.2369,0.875 0.375,0.875 L8.625,0.875 Z" id="path-9"></path>
    </defs>
    <g id="Page-1" stroke="none" stroke-width="1" fill="none" fill-rule="evenodd">
        <g id="SHAPES" transform="translate(-263.000000, -5462.000000)">
            <g id="Group-62" transform="translate(263.000000, 5462.000000)">
                <g id="Group-4415">
                    <mask id="mask-2" fill="white">
                        <use xlink:href="#path-1"></use>
                    </mask>
                    <g id="Clip-4414"></g>
                    <polygon id="Fill-4413" fill="#000000" mask="url(#mask-2)" points="-4.125 -4.125 45.125 -4.125 45.125 45.125 -4.125 45.125"></polygon>
                </g>
                <g id="Group-4418" transform="translate(1.000000, 1.000000)">
                    <mask id="mask-4" fill="white">
                        <use xlink:href="#path-3"></use>
                    </mask>
                    <g id="Clip-4417"></g>
                    <polygon id="Fill-4416" fill="#000000" mask="url(#mask-4)" points="-4.875 -4.875 13.875 -4.875 13.875 14.405 -4.875 14.405"></polygon>
                </g>
                <g id="Group-4421" transform="translate(1.000000, 31.000000)">
                    <mask id="mask-6" fill="white">
                        <use xlink:href="#path-5"></use>
                    </mask>
                    <g id="Clip-4420"></g>
                    <polygon id="Fill-4419" fill="#000000" mask="url(#mask-6)" points="-4.875 -4.125 13.875 -4.125 13.875 13.655 -4.875 13.655"></polygon>
                </g>
                <g id="Group-4424" transform="translate(31.000000, 1.000000)">
                    <mask id="mask-8" fill="white">
                        <use xlink:href="#path-7"></use>
                    </mask>
                    <g id="Clip-4423"></g>
                    <polygon id="Fill-4422" fill="#000000" mask="url(#mask-8)" points="-4.875 -4.875 13.875 -4.875 13.875 14.405 -4.875 14.405"></polygon>
                </g>
                <g id="Group-4427" transform="translate(31.000000, 31.000000)">
                    <mask id="mask-10" fill="white">
                        <use xlink:href="#path-9"></use>
                    </mask>
                    <g id="Clip-4426"></g>
                    <polygon id="Fill-4425" fill="#000000" mask="url(#mask-10)" points="-4.875 -4.125 13.875 -4.125 13.875 13.655 -4.875 13.655"></polygon>
                </g>
            </g>
        </g>
    </g>
</svg>