<?xml version="1.0" encoding="UTF-8"?>
<svg width="69px" height="49px" viewBox="-10 -10 89 69" version="1.1" xmlns="http://www.w3.org/2000/svg" xmlns:xlink="http://www.w3.org/1999/xlink">
    <title>C3A1FB45-EB73-4AE0-8E98-01C6FCF6B273</title>
    <defs>
        <path d="M53.415,0.704983765 C53.6211,0.706 53.8058,0.833 53.88,1.025 L68.545,38.84 C68.6064,38.994 68.5873,39.169 68.4942,39.306 C68.401,39.443 68.2459,39.525 68.08,39.525 L0.925,39.525 C0.7806,39.524 0.6439,39.46 0.55,39.35 C0.4536,39.241 0.4097,39.094 0.43,38.95 L5.835,1.135 C5.8701,0.886 6.084,0.703 6.335,0.704983765 L53.415,0.704983765 Z M53.065,1.705 L6.76,1.705 L1.5,38.525 L67.345,38.525 L53.065,1.705 Z" id="path-1"></path>
        <path d="M1.435,0.925 L7.55,4.78 C7.7402,4.898 7.8289,5.128 7.7673,5.343 C7.7057,5.558 7.5087,5.706 7.285,5.70500504 C7.1914,5.70500504 7.0996,5.679 7.02,5.63 L0.9,1.77 C0.6667,1.622 0.5973,1.313 0.745,1.08 C0.8927,0.847 1.2017,0.777 1.435,0.925 Z" id="path-3"></path>
        <path d="M1.435,0.44 L7.55,4.3 C7.7402,4.418 7.8289,4.648 7.7673,4.863 C7.7057,5.078 7.5087,5.226 7.285,5.22502588 C7.1906,5.226 7.0983,5.198 7.02,5.145 L0.9,1.285 C0.7879,1.214 0.7086,1.102 0.6796,0.972 C0.6505,0.843 0.674,0.707 0.745,0.595 C0.8159,0.483 0.9285,0.404 1.0579,0.375 C1.1873,0.346 1.323,0.369 1.435,0.44 Z" id="path-5"></path>
        <path d="M9.7619,0.575 C9.9223,0.665 10.0207,0.835 10.0182465,1.019 C10.0157,1.202 9.9127,1.37 9.75,1.455 L1.645,6.09 C1.5688,6.133 1.4826,6.156 1.395,6.15503129 C1.1682,6.154 0.9703,6.001 0.9129,5.782 C0.8554,5.562 0.9527,5.332 1.15,5.22 L9.25,0.59 C9.405,0.491 9.6015,0.486 9.7619,0.575 Z" id="path-7"></path>
        <path d="M7.6584,0.386 C7.7978,0.608 7.7417,0.9 7.53,1.055 L1.415,4.915 C1.3422,4.964 1.2577,4.994 1.17,5.00004508 C0.9454,5.003 0.7463,4.856 0.6833,4.64 C0.6204,4.424 0.709,4.193 0.9,4.075 L7,0.21 C7.2316,0.087 7.519,0.164 7.6584,0.386 Z" id="path-9"></path>
    </defs>
    <g id="Page-1" stroke="none" stroke-width="1" fill="none" fill-rule="evenodd">
        <g id="SHAPES" transform="translate(-119.000000, -5835.000000)">
            <g id="Group-67" transform="translate(119.000000, 5835.000000)">
                <g id="Group-4331" transform="translate(0.000000, 4.000000)">
                    <mask id="mask-2" fill="white">
                        <use xlink:href="#path-1"></use>
                    </mask>
                    <g id="Clip-4330"></g>
                    <polygon id="Fill-4329" fill="#000000" mask="url(#mask-2)" points="-4.5749 -4.295 73.5805 -4.295 73.5805 44.525 -4.5749 44.525"></polygon>
                </g>
                <g id="Group-4334" transform="translate(26.000000, 0.000000)">
                    <mask id="mask-4" fill="white">
                        <use xlink:href="#path-3"></use>
                    </mask>
                    <g id="Clip-4333"></g>
                    <polygon id="Fill-4332" fill="#000000" mask="url(#mask-4)" points="-4.3326 -4.153 12.7867 -4.153 12.7867 10.705 -4.3326 10.705"></polygon>
                </g>
                <g id="Group-4337" transform="translate(26.000000, 38.000000)">
                    <mask id="mask-6" fill="white">
                        <use xlink:href="#path-5"></use>
                    </mask>
                    <g id="Clip-4336"></g>
                    <polygon id="Fill-4335" fill="#000000" mask="url(#mask-6)" points="-4.3326 -4.638 12.7867 -4.638 12.7867 10.225 -4.3326 10.225"></polygon>
                </g>
                <g id="Group-4340" transform="translate(25.000000, 42.000000)">
                    <mask id="mask-8" fill="white">
                        <use xlink:href="#path-7"></use>
                    </mask>
                    <g id="Clip-4339"></g>
                    <polygon id="Fill-4338" fill="#000000" mask="url(#mask-8)" points="-4.1035 -4.488 15.0183 -4.488 15.0183 11.155 -4.1035 11.155"></polygon>
                </g>
                <g id="Group-4343" transform="translate(26.000000, 5.000000)">
                    <mask id="mask-10" fill="white">
                        <use xlink:href="#path-9"></use>
                    </mask>
                    <g id="Clip-4342"></g>
                    <polygon id="Fill-4341" fill="#000000" mask="url(#mask-10)" points="-4.3367 -4.849 12.7349 -4.849 12.7349 10 -4.3367 10"></polygon>
                </g>
            </g>
        </g>
    </g>
</svg>