<?xml version="1.0" encoding="UTF-8"?>
<svg width="77px" height="31px" viewBox="0 0 77 31" version="1.1" xmlns="http://www.w3.org/2000/svg" xmlns:xlink="http://www.w3.org/1999/xlink">
    <title>8CFBD56E-59D7-443C-ACD4-933E3097385F</title>
    <defs>
        <path d="M76,0.375 C76.276,0.375 76.5,0.599 76.5,0.875 L76.5,30.125 C76.5,30.401 76.276,30.625 76,30.625 L1,30.625 C0.7239,30.625 0.5,30.401 0.5,30.125 L0.5,0.875 C0.5,0.599 0.7239,0.375 1,0.375 L76,0.375 Z M75.5,1.375 L1.5,1.375 L1.5,29.625 L75.5,29.625 L75.5,1.375 Z" id="path-1"></path>
        <path d="M8.605,0.625 C8.7431,0.625 8.855,0.737 8.855,0.875 L8.855,8.965 C8.855,9.103 8.7431,9.215 8.605,9.215 L1,9.215 C0.8619,9.215 0.75,9.103 0.75,8.965 C0.75,8.827 0.8619,8.715 1,8.715 L8.355,8.715 L8.355,0.875 C8.355,0.737 8.4669,0.625 8.605,0.625 Z" id="path-3"></path>
        <path d="M8.605,0.965 C8.7431,0.965 8.855,1.077 8.855,1.215 L8.855,7.92 C8.855,8.058 8.7431,8.17 8.605,8.17 C8.4669,8.17 8.355,8.058 8.355,7.92 L8.355,1.465 L1,1.465 C0.8619,1.465 0.75,1.353 0.75,1.215 C0.75,1.077 0.8619,0.965 1,0.965 L8.605,0.965 Z" id="path-5"></path>
        <path d="M0.395,0.625 C0.533,0.625 0.645,0.737 0.645,0.875 L0.645,8.715 L8,8.715 C8.138,8.715 8.25,8.827 8.25,8.965 C8.25,9.103 8.138,9.215 8,9.215 L0.395,9.215 C0.257,9.215 0.145,9.103 0.145,8.965 L0.145,0.875 C0.145,0.737 0.257,0.625 0.395,0.625 Z" id="path-7"></path>
        <path d="M8,0.965 C8.138,0.965 8.25,1.077 8.25,1.215 C8.25,1.353 8.138,1.465 8,1.465 L0.645,1.465 L0.645,7.92 C0.645,8.058 0.533,8.17 0.395,8.17 C0.257,8.17 0.145,8.058 0.145,7.92 L0.145,1.215 C0.145,1.077 0.257,0.965 0.395,0.965 L8,0.965 Z" id="path-9"></path>
    </defs>
    <g id="Page-1" stroke="none" stroke-width="1" fill="none" fill-rule="evenodd">
        <g id="SHAPES" transform="translate(-375.000000, -5467.000000)">
            <g id="Group-61" transform="translate(375.000000, 5467.000000)">
                <g id="Group-4497">
                    <mask id="mask-2" fill="white">
                        <use xlink:href="#path-1"></use>
                    </mask>
                    <g id="Clip-4496"></g>
                    <polygon id="Fill-4495" fill="#000000" mask="url(#mask-2)" points="-4.5 -4.625 81.5 -4.625 81.5 35.625 -4.5 35.625"></polygon>
                </g>
                <g id="Group-4500">
                    <mask id="mask-4" fill="white">
                        <use xlink:href="#path-3"></use>
                    </mask>
                    <g id="Clip-4499"></g>
                    <polygon id="Fill-4498" fill="#000000" mask="url(#mask-4)" points="-4.25 -4.375 13.855 -4.375 13.855 14.215 -4.25 14.215"></polygon>
                </g>
                <g id="Group-4503" transform="translate(0.000000, 22.000000)">
                    <mask id="mask-6" fill="white">
                        <use xlink:href="#path-5"></use>
                    </mask>
                    <g id="Clip-4502"></g>
                    <polygon id="Fill-4501" fill="#000000" mask="url(#mask-6)" points="-4.25 -4.035 13.855 -4.035 13.855 13.17 -4.25 13.17"></polygon>
                </g>
                <g id="Group-4506" transform="translate(68.000000, 0.000000)">
                    <mask id="mask-8" fill="white">
                        <use xlink:href="#path-7"></use>
                    </mask>
                    <g id="Clip-4505"></g>
                    <polygon id="Fill-4504" fill="#000000" mask="url(#mask-8)" points="-4.855 -4.375 13.25 -4.375 13.25 14.215 -4.855 14.215"></polygon>
                </g>
                <g id="Group-4509" transform="translate(68.000000, 22.000000)">
                    <mask id="mask-10" fill="white">
                        <use xlink:href="#path-9"></use>
                    </mask>
                    <g id="Clip-4508"></g>
                    <polygon id="Fill-4507" fill="#000000" mask="url(#mask-10)" points="-4.855 -4.035 13.25 -4.035 13.25 13.17 -4.855 13.17"></polygon>
                </g>
            </g>
        </g>
    </g>
</svg>