<svg width="87" height="49" viewBox="-10 -10 107 69" xmlns="http://www.w3.org/2000/svg" xmlns:xlink="http://www.w3.org/1999/xlink">
    <defs>
        <path d="M1.645.305V2.65c.168-.218.388-.39.64-.5.281-.119.584-.179.89-.175.483-.006.949.183 1.29.525.35.379.531.885.5 1.4v2.5H4.18V3.995a1.324 1.324 0 0 0-.3-.945 1.134 1.134 0 0 0-.87-.32c-.37-.018-.73.116-1 .37-.26.292-.391.675-.365 1.065V6.4H.86V.305h.785z" id="a"/>
        <path d="M1.37.56v2.39a1.66 1.66 0 0 1 .655-.5c.27-.12.564-.18.86-.175.387-.011.771.076 1.115.255.327.18.598.449.78.775a2.5 2.5 0 0 1 0 2.31 2.001 2.001 0 0 1-.78.78 2.278 2.278 0 0 1-1.125.28c-.3.006-.6-.054-.875-.175a1.741 1.741 0 0 1-.66-.545v.685H.59V.56h.78zm.685 2.57a1.29 1.29 0 0 0-.525.535 1.8 1.8 0 0 0 0 1.59c.12.226.303.413.525.54a1.556 1.556 0 0 0 1.5 0c.22-.13.401-.316.525-.54a1.76 1.76 0 0 0 0-1.59 1.35 1.35 0 0 0-.525-.535 1.556 1.556 0 0 0-1.5 0z" id="c"/>
    </defs>
    <g fill="none" fill-rule="evenodd">
        <g transform="translate(50 15)">
            <mask id="b" fill="#fff">
                <use xlink:href="#a"/>
            </mask>
            <path fill="#000" mask="url(#b)" d="M-4.14-4.695H9.968V11.4H-4.14z"/>
        </g>
        <g transform="translate(38 41)">
            <mask id="d" fill="#fff">
                <use xlink:href="#c"/>
            </mask>
            <path fill="#000" mask="url(#d)" d="M-4.41-4.44h14.473v16.115H-4.41z"/>
        </g>
        <path stroke="#000" d="m1 38.145 9.157-36.82H85.98l-8.956 36.82z"/>
        <path d="m61.5.98.436.775 4.5 8 .245.436-.872.49-.245-.436L62 3.908v31.183l3.564-6.336.245-.436.872.49-.245.436-4.5 8-.436.775-.436-.775-4.5-8-.245-.436.872-.49.245.436L61 35.09V3.908l-3.564 6.337-.245.436-.872-.49.245-.436 4.5-8L61.5.98z" fill="#000" fill-rule="nonzero"/>
    </g>
</svg>
