<?xml version="1.0" encoding="UTF-8"?>
<svg width="95px" height="39px" viewBox="-10 -10 115 59" version="1.1" xmlns="http://www.w3.org/2000/svg" xmlns:xlink="http://www.w3.org/1999/xlink">
    <title>D32D30BF-0DE7-4FC0-A10A-AFB1FCD0C55C</title>
    <defs>
        <path d="M47.6629,0.758 L94.4843,19.079 C94.657,19.148 94.7704,19.314 94.7704,19.5 C94.7704,19.686 94.657,19.852 94.4843,19.921 L47.6629,38.242 C47.6114,38.264 47.5559,38.275 47.5,38.2740626 C47.4441,38.275 47.3886,38.264 47.3371,38.242 L0.5157,19.921 C0.343,19.852 0.2296,19.686 0.2296,19.5 C0.2296,19.314 0.343,19.148 0.5157,19.079 L47.3371,0.758 C47.4419,0.717 47.5581,0.717 47.6629,0.758 Z M47.5,1.663 L1.9181,19.5 L47.5,37.337 L93.0819,19.5 L47.5,1.663 Z" id="path-1"></path>
        <path d="M7.7692,0.15 C10.5768,0.127 13.2092,1.512 14.7788,3.84 C14.8132,3.889 14.8263,3.95 14.8153,4.009 C14.8042,4.067 14.7698,4.119 14.72,4.152 C14.6703,4.187 14.6089,4.2 14.5494,4.189 C14.4899,4.178 14.4373,4.144 14.4033,4.094 C12.9189,1.892 10.4294,0.581 7.7739,0.603 C5.1185,0.624 2.6509,1.976 1.2029,4.202 C1.1608,4.266 1.0895,4.305 1.0129,4.306 C0.9682,4.305 0.9246,4.293 0.8862,4.27 C0.783,4.201 0.7547,4.062 0.8229,3.958 C2.353,1.604 4.9617,0.174 7.7692,0.15 Z" id="path-3"></path>
        <path d="M1.4821,0.113 C1.6071,0.113 1.7083,0.214 1.7083,0.339 L1.7083,4.411 C1.7083,4.536 1.6071,4.637 1.4821,4.637 C1.3572,4.637 1.256,4.536 1.256,4.411 L1.256,0.339 C1.256,0.214 1.3572,0.113 1.4821,0.113 Z" id="path-5"></path>
        <path d="M0.5179,0.113 C0.6428,0.113 0.744,0.214 0.744,0.339 L0.744,4.411 C0.744,4.536 0.6428,4.637 0.5179,4.637 C0.3929,4.637 0.2917,4.536 0.2917,4.411 L0.2917,0.339 C0.2917,0.214 0.3929,0.113 0.5179,0.113 Z" id="path-7"></path>
        <path d="M14.7092,0.061 C14.8103,0.126 14.8429,0.259 14.7833,0.363 C13.2381,2.738 10.5954,4.168 7.7624,4.16301307 C4.9793,4.16301307 2.3784,2.78 0.8229,0.472 C0.7547,0.368 0.783,0.229 0.8862,0.16 C0.9351,0.125 0.9959,0.112 1.0547,0.123 C1.1135,0.134 1.1653,0.169 1.1983,0.219 C2.6823,2.421 5.1716,3.734 7.8276,3.714 C10.4835,3.694 12.9527,2.344 14.4033,0.119 C14.4736,0.021 14.608,-0.004 14.7092,0.061 Z" id="path-9"></path>
        <path d="M1.1195,0.675 C1.2444,0.675 1.3457,0.777 1.3457,0.901 L1.3457,4.973 C1.3457,5.098 1.2444,5.199 1.1195,5.199 C0.9946,5.199 0.8933,5.098 0.8933,4.973 L0.8933,0.901 C0.8933,0.777 0.9946,0.675 1.1195,0.675 Z" id="path-11"></path>
        <path d="M1.0838,0.675 C1.2087,0.675 1.31,0.777 1.31,0.901 L1.31,4.973 C1.31,5.098 1.2087,5.199 1.0838,5.199 C0.9589,5.199 0.8576,5.098 0.8576,4.973 L0.8576,0.901 C0.8576,0.777 0.9589,0.675 1.0838,0.675 Z" id="path-13"></path>
        <path d="M1.5732,0.031 C1.6532,0.044 1.7198,0.099 1.7481,0.175 C1.816,0.37 3.4626,4.975 1.2369,9.055 C1.1964,9.127 1.1205,9.172 1.0379,9.173 C1.0014,9.173 0.9655,9.164 0.9338,9.146 C0.8801,9.118 0.8399,9.07 0.822,9.012 C0.8042,8.954 0.8102,8.892 0.8388,8.838 C2.61786531,5.57557143 1.76810146,1.85036027 1.43529701,0.694564799 L1.39064944,0.544118012 C1.35042253,0.412717201 1.32455306,0.339510204 1.3229,0.334 C1.2946,0.258 1.309,0.172 1.3606,0.11 C1.4122,0.047 1.4933,0.017 1.5732,0.031 Z" id="path-15"></path>
        <path d="M5.2679,1.256 C5.3928,1.256 5.494,1.357 5.494,1.482 C5.494,1.607 5.3928,1.708 5.2679,1.708 L1.1964,1.708 C1.0715,1.708 0.9702,1.607 0.9702,1.482 C0.9702,1.357 1.0715,1.256 1.1964,1.256 L5.2679,1.256 Z" id="path-17"></path>
        <path d="M1.7724,0.764 C1.8704,0.824 1.9089,0.948 1.8626,1.053 C1.831,1.103 -1.2045,6.183 1.8626,9.924 C1.9407,10.021 1.9265,10.162 1.831,10.241 C1.7811,10.284 1.7153,10.304 1.65,10.295 C1.5815,10.294 1.5171,10.262 1.4736,10.209 C-1.779,6.219 1.4238,0.868 1.4736,0.813 C1.5469,0.725 1.6744,0.704 1.7724,0.764 Z" id="path-19"></path>
        <path d="M4.8036,1.256 C4.9285,1.256 5.0298,1.357 5.0298,1.482 C5.0298,1.607 4.9285,1.708 4.8036,1.708 L0.7321,1.708 C0.6072,1.708 0.506,1.607 0.506,1.482 C0.506,1.357 0.6072,1.256 0.7321,1.256 L4.8036,1.256 Z" id="path-21"></path>
        <path d="M7.8869,0.58 C7.9144,0.705 7.8354,0.828 7.7105,0.856 L0.7619,2.448 L5.7833,7.248 C5.8701,7.337 5.8701,7.48 5.7833,7.569 C5.7413,7.611 5.6846,7.636 5.625,7.637 C5.5663,7.635 5.5101,7.613 5.4667,7.574 L0.1467,2.484 C0.0875,2.425 0.065,2.339 0.0879,2.258 C0.1106,2.179 0.1747,2.118 0.2552,2.1 L7.611,0.403 C7.7359,0.376 7.8594,0.455 7.8869,0.58 Z" id="path-23"></path>
        <path d="M8.1786,0.842 C8.3035,0.828 8.4159,0.919 8.4296,1.043 C8.4434,1.168 8.3533,1.281 8.2283,1.295 L1.1667,2.095 L5.6045,7.438 C5.6826,7.534 5.6684,7.676 5.5729,7.755 C5.5268,7.794 5.4658,7.812 5.4055,7.804 C5.3382,7.803 5.2752,7.771 5.2336,7.718 L0.5288,2.055 C0.4774,1.991 0.4642,1.905 0.4942,1.829 C0.5242,1.753 0.5927,1.699 0.6736,1.688 L8.1786,0.842 Z" id="path-25"></path>
        <path d="M1.296,0.421 L5.0824,2.294 C5.1682,2.333 5.2193,2.422 5.209,2.516 L4.8155,6.755 C4.8038,6.871 4.7059,6.959 4.5893,6.95800844 L4.5667,6.95800844 C4.4427,6.944 4.3525,6.834 4.3631,6.71 L4.7431,2.638 L1.0969,0.829 C1.0242,0.793 0.9759,0.721 0.9704,0.641 C0.9648,0.56 1.0027,0.482 1.0699,0.437 C1.137,0.392 1.2232,0.386 1.296,0.421 Z" id="path-27"></path>
        <path d="M1.0102,0.064 L4.7967,1.937 C4.8825,1.976 4.9336,2.065 4.9233,2.159 L4.5298,6.398 C4.5181,6.514 4.4202,6.602 4.3036,6.60100844 L4.281,6.60100844 C4.157,6.587 4.0668,6.477 4.0774,6.352 L4.4574,2.281 L0.8112,0.471 C0.7385,0.436 0.6902,0.364 0.6847,0.283 C0.6791,0.203 0.717,0.125 0.7842,0.08 C0.8513,0.035 0.9375,0.029 1.0102,0.064 Z" id="path-29"></path>
        <path d="M1.2605,1.001 L4.7619,3.349 C4.8391,3.4 4.8755,3.495 4.8524,3.584 L3.9069,7.733 C3.884,7.829 3.802,7.9 3.7033,7.909 L3.6536,7.909 C3.5946,7.896 3.5433,7.86 3.5111,7.809 C3.4788,7.758 3.4682,7.696 3.4817,7.638 L4.3864,3.639 L1.0117,1.377 C0.936,1.336 0.8899,1.256 0.8925,1.17 C0.8951,1.085 0.9461,1.008 1.0241,0.972 C1.1021,0.936 1.1936,0.947 1.2605,1.001 Z" id="path-31"></path>
        <path d="M1.1331,1.001 L4.6481,3.381 C4.7247,3.435 4.762,3.529 4.7431,3.621 L3.7931,7.769 C3.7552,7.856 3.6665,7.911 3.5714,7.905 L3.5217,7.905 C3.4639,7.892 3.4137,7.856 3.3823,7.806 C3.3509,7.756 3.3408,7.695 3.3543,7.638 L4.259,3.639 L0.8798,1.377 C0.7766,1.308 0.7483,1.169 0.8164,1.065 C0.8872,0.961 1.0279,0.933 1.1331,1.001 Z" id="path-33"></path>
    </defs>
    <g id="Page-1" stroke="none" stroke-width="1" fill="none" fill-rule="evenodd">
        <g id="SHAPES" transform="translate(-106.000000, -5642.000000)">
            <g id="Group-66" transform="translate(106.000000, 5642.000000)">
                <g id="Group-4230">
                    <mask id="mask-2" fill="white">
                        <use xlink:href="#path-1"></use>
                    </mask>
                    <g id="Clip-4229"></g>
                    <polygon id="Fill-4228" fill="#000000" mask="url(#mask-2)" points="-4.7704 -4.272 99.7704 -4.272 99.7704 43.274 -4.7704 43.274"></polygon>
                </g>
                <g id="Group-4233" transform="translate(40.000000, 31.000000)">
                    <mask id="mask-4" fill="white">
                        <use xlink:href="#path-3"></use>
                    </mask>
                    <g id="Clip-4232"></g>
                    <polygon id="Fill-4231" fill="#000000" mask="url(#mask-4)" points="-4.2143 -4.85 19.8191 -4.85 19.8191 9.306 -4.2143 9.306"></polygon>
                </g>
                <g id="Group-4236" transform="translate(45.000000, 29.000000)">
                    <mask id="mask-6" fill="white">
                        <use xlink:href="#path-5"></use>
                    </mask>
                    <g id="Clip-4235"></g>
                    <polygon id="Fill-4234" fill="#000000" mask="url(#mask-6)" points="-3.744 -4.887 6.7083 -4.887 6.7083 9.637 -3.744 9.637"></polygon>
                </g>
                <g id="Group-4239" transform="translate(48.000000, 29.000000)">
                    <mask id="mask-8" fill="white">
                        <use xlink:href="#path-7"></use>
                    </mask>
                    <g id="Clip-4238"></g>
                    <polygon id="Fill-4237" fill="#000000" mask="url(#mask-8)" points="-4.7083 -4.887 5.744 -4.887 5.744 9.637 -4.7083 9.637"></polygon>
                </g>
                <g id="Group-4242" transform="translate(40.000000, 4.000000)">
                    <mask id="mask-10" fill="white">
                        <use xlink:href="#path-9"></use>
                    </mask>
                    <g id="Clip-4241"></g>
                    <polygon id="Fill-4240" fill="#000000" mask="url(#mask-10)" points="-4.2143 -4.975 19.8131 -4.975 19.8131 9.163 -4.2143 9.163"></polygon>
                </g>
                <g id="Group-4245" transform="translate(48.000000, 5.000000)">
                    <mask id="mask-12" fill="white">
                        <use xlink:href="#path-11"></use>
                    </mask>
                    <g id="Clip-4244"></g>
                    <polygon id="Fill-4243" fill="#000000" mask="url(#mask-12)" points="-4.1067 -4.325 6.3457 -4.325 6.3457 10.199 -4.1067 10.199"></polygon>
                </g>
                <g id="Group-4248" transform="translate(46.000000, 5.000000)">
                    <mask id="mask-14" fill="white">
                        <use xlink:href="#path-13"></use>
                    </mask>
                    <g id="Clip-4247"></g>
                    <polygon id="Fill-4246" fill="#000000" mask="url(#mask-14)" points="-4.1424 -4.325 6.31 -4.325 6.31 10.199 -4.1424 10.199"></polygon>
                </g>
                <g id="Group-4251" transform="translate(11.000000, 15.000000)">
                    <mask id="mask-16" fill="white">
                        <use xlink:href="#path-15"></use>
                    </mask>
                    <g id="Clip-4250"></g>
                    <polygon id="Fill-4249" fill="#000000" mask="url(#mask-16)" points="-4.1881 -4.972 7.3979 -4.972 7.3979 14.173 -4.1881 14.173"></polygon>
                </g>
                <g id="Group-4254" transform="translate(10.000000, 17.000000)">
                    <mask id="mask-18" fill="white">
                        <use xlink:href="#path-17"></use>
                    </mask>
                    <g id="Clip-4253"></g>
                    <polygon id="Fill-4252" fill="#000000" mask="url(#mask-18)" points="-4.0298 -3.744 10.494 -3.744 10.494 6.708 -4.0298 6.708"></polygon>
                </g>
                <g id="Group-4257" transform="translate(81.000000, 14.000000)">
                    <mask id="mask-20" fill="white">
                        <use xlink:href="#path-19"></use>
                    </mask>
                    <g id="Clip-4256"></g>
                    <polygon id="Fill-4255" fill="#000000" mask="url(#mask-20)" points="-4.9832 -4.27 6.913 -4.27 6.913 15.297 -4.9832 15.297"></polygon>
                </g>
                <g id="Group-4260" transform="translate(79.000000, 17.000000)">
                    <mask id="mask-22" fill="white">
                        <use xlink:href="#path-21"></use>
                    </mask>
                    <g id="Clip-4259"></g>
                    <polygon id="Fill-4258" fill="#000000" mask="url(#mask-22)" points="-4.494 -3.744 10.0298 -3.744 10.0298 6.708 -4.494 6.708"></polygon>
                </g>
                <g id="Group-4263" transform="translate(68.000000, 7.000000)">
                    <mask id="mask-24" fill="white">
                        <use xlink:href="#path-23"></use>
                    </mask>
                    <g id="Clip-4262"></g>
                    <polygon id="Fill-4261" fill="#000000" mask="url(#mask-24)" points="-4.9209 -4.602 12.8924 -4.602 12.8924 12.637 -4.9209 12.637"></polygon>
                </g>
                <g id="Group-4266" transform="translate(21.000000, 26.000000)">
                    <mask id="mask-26" fill="white">
                        <use xlink:href="#path-25"></use>
                    </mask>
                    <g id="Clip-4265"></g>
                    <polygon id="Fill-4264" fill="#000000" mask="url(#mask-26)" points="-4.5216 -4.159 13.431 -4.159 13.431 12.806 -4.5216 12.806"></polygon>
                </g>
                <g id="Group-4269" transform="translate(67.000000, 26.000000)">
                    <mask id="mask-28" fill="white">
                        <use xlink:href="#path-27"></use>
                    </mask>
                    <g id="Clip-4268"></g>
                    <polygon id="Fill-4267" fill="#000000" mask="url(#mask-28)" points="-4.0302 -4.602 10.2103 -4.602 10.2103 11.958 -4.0302 11.958"></polygon>
                </g>
                <g id="Group-4272" transform="translate(70.000000, 25.000000)">
                    <mask id="mask-30" fill="white">
                        <use xlink:href="#path-29"></use>
                    </mask>
                    <g id="Clip-4271"></g>
                    <polygon id="Fill-4270" fill="#000000" mask="url(#mask-30)" points="-4.3159 -4.959 9.9246 -4.959 9.9246 11.601 -4.3159 11.601"></polygon>
                </g>
                <g id="Group-4275" transform="translate(26.000000, 4.000000)">
                    <mask id="mask-32" fill="white">
                        <use xlink:href="#path-31"></use>
                    </mask>
                    <g id="Clip-4274"></g>
                    <polygon id="Fill-4273" fill="#000000" mask="url(#mask-32)" points="-4.1076 -4.049 9.8593 -4.049 9.8593 12.909 -4.1076 12.909"></polygon>
                </g>
                <g id="Group-4278" transform="translate(29.000000, 3.000000)">
                    <mask id="mask-34" fill="white">
                        <use xlink:href="#path-33"></use>
                    </mask>
                    <g id="Clip-4277"></g>
                    <polygon id="Fill-4276" fill="#000000" mask="url(#mask-34)" points="-4.2207 -4.036 9.7479 -4.036 9.7479 12.905 -4.2207 12.905"></polygon>
                </g>
            </g>
        </g>
    </g>
</svg>