<?xml version="1.0" encoding="UTF-8"?>
<svg width="95px" height="49px" viewBox="-10 -10 115 69" version="1.1" xmlns="http://www.w3.org/2000/svg" xmlns:xlink="http://www.w3.org/1999/xlink">
    <title>4E198BAD-3D2A-4F49-869A-506C956245B1</title>
    <defs>
        <path d="M1.1574,0.694 L1.1574,2.89 C1.3144,2.679 1.5231,2.512 1.7633,2.405 C2.0095,2.292 2.2777,2.236 2.5485,2.24 C2.913,2.238 3.272,2.329 3.5906,2.507 C3.8915,2.673 4.1399,2.919 4.3079,3.219 C4.6504,3.887 4.6504,4.679 4.3079,5.347 C4.1415,5.649 3.8928,5.898 3.5906,6.064 C3.2711,6.238 2.9122,6.327 2.5485,6.321 C2.269,6.324 1.9924,6.265 1.739,6.147 C1.4964,6.042 1.2857,5.874 1.1283,5.662 L1.1283,6.297 L0.4352,6.297 L0.4352,0.694 L1.1574,0.694 Z M1.8069,3.074 C1.6024,3.186 1.4342,3.354 1.3222,3.558 C1.2065,3.785 1.1483,4.036 1.1526,4.29 C1.1483,4.546 1.2065,4.799 1.3222,5.027 C1.4342,5.232 1.6024,5.4 1.8069,5.512 C2.2328,5.751 2.7526,5.751 3.1786,5.512 C3.3824,5.399 3.5504,5.231 3.6633,5.027 C3.7871,4.802 3.849,4.547 3.8426,4.29 C3.8482,4.035 3.7863,3.782 3.6633,3.558 C3.5504,3.355 3.3824,3.187 3.1786,3.074 C2.7501,2.845 2.2354,2.845 1.8069,3.074 Z" id="path-1"></path>
        <path d="M1.1574,0.153 L1.1574,2.349 C1.3144,2.138 1.5231,1.971 1.7633,1.864 C2.0095,1.751 2.2777,1.695 2.5485,1.699 C2.9126,1.695 3.2715,1.785 3.5906,1.961 C3.8915,2.127 4.1399,2.374 4.3079,2.673 C4.6504,3.341 4.6504,4.133 4.3079,4.801 C4.1415,5.103 3.8928,5.352 3.5906,5.519 C3.2711,5.693 2.9122,5.781 2.5485,5.776 C2.269,5.779 1.9924,5.719 1.739,5.601 C1.4964,5.496 1.2857,5.329 1.1283,5.116 L1.1283,5.751 L0.4352,5.751 L0.4352,0.153 L1.1574,0.153 Z M1.8069,2.528 C1.6024,2.64 1.4342,2.808 1.3222,3.013 C1.2065,3.239 1.1483,3.49 1.1526,3.745 C1.1483,4 1.2065,4.253 1.3222,4.481 C1.4342,4.686 1.6024,4.854 1.8069,4.966 C2.2328,5.205 2.7526,5.205 3.1786,4.966 C3.3824,4.853 3.5504,4.685 3.6633,4.481 C3.7871,4.256 3.849,4.002 3.8426,3.745 C3.8482,3.489 3.7863,3.237 3.6633,3.013 C3.5504,2.809 3.3824,2.641 3.1786,2.528 C2.7501,2.299 2.2354,2.299 1.8069,2.528 Z" id="path-3"></path>
        <path d="M1.1681,0.18 L1.1681,2.342 C1.3267,2.148 1.5295,1.995 1.7594,1.896 C2.0196,1.791 2.298,1.738 2.5786,1.741 C3.0241,1.718 3.4597,1.877 3.7855,2.182 C4.1039,2.533 4.265,2.999 4.2314,3.471 L4.2314,5.764 L3.5092,5.764 L3.5092,3.554 C3.5331,3.238 3.4341,2.926 3.2329,2.681 C3.0207,2.473 2.7297,2.366 2.4332,2.386 C2.0905,2.369 1.756,2.493 1.5074,2.73 C1.30494286,2.958 1.18646122,3.2462449 1.16858017,3.54750437 L1.1681,5.749 L0.4459,5.749 L0.4459,0.18 L1.1681,0.18 Z" id="path-5"></path>
        <path d="M1.452,0.18 L1.452,2.342 C1.6097,2.147 1.8127,1.994 2.0434,1.896 C2.3017,1.79 2.5786,1.738 2.8577,1.741 C3.3047,1.717 3.7422,1.877 4.0694,2.182 C4.3878,2.533 4.5489,2.999 4.5153,3.471 L4.5153,5.764 L3.7931,5.764 L3.7931,3.554 C3.8171,3.238 3.7181,2.926 3.5168,2.681 C3.3039,2.474 3.0135,2.367 2.7171,2.386 C2.3743,2.368 2.0393,2.492 1.7913,2.73 C1.58892857,2.958 1.47045918,3.2462449 1.45251691,3.54750437 L1.452,5.749 L0.7298,5.749 L0.7298,0.18 L1.452,0.18 Z" id="path-7"></path>
        <path d="M81.7878,0.313 C81.9304,0.313 82.0673,0.37 82.1682,0.471 C82.2691,0.572 82.3258,0.709 82.3258,0.851 L82.3258,33.098 C82.3231,33.393 82.083,33.6310134 81.7878,33.6310134 L1.1783,33.6310134 C1.0361,33.632 0.8992,33.577 0.7982,33.477 C0.6971,33.377 0.6403,33.24 0.6403,33.098 L0.6403,0.851 C0.6403,0.554 0.8812,0.313 1.1783,0.313 L81.7878,0.313 Z M81.2449,1.389 L1.7163,1.389 L1.7163,32.56 L81.2449,32.56 L81.2449,1.389 Z" id="path-9"></path>
        <path d="M7.0892,0.616 C7.2251,0.616 7.34,0.717 7.3582,0.851 L7.3582,6.609 C7.3582,6.681 7.3296,6.75 7.2787,6.801 C7.2278,6.852 7.1587,6.881 7.0867,6.881 L1.1783,6.881 C1.0736,6.895 0.9702,6.847 0.9133,6.758 C0.8565,6.669 0.8565,6.555 0.9133,6.466 C0.9702,6.377 1.0736,6.329 1.1783,6.343 L6.8202,6.343 L6.8202,0.851 C6.8383,0.717 6.9532,0.616 7.0892,0.616 Z" id="path-11"></path>
        <path d="M1.1783,0.068 L7.0867,0.068 C7.2348,0.068 7.3555,0.187 7.3582,0.335 L7.3582,6.098 C7.3555,6.246 7.2348,6.365 7.0867,6.365 C6.9395,6.365 6.8202,6.245 6.8202,6.098 L6.8202,0.606 L1.1783,0.606 C1.0736,0.62 0.9702,0.572 0.9133,0.483 C0.8565,0.394 0.8565,0.28 0.9133,0.191 C0.9702,0.102 1.0736,0.054 1.1783,0.068 Z" id="path-13"></path>
        <path d="M0.3341,0.616 C0.47,0.616 0.5849,0.717 0.6031,0.851 L0.6031,6.343 L6.2449,6.343 C6.3796,6.361 6.4801,6.476 6.4801,6.612 C6.4801,6.748 6.3796,6.863 6.2449,6.881 L0.3316,6.881 C0.1836,6.878 0.0651,6.757 0.0651,6.609 L0.0651,0.851 C0.0832,0.717 0.1981,0.616 0.3341,0.616 Z" id="path-15"></path>
        <path d="M6.2449,0.068 C6.3796,0.086 6.4801,0.201 6.4801,0.337 C6.4801,0.473 6.3796,0.588 6.2449,0.606 L0.6079,0.606 L0.6079,6.098 C0.6053,6.246 0.4845,6.365 0.3365,6.365 C0.1893,6.365 0.0699,6.245 0.0699,6.098 L0.0699,0.335 C0.0699,0.264 0.098,0.196 0.148,0.146 C0.198,0.096 0.2658,0.068 0.3365,0.068 L6.2449,0.068 Z" id="path-17"></path>
    </defs>
    <g id="Page-1" stroke="none" stroke-width="1" fill="none" fill-rule="evenodd">
        <g id="SHAPES" transform="translate(-236.000000, -5279.000000)">
            <g id="Group-58" transform="translate(236.000000, 5279.000000)">
                <g id="Group-4353" transform="translate(45.000000, 0.000000)">
                    <mask id="mask-2" fill="white">
                        <use xlink:href="#path-1"></use>
                    </mask>
                    <g id="Clip-4352"></g>
                    <polygon id="Fill-4351" fill="#000000" mask="url(#mask-2)" points="-4.5648 -4.306 9.5648 -4.306 9.5648 11.321 -4.5648 11.321"></polygon>
                </g>
                <g id="Group-4356" transform="translate(45.000000, 43.000000)">
                    <mask id="mask-4" fill="white">
                        <use xlink:href="#path-3"></use>
                    </mask>
                    <g id="Clip-4355"></g>
                    <polygon id="Fill-4354" fill="#000000" mask="url(#mask-4)" points="-4.5648 -4.847 9.5648 -4.847 9.5648 10.776 -4.5648 10.776"></polygon>
                </g>
                <g id="Group-4359" transform="translate(0.000000, 22.000000)">
                    <mask id="mask-6" fill="white">
                        <use xlink:href="#path-5"></use>
                    </mask>
                    <g id="Clip-4358"></g>
                    <polygon id="Fill-4357" fill="#000000" mask="url(#mask-6)" points="-4.5541 -4.82 9.2358 -4.82 9.2358 10.764 -4.5541 10.764"></polygon>
                </g>
                <g id="Group-4362" transform="translate(90.000000, 22.000000)">
                    <mask id="mask-8" fill="white">
                        <use xlink:href="#path-7"></use>
                    </mask>
                    <g id="Clip-4361"></g>
                    <polygon id="Fill-4360" fill="#000000" mask="url(#mask-8)" points="-4.2702 -4.82 9.5197 -4.82 9.5197 10.764 -4.2702 10.764"></polygon>
                </g>
                <g id="Group-4365" transform="translate(6.000000, 8.000000)">
                    <mask id="mask-10" fill="white">
                        <use xlink:href="#path-9"></use>
                    </mask>
                    <g id="Clip-4364"></g>
                    <polygon id="Fill-4363" fill="#000000" mask="url(#mask-10)" points="-4.3597 -4.687 87.3258 -4.687 87.3258 38.631 -4.3597 38.631"></polygon>
                </g>
                <g id="Group-4368" transform="translate(6.000000, 8.000000)">
                    <mask id="mask-12" fill="white">
                        <use xlink:href="#path-11"></use>
                    </mask>
                    <g id="Clip-4367"></g>
                    <polygon id="Fill-4366" fill="#000000" mask="url(#mask-12)" points="-4.1293 -4.384 12.3582 -4.384 12.3582 11.883 -4.1293 11.883"></polygon>
                </g>
                <g id="Group-4371" transform="translate(6.000000, 35.000000)">
                    <mask id="mask-14" fill="white">
                        <use xlink:href="#path-13"></use>
                    </mask>
                    <g id="Clip-4370"></g>
                    <polygon id="Fill-4369" fill="#000000" mask="url(#mask-14)" points="-4.1293 -4.934 12.3582 -4.934 12.3582 11.365 -4.1293 11.365"></polygon>
                </g>
                <g id="Group-4374" transform="translate(81.000000, 8.000000)">
                    <mask id="mask-16" fill="white">
                        <use xlink:href="#path-15"></use>
                    </mask>
                    <g id="Clip-4373"></g>
                    <polygon id="Fill-4372" fill="#000000" mask="url(#mask-16)" points="-4.9349 -4.384 11.4801 -4.384 11.4801 11.881 -4.9349 11.881"></polygon>
                </g>
                <g id="Group-4377" transform="translate(81.000000, 35.000000)">
                    <mask id="mask-18" fill="white">
                        <use xlink:href="#path-17"></use>
                    </mask>
                    <g id="Clip-4376"></g>
                    <polygon id="Fill-4375" fill="#000000" mask="url(#mask-18)" points="-4.9301 -4.932 11.4801 -4.932 11.4801 11.365 -4.9301 11.365"></polygon>
                </g>
            </g>
        </g>
    </g>
</svg>