<?xml version="1.0" encoding="UTF-8"?>
<svg width="91px" height="45px" viewBox="0 0 91 45" version="1.1" xmlns="http://www.w3.org/2000/svg" xmlns:xlink="http://www.w3.org/1999/xlink">
    <title>43C78FFE-7E83-485F-B1A9-67FF0923FA18</title>
    <defs>
        <path d="M3.28,0.415 C3.5701,0.715 3.7192,1.124 3.69,1.54 L3.69,3.78 L3.05,3.78 L3.05,3.28 C2.9309,3.463 2.7553,3.601 2.55,3.675 C2.3181,3.775 2.0673,3.822 1.815,3.815 C1.4571,3.833 1.104,3.727 0.815,3.515 C0.5827,3.318 0.4487,3.029 0.4487,2.725 C0.4487,2.421 0.5827,2.132 0.815,1.935 C1.1456,1.707 1.545,1.601 1.945,1.635 L3,1.635 L3,1.5 C3.0157,1.253 2.9247,1.011 2.75,0.835 C2.5397,0.667 2.2735,0.585 2.005,0.605 C1.7874,0.605 1.5712,0.64 1.365,0.71 C1.1712,0.775 0.9901,0.873 0.83,1 L0.55,0.5 C0.7535,0.339 0.986,0.218 1.235,0.145 C1.5107,0.062 1.7971,0.02 2.085,0.02 C2.5193,-0.007 2.9474,0.134 3.28,0.415 Z M3.015,2.135 L2,2.135 C1.43,2.135 1.145,2.325 1.145,2.71 C1.1361,2.885 1.2196,3.052 1.365,3.15 C1.543,3.266 1.7531,3.322 1.965,3.31 C2.192,3.312 2.4151,3.251 2.61,3.135 C2.7964,3.018 2.9388,2.842 3.015,2.635 L3.015,2.135 Z" id="path-1"></path>
        <path d="M2.855,0.535 C3.1671,0.531 3.4757,0.601 3.755,0.74 C4.0137,0.87 4.2266,1.076 4.365,1.33 L3.865,1.655 C3.7587,1.486 3.6083,1.35 3.43,1.26 C3.2541,1.169 3.0582,1.122 2.86,1.125 C2.6316,1.121 2.406,1.177 2.205,1.285 C2.0124,1.392 1.8545,1.551 1.75,1.745 C1.5293,2.175 1.5293,2.685 1.75,3.115 C1.8531,3.31 2.0114,3.47 2.205,3.575 C2.406,3.683 2.6316,3.739 2.86,3.735 C3.0576,3.737 3.2528,3.692 3.43,3.605 C3.6075,3.512 3.7575,3.374 3.865,3.205 L4.365,3.525 C4.2253,3.778 4.0128,3.984 3.755,4.115 C3.4769,4.258 3.1677,4.33 2.855,4.325 C2.5064,4.328 2.1625,4.244 1.855,4.08 C1.5658,3.921 1.3242,3.688 1.155,3.405 C0.8215,2.796 0.8215,2.059 1.155,1.45 C1.3229,1.167 1.565,0.935 1.855,0.78 C2.1617,0.614 2.5062,0.529 2.855,0.535 Z" id="path-3"></path>
        <path d="M4.075,0.565 L4.75,0.59 L4.75,5.78 L4.105,5.78 L4.105,5.195 C3.9572,5.397 3.7612,5.558 3.535,5.665 C3.2981,5.773 3.0404,5.828 2.78,5.825 C2.4429,5.831 2.1102,5.748 1.815,5.585 C1.5335,5.429 1.3014,5.196 1.145,4.915 C0.816,4.289 0.816,3.541 1.145,2.915 C1.303,2.636 1.5348,2.406 1.815,2.25 C2.1102,2.087 2.4429,2.004 2.78,2.01 C3.0328,2.008 3.2833,2.059 3.515,2.16 C3.7348,2.261 3.9269,2.414 4.075,2.605 L4.075,0.565 Z M2.195,2.805 C2.0076,2.915 1.8537,3.074 1.75,3.265 C1.531,3.694 1.531,4.201 1.75,4.63 C1.8537,4.821 2.0076,4.98 2.195,5.09 C2.5934,5.31 3.0766,5.31 3.475,5.09 C3.6647,4.983 3.8193,4.823 3.92,4.63 C4.139,4.201 4.139,3.694 3.92,3.265 C3.8193,3.072 3.6647,2.912 3.475,2.805 C3.075,2.592 2.595,2.592 2.195,2.805 Z" id="path-5"></path>
        <path d="M0.92,0.59 L0.92,2.63 C1.0681,2.439 1.2602,2.286 1.48,2.185 C1.7117,2.084 1.9622,2.033 2.215,2.035 C2.5521,2.029 2.8848,2.112 3.18,2.275 C3.4611,2.43 3.6933,2.66 3.85,2.94 C4.179,3.566 4.179,4.314 3.85,4.94 C3.6949,5.222 3.4625,5.455 3.18,5.61 C2.8848,5.773 2.5521,5.856 2.215,5.85 C1.9547,5.852 1.697,5.798 1.46,5.69 C1.2338,5.583 1.0378,5.422 0.89,5.22 L0.89,5.805 L0.25,5.805 L0.25,0.59 L0.92,0.59 Z M2.16,2.625 C1.9366,2.623 1.7164,2.678 1.52,2.785 C1.3303,2.892 1.1757,3.052 1.075,3.245 C0.8616,3.675 0.8616,4.18 1.075,4.61 C1.1757,4.803 1.3303,4.963 1.52,5.07 C1.715,5.181 1.9358,5.237 2.16,5.235 C2.3842,5.238 2.6051,5.181 2.8,5.07 C2.99,4.962 3.1459,4.802 3.25,4.61 C3.4634,4.18 3.4634,3.675 3.25,3.245 C3.1459,3.053 2.99,2.893 2.8,2.785 C2.6039,2.678 2.3835,2.623 2.16,2.625 Z" id="path-7"></path>
        <path d="M69.445,0.52 L90.445,40.52 C90.5343,40.675 90.5343,40.865 90.445,41.02 C90.359,41.169 90.2022,41.264 90.03,41.27 L1.03,44.77 L1,44.75 C0.8453,44.75 0.6994,44.678 0.605,44.555 C0.5056,44.428 0.4739,44.26 0.52,44.105 L7.52,21.105 C7.5668,20.95 7.6861,20.827 7.84,20.775 L68.84,0.275 C69.0745,0.196 69.3318,0.3 69.445,0.52 Z M68.755,1.36 L8.405,21.64 L1.685,43.725 L89.185,40.28 L68.755,1.36 Z" id="path-9"></path>
        <path d="M10.89,0.39 C12.9534,2.467 13.5654,5.581 12.4412,8.284 C11.3171,10.987 8.6776,12.749 5.75,12.7500166 C3.8876,12.754 2.0958,12.037 0.75,10.75 L1.095,10.39 C2.8188,12.077 5.3118,12.717 7.6348,12.067 C9.9579,11.418 11.7581,9.579 12.3573,7.242 C12.9566,4.906 12.2638,2.427 10.54,0.74 L10.89,0.39 Z" id="path-11"></path>
        <path d="M9.405,1.825 C12.48,4.905 11.525,9.065 10.965,9.89 L10.555,9.61 C11.055,8.885 11.945,5.05 9.055,2.175 C6.27615385,-0.589423077 1.3477145,1.03779586 0.923819697,1.16705593 L0.895,1.175 L0.895,1.175 L0.73,0.705 C0.955,0.625 6.33,-1.255 9.405,1.825 Z" id="path-13"></path>
        <path d="M0.56,0.785 L1.06,0.875 C1.02,1.095 0.135,6.29 4.855,8.26 C8.225,9.665 11.355,9.055 14.11,6.445 C14.31,6.255 14.385,6.185 14.475,6.155 L14.63,6.655 C14.5746,6.716 14.5162,6.775 14.455,6.83 C12.54,8.61 10.5,9.5 8.29,9.5 C7.0385,9.484 5.8027,9.219 4.655,8.72 C-0.445,6.595 0.55,0.84 0.56,0.785 Z" id="path-15"></path>
        <path d="M8.275,0.705 L8.325,1.205 L8.145,1.205 C5.22,1.395 3.145,2.545 1.94,4.625 C0.55,7.06 1.365,9.59 1.645,10.305 C2.025,11.26 2.525,11.865 2.805,11.955 L2.68,12.43 C2.18,12.28 1.615,11.52 1.18,10.49 C0.88,9.72 0.005,6.99 1.51,4.375 C2.785,2.14 5.01,0.905 8.115,0.705 L8.275,0.705 Z" id="path-17"></path>
    </defs>
    <g id="Page-1" stroke="none" stroke-width="1" fill="none" fill-rule="evenodd">
        <g id="SHAPES" transform="translate(-108.000000, -5281.000000)">
            <g id="Group-60" transform="translate(108.000000, 5281.000000)">
                <g id="Group-4196" transform="translate(9.000000, 23.000000)">
                    <mask id="mask-2" fill="white">
                        <use xlink:href="#path-1"></use>
                    </mask>
                    <g id="Clip-4195"></g>
                    <polygon id="Fill-4194" fill="#000000" mask="url(#mask-2)" points="-4.5513 -4.983 8.6936 -4.983 8.6936 8.817 -4.5513 8.817"></polygon>
                </g>
                <g id="Group-4199" transform="translate(64.000000, 4.000000)">
                    <mask id="mask-4" fill="white">
                        <use xlink:href="#path-3"></use>
                    </mask>
                    <g id="Clip-4198"></g>
                    <polygon id="Fill-4197" fill="#000000" mask="url(#mask-4)" points="-4.0951 -4.465 9.365 -4.465 9.365 9.325 -4.0951 9.325"></polygon>
                </g>
                <g id="Group-4202" transform="translate(79.000000, 33.000000)">
                    <mask id="mask-6" fill="white">
                        <use xlink:href="#path-5"></use>
                    </mask>
                    <g id="Clip-4201"></g>
                    <polygon id="Fill-4200" fill="#000000" mask="url(#mask-6)" points="-4.1017 -4.435 9.75 -4.435 9.75 10.825 -4.1017 10.825"></polygon>
                </g>
                <g id="Group-4205" transform="translate(6.000000, 36.000000)">
                    <mask id="mask-8" fill="white">
                        <use xlink:href="#path-7"></use>
                    </mask>
                    <g id="Clip-4204"></g>
                    <polygon id="Fill-4203" fill="#000000" mask="url(#mask-8)" points="-4.75 -4.41 9.0967 -4.41 9.0967 10.85 -4.75 10.85"></polygon>
                </g>
                <g id="Group-4208">
                    <mask id="mask-10" fill="white">
                        <use xlink:href="#path-9"></use>
                    </mask>
                    <g id="Clip-4207"></g>
                    <polygon id="Fill-4206" fill="#000000" mask="url(#mask-10)" points="-4.5007 -4.751 95.512 -4.751 95.512 49.77 -4.5007 49.77"></polygon>
                </g>
                <g id="Group-4211" transform="translate(5.000000, 18.000000)">
                    <mask id="mask-12" fill="white">
                        <use xlink:href="#path-11"></use>
                    </mask>
                    <g id="Clip-4210"></g>
                    <polygon id="Fill-4209" fill="#000000" mask="url(#mask-12)" points="-4.25 -4.61 17.9972 -4.61 17.9972 17.75 -4.25 17.75"></polygon>
                </g>
                <g id="Group-4214" transform="translate(3.000000, 34.000000)">
                    <mask id="mask-14" fill="white">
                        <use xlink:href="#path-13"></use>
                    </mask>
                    <g id="Clip-4213"></g>
                    <polygon id="Fill-4212" fill="#000000" mask="url(#mask-14)" points="-4.27 -4.936 16.5579 -4.936 16.5579 14.89 -4.27 14.89"></polygon>
                </g>
                <g id="Group-4217" transform="translate(59.000000, 3.000000)">
                    <mask id="mask-16" fill="white">
                        <use xlink:href="#path-15"></use>
                    </mask>
                    <g id="Clip-4216"></g>
                    <polygon id="Fill-4215" fill="#000000" mask="url(#mask-16)" points="-4.5247 -4.215 19.63 -4.215 19.63 14.5 -4.5247 14.5"></polygon>
                </g>
                <g id="Group-4220" transform="translate(76.000000, 29.000000)">
                    <mask id="mask-18" fill="white">
                        <use xlink:href="#path-17"></use>
                    </mask>
                    <g id="Clip-4219"></g>
                    <polygon id="Fill-4218" fill="#000000" mask="url(#mask-18)" points="-4.3462 -4.295 13.325 -4.295 13.325 17.43 -4.3462 17.43"></polygon>
                </g>
            </g>
        </g>
    </g>
</svg>