<?xml version="1.0" encoding="UTF-8"?>
<svg width="85px" height="49px" viewBox="0 0 85 49" version="1.1" xmlns="http://www.w3.org/2000/svg" xmlns:xlink="http://www.w3.org/1999/xlink">
    <title>0D2696EA-277E-472D-9BF9-A67404402ED2</title>
    <defs>
        <path d="M0.9,0.84 L0.9,3.06 C1.0629,2.861 1.2724,2.704 1.51,2.605 C1.7754,2.492 2.0615,2.436 2.35,2.44 C2.8079,2.418 3.2552,2.582 3.59,2.895 C3.9206,3.256 4.0871,3.737 4.05,4.225 L4.05,6.585 L3.31,6.585 L3.31,4.31 C3.336,3.983 3.2317,3.66 3.02,3.41 C2.8011,3.199 2.5034,3.09 2.2,3.11 C1.8485,3.09 1.5045,3.217 1.25,3.46 C1.0035,3.733 0.8773,4.093 0.9,4.46 L0.9,6.575 L0.16,6.575 L0.16,0.84 L0.9,0.84 Z" id="path-1"></path>
        <path d="M0.865,0.035 L0.865,2.3 C1.0256,2.083 1.239,1.911 1.485,1.8 C1.7402,1.688 2.0163,1.632 2.295,1.635 C2.669,1.631 3.0376,1.724 3.365,1.905 C3.6754,2.076 3.9317,2.331 4.105,2.64 C4.4582,3.326 4.4582,4.139 4.105,4.825 C3.9333,5.137 3.6767,5.393 3.365,5.565 C3.0372,5.744 2.6686,5.835 2.295,5.83 C2.0067,5.833 1.7213,5.772 1.46,5.65 C1.2114,5.539 0.9948,5.367 0.83,5.15 L0.83,5.8 L0.12,5.8 L0.12,0.035 L0.865,0.035 Z M1.53,2.5 C1.3182,2.614 1.1444,2.788 1.03,3 C0.7936,3.472 0.7936,4.028 1.03,4.5 C1.1464,4.71 1.3197,4.884 1.53,5 C1.9676,5.247 2.5024,5.247 2.94,5 C3.1489,4.882 3.3217,4.709 3.44,4.5 C3.6764,4.028 3.6764,3.472 3.44,3 C3.3236,2.79 3.1503,2.616 2.94,2.5 C2.5007,2.26 1.9693,2.26 1.53,2.5 Z" id="path-3"></path>
        <path d="M4.065,0.69 C4.3971,0.959 4.5825,1.368 4.565,1.795 C4.5674,2.079 4.5041,2.36 4.38,2.615 C4.1978,2.948 3.9593,3.248 3.675,3.5 L2,5.11 L4.8,5.11 L4.8,5.78 L0.905,5.78 L0.905,5.28 L3.11,3.15 C3.3279,2.959 3.5121,2.732 3.655,2.48 C3.7441,2.305 3.792,2.112 3.795,1.915 C3.8078,1.658 3.6961,1.411 3.495,1.25 C3.2439,1.079 2.9432,0.996 2.64,1.015 C2.1114,0.984 1.5987,1.202 1.255,1.605 L0.725,1.145 C0.9462,0.865 1.2329,0.643 1.56,0.5 C1.9255,0.354 2.3163,0.281 2.71,0.285 C3.1949,0.26 3.6736,0.403 4.065,0.69 Z" id="path-5"></path>
        <path d="M1.415,0.17 L1.415,2.435 C1.5753,2.218 1.7888,2.046 2.035,1.935 C2.2921,1.824 2.5698,1.767 2.85,1.77 C3.2219,1.765 3.5888,1.856 3.915,2.035 C4.2256,2.208 4.4818,2.464 4.655,2.775 C4.84,3.108 4.9331,3.484 4.925,3.865 C4.9319,4.247 4.8388,4.625 4.655,4.96 C4.4833,5.272 4.2267,5.528 3.915,5.7 C3.5888,5.879 3.2219,5.97 2.85,5.965 C2.5616,5.969 2.2762,5.907 2.015,5.785 C1.7656,5.675 1.5487,5.503 1.385,5.285 L1.385,5.935 L0.675,5.935 L0.675,0.17 L1.415,0.17 Z M2.785,2.45 C2.5384,2.448 2.2954,2.51 2.08,2.63 C1.8682,2.744 1.6944,2.918 1.58,3.13 C1.3497,3.603 1.3497,4.157 1.58,4.63 C1.6964,4.84 1.8697,5.014 2.08,5.13 C2.295,5.252 2.5379,5.315 2.785,5.315 C3.0356,5.318 3.2824,5.254 3.5,5.13 L3.495,5.13 C3.7053,5.014 3.8786,4.84 3.995,4.63 C4.2314,4.158 4.2314,3.602 3.995,3.13 C3.8806,2.918 3.7068,2.744 3.495,2.63 C3.2785,2.508 3.0334,2.446 2.785,2.45 Z" id="path-7"></path>
        <polygon id="path-9" points="2.09 0.5 2.09 5.92 1.325 5.92 1.325 1.175 0.1 1.175 0.1 0.5"></polygon>
        <path d="M0.965,0.9 C1.1169,0.9 1.24,1.023 1.24,1.175 L1.24,1.175 L1.24,30.26 C1.2413,30.334 1.213,30.405 1.1612,30.458 C1.1095,30.51 1.0388,30.54 0.965,30.54 C0.8123,30.537 0.69,30.413 0.69,30.26 L0.69,30.26 L0.69,1.175 C0.69,1.023 0.8131,0.9 0.965,0.9 Z" id="path-11"></path>
        <path d="M2.97,0.51 C3.0654,0.51 3.1539,0.559 3.205,0.64 L3.205,0.64 L5.705,4.575 C5.7442,4.637 5.7573,4.711 5.7413,4.783 C5.7254,4.854 5.6817,4.916 5.62,4.955 C5.5588,4.996 5.4836,5.009 5.4119,4.993 C5.3402,4.977 5.2781,4.933 5.24,4.87 L5.24,4.87 L2.965,1.305 L0.695,4.87 C0.6559,4.933 0.593,4.978 0.5205,4.994 C0.4479,5.01 0.372,4.996 0.31,4.955 C0.2353,4.903 0.192,4.816 0.195,4.725 C0.1927,4.672 0.2067,4.62 0.235,4.575 L0.235,4.575 L2.735,0.64 C2.7867,0.56 2.8749,0.511 2.97,0.51 Z" id="path-13"></path>
        <path d="M0.5205,0.461 C0.593,0.477 0.6559,0.522 0.695,0.585 L2.965,4.15 L5.24,0.585 C5.2781,0.522 5.3402,0.478 5.4119,0.462 C5.4836,0.446 5.5588,0.459 5.62,0.5 C5.6817,0.539 5.7254,0.601 5.7413,0.672 C5.7573,0.744 5.7442,0.818 5.705,0.88 L3.205,4.815 C3.1534,4.894 3.0646,4.942 2.97,4.94 C2.8756,4.941 2.7873,4.894 2.735,4.815 L0.235,0.88 C0.1589,0.751 0.1961,0.585 0.32,0.5 L0.31,0.5 C0.372,0.459 0.4479,0.445 0.5205,0.461 Z" id="path-15"></path>
        <path d="M55.77,0.684959514 C55.926,0.684 56.075,0.75 56.18,0.865 L56.18,0.865 L84.405,31.83 C84.5509,31.992 84.5881,32.225 84.5,32.425 C84.4131,32.624 84.2172,32.753 84,32.755 L84,32.755 L1.03,32.755 C0.8571,32.754 0.6946,32.672 0.5907,32.534 C0.4868,32.395 0.4533,32.217 0.5,32.05 L0.5,32.05 L9.34,1.085 L9.37224551,0.999070313 C9.46292969,0.807609375 9.657825,0.682375 9.875,0.684959514 L9.875,0.684959514 L55.77,0.684959514 Z M55.53,1.79 L10.291,1.79 L1.76,31.65 L82.725,31.65 L55.53,1.79 Z M9.875,1.235 L9.875,1.79 L10.291,1.79 L10.405,1.39 L9.875,1.235 Z" id="path-17"></path>
    </defs>
    <g id="Page-1" stroke="none" stroke-width="1" fill="none" fill-rule="evenodd">
        <g id="SHAPES" transform="translate(-111.000000, -5458.000000)">
            <g id="Group-63" transform="translate(111.000000, 5458.000000)">
                <g id="Group-4297" transform="translate(44.000000, 18.000000)">
                    <mask id="mask-2" fill="white">
                        <use xlink:href="#path-1"></use>
                    </mask>
                    <g id="Clip-4296"></g>
                    <polygon id="Fill-4295" fill="#000000" mask="url(#mask-2)" points="-4.84 -4.16 9.0551 -4.16 9.0551 11.585 -4.84 11.585"></polygon>
                </g>
                <g id="Group-4300" transform="translate(28.000000, 0.000000)">
                    <mask id="mask-4" fill="white">
                        <use xlink:href="#path-3"></use>
                    </mask>
                    <g id="Clip-4299"></g>
                    <polygon id="Fill-4298" fill="#000000" mask="url(#mask-4)" points="-4.88 -4.965 9.3699 -4.965 9.3699 10.83 -4.88 10.83"></polygon>
                </g>
                <g id="Group-4303" transform="translate(32.000000, 0.000000)">
                    <mask id="mask-6" fill="white">
                        <use xlink:href="#path-5"></use>
                    </mask>
                    <g id="Clip-4302"></g>
                    <polygon id="Fill-4301" fill="#000000" mask="url(#mask-6)" points="-4.275 -4.718 9.8 -4.718 9.8 10.78 -4.275 10.78"></polygon>
                </g>
                <g id="Group-4306" transform="translate(28.000000, 43.000000)">
                    <mask id="mask-8" fill="white">
                        <use xlink:href="#path-7"></use>
                    </mask>
                    <g id="Clip-4305"></g>
                    <polygon id="Fill-4304" fill="#000000" mask="url(#mask-8)" points="-4.325 -4.83 9.9255 -4.83 9.9255 10.965 -4.325 10.965"></polygon>
                </g>
                <g id="Group-4309" transform="translate(33.000000, 43.000000)">
                    <mask id="mask-10" fill="white">
                        <use xlink:href="#path-9"></use>
                    </mask>
                    <g id="Clip-4308"></g>
                    <polygon id="Fill-4307" fill="#000000" mask="url(#mask-10)" points="-4.9 -4.5 7.09 -4.5 7.09 10.92 -4.9 10.92"></polygon>
                </g>
                <g id="Group-4312" transform="translate(49.000000, 8.000000)">
                    <mask id="mask-12" fill="white">
                        <use xlink:href="#path-11"></use>
                    </mask>
                    <g id="Clip-4311"></g>
                    <polygon id="Fill-4310" fill="#000000" mask="url(#mask-12)" points="-4.31 -4.1 6.24 -4.1 6.24 35.54 -4.31 35.54"></polygon>
                </g>
                <g id="Group-4315" transform="translate(47.000000, 8.000000)">
                    <mask id="mask-14" fill="white">
                        <use xlink:href="#path-13"></use>
                    </mask>
                    <g id="Clip-4314"></g>
                    <polygon id="Fill-4313" fill="#000000" mask="url(#mask-14)" points="-4.8052 -4.49 10.748 -4.49 10.748 10 -4.8052 10"></polygon>
                </g>
                <g id="Group-4318" transform="translate(47.000000, 34.000000)">
                    <mask id="mask-16" fill="white">
                        <use xlink:href="#path-15"></use>
                    </mask>
                    <g id="Clip-4317"></g>
                    <polygon id="Fill-4316" fill="#000000" mask="url(#mask-16)" points="-4.8044 -4.545 10.748 -4.545 10.748 9.94 -4.8044 9.94"></polygon>
                </g>
                <g id="Group-4321" transform="translate(0.000000, 7.000000)">
                    <mask id="mask-18" fill="white">
                        <use xlink:href="#path-17"></use>
                    </mask>
                    <g id="Clip-4320"></g>
                    <polygon id="Fill-4319" fill="#000000" mask="url(#mask-18)" points="-4.5207 -4.315 89.5472 -4.315 89.5472 37.755 -4.5207 37.755"></polygon>
                </g>
            </g>
        </g>
    </g>
</svg>