<?xml version="1.0" encoding="UTF-8"?>
<svg width="95px" height="48px" viewBox="-10 -10 115 68" version="1.1" xmlns="http://www.w3.org/2000/svg" xmlns:xlink="http://www.w3.org/1999/xlink">
    <title>9894D759-2C7C-43FE-9313-D677CC65B02D</title>
    <defs>
        <path d="M94.2578,0.699770806 C94.4084,0.701 94.5504,0.77 94.6437,0.889 C94.7377,1.007 94.7723,1.162 94.7378,1.309 L85.8315,39.161 C85.7789,39.383 85.5804,39.541 85.3516,39.5422542 L0.7422,39.5422542 C0.5864,39.547 0.4374,39.478 0.34,39.356 C0.2427,39.235 0.2084,39.074 0.2474,38.923 L9.8958,1.072 C9.9536,0.847 10.1592,0.693 10.3906,0.699770806 L94.2578,0.699770806 Z M93.6344,1.69 L10.7766,1.69 L1.3805,38.552 L84.9607,38.552 L93.6344,1.69 Z" id="path-1"></path>
        <path d="M5.031,0.203 L7.9997,3.172 C8.0934,3.265 8.1461,3.392 8.1461,3.523 C8.1461,3.655 8.0934,3.782 7.9997,3.875 C7.9064,3.967 7.78,4.019 7.6484,4.01801416 C7.5169,4.019 7.3905,3.967 7.2971,3.875 L4.5609,1.134 L1.1518,2.499 C0.8977,2.6 0.6097,2.476 0.5086,2.222 C0.4075,1.968 0.5315,1.68 0.7857,1.579 L4.4966,0.095 C4.6805,0.021 4.8907,0.063 5.031,0.203 Z" id="path-3"></path>
        <path d="M5.2888,0.657 L8.2576,3.625 C8.3512,3.718 8.4039,3.845 8.4039,3.977 C8.4039,4.108 8.3512,4.235 8.2576,4.328 C8.1642,4.42 8.0378,4.472 7.9062,4.47101416 C7.7747,4.472 7.6483,4.42 7.5549,4.328 L4.8188,1.587 L1.4096,2.952 C1.2876,3.001 1.1512,2.999 1.0306,2.947 C0.9099,2.895 0.8149,2.797 0.7664,2.675 C0.7177,2.553 0.7196,2.417 0.7716,2.296 C0.8235,2.176 0.9214,2.08 1.0435,2.032 L4.7544,0.548 C4.9383,0.474 5.1486,0.516 5.2888,0.657 Z" id="path-5"></path>
        <path d="M4.6404,0.977 L7.6091,3.946 C7.7028,4.038 7.7555,4.165 7.7555,4.297 C7.7555,4.429 7.7028,4.555 7.6091,4.648 C7.5157,4.741 7.3893,4.792 7.2578,4.792 C7.1263,4.792 6.9999,4.741 6.9065,4.648 L4.1703,1.907 L0.7612,3.273 C0.5968,3.338 0.41,3.311 0.2712,3.201 C0.1323,3.091 0.0625,2.916 0.0881,2.741 C0.1136,2.566 0.2307,2.418 0.3951,2.352 L4.106,0.868 C4.2898,0.794 4.5001,0.837 4.6404,0.977 Z" id="path-7"></path>
        <path d="M4.8982,0.43 L7.8669,3.399 C7.9606,3.492 8.0133,3.618 8.0133,3.75 C8.0133,3.882 7.9606,4.008 7.8669,4.101 C7.7736,4.194 7.6471,4.246 7.5156,4.24501416 C7.3841,4.246 7.2577,4.194 7.1643,4.101 L4.4281,1.36 L1.019,2.726 C0.897,2.774 0.7606,2.773 0.6399,2.721 C0.5193,2.669 0.4242,2.571 0.3758,2.449 C0.3271,2.327 0.329,2.19 0.3809,2.07 C0.4329,1.949 0.5307,1.854 0.6529,1.805 L4.3638,0.321 C4.5477,0.247 4.7579,0.29 4.8982,0.43 Z" id="path-9"></path>
        <path d="M1.5521,0.317 L9.0383,4.77 C9.1885,4.859 9.2806,5.021 9.2806,5.195 C9.2806,5.37 9.1885,5.532 9.0383,5.621 L1.5521,10.074 C1.4772,10.118 1.3918,10.142 1.3047,10.143 C1.0819,10.143 0.8866,9.994 0.8277,9.779 C0.7687,9.564 0.8607,9.337 1.0523,9.223 L7.8211,5.195 L1.0573,1.168 C0.8521,1.018 0.793,0.738 0.9206,0.519 C1.0481,0.3 1.3209,0.212 1.5521,0.317 Z" id="path-11"></path>
        <path d="M1.5521,0.426 L9.0383,4.879 C9.1885,4.968 9.2806,5.13 9.2806,5.305 C9.2806,5.479 9.1885,5.641 9.0383,5.73 L1.5521,10.183 C1.4772,10.228 1.3918,10.252 1.3047,10.253 C1.0819,10.253 0.8866,10.104 0.8277,9.889 C0.7687,9.674 0.8607,9.446 1.0523,9.332 L7.8211,5.305 L1.0573,1.277 C0.8852,1.199 0.7724,1.03 0.7665,0.842 C0.7607,0.653 0.8628,0.477 1.0297,0.389 C1.1967,0.301 1.3993,0.315 1.5521,0.426 Z" id="path-13"></path>
    </defs>
    <g id="Page-1" stroke="none" stroke-width="1" fill="none" fill-rule="evenodd">
        <g id="SHAPES" transform="translate(-237.000000, -5638.000000)">
            <g id="Group-65" transform="translate(237.000000, 5638.000000)">
                <g id="Group-4387" transform="translate(0.000000, 4.000000)">
                    <mask id="mask-2" fill="white">
                        <use xlink:href="#path-1"></use>
                    </mask>
                    <g id="Clip-4386"></g>
                    <polygon id="Fill-4385" fill="#000000" mask="url(#mask-2)" points="-4.7684 -4.3 99.7509 -4.3 99.7509 44.542 -4.7684 44.542"></polygon>
                </g>
                <g id="Group-4390" transform="translate(2.000000, 18.000000)">
                    <mask id="mask-4" fill="white">
                        <use xlink:href="#path-3"></use>
                    </mask>
                    <g id="Clip-4389"></g>
                    <polygon id="Fill-4388" fill="#000000" mask="url(#mask-4)" points="-4.5266 -4.941 13.1461 -4.941 13.1461 9.018 -4.5266 9.018"></polygon>
                </g>
                <g id="Group-4393" transform="translate(1.000000, 22.000000)">
                    <mask id="mask-6" fill="white">
                        <use xlink:href="#path-5"></use>
                    </mask>
                    <g id="Clip-4392"></g>
                    <polygon id="Fill-4391" fill="#000000" mask="url(#mask-6)" points="-4.2688 -4.488 13.4039 -4.488 13.4039 9.471 -4.2688 9.471"></polygon>
                </g>
                <g id="Group-4396" transform="translate(87.000000, 15.000000)">
                    <mask id="mask-8" fill="white">
                        <use xlink:href="#path-7"></use>
                    </mask>
                    <g id="Clip-4395"></g>
                    <polygon id="Fill-4394" fill="#000000" mask="url(#mask-8)" points="-4.9171 -4.168 12.7555 -4.168 12.7555 9.792 -4.9171 9.792"></polygon>
                </g>
                <g id="Group-4399" transform="translate(86.000000, 20.000000)">
                    <mask id="mask-10" fill="white">
                        <use xlink:href="#path-9"></use>
                    </mask>
                    <g id="Clip-4398"></g>
                    <polygon id="Fill-4397" fill="#000000" mask="url(#mask-10)" points="-4.6594 -4.715 13.0133 -4.715 13.0133 9.245 -4.6594 9.245"></polygon>
                </g>
                <g id="Group-4402" transform="translate(41.000000, 0.000000)">
                    <mask id="mask-12" fill="white">
                        <use xlink:href="#path-11"></use>
                    </mask>
                    <g id="Clip-4401"></g>
                    <polygon id="Fill-4400" fill="#000000" mask="url(#mask-12)" points="-4.19 -4.727 14.2806 -4.727 14.2806 15.143 -4.19 15.143"></polygon>
                </g>
                <g id="Group-4405" transform="translate(41.000000, 37.000000)">
                    <mask id="mask-14" fill="white">
                        <use xlink:href="#path-13"></use>
                    </mask>
                    <g id="Clip-4404"></g>
                    <polygon id="Fill-4403" fill="#000000" mask="url(#mask-14)" points="-4.2337 -4.669 14.2806 -4.669 14.2806 15.253 -4.2337 15.253"></polygon>
                </g>
            </g>
        </g>
    </g>
</svg>