<svg width="95" height="33" viewBox="-10 -10 115 53" xmlns="http://www.w3.org/2000/svg" xmlns:xlink="http://www.w3.org/1999/xlink">
    <defs>
        <path d="M94.211.801a.5.5 0 0 1-.131.574l-35.5 31a.501.501 0 0 1-.515.09l-57-22.5a.5.5 0 0 1-.31-.535.5.5 0 0 1 .45-.43l92.5-8.5a.5.5 0 0 1 .506.301zm-1.951.839L3.385 9.805l54.765 21.62L92.26 1.64z" id="a"/>
        <path d="M2.085.62c.05.06 4.66 6.065-1 14.32a.25.25 0 0 1-.35.065.25.25 0 0 1-.065-.35c2.845-4.15 3-7.66 2.58-9.87A9.497 9.497 0 0 0 1.695.93a.25.25 0 0 1 .04-.35.25.25 0 0 1 .35.04z" id="c"/>
        <path d="M20.47 3.9a.255.255 0 0 1 .025.355.244.244 0 0 1-.17.086.243.243 0 0 1-.18-.061c-.05-.04-4.64-3.935-10-3.12-3.45.5-6.5 2.835-9.035 6.88a.25.25 0 0 1-.225.12.255.255 0 0 1-.215-.385c2.625-4.18 5.785-6.57 9.39-7.11C15.665-.18 20.275 3.735 20.47 3.9z" id="e"/>
        <path d="M1.11.723c.065.067.09.163.065.252-.025.085-2.46 8.5 3.41 12.95a.25.25 0 0 1 .05.35.256.256 0 0 1-.22.11.246.246 0 0 1-.15-.05C-1.885 9.67.65.93.675.835a.26.26 0 0 1 .436-.112z" id="g"/>
        <path d="M2.895 1.095c.25.257.377.608.35.965V4H2.7v-.42a.92.92 0 0 1-.41.34 1.552 1.552 0 0 1-.635.115A1.342 1.342 0 0 1 .8 3.78a.89.89 0 0 1 0-1.355 1.498 1.498 0 0 1 1-.255h.91v-.115a.74.74 0 0 0-.215-.57.92.92 0 0 0-.635-.195c-.189 0-.376.03-.555.09a1.47 1.47 0 0 0-.455.25L.61 1.2c.175-.14.375-.243.59-.305.235-.071.48-.107.725-.105.35-.02.694.089.97.305zm-.225 1.47h-.89c-.5 0-.73.165-.73.5a.444.444 0 0 0 .185.38.86.86 0 0 0 .5.14c.206.005.41-.051.585-.16a.822.822 0 0 0 .35-.415v-.445z" id="i"/>
        <path d="M1.075.555v1.75c.132-.167.304-.297.5-.38.198-.088.413-.132.63-.13.278.002.55.072.795.205.24.133.438.33.57.57.143.258.216.55.21.845.006.297-.066.59-.21.85-.134.24-.33.439-.57.575a1.68 1.68 0 0 1-.83.2 1.565 1.565 0 0 1-.65-.135 1.257 1.257 0 0 1-.5-.4v.5H.5V.555h.575zm.5 1.885a.967.967 0 0 0-.385.39c-.18.369-.18.801 0 1.17a.998.998 0 0 0 .385.4c.341.187.754.187 1.095 0a.998.998 0 0 0 .385-.4 1.29 1.29 0 0 0 0-1.17.967.967 0 0 0-.385-.39 1.139 1.139 0 0 0-1.095 0z" id="k"/>
        <path d="M1.695.77c.267-.004.53.056.77.175.212.115.385.289.5.5l-.44.28a1 1 0 0 0-.37-.34 1.098 1.098 0 0 0-.5-.115 1.108 1.108 0 0 0-.56.14 1 1 0 0 0-.39.39c-.186.37-.186.805 0 1.175.09.166.225.303.39.395a1.164 1.164 0 0 0 1.06.025.965.965 0 0 0 .37-.345l.44.28c-.116.21-.29.384-.5.5a1.62 1.62 0 0 1-.77.175 1.789 1.789 0 0 1-.87-.2A1.497 1.497 0 0 1 .23 3.23a1.63 1.63 0 0 1-.215-.84 1.61 1.61 0 0 1 .215-.835c.14-.244.347-.443.595-.575.267-.143.567-.215.87-.21z" id="m"/>
    </defs>
    <g fill="none" fill-rule="evenodd">
        <g>
            <mask id="b" fill="#fff">
                <use xlink:href="#a"/>
            </mask>
            <path fill="#000" mask="url(#b)" d="M-4.25-4.502H99.252V37.5H-4.25z"/>
        </g>
        <g transform="translate(29 6)">
            <mask id="d" fill="#fff">
                <use xlink:href="#c"/>
            </mask>
            <path fill="#000" mask="url(#d)" d="M-4.375-4.474H8.902V20.05H-4.375z"/>
        </g>
        <g transform="translate(47 20)">
            <mask id="f" fill="#fff">
                <use xlink:href="#e"/>
            </mask>
            <path fill="#000" mask="url(#f)" d="M-4.366-4.454h29.921V13.16H-4.366z"/>
        </g>
        <g transform="translate(72 2)">
            <mask id="h" fill="#fff">
                <use xlink:href="#g"/>
            </mask>
            <path fill="#000" mask="url(#h)" d="M-4.864-4.355H9.685v23.74H-4.864z"/>
        </g>
        <g transform="translate(21 11)">
            <mask id="j" fill="#fff">
                <use xlink:href="#i"/>
            </mask>
            <path fill="#000" mask="url(#j)" d="M-4.513-4.212H8.248V9.037h-12.76z"/>
        </g>
        <g transform="translate(77 5)">
            <mask id="l" fill="#fff">
                <use xlink:href="#k"/>
            </mask>
            <path fill="#000" mask="url(#l)" d="M-4.5-4.445H8.78V10.04H-4.5z"/>
        </g>
        <g transform="translate(56 24)">
            <mask id="n" fill="#fff">
                <use xlink:href="#m"/>
            </mask>
            <path fill="#000" mask="url(#n)" d="M-4.985-4.23h12.95V9.006h-12.95z"/>
        </g>
    </g>
</svg>
