<svg width="49" height="47" viewBox="0 0 69 67" xmlns="http://www.w3.org/2000/svg" xmlns:xlink="http://www.w3.org/1999/xlink">
    <defs>
        <path d="M24.5.995a.5.5 0 0 1 .43.245l24 41.25a.5.5 0 0 1-.43.75H.5a.5.5 0 0 1-.43-.75l24-41.25a.5.5 0 0 1 .43-.245zm0 1.505L1.37 42.24h46.26L24.5 2.5z" id="a"/>
        <path d="M7.675 1.225a.5.5 0 0 1-.16.69l-6 3.75a.506.506 0 0 1-.69-.16.5.5 0 0 1 .16-.69l6-3.75a.5.5 0 0 1 .69.16z" id="c"/>
        <path d="M7.175 1.225a.5.5 0 0 1-.16.69l-6 3.75a.506.506 0 0 1-.69-.16.5.5 0 0 1 .16-.69l6-3.75a.5.5 0 0 1 .69.16z" id="e"/>
        <path d="M1.16 1.045 6.475 5.72a.5.5 0 1 1-.665.75L.5 1.795a.5.5 0 1 1 .66-.75z" id="g"/>
        <path d="M1.19.75 6.5 5.435a.5.5 0 0 1-.325.875.501.501 0 0 1-.33-.125L.53 1.5a.5.5 0 0 1 .66-.75z" id="i"/>
        <path d="M.75.25a.5.5 0 0 1 .5.5V7.5a.5.5 0 0 1-1 0V.75a.5.5 0 0 1 .5-.5z" id="k"/>
        <path d="M.5.25a.5.5 0 0 1 .5.5V7.5a.5.5 0 0 1-1 0V.75a.5.5 0 0 1 .5-.5z" id="m"/>
        <path d="M4.555.755a.244.244 0 0 1-.1.335l-.018.011c-.276.174-3.63 2.37-2.937 8.624a.25.25 0 0 1-.22.275h-.03A.255.255 0 0 1 1 9.78C.24 2.94 4.05.745 4.215.655a.254.254 0 0 1 .34.1z" id="o"/>
        <path d="M.54.92a7.211 7.211 0 0 1 4.185 3c1 1.58 1.19 3.555.63 5.87a.25.25 0 0 1-.245.21h-.06a.255.255 0 0 1-.185-.305c.53-2.175.34-4-.565-5.5A6.82 6.82 0 0 0 .425 1.42.257.257 0 0 1 .54.92z" id="q"/>
        <path d="M.76.79c.155.17 3.83 4.115 9.5-.035a.248.248 0 0 1 .25-.026.25.25 0 0 1 .045.431c-2 1.475-3.805 1.965-5.305 1.965a6.997 6.997 0 0 1-4.86-2A.25.25 0 0 1 .517.701.25.25 0 0 1 .76.79z" id="s"/>
    </defs>
    <g fill="none" fill-rule="evenodd">
        <g>
            <mask id="b" fill="#fff">
                <use xlink:href="#a"/>
            </mask>
            <path fill="#000" mask="url(#b)" d="M-4.997-4.005h58.994V48.24H-4.997z"/>
        </g>
        <g transform="translate(33 18)">
            <mask id="d" fill="#fff">
                <use xlink:href="#c"/>
            </mask>
            <path fill="#000" mask="url(#d)" d="M-4.251-4.011H12.75V10.74H-4.251z"/>
        </g>
        <g transform="translate(35 21)">
            <mask id="f" fill="#fff">
                <use xlink:href="#e"/>
            </mask>
            <path fill="#000" mask="url(#f)" d="M-4.751-4.011H12.25V10.74H-4.751z"/>
        </g>
        <g transform="translate(10 17)">
            <mask id="h" fill="#fff">
                <use xlink:href="#g"/>
            </mask>
            <path fill="#000" mask="url(#h)" d="M-4.686-4.094h16.33v15.689h-16.33z"/>
        </g>
        <g transform="translate(8 20)">
            <mask id="j" fill="#fff">
                <use xlink:href="#i"/>
            </mask>
            <path fill="#000" mask="url(#j)" d="M-4.64-4.374h16.31V11.31H-4.64z"/>
        </g>
        <g transform="translate(23 39)">
            <mask id="l" fill="#fff">
                <use xlink:href="#k"/>
            </mask>
            <path fill="#000" mask="url(#l)" d="M-4.75-4.75h11V13h-11z"/>
        </g>
        <g transform="translate(27 39)">
            <mask id="n" fill="#fff">
                <use xlink:href="#m"/>
            </mask>
            <path fill="#000" mask="url(#n)" d="M-5-4.75H6V13H-5z"/>
        </g>
        <g transform="translate(39 33)">
            <mask id="p" fill="#fff">
                <use xlink:href="#o"/>
            </mask>
            <path fill="#000" mask="url(#p)" d="M-4.1-4.374H9.586V15H-4.1z"/>
        </g>
        <g transform="translate(5 33)">
            <mask id="r" fill="#fff">
                <use xlink:href="#q"/>
            </mask>
            <path fill="#000" mask="url(#r)" d="M-4.774-4.087h15.44V15h-15.44z"/>
        </g>
        <g transform="translate(19 9)">
            <mask id="t" fill="#fff">
                <use xlink:href="#s"/>
            </mask>
            <path fill="#000" mask="url(#t)" d="M-4.685-4.303h20.343V8.125H-4.685z"/>
        </g>
    </g>
</svg>
