<svg width="95" height="33" viewBox="0 0 115 53" xmlns="http://www.w3.org/2000/svg" xmlns:xlink="http://www.w3.org/1999/xlink">
    <defs>
        <path d="m48.26.335 46.5 31.5a.499.499 0 0 1-.28.915H1.5a.5.5 0 0 1-.3-.915L47.7.335a.501.501 0 0 1 .56 0zM48 1.355 3.13 31.75h89.74L48 1.355z" id="a"/>
        <path d="m1.705 1.1 4 5.83a.5.5 0 1 1-.825.565l-4-5.83a.5.5 0 1 1 .825-.565z" id="c"/>
        <path d="m1.135.255 4 5.83a.5.5 0 1 1-.825.565L.31.82a.5.5 0 0 1 .825-.565z" id="e"/>
        <path d="M5.49.97a.5.5 0 0 1 .13.695l-4 5.83a.5.5 0 0 1-.41.215.5.5 0 0 1-.415-.78l4-5.83A.5.5 0 0 1 5.49.97z" id="g"/>
        <path d="M4.817.034A.5.5 0 0 1 5.19.82l-4 5.83a.5.5 0 0 1-.41.215.5.5 0 0 1-.415-.78l4-5.83a.5.5 0 0 1 .452-.221z" id="i"/>
        <path d="m.595.585.09.058.1.066c1.003.682 5.583 4.138 4.09 9.616a.25.25 0 0 1-.24.175H4.57a.245.245 0 0 1-.175-.305C5.96 4.45.395 1.05.335 1.015A.25.25 0 0 1 .344.58a.253.253 0 0 1 .251.005z" id="k"/>
        <path d="M2.693.633a.25.25 0 0 1 .107.422l-.018.018a3.92 3.92 0 0 0-.15.166l-.096.114C1.771 2.288-.313 5.39.995 10.185a.25.25 0 0 1-.175.305l-.065.01a.25.25 0 0 1-.24-.185C-1.14 4.245 2.415.73 2.45.695a.25.25 0 0 1 .243-.062z" id="m"/>
    </defs>
    <g fill="none" fill-rule="evenodd">
        <g>
            <mask id="b" fill="#fff">
                <use xlink:href="#a"/>
            </mask>
            <path fill="#000" mask="url(#b)" d="M-4.021-4.751H99.98V37.75H-4.021z"/>
        </g>
        <g transform="translate(28 7)">
            <mask id="d" fill="#fff">
                <use xlink:href="#c"/>
            </mask>
            <path fill="#000" mask="url(#d)" d="M-4.207-4.117h15V12.71h-15z"/>
        </g>
        <g transform="translate(26 10)">
            <mask id="f" fill="#fff">
                <use xlink:href="#e"/>
            </mask>
            <path fill="#000" mask="url(#f)" d="M-4.774-4.957h14.997v16.822H-4.774z"/>
        </g>
        <g transform="translate(63 7)">
            <mask id="h" fill="#fff">
                <use xlink:href="#g"/>
            </mask>
            <path fill="#000" mask="url(#h)" d="M-4.293-4.117h15V12.71h-15z"/>
        </g>
        <g transform="translate(66 10)">
            <mask id="j" fill="#fff">
                <use xlink:href="#i"/>
            </mask>
            <path fill="#000" mask="url(#j)" d="M-4.722-4.968h15.003v16.833H-4.722z"/>
        </g>
        <g transform="translate(15 22)">
            <mask id="l" fill="#fff">
                <use xlink:href="#k"/>
            </mask>
            <path fill="#000" mask="url(#l)" d="M-4.786-4.451H10.17V15.5H-4.786z"/>
        </g>
        <g transform="translate(78 22)">
            <mask id="n" fill="#fff">
                <use xlink:href="#m"/>
            </mask>
            <path fill="#000" mask="url(#n)" d="M-4.924-4.376h12.8V15.5h-12.8z"/>
        </g>
    </g>
</svg>
