<svg width="93" height="49" viewBox="-10 -10 113 69" xmlns="http://www.w3.org/2000/svg" xmlns:xlink="http://www.w3.org/1999/xlink">
    <defs>
        <path d="M2.815.605a1.9 1.9 0 0 1 .9.205c.256.131.469.334.61.585l-.5.33a1.114 1.114 0 0 0-.435-.4 1.222 1.222 0 0 0-.575-.135 1.315 1.315 0 0 0-.655.165 1.17 1.17 0 0 0-.455.455 1.555 1.555 0 0 0 0 1.375c.107.191.265.35.455.46.201.107.427.162.655.16.2.003.397-.044.575-.135.178-.092.329-.23.435-.4l.5.325a1.503 1.503 0 0 1-.61.59 1.9 1.9 0 0 1-.9.205 2.063 2.063 0 0 1-1-.245c-.29-.156-.53-.39-.695-.675a2.025 2.025 0 0 1 0-1.95c.164-.285.405-.519.695-.675a2.121 2.121 0 0 1 1-.24z" id="a"/>
        <path d="M1.135.905V2.95c.146-.193.339-.347.56-.445.231-.102.482-.154.735-.15.336-.004.668.077.965.235.279.157.511.387.67.665a2.161 2.161 0 0 1 0 2c-.158.28-.39.512-.67.67a2.005 2.005 0 0 1-.965.235A1.71 1.71 0 0 1 1.675 6a1.448 1.448 0 0 1-.57-.47v.59H.46V.905h.675zm.6 2.2c-.19.106-.346.264-.45.455a1.456 1.456 0 0 0-.16.685c-.004.236.051.47.16.68.104.194.26.355.45.465.398.22.882.22 1.28 0 .188-.112.341-.273.445-.465.113-.209.17-.443.165-.68a1.41 1.41 0 0 0-.165-.685 1.18 1.18 0 0 0-.445-.455 1.324 1.324 0 0 0-1.28 0z" id="c"/>
        <path d="M3.74 1c.293.298.442.708.41 1.125v2.24H3.5v-.5a1.075 1.075 0 0 1-.5.395 1.856 1.856 0 0 1-.74.135 1.545 1.545 0 0 1-1-.3.965.965 0 0 1-.375-.79 1 1 0 0 1 .355-.79 1.79 1.79 0 0 1 1.135-.295H3.5v-.135a.851.851 0 0 0-.255-.665 1.075 1.075 0 0 0-.74-.23 1.89 1.89 0 0 0-.645.11 1.631 1.631 0 0 0-.53.29l-.28-.5c.204-.16.436-.281.685-.355.274-.081.559-.122.845-.12A1.66 1.66 0 0 1 3.74 1zm-.26 1.715H2.445c-.57 0-.855.195-.855.575a.5.5 0 0 0 .215.44c.179.118.39.176.605.165.236-.001.466-.069.665-.195v.015a.97.97 0 0 0 .405-.5v-.5z" id="e"/>
        <path d="M74.285.355a.5.5 0 0 1 .685.465v29a.5.5 0 0 1-.5.5h-73a.5.5 0 0 1-.19-.965l73-29 .185.465-.18-.465zm-.32 1.202L4.075 29.32h69.89V1.557zm.5-.737h-.5v.737l.685-.272-.185-.465z" id="g"/>
        <path d="M75.06.535a.256.256 0 0 1 .325.14.246.246 0 0 1-.003.192.248.248 0 0 1-.137.133L.365 30.58a.256.256 0 0 1-.325-.14.251.251 0 0 1 .14-.325L75.06.535z" id="i"/>
        <path d="m.34.61.065.005 4.145.8a.26.26 0 0 1 .185.155.245.245 0 0 1-.03.235l-2.5 3.415a.25.25 0 0 1-.405-.295L4.05 1.83.295 1.105a.25.25 0 0 1-.2-.295h.02A.243.243 0 0 1 .219.652C.274.615.341.602.405.615L.341.611z" id="k"/>
        <path d="M3.57.86c.11.083.134.238.055.35L1.38 4.305l3.755.725a.254.254 0 1 1-.095.5L.9 4.725a.241.241 0 0 1-.185-.15.245.245 0 0 1 .03-.24L3.22.92l.11-.085a.26.26 0 0 1 .24.025z" id="m"/>
        <path d="M.715.92a.25.25 0 0 1 .25.25v26.795a.25.25 0 0 1-.5 0V1.17a.25.25 0 0 1 .25-.25z" id="o"/>
        <path d="M2.715.56a.24.24 0 0 1 .21.115L5.19 4.23a.25.25 0 0 1-.42.27L2.715 1.285.66 4.51a.25.25 0 0 1-.345.075.246.246 0 0 1-.12-.22.28.28 0 0 1 .04-.135L2.5.675A.255.255 0 0 1 2.715.56z" id="q"/>
        <path d="M4.995.499a.25.25 0 0 1 .195.396L2.925 4.45a.245.245 0 0 1-.21.12.258.258 0 0 1-.215-.12L.235.895A.269.269 0 0 1 .195.76a.25.25 0 0 1 .12-.21.25.25 0 0 1 .345.075l2.055 3.23L4.77.625a.25.25 0 0 1 .225-.126z" id="s"/>
        <path d="M71.11.82a.25.25 0 0 1 0 .5H.315a.25.25 0 0 1 0-.5H71.11z" id="u"/>
        <path d="M.905.55a.269.269 0 0 1 .135.04l3.555 2.265a.258.258 0 0 1 .12.215.245.245 0 0 1-.12.21L1.04 5.545a.25.25 0 1 1-.27-.42L4 3.07.77 1.015A.25.25 0 0 1 .695.67a.25.25 0 0 1 .21-.12z" id="w"/>
        <path d="M4.52.55c.086 0 .166.046.21.12a.25.25 0 0 1-.075.345L1.43 3.07l3.225 2.055a.25.25 0 1 1-.27.42L.83 3.28a.241.241 0 0 1-.115-.21c0-.087.043-.167.115-.215L4.385.59A.28.28 0 0 1 4.52.55z" id="y"/>
        <path d="M5.465.16a.25.25 0 0 1 0 .5h-4.5v5.16a.255.255 0 0 1-.25.25.25.25 0 0 1-.25-.25V.41c0-.065.025-.128.07-.175A.244.244 0 0 1 .715.16h4.75z" id="A"/>
    </defs>
    <g fill="none" fill-rule="evenodd">
        <g transform="translate(37 8)">
            <mask id="b" fill="#fff">
                <use xlink:href="#a"/>
            </mask>
            <path fill="#000" mask="url(#b)" d="M-4.13-4.395H9.325V9.39H-4.13z"/>
        </g>
        <g transform="translate(88 16)">
            <mask id="d" fill="#fff">
                <use xlink:href="#c"/>
            </mask>
            <path fill="#000" mask="url(#d)" d="M-4.54-4.095H9.31V11.16H-4.54z"/>
        </g>
        <g transform="translate(39 44)">
            <mask id="f" fill="#fff">
                <use xlink:href="#e"/>
            </mask>
            <path fill="#000" mask="url(#f)" d="M-4.115-4.388h13.27V9.397h-13.27z"/>
        </g>
        <g transform="translate(2 5)">
            <mask id="h" fill="#fff">
                <use xlink:href="#g"/>
            </mask>
            <path fill="#000" mask="url(#h)" d="M-4.038-4.681H79.97V35.32H-4.038z"/>
        </g>
        <g transform="translate(1 1)">
            <mask id="j" fill="#fff">
                <use xlink:href="#i"/>
            </mask>
            <path fill="#000" mask="url(#j)" d="M-4.978-4.481h85.381v40.077h-85.38z"/>
        </g>
        <g transform="translate(72)">
            <mask id="l" fill="#fff">
                <use xlink:href="#k"/>
            </mask>
            <path fill="#000" mask="url(#l)" d="M-4.91-4.39H9.752v14.713H-4.91z"/>
        </g>
        <g transform="translate(0 27)">
            <mask id="n" fill="#fff">
                <use xlink:href="#m"/>
            </mask>
            <path fill="#000" mask="url(#n)" d="M-4.304-4.183h14.646v14.718H-4.304z"/>
        </g>
        <g transform="translate(83 6)">
            <mask id="p" fill="#fff">
                <use xlink:href="#o"/>
            </mask>
            <path fill="#000" mask="url(#p)" d="M-4.535-4.08h10.5v37.295h-10.5z"/>
        </g>
        <g transform="translate(81 6)">
            <mask id="r" fill="#fff">
                <use xlink:href="#q"/>
            </mask>
            <path fill="#000" mask="url(#r)" d="M-4.805-4.44h15.028V9.625H-4.805z"/>
        </g>
        <g transform="translate(81 30)">
            <mask id="t" fill="#fff">
                <use xlink:href="#s"/>
            </mask>
            <path fill="#000" mask="url(#t)" d="M-4.805-4.501h15.042V9.57H-4.805z"/>
        </g>
        <g transform="translate(4 40)">
            <mask id="v" fill="#fff">
                <use xlink:href="#u"/>
            </mask>
            <path fill="#000" mask="url(#v)" d="M-4.935-4.18H76.36v10.5H-4.935z"/>
        </g>
        <g transform="translate(71 38)">
            <mask id="x" fill="#fff">
                <use xlink:href="#w"/>
            </mask>
            <path fill="#000" mask="url(#x)" d="M-4.356-4.45H9.715v15.042H-4.356z"/>
        </g>
        <g transform="translate(3 38)">
            <mask id="z" fill="#fff">
                <use xlink:href="#y"/>
            </mask>
            <path fill="#000" mask="url(#z)" d="M-4.285-4.45H9.78v15.042H-4.285z"/>
        </g>
        <g transform="translate(71 29)">
            <mask id="B" fill="#fff">
                <use xlink:href="#A"/>
            </mask>
            <path fill="#000" mask="url(#B)" d="M-4.535-4.84h15.25v15.91h-15.25z"/>
        </g>
    </g>
</svg>
