<svg width="95" height="53" viewBox="-10 -10 115 73" xmlns="http://www.w3.org/2000/svg" xmlns:xlink="http://www.w3.org/1999/xlink">
    <defs>
        <path d="M1.642.832v1.959c.143-.178.328-.318.539-.406.237-.094.49-.139.744-.132.406-.024.803.121 1.097.401.294.318.443.744.412 1.175V5.92h-.662V3.903a1.095 1.095 0 0 0-.254-.793.94.94 0 0 0-.725-.27 1.134 1.134 0 0 0-.842.314c-.22.244-.332.568-.309.896v1.87h-.66V.832h.66z" id="a"/>
        <path d="M3.747.862c.284.294.428.695.397 1.102v2.193h-.622v-.489c-.12.176-.29.312-.49.387-.23.093-.476.138-.724.132a1.509 1.509 0 0 1-.98-.294.945.945 0 0 1-.367-.774.977.977 0 0 1 .348-.773c.328-.218.719-.32 1.111-.289h1.043v-.098a.849.849 0 0 0-.244-.652 1.072 1.072 0 0 0-.73-.225 1.863 1.863 0 0 0-.632.108c-.189.061-.365.158-.519.284l-.274-.49c.2-.157.427-.275.67-.347.271-.08.551-.12.833-.118a1.64 1.64 0 0 1 1.18.343zm-.26 1.679H2.475c-.558 0-.837.191-.837.564a.522.522 0 0 0 .21.435c.176.115.384.17.593.157.23.004.455-.057.651-.176a.948.948 0 0 0 .397-.49v-.49z" id="c"/>
        <path d="M2.09.968c1.034 0 1.543.98 1.543 2.449 0 1.469-.49 2.551-1.562 2.551-.984 0-1.587-.857-1.587-2.551 0-1.396.574-2.449 1.607-2.449zm.94 2.64H1.078c0 1.224.411 1.914 1.004 1.914s.95-.793.95-1.914zm-.974-2.214c-.665 0-.979.833-.979 1.763h1.959c0-.979-.314-1.763-.98-1.763z" id="e"/>
        <path d="M2.002.639c.341-.008.68.073.98.235.282.153.516.382.675.661.32.597.32 1.314 0 1.91a1.72 1.72 0 0 1-.676.661c-.299.166-.637.249-.979.24a1.958 1.958 0 0 1-.98-.24 1.706 1.706 0 0 1-.67-.661 1.984 1.984 0 0 1 0-1.91c.157-.279.39-.508.67-.661.302-.16.639-.241.98-.235zm-.005.583a1.217 1.217 0 0 0-.627.157 1.095 1.095 0 0 0-.436.445c-.11.206-.165.437-.161.671-.005.232.05.462.161.666.1.191.25.349.436.455.191.109.408.165.627.162.22.003.437-.055.627-.166v.004c.186-.106.337-.264.436-.455.109-.205.163-.434.156-.666a1.373 1.373 0 0 0-.156-.671 1.094 1.094 0 0 0-.436-.445 1.197 1.197 0 0 0-.627-.157z" id="g"/>
        <path d="M87.532.76a.492.492 0 0 1 .236.421v44.072a.494.494 0 0 1-.486.51H.608a.49.49 0 0 1-.49-.378.489.489 0 0 1 .25-.553L87.042.76a.487.487 0 0 1 .49 0zm-.74 1.238L2.65 44.783h84.144V1.998z" id="i"/>
        <path d="M6.282.151c.136 0 .245.11.245.245a.25.25 0 0 1-.245.245H.49v5.631a.249.249 0 0 1-.244.245A.245.245 0 0 1 0 6.272V.396C0 .261.11.151.245.151h6.037z" id="k"/>
        <path d="M.585.497c.034.025 3.844 2.6 2.732 8.815a.239.239 0 0 1-.24.205h-.044a.25.25 0 0 1-.2-.284C3.89 3.357.462 1.016.315.909a.247.247 0 0 1 .27-.412z" id="m"/>
    </defs>
    <g fill="none" fill-rule="evenodd">
        <g transform="translate(41 10)">
            <mask id="b" fill="#fff">
                <use xlink:href="#a"/>
            </mask>
            <path fill="#000" mask="url(#b)" d="M-4.019-4.168H9.438V10.92H-4.02z"/>
        </g>
        <g transform="translate(51 48)">
            <mask id="d" fill="#fff">
                <use xlink:href="#c"/>
            </mask>
            <path fill="#000" mask="url(#d)" d="M-4.04-4.489H9.149V9.189H-4.039z"/>
        </g>
        <g transform="translate(24 35)">
            <mask id="f" fill="#fff">
                <use xlink:href="#e"/>
            </mask>
            <path fill="#000" mask="url(#f)" d="M-4.516-4.032h13.15v15h-13.15z"/>
        </g>
        <g transform="translate(91 17)">
            <mask id="h" fill="#fff">
                <use xlink:href="#g"/>
            </mask>
            <path fill="#000" mask="url(#h)" d="M-4.893-4.361h13.79V9.347h-13.79z"/>
        </g>
        <g>
            <mask id="j" fill="#fff">
                <use xlink:href="#i"/>
            </mask>
            <path fill="#000" mask="url(#j)" d="M-4.897-4.306h97.665v55.068H-4.897z"/>
        </g>
        <g transform="translate(81 39)">
            <mask id="l" fill="#fff">
                <use xlink:href="#k"/>
            </mask>
            <path fill="#000" mask="url(#l)" d="M-5-4.849h16.527v16.366H-5z"/>
        </g>
        <g transform="translate(17 36)">
            <mask id="n" fill="#fff">
                <use xlink:href="#m"/>
            </mask>
            <path fill="#000" mask="url(#n)" d="M-4.796-4.543H8.521v19.06H-4.796z"/>
        </g>
    </g>
</svg>
