<svg width="91" height="53" viewBox="-10 -10 111 73" xmlns="http://www.w3.org/2000/svg" xmlns:xlink="http://www.w3.org/1999/xlink">
    <defs>
        <path d="M.785.05v2c.147-.181.336-.323.55-.415.241-.099.5-.148.76-.145.416-.019.823.133 1.125.42.297.326.447.76.415 1.2v2.135H2.96v-2.06a1.14 1.14 0 0 0-.255-.81.999.999 0 0 0-.745-.275 1.17 1.17 0 0 0-.86.32c-.224.25-.338.58-.315.915v1.91h-.67V.05h.67z" id="a"/>
        <path d="M.785.05v2.045a1.43 1.43 0 0 1 .56-.445c.232-.101.482-.152.735-.15.337-.006.67.077.965.24.282.153.515.384.67.665.168.306.25.651.24 1a2 2 0 0 1-.24 1 1.725 1.725 0 0 1-.67.67 2.003 2.003 0 0 1-.965.235c-.26.005-.519-.05-.755-.16a1.452 1.452 0 0 1-.57-.47v.59h-.64V.05h.67zm.605 2.2a1.092 1.092 0 0 0-.45.455 1.4 1.4 0 0 0-.16.685c-.007.237.049.471.16.68.101.196.258.358.45.465.397.22.878.22 1.275 0 .19-.11.346-.271.45-.465.111-.209.167-.443.16-.68a1.4 1.4 0 0 0-.16-.685 1.156 1.156 0 0 0-.45-.455 1.352 1.352 0 0 0-1.275 0z" id="c"/>
        <path d="M59.174.751A.502.502 0 0 1 59.5.73a.501.501 0 0 1 .31.26l18.5 37a.5.5 0 0 1-.445.725h-77A.5.5 0 0 1 .6 37.79l58.5-37 .074-.039zm-.007 1.177L2.59 37.715h74.465L59.167 1.928zm.198-.713-.445.22.247.493.463-.293-.265-.42z" id="e"/>
        <path d="M1.365.565a.25.25 0 0 1 .25.25V36.61a.25.25 0 0 1-.5 0V.815a.25.25 0 0 1 .25-.25z" id="g"/>
        <path d="M3.365.216a.25.25 0 0 1 .21.114L5.84 3.885a.25.25 0 0 1-.42.27L3.365.93 1.31 4.155a.25.25 0 0 1-.42-.27L3.155.33a.25.25 0 0 1 .21-.114z" id="i"/>
        <path d="M1.31.27 3.365 3.5 5.42.27a.25.25 0 0 1 .42.27L3.575 4.095a.245.245 0 0 1-.42 0L.89.54A.226.226 0 0 1 .85.405.25.25 0 0 1 1.31.27z" id="k"/>
        <path d="M76.5 1.215a.25.25 0 0 1 .25.25.255.255 0 0 1-.25.25H.715a.255.255 0 0 1-.25-.25.25.25 0 0 1 .25-.25H76.5z" id="m"/>
        <path d="M.31.96A.25.25 0 0 1 .44 1L4 3.23a.27.27 0 0 1 .115.215.25.25 0 0 1-.115.21L.44 5.92a.25.25 0 0 1-.379-.265.244.244 0 0 1 .114-.155L3.4 3.465.175 1.41a.244.244 0 0 1-.08-.345A.26.26 0 0 1 .31.96z" id="o"/>
        <path d="M3.92.96a.26.26 0 0 1 .215.105.246.246 0 0 1-.08.345L.83 3.465 4.055 5.5a.244.244 0 0 1 .08.345.25.25 0 0 1-.345.075L.23 3.655a.25.25 0 0 1-.115-.21.27.27 0 0 1 .115-.215L3.79 1a.25.25 0 0 1 .13-.04z" id="q"/>
    </defs>
    <g fill="none" fill-rule="evenodd">
        <g transform="translate(87 17)">
            <mask id="b" fill="#fff">
                <use xlink:href="#a"/>
            </mask>
            <path fill="#000" mask="url(#b)" d="M-4.885-4.95H8.639v15.195H-4.885z"/>
        </g>
        <g transform="translate(39 47)">
            <mask id="d" fill="#fff">
                <use xlink:href="#c"/>
            </mask>
            <path fill="#000" mask="url(#d)" d="M-4.885-4.95h13.84v15.26h-13.84z"/>
        </g>
        <g>
            <mask id="f" fill="#fff">
                <use xlink:href="#e"/>
            </mask>
            <path fill="#000" mask="url(#f)" d="M-4.637-4.288h88v48.003h-88z"/>
        </g>
        <g transform="translate(81 1)">
            <mask id="h" fill="#fff">
                <use xlink:href="#g"/>
            </mask>
            <path fill="#000" mask="url(#h)" d="M-3.885-4.435h10.5V41.86h-10.5z"/>
        </g>
        <g transform="translate(79 1)">
            <mask id="j" fill="#fff">
                <use xlink:href="#i"/>
            </mask>
            <path fill="#000" mask="url(#j)" d="M-4.15-4.784h15.023V9.27H-4.15z"/>
        </g>
        <g transform="translate(79 34)">
            <mask id="l" fill="#fff">
                <use xlink:href="#k"/>
            </mask>
            <path fill="#000" mask="url(#l)" d="M-4.15-4.845h15.023V9.214H-4.15z"/>
        </g>
        <g transform="translate(1 42)">
            <mask id="n" fill="#fff">
                <use xlink:href="#m"/>
            </mask>
            <path fill="#000" mask="url(#n)" d="M-4.535-3.785H81.75v10.5H-4.535z"/>
        </g>
        <g transform="translate(74 40)">
            <mask id="p" fill="#fff">
                <use xlink:href="#o"/>
            </mask>
            <path fill="#000" mask="url(#p)" d="M-4.945-4.04h14.06v15h-14.06z"/>
        </g>
        <g transform="translate(1 40)">
            <mask id="r" fill="#fff">
                <use xlink:href="#q"/>
            </mask>
            <path fill="#000" mask="url(#r)" d="M-4.885-4.04h14.06v15h-14.06z"/>
        </g>
    </g>
</svg>
