<svg xmlns="http://www.w3.org/2000/svg" width="24" height="24" viewBox="0 0 24 24">
    <g fill="none" fill-rule="evenodd">
        <g>
            <path d="M0 0H23.998V23.998H0z"/>
            <path d="M0 0H23.998V23.998H0z"/>
            <path fill="#f28334" d="M15.944 5.815c-1.548 0-3.024.46-4.258 1.213L9.872 3.874C9.558 3.315 8.977 3 8.348 3s-1.21.34-1.524.874L1.236 13.58c-.315.558-.315 1.213 0 1.747.314.534.895.874 1.524.874h5.419C9.17 19.549 12.267 22 15.919 22c4.452 0 8.08-3.64 8.08-8.105.025-4.44-3.604-8.08-8.055-8.08zm-7.572-.68l5.274 9.149H3.123l5.25-9.149zm7.572 14.948c-2.564 0-4.79-1.602-5.685-3.858h3.701c.63 0 1.21-.34 1.524-.874.315-.534.315-1.213 0-1.747l-2.806-4.877c.944-.607 2.08-.97 3.29-.97 3.387 0 6.145 2.765 6.145 6.163 0 3.397-2.782 6.163-6.169 6.163z"/>
        </g>
    </g>
</svg>