<?xml version="1.0" encoding="UTF-8"?>
<svg width="54px" height="54px" viewBox="0 0 54 54" version="1.1" xmlns="http://www.w3.org/2000/svg" xmlns:xlink="http://www.w3.org/1999/xlink">
    <title>Group 62</title>
    <g id="Student-UI" stroke="none" stroke-width="1" fill="none" fill-rule="evenodd">
        <g id="Group-62">
            <g id="focus-copy" transform="translate(17.000000, 17.000000)" fill="#f28334" fill-rule="nonzero">
                <path d="M2.22223958,2.22223958 L6.66666667,2.22223958 L6.66666667,0 L2.22223958,0 C0.994427083,0 0,0.994427083 0,2.22223958 L0,6.66666667 L2.22223958,6.66666667 L2.22223958,2.22223958 Z" id="Path"></path>
                <path d="M2.22223958,13.3333333 L0,13.3333333 L0,17.7777604 C0,19.0055729 0.994427083,20 2.22223958,20 L6.66666667,20 L6.66666667,17.7777604 L2.22223958,17.7777604 L2.22223958,13.3333333 Z" id="Path"></path>
                <path d="M17.7777604,0 L13.3333333,0 L13.3333333,2.22223958 L17.7777604,2.22223958 L17.7777604,6.66666667 L20,6.66666667 L20,2.22223958 C20,0.994427083 19.0055729,0 17.7777604,0 Z" id="Path"></path>
                <path d="M10,6.66666667 C8.16109375,6.66666667 6.66666667,8.16109375 6.66666667,10 C6.66666667,11.8389062 8.16109375,13.3333333 10,13.3333333 C11.8389062,13.3333333 13.3333333,11.8389062 13.3333333,10 C13.3333333,8.16109375 11.8389062,6.66666667 10,6.66666667 Z" id="Path"></path>
                <path d="M17.7777604,17.7777604 L13.3333333,17.7777604 L13.3333333,20 L17.7777604,20 C19.0055729,20 20,19.0055729 20,17.7777604 L20,13.3333333 L17.7777604,13.3333333 L17.7777604,17.7777604 L17.7777604,17.7777604 Z" id="Path"></path>
            </g>
        </g>
    </g>
</svg>