<?xml version="1.0" encoding="UTF-8"?>
<svg width="59px" height="57px" viewBox="-10 -10 79 77" version="1.1" xmlns="http://www.w3.org/2000/svg" xmlns:xlink="http://www.w3.org/1999/xlink">
    <title>8D4CC2BE-5D04-46F3-A622-BB4AC0C1916A</title>
    <defs>
        <path d="M38.4,0.61 C38.5059,0.61 38.6092,0.643 38.695,0.705 L53.095,11.165 C53.18,11.227 53.243,11.315 53.275,11.415 L58.775,28.345 C58.81,28.445 58.81,28.555 58.775,28.655 L53.275,45.585 C53.243,45.685 53.18,45.773 53.095,45.835 L38.695,56.295 C38.6092,56.357 38.5059,56.39 38.4,56.39 L20.6,56.39 C20.4941,56.39 20.3908,56.357 20.305,56.295 L5.905,45.835 C5.8202,45.773 5.7572,45.685 5.725,45.585 L0.225,28.655 C0.1899,28.555 0.1899,28.445 0.225,28.345 L5.725,11.415 C5.7572,11.315 5.8202,11.227 5.905,11.165 L20.305,0.705 C20.3908,0.643 20.4941,0.61 20.6,0.61 L38.4,0.61 Z M38.24,1.61 L20.765,1.61 L6.625,11.88 L1.225,28.5 L6.625,45.12 L20.765,55.39 L38.24,55.39 L52.375,45.12 L57.775,28.5 L52.375,11.88 L38.24,1.61 Z" id="path-1"></path>
    </defs>
    <g id="Page-1" stroke="none" stroke-width="1" fill="none" fill-rule="evenodd">
        <g id="SHAPES" transform="translate(-385.000000, -6244.000000)">
            <g id="Group-4561" transform="translate(385.000000, 6244.000000)">
                <mask id="mask-2" fill="white">
                    <use xlink:href="#path-1"></use>
                </mask>
                <g id="Clip-4560"></g>
                <polygon id="Fill-4559" fill="#000000" mask="url(#mask-2)" points="-4.8013 -4.39 63.801 -4.39 63.801 61.39 -4.8013 61.39"></polygon>
            </g>
        </g>
    </g>
</svg>