<?xml version="1.0" encoding="UTF-8"?>
<svg width="57px" height="55px" viewBox="0 0 57 55" version="1.1" xmlns="http://www.w3.org/2000/svg" xmlns:xlink="http://www.w3.org/1999/xlink">
    <title>BE8E6CB7-1AAE-4CE4-8F0B-A68F2CA60E5E</title>
    <defs>
        <path d="M28.795,1.04 L56.185,20.94 C56.36,21.068 56.433,21.294 56.365,21.5 L45.905,53.7 C45.84,53.908 45.648,54.049 45.43,54.05 L11.57,54.05 C11.3446,54.061 11.1397,53.92 11.07,53.705 L0.635,21.5 C0.5672,21.294 0.6399,21.068 0.815,20.94 L28.205,1.04 C28.3807,0.912 28.6193,0.912 28.795,1.04 Z M28.5,2.07 L1.695,21.54 L11.93,53.05 L45.06,53.05 L55.3,21.55 L28.5,2.07 Z" id="path-1"></path>
    </defs>
    <g id="Page-1" stroke="none" stroke-width="1" fill="none" fill-rule="evenodd">
        <g id="SHAPES" transform="translate(-386.000000, -6066.000000)">
            <g id="Group-4572" transform="translate(386.000000, 6066.000000)">
                <mask id="mask-2" fill="white">
                    <use xlink:href="#path-1"></use>
                </mask>
                <g id="Clip-4571"></g>
                <polygon id="Fill-4570" fill="#000000" mask="url(#mask-2)" points="-4.3901 -4.056 61.39 -4.056 61.39 59.051 -4.3901 59.051"></polygon>
            </g>
        </g>
    </g>
</svg>