<?xml version="1.0" encoding="UTF-8"?>
<svg width="53px" height="53px" viewBox="-10 -10 73 73" version="1.1" xmlns="http://www.w3.org/2000/svg" xmlns:xlink="http://www.w3.org/1999/xlink">
    <title>E5F32D0D-305D-429D-94CE-2531D49AA7F8</title>
    <defs>
        <path d="M37.06,0.49998584 C37.1929,0.499 37.3206,0.551 37.415,0.645 L52.355,15.585 C52.4486,15.679 52.5008,15.807 52.5000091,15.94 L52.5000091,37.06 C52.5008,37.193 52.4486,37.321 52.355,37.415 L37.415,52.355 C37.3206,52.449 37.1929,52.501 37.06,52.5000142 L15.94,52.5000142 C15.8071,52.501 15.6794,52.449 15.585,52.355 L0.645,37.415 C0.5514,37.321 0.4992,37.193 0.499990938,37.06 L0.499990938,15.94 C0.4992,15.807 0.5514,15.679 0.645,15.585 L15.585,0.645 C15.6794,0.551 15.8071,0.499 15.94,0.49998584 L37.06,0.49998584 Z M36.855,1.5 L16.145,1.5 L1.5,16.145 L1.5,36.855 L16.145,51.5 L36.855,51.5 L51.5,36.855 L51.5,16.145 L36.855,1.5 Z" id="path-1"></path>
    </defs>
    <g id="Page-1" stroke="none" stroke-width="1" fill="none" fill-rule="evenodd">
        <g id="SHAPES" transform="translate(-258.000000, -6246.000000)">
            <g id="Group-4550" transform="translate(258.000000, 6246.000000)">
                <mask id="mask-2" fill="white">
                    <use xlink:href="#path-1"></use>
                </mask>
                <g id="Clip-4549"></g>
                <polygon id="Fill-4548" fill="#000000" mask="url(#mask-2)" points="-4.5 -4.5 57.5 -4.5 57.5 57.5 -4.5 57.5"></polygon>
            </g>
        </g>
    </g>
</svg>