<svg xmlns="http://www.w3.org/2000/svg" width="24" height="24" viewBox="0 0 24 24">
    <g fill="none" fill-rule="evenodd">
        <g>
            <path d="M0 0H23.998V23.998H0z"/>
            <path d="M0 0H23.998V23.998H0z"/>
            <path fill="#F9A722" d="M12.492 3C7.799 3 4 6.808 4 11.5S7.8 20 12.492 20c4.7 0 8.508-3.808 8.508-8.5S17.192 3 12.492 3zm5.89 5.1h-2.508c-.272-1.063-.663-2.082-1.173-3.026 1.564.535 2.865 1.623 3.681 3.026zM12.5 4.734c.706 1.02 1.258 2.15 1.623 3.366h-3.246c.365-1.215.917-2.346 1.623-3.366zM5.921 13.2c-.136-.544-.221-1.114-.221-1.7 0-.586.085-1.156.221-1.7h2.873c-.068.561-.119 1.122-.119 1.7 0 .578.051 1.139.119 1.7H5.921zm.697 1.7h2.508c.272 1.063.663 2.083 1.173 3.026-1.564-.535-2.865-1.615-3.681-3.026zm2.508-6.8H6.618c.816-1.411 2.117-2.49 3.68-3.026-.51.944-.9 1.963-1.172 3.026zM12.5 18.266c-.706-1.02-1.258-2.15-1.623-3.366h3.246c-.365 1.216-.917 2.346-1.623 3.366zm1.989-5.066h-3.978c-.076-.561-.136-1.122-.136-1.7 0-.578.06-1.148.136-1.7h3.978c.076.552.136 1.122.136 1.7 0 .578-.06 1.139-.136 1.7zm.212 4.726c.51-.943.901-1.963 1.173-3.026h2.508c-.816 1.402-2.117 2.49-3.68 3.026zm1.505-4.726c.068-.561.119-1.122.119-1.7 0-.578-.051-1.139-.119-1.7h2.873c.136.544.221 1.114.221 1.7 0 .586-.085 1.156-.221 1.7h-2.873z"/>
        </g>
    </g>
</svg>
