<?xml version="1.0" encoding="UTF-8"?>
<svg width="20px" height="20px" viewBox="0 0 24 24" version="1.1" xmlns="http://www.w3.org/2000/svg" xmlns:xlink="http://www.w3.org/1999/xlink">
    <title>42A2F64A-61B4-4804-9DAF-2D284B72A241</title>
    <g id="Iconography" stroke="none" stroke-width="1" fill="none" fill-rule="evenodd">
        <g id="Icons-/-Base-/-Bas-05" fill="#F9A722" fill-rule="nonzero">
            <path d="M9.9375,1 C5.009225,1 1,5.0095 1,9.9375 C1,14.8655 5.009225,18.875 9.9375,18.875 C11.655975,18.875 13.2617,18.386325 14.6257,17.542625 L19.4789,22.3961 C19.868575,22.7855 20.386675,23 20.9375,23 C21.488325,23 22.00615,22.7855 22.395825,22.3961 C22.7855,22.0067 23,21.488325 23,20.9375 C23,20.386675 22.7855,19.868575 22.395825,19.479175 L17.54235,14.6257 C18.386325,13.2617 18.875,11.655975 18.875,9.9375 C18.875,5.0095 14.865775,1 9.9375,1 Z M10,16 C6.69173333,16 4,13.3085333 4,10 C4,6.69146667 6.69173333,4 10,4 C13.3082667,4 16,6.69146667 16,10 C16,13.3085333 13.3082667,16 10,16 Z" id="Shape"></path>
            <path d="M6,10 L7.42857143,10 C7.42857143,8.03057143 9.03057143,6.42857143 11,6.42857143 L11,5 C8.24314286,5 6,7.24314286 6,10 Z" id="Path"></path>
        </g>
    </g>
</svg>