<svg xmlns="http://www.w3.org/2000/svg" xmlns:xlink="http://www.w3.org/1999/xlink" width="24px" height="24px" viewBox="0 0 24 24" version="1.1">
    <title>13997647-8D47-47B6-B65D-675BC2F39DA3</title>
    <g id="Iconography" stroke="none" stroke-width="1" fill="none" fill-rule="evenodd">
        <g id="Icons-/-Base-/-Bas-31">
            <rect id="Rectangle" x="4.4408921e-14" y="-3.59356989e-12" width="23.9975009" height="23.9975009"/>
            <rect id="Rectangle" x="4.4408921e-14" y="-3.59356989e-12" width="23.9975009" height="23.9975009"/>
            <path d="M12.4915,3 C7.7995,3 4,6.808 4,11.5 C4,16.192 7.7995,20 12.4915,20 C17.192,20 21,16.192 21,11.5 C21,6.808 17.192,3 12.4915,3 Z M18.382,8.1 L15.8745,8.1 C15.6025,7.0375 15.2115,6.0175 14.7015,5.074 C16.2655,5.6095 17.566,6.6975 18.382,8.1 Z M12.5,4.734 C13.2055,5.754 13.758,6.8845 14.1235,8.1 L10.8765,8.1 C11.242,6.8845 11.7945,5.754 12.5,4.734 Z M5.921,13.2 C5.785,12.656 5.7,12.0865 5.7,11.5 C5.7,10.9135 5.785,10.344 5.921,9.8 L8.794,9.8 C8.726,10.361 8.675,10.922 8.675,11.5 C8.675,12.078 8.726,12.639 8.794,13.2 L5.921,13.2 Z M6.618,14.9 L9.1255,14.9 C9.3975,15.9625 9.7885,16.9825 10.2985,17.926 C8.7345,17.3905 7.434,16.311 6.618,14.9 L6.618,14.9 Z M9.1255,8.1 L6.618,8.1 C7.434,6.689 8.7345,5.6095 10.2985,5.074 C9.7885,6.0175 9.3975,7.0375 9.1255,8.1 L9.1255,8.1 Z M12.5,18.266 C11.7945,17.246 11.242,16.1155 10.8765,14.9 L14.1235,14.9 C13.758,16.1155 13.2055,17.246 12.5,18.266 Z M14.489,13.2 L10.511,13.2 C10.4345,12.639 10.375,12.078 10.375,11.5 C10.375,10.922 10.4345,10.3525 10.511,9.8 L14.489,9.8 C14.5655,10.3525 14.625,10.922 14.625,11.5 C14.625,12.078 14.5655,12.639 14.489,13.2 Z M14.7015,17.926 C15.2115,16.9825 15.6025,15.9625 15.8745,14.9 L18.382,14.9 C17.566,16.3025 16.2655,17.3905 14.7015,17.926 L14.7015,17.926 Z M16.206,13.2 C16.274,12.639 16.325,12.078 16.325,11.5 C16.325,10.922 16.274,10.361 16.206,9.8 L19.079,9.8 C19.215,10.344 19.3,10.9135 19.3,11.5 C19.3,12.0865 19.215,12.656 19.079,13.2 L16.206,13.2 Z" id="Shape" fill="#F9A722"/>
        </g>
    </g>
</svg>
