<svg xmlns="http://www.w3.org/2000/svg" xmlns:xlink="http://www.w3.org/1999/xlink" width="24px" height="24px" viewBox="0 0 24 24" version="1.1">
    <title>4831D823-3BEC-4D1F-8712-3A1AFDC7AF9D</title>
    <defs>
        <filter id="filter-1">
            <feColorMatrix in="SourceGraphic" type="matrix" values="0 0 0 0 0.976471 0 0 0 0 0.254902 0 0 0 0.12 0 0 0 0 1.000000 0"/>
        </filter>
    </defs>
    <g id="Iconography" stroke="none" stroke-width="5" fill="none" fill-rule="evenodd">
        <g id="Icons-/-Base-/-Bas-71">
            <rect id="Rectangle" x="4.4408921e-14" y="-3.59356989e-12" width="23.9975009" height="23.9975009"/>
            <rect id="Rectangle" x="4.4408921e-14" y="-3.59356989e-12" width="23.9975009" height="23.9975009"/>
            <g filter="url(#filter-1)" id="noun_grid_389454">
                <g transform="translate(3.000000, 3.000000)">
                    <path d="M17.6802867,3.59702233 L17.6802867,1.81042184 L15.9598566,1.81042184 L15.9598566,0.02382134 L14.2394265,0.02382134 L14.2394265,1.81042184 L9.93605735,1.81042184 L9.93605735,0.02382134 L8.21562724,0.02382134 L8.21562724,1.81042184 L3.91225806,1.81042184 L3.91225806,0.02382134 L2.19641577,0.02382134 L2.19641577,1.81042184 L0.475985663,1.81042184 L0.475985663,3.59702233 L2.19641577,3.59702233 L2.19641577,8.06590571 L0.475985663,8.06590571 L0.475985663,9.8525062 L2.19641577,9.8525062 L2.19641577,14.3213896 L0.475985663,14.3213896 L0.475985663,16.1032258 L2.19641577,16.1032258 L2.19641577,17.8898263 L3.91684588,17.8898263 L3.91684588,16.1032258 L8.22021505,16.1032258 L8.22021505,17.8898263 L9.94064516,17.8898263 L9.94064516,16.1032258 L14.2440143,16.1032258 L14.2440143,17.8898263 L15.9598566,17.8898263 L15.9598566,16.1032258 L17.6802867,16.1032258 L17.6802867,14.3166253 L15.9598566,14.3166253 L15.9598566,9.84774194 L17.6802867,9.84774194 L17.6802867,8.06114144 L15.9598566,8.06114144 L15.9598566,3.59225806 L17.6802867,3.59225806 L17.6802867,3.59702233 Z M8.22021505,14.3166253 L3.91684588,14.3166253 L3.91684588,9.84774194 L8.22021505,9.84774194 L8.22021505,14.3166253 Z M8.22021505,8.06590571 L3.91684588,8.06590571 L3.91684588,3.59702233 L8.22021505,3.59702233 L8.22021505,8.06590571 Z M14.2394265,14.3166253 L9.93605735,14.3166253 L9.93605735,9.84774194 L14.2394265,9.84774194 L14.2394265,14.3166253 Z M14.2394265,8.06590571 L9.93605735,8.06590571 L9.93605735,3.59702233 L14.2394265,3.59702233 L14.2394265,8.06590571 Z" id="Shape" fill="#000000" fill-rule="nonzero"/>
                </g>
            </g>
        </g>
    </g>
</svg>