<svg xmlns="http://www.w3.org/2000/svg" xmlns:xlink="http://www.w3.org/1999/xlink" width="24px" height="24px" viewBox="0 0 24 24" version="1.1">
    <title>EBA82FDB-70BE-4775-BDFD-766913B57116</title>
    <g id="Iconography" stroke="none" stroke-width="1" fill="none" fill-rule="evenodd">
        <g id="Icons-/-Base-/-Bas-35">
            <rect id="Rectangle" x="4.4408921e-14" y="-3.59356989e-12" width="23.9975009" height="23.9975009"/>
            <rect id="Rectangle" x="4.4408921e-14" y="-3.59356989e-12" width="23.9975009" height="23.9975009"/>
            <g id="noun_grid_2613416" transform="translate(4.000000, 4.000000)" fill="#F9A722">
                <path d="M15.28888,8.88888 C15.6816267,8.88888 16,9.20725333 16,9.6 L16,15.28888 C16,15.6816267 15.6816267,16 15.28888,16 L9.6,16 C9.20725333,16 8.88888,15.6816267 8.88888,15.28888 L8.88888,9.6 C8.88888,9.20725333 9.20725333,8.88888 9.6,8.88888 L15.28888,8.88888 Z M6.4,8.88888 C6.79274667,8.88888 7.11112,9.20725333 7.11112,9.6 L7.11112,15.28888 C7.11112,15.6816267 6.79274667,16 6.4,16 L0.711109333,16 C0.318373333,16 -2.13162821e-13,15.6816267 -2.13162821e-13,15.28888 L-2.13162821e-13,9.6 C-2.13162821e-13,9.20725333 0.318376,8.88888 0.711112,8.88888 L6.4,8.88888 Z M6.4,6.96331881e-13 C6.79274667,6.96331881e-13 7.11112,0.318376 7.11112,0.711112 L7.11112,6.4 C7.11112,6.79274667 6.79274667,7.11112 6.4,7.11112 L0.711109333,7.11112 C0.318373333,7.11112 -2.13162821e-13,6.79274667 -2.13162821e-13,6.4 L-2.13162821e-13,0.711109333 C-2.13162821e-13,0.318373333 0.318376,6.96331881e-13 0.711112,6.96331881e-13 L6.4,6.96331881e-13 Z M15.28888,6.96331881e-13 C15.6816267,6.96331881e-13 16,0.318376 16,0.711112 L16,6.4 C16,6.79274667 15.6816267,7.11112 15.28888,7.11112 L9.6,7.11112 C9.20725333,7.11112 8.88888,6.79274667 8.88888,6.4 L8.88888,0.711109333 C8.88888,0.318373333 9.20725333,6.96331881e-13 9.6,6.96331881e-13 L15.28888,6.96331881e-13 Z" id="Combined-Shape"/>
            </g>
        </g>
    </g>
</svg>
